<svg width="24" height="16" viewBox="0 0 24 16" fill="none" xmlns="http://www.w3.org/2000/svg">
  <g clip-path="url(#clip0_2231_32035)">
    <mask id="mask0_2231_32035" style="mask-type:alpha" maskUnits="userSpaceOnUse" x="0" y="0" width="24" height="16">
      <path d="M21.7143 0H2.28571C1.02335 0 0 0.955126 0 2.13333V13.8667C0 15.0449 1.02335 16 2.28571 16H21.7143C22.9767 16 24 15.0449 24 13.8667V2.13333C24 0.955126 22.9767 0 21.7143 0Z" fill="white"/>
    </mask>
    <g mask="url(#mask0_2231_32035)">
      <path d="M21.7143 0H2.28571C1.02335 0 0 0.955126 0 2.13333V13.8667C0 15.0449 1.02335 16 2.28571 16H21.7143C22.9767 16 24 15.0449 24 13.8667V2.13333C24 0.955126 22.9767 0 21.7143 0Z" fill="white"/>
      <path fill-rule="evenodd" clip-rule="evenodd" d="M0 0H10.2857V7.46667H0V0Z" fill="#444379"/>
      <path fill-rule="evenodd" clip-rule="evenodd" d="M1.14282 1.06668V2.13335H2.28568V1.06668H1.14282ZM3.42854 1.06668V2.13335H4.57139V1.06668H3.42854ZM5.71425 1.06668V2.13335H6.85711V1.06668H5.71425ZM7.99997 1.06668V2.13335H9.14282V1.06668H7.99997ZM6.85711 2.13335V3.20001H7.99997V2.13335H6.85711ZM4.57139 2.13335V3.20001H5.71425V2.13335H4.57139ZM2.28568 2.13335V3.20001H3.42854V2.13335H2.28568ZM1.14282 3.20001V4.26668H2.28568V3.20001H1.14282ZM3.42854 3.20001V4.26668H4.57139V3.20001H3.42854ZM5.71425 3.20001V4.26668H6.85711V3.20001H5.71425ZM7.99997 3.20001V4.26668H9.14282V3.20001H7.99997ZM1.14282 5.33335V6.40001H2.28568V5.33335H1.14282ZM3.42854 5.33335V6.40001H4.57139V5.33335H3.42854ZM5.71425 5.33335V6.40001H6.85711V5.33335H5.71425ZM7.99997 5.33335V6.40001H9.14282V5.33335H7.99997ZM6.85711 4.26668V5.33335H7.99997V4.26668H6.85711ZM4.57139 4.26668V5.33335H5.71425V4.26668H4.57139ZM2.28568 4.26668V5.33335H3.42854V4.26668H2.28568Z" fill="#A7B6E7"/>
      <path fill-rule="evenodd" clip-rule="evenodd" d="M10.2857 0V1.06667H24V0H10.2857ZM10.2857 2.13333V3.2H24V2.13333H10.2857ZM10.2857 4.26667V5.33333H24V4.26667H10.2857ZM10.2857 6.4V7.46667H24V6.4H10.2857ZM0 8.53333V9.6H24V8.53333H0ZM0 10.6667V11.7333H24V10.6667H0ZM0 12.8V13.8667H24V12.8H0ZM0 14.9333V16H24V14.9333H0Z" fill="#ED4C49"/>
      <path d="M21.7144 0.533325H2.28582C1.33905 0.533325 0.571533 1.24967 0.571533 2.13333V13.8667C0.571533 14.7503 1.33905 15.4667 2.28582 15.4667H21.7144C22.6612 15.4667 23.4287 14.7503 23.4287 13.8667V2.13333C23.4287 1.24967 22.6612 0.533325 21.7144 0.533325Z" stroke="black" stroke-opacity="0.1"/>
    </g>
  </g>
  <defs>
    <clipPath id="clip0_2231_32035">
      <rect width="24" height="16" fill="white"/>
    </clipPath>
  </defs>
</svg>
