<svg width="265" height="265" viewBox="0 0 265 265" fill="none" xmlns="http://www.w3.org/2000/svg">
<path d="M232.596 161.3C232.596 161.3 241.341 103.668 217.093 69.0802C175.011 9.05769 103.032 16.6102 71.2374 33.3105C39.4427 50.0108 35.4677 94.5149 40.6352 115.991C45.8027 137.466 30.6977 148.978 19.5677 168.461C8.43767 187.943 14.0027 210.982 24.7352 223.305C35.4677 235.627 89.9252 257.485 161.475 237.615C233.025 217.745 232.596 161.3 232.596 161.3Z" fill="#3C9645"/>
<path opacity="0.7" d="M232.596 161.3C232.596 161.3 241.341 103.668 217.093 69.0802C175.011 9.05769 103.032 16.6102 71.2374 33.3105C39.4427 50.0108 35.4677 94.5149 40.6352 115.991C45.8027 137.466 30.6977 148.978 19.5677 168.461C8.43767 187.943 14.0027 210.982 24.7352 223.305C35.4677 235.627 89.9252 257.485 161.475 237.615C233.025 217.745 232.596 161.3 232.596 161.3Z" fill="white"/>
<g opacity="0.3">
<path d="M109.715 122.42H17.8452V247.495H109.715V122.42Z" stroke="black" stroke-width="0.53" stroke-linecap="round" stroke-linejoin="round"/>
<path d="M26.8874 127.285H20.4214V134.726H26.8874V127.285Z" stroke="black" stroke-width="0.53" stroke-linecap="round" stroke-linejoin="round"/>
<path d="M36.7399 127.285H30.2739V134.726H36.7399V127.285Z" stroke="black" stroke-width="0.53" stroke-linecap="round" stroke-linejoin="round"/>
<path d="M46.5925 127.285H40.1265V134.726H46.5925V127.285Z" stroke="black" stroke-width="0.53" stroke-linecap="round" stroke-linejoin="round"/>
<path d="M56.445 127.285H49.979V134.726H56.445V127.285Z" stroke="black" stroke-width="0.53" stroke-linecap="round" stroke-linejoin="round"/>
<path d="M66.298 127.285H59.832V134.726H66.298V127.285Z" stroke="black" stroke-width="0.53" stroke-linecap="round" stroke-linejoin="round"/>
<path d="M76.1506 127.285H69.6846V134.726H76.1506V127.285Z" stroke="black" stroke-width="0.53" stroke-linecap="round" stroke-linejoin="round"/>
<path d="M86.0031 127.285H79.5371V134.726H86.0031V127.285Z" stroke="black" stroke-width="0.53" stroke-linecap="round" stroke-linejoin="round"/>
<path d="M95.8561 127.285H89.3901V134.726H95.8561V127.285Z" stroke="black" stroke-width="0.53" stroke-linecap="round" stroke-linejoin="round"/>
<path d="M105.709 127.285H99.2427V134.726H105.709V127.285Z" stroke="black" stroke-width="0.53" stroke-linecap="round" stroke-linejoin="round"/>
<path d="M26.8874 139.877H20.4214V147.318H26.8874V139.877Z" stroke="black" stroke-width="0.53" stroke-linecap="round" stroke-linejoin="round"/>
<path d="M36.7399 139.877H30.2739V147.318H36.7399V139.877Z" stroke="black" stroke-width="0.53" stroke-linecap="round" stroke-linejoin="round"/>
<path d="M46.5925 139.877H40.1265V147.318H46.5925V139.877Z" stroke="black" stroke-width="0.53" stroke-linecap="round" stroke-linejoin="round"/>
<path d="M56.445 139.877H49.979V147.318H56.445V139.877Z" stroke="black" stroke-width="0.53" stroke-linecap="round" stroke-linejoin="round"/>
<path d="M66.298 139.877H59.832V147.318H66.298V139.877Z" stroke="black" stroke-width="0.53" stroke-linecap="round" stroke-linejoin="round"/>
<path d="M76.1506 139.877H69.6846V147.318H76.1506V139.877Z" stroke="black" stroke-width="0.53" stroke-linecap="round" stroke-linejoin="round"/>
<path d="M86.0031 139.877H79.5371V147.318H86.0031V139.877Z" stroke="black" stroke-width="0.53" stroke-linecap="round" stroke-linejoin="round"/>
<path d="M95.8561 139.877H89.3901V147.318H95.8561V139.877Z" stroke="black" stroke-width="0.53" stroke-linecap="round" stroke-linejoin="round"/>
<path d="M105.709 139.877H99.2427V147.318H105.709V139.877Z" stroke="black" stroke-width="0.53" stroke-linecap="round" stroke-linejoin="round"/>
<path d="M26.8874 152.471H20.4214V159.912H26.8874V152.471Z" stroke="black" stroke-width="0.53" stroke-linecap="round" stroke-linejoin="round"/>
<path d="M36.7399 152.471H30.2739V159.912H36.7399V152.471Z" stroke="black" stroke-width="0.53" stroke-linecap="round" stroke-linejoin="round"/>
<path d="M46.5925 152.471H40.1265V159.912H46.5925V152.471Z" stroke="black" stroke-width="0.53" stroke-linecap="round" stroke-linejoin="round"/>
<path d="M56.445 152.471H49.979V159.912H56.445V152.471Z" stroke="black" stroke-width="0.53" stroke-linecap="round" stroke-linejoin="round"/>
<path d="M66.298 152.471H59.832V159.912H66.298V152.471Z" stroke="black" stroke-width="0.53" stroke-linecap="round" stroke-linejoin="round"/>
<path d="M76.1506 152.471H69.6846V159.912H76.1506V152.471Z" stroke="black" stroke-width="0.53" stroke-linecap="round" stroke-linejoin="round"/>
<path d="M86.0031 152.471H79.5371V159.912H86.0031V152.471Z" stroke="black" stroke-width="0.53" stroke-linecap="round" stroke-linejoin="round"/>
<path d="M95.8561 152.471H89.3901V159.912H95.8561V152.471Z" stroke="black" stroke-width="0.53" stroke-linecap="round" stroke-linejoin="round"/>
<path d="M105.709 152.471H99.2427V159.912H105.709V152.471Z" stroke="black" stroke-width="0.53" stroke-linecap="round" stroke-linejoin="round"/>
<path d="M26.8874 165.062H20.4214V172.504H26.8874V165.062Z" stroke="black" stroke-width="0.53" stroke-linecap="round" stroke-linejoin="round"/>
<path d="M36.7399 165.062H30.2739V172.504H36.7399V165.062Z" stroke="black" stroke-width="0.53" stroke-linecap="round" stroke-linejoin="round"/>
<path d="M46.5925 165.062H40.1265V172.504H46.5925V165.062Z" stroke="black" stroke-width="0.53" stroke-linecap="round" stroke-linejoin="round"/>
<path d="M56.445 165.062H49.979V172.504H56.445V165.062Z" stroke="black" stroke-width="0.53" stroke-linecap="round" stroke-linejoin="round"/>
<path d="M66.298 165.062H59.832V172.504H66.298V165.062Z" stroke="black" stroke-width="0.53" stroke-linecap="round" stroke-linejoin="round"/>
<path d="M76.1506 165.062H69.6846V172.504H76.1506V165.062Z" stroke="black" stroke-width="0.53" stroke-linecap="round" stroke-linejoin="round"/>
<path d="M86.0031 165.062H79.5371V172.504H86.0031V165.062Z" stroke="black" stroke-width="0.53" stroke-linecap="round" stroke-linejoin="round"/>
<path d="M95.8561 165.062H89.3901V172.504H95.8561V165.062Z" stroke="black" stroke-width="0.53" stroke-linecap="round" stroke-linejoin="round"/>
<path d="M105.709 165.062H99.2427V172.504H105.709V165.062Z" stroke="black" stroke-width="0.53" stroke-linecap="round" stroke-linejoin="round"/>
<path d="M26.8874 177.656H20.4214V185.097H26.8874V177.656Z" stroke="black" stroke-width="0.53" stroke-linecap="round" stroke-linejoin="round"/>
<path d="M36.7399 177.656H30.2739V185.097H36.7399V177.656Z" stroke="black" stroke-width="0.53" stroke-linecap="round" stroke-linejoin="round"/>
<path d="M46.5925 177.656H40.1265V185.097H46.5925V177.656Z" stroke="black" stroke-width="0.53" stroke-linecap="round" stroke-linejoin="round"/>
<path d="M56.445 177.656H49.979V185.097H56.445V177.656Z" stroke="black" stroke-width="0.53" stroke-linecap="round" stroke-linejoin="round"/>
<path d="M66.298 177.656H59.832V185.097H66.298V177.656Z" stroke="black" stroke-width="0.53" stroke-linecap="round" stroke-linejoin="round"/>
<path d="M76.1506 177.656H69.6846V185.097H76.1506V177.656Z" stroke="black" stroke-width="0.53" stroke-linecap="round" stroke-linejoin="round"/>
<path d="M86.0031 177.656H79.5371V185.097H86.0031V177.656Z" stroke="black" stroke-width="0.53" stroke-linecap="round" stroke-linejoin="round"/>
<path d="M95.8561 177.656H89.3901V185.097H95.8561V177.656Z" stroke="black" stroke-width="0.53" stroke-linecap="round" stroke-linejoin="round"/>
<path d="M105.709 177.656H99.2427V185.097H105.709V177.656Z" stroke="black" stroke-width="0.53" stroke-linecap="round" stroke-linejoin="round"/>
<path d="M26.8874 190.248H20.4214V197.689H26.8874V190.248Z" stroke="black" stroke-width="0.53" stroke-linecap="round" stroke-linejoin="round"/>
<path d="M36.7399 190.248H30.2739V197.689H36.7399V190.248Z" stroke="black" stroke-width="0.53" stroke-linecap="round" stroke-linejoin="round"/>
<path d="M46.5925 190.248H40.1265V197.689H46.5925V190.248Z" stroke="black" stroke-width="0.53" stroke-linecap="round" stroke-linejoin="round"/>
<path d="M56.445 190.248H49.979V197.689H56.445V190.248Z" stroke="black" stroke-width="0.53" stroke-linecap="round" stroke-linejoin="round"/>
<path d="M66.298 190.248H59.832V197.689H66.298V190.248Z" stroke="black" stroke-width="0.53" stroke-linecap="round" stroke-linejoin="round"/>
<path d="M76.1506 190.248H69.6846V197.689H76.1506V190.248Z" stroke="black" stroke-width="0.53" stroke-linecap="round" stroke-linejoin="round"/>
<path d="M86.0031 190.248H79.5371V197.689H86.0031V190.248Z" stroke="black" stroke-width="0.53" stroke-linecap="round" stroke-linejoin="round"/>
<path d="M95.8561 190.248H89.3901V197.689H95.8561V190.248Z" stroke="black" stroke-width="0.53" stroke-linecap="round" stroke-linejoin="round"/>
<path d="M105.709 190.248H99.2427V197.689H105.709V190.248Z" stroke="black" stroke-width="0.53" stroke-linecap="round" stroke-linejoin="round"/>
<path d="M26.8874 202.842H20.4214V210.283H26.8874V202.842Z" stroke="black" stroke-width="0.53" stroke-linecap="round" stroke-linejoin="round"/>
<path d="M36.7399 202.842H30.2739V210.283H36.7399V202.842Z" stroke="black" stroke-width="0.53" stroke-linecap="round" stroke-linejoin="round"/>
<path d="M46.5925 202.842H40.1265V210.283H46.5925V202.842Z" stroke="black" stroke-width="0.53" stroke-linecap="round" stroke-linejoin="round"/>
<path d="M56.445 202.842H49.979V210.283H56.445V202.842Z" stroke="black" stroke-width="0.53" stroke-linecap="round" stroke-linejoin="round"/>
<path d="M66.298 202.842H59.832V210.283H66.298V202.842Z" stroke="black" stroke-width="0.53" stroke-linecap="round" stroke-linejoin="round"/>
<path d="M76.1506 202.842H69.6846V210.283H76.1506V202.842Z" stroke="black" stroke-width="0.53" stroke-linecap="round" stroke-linejoin="round"/>
<path d="M86.0031 202.842H79.5371V210.283H86.0031V202.842Z" stroke="black" stroke-width="0.53" stroke-linecap="round" stroke-linejoin="round"/>
<path d="M95.8561 202.842H89.3901V210.283H95.8561V202.842Z" stroke="black" stroke-width="0.53" stroke-linecap="round" stroke-linejoin="round"/>
<path d="M105.709 202.842H99.2427V210.283H105.709V202.842Z" stroke="black" stroke-width="0.53" stroke-linecap="round" stroke-linejoin="round"/>
<path d="M26.8874 215.434H20.4214V222.875H26.8874V215.434Z" stroke="black" stroke-width="0.53" stroke-linecap="round" stroke-linejoin="round"/>
<path d="M36.7399 215.434H30.2739V222.875H36.7399V215.434Z" stroke="black" stroke-width="0.53" stroke-linecap="round" stroke-linejoin="round"/>
<path d="M46.5925 215.434H40.1265V222.875H46.5925V215.434Z" stroke="black" stroke-width="0.53" stroke-linecap="round" stroke-linejoin="round"/>
<path d="M56.445 215.434H49.979V222.875H56.445V215.434Z" stroke="black" stroke-width="0.53" stroke-linecap="round" stroke-linejoin="round"/>
<path d="M66.298 215.434H59.832V222.875H66.298V215.434Z" stroke="black" stroke-width="0.53" stroke-linecap="round" stroke-linejoin="round"/>
<path d="M76.1506 215.434H69.6846V222.875H76.1506V215.434Z" stroke="black" stroke-width="0.53" stroke-linecap="round" stroke-linejoin="round"/>
<path d="M86.0031 215.434H79.5371V222.875H86.0031V215.434Z" stroke="black" stroke-width="0.53" stroke-linecap="round" stroke-linejoin="round"/>
<path d="M95.8561 215.434H89.3901V222.875H95.8561V215.434Z" stroke="black" stroke-width="0.53" stroke-linecap="round" stroke-linejoin="round"/>
<path d="M105.709 215.434H99.2427V222.875H105.709V215.434Z" stroke="black" stroke-width="0.53" stroke-linecap="round" stroke-linejoin="round"/>
<path d="M26.8874 228.027H20.4214V235.469H26.8874V228.027Z" stroke="black" stroke-width="0.53" stroke-linecap="round" stroke-linejoin="round"/>
<path d="M36.7399 228.027H30.2739V235.469H36.7399V228.027Z" stroke="black" stroke-width="0.53" stroke-linecap="round" stroke-linejoin="round"/>
<path d="M46.5925 228.027H40.1265V235.469H46.5925V228.027Z" stroke="black" stroke-width="0.53" stroke-linecap="round" stroke-linejoin="round"/>
<path d="M56.445 228.027H49.979V235.469H56.445V228.027Z" stroke="black" stroke-width="0.53" stroke-linecap="round" stroke-linejoin="round"/>
<path d="M66.298 228.027H59.832V235.469H66.298V228.027Z" stroke="black" stroke-width="0.53" stroke-linecap="round" stroke-linejoin="round"/>
<path d="M76.1506 228.027H69.6846V235.469H76.1506V228.027Z" stroke="black" stroke-width="0.53" stroke-linecap="round" stroke-linejoin="round"/>
<path d="M86.0031 228.027H79.5371V235.469H86.0031V228.027Z" stroke="black" stroke-width="0.53" stroke-linecap="round" stroke-linejoin="round"/>
<path d="M95.8561 228.027H89.3901V235.469H95.8561V228.027Z" stroke="black" stroke-width="0.53" stroke-linecap="round" stroke-linejoin="round"/>
<path d="M105.709 228.027H99.2427V235.469H105.709V228.027Z" stroke="black" stroke-width="0.53" stroke-linecap="round" stroke-linejoin="round"/>
<path d="M78.0481 114.518H26.9243V122.346H78.0481V114.518Z" stroke="black" stroke-width="0.53" stroke-linecap="round" stroke-linejoin="round"/>
<path d="M82.3251 111.199H80.8994V122.589H82.3251V111.199Z" stroke="black" stroke-width="0.53" stroke-linecap="round" stroke-linejoin="round"/>
</g>
<g opacity="0.3">
<path d="M73.0552 113.51V43.5078H169.95V90.5241H242.957V242.846" stroke="black" stroke-width="0.53" stroke-linecap="round" stroke-linejoin="round"/>
<path d="M169.499 95.1562V216.457" stroke="black" stroke-width="0.53" stroke-linecap="round" stroke-linejoin="round"/>
<path d="M189.268 95.1562V216.457" stroke="black" stroke-width="0.53" stroke-linecap="round" stroke-linejoin="round"/>
<path d="M194.213 95.1562V216.457" stroke="black" stroke-width="0.53" stroke-linecap="round" stroke-linejoin="round"/>
<path d="M220.072 95.1562V216.457" stroke="black" stroke-width="0.53" stroke-linecap="round" stroke-linejoin="round"/>
<path d="M225.011 95.1562V216.457" stroke="black" stroke-width="0.53" stroke-linecap="round" stroke-linejoin="round"/>
<path d="M152.385 48.0078V217.979" stroke="black" stroke-width="0.53" stroke-linecap="round" stroke-linejoin="round"/>
<path d="M152.767 59.4121H166.075" stroke="black" stroke-width="0.53" stroke-linecap="round" stroke-linejoin="round"/>
<path d="M152.767 79.9453H166.075" stroke="black" stroke-width="0.53" stroke-linecap="round" stroke-linejoin="round"/>
<path d="M152.767 100.477H166.075" stroke="black" stroke-width="0.53" stroke-linecap="round" stroke-linejoin="round"/>
<path d="M152.767 121.014H166.075" stroke="black" stroke-width="0.53" stroke-linecap="round" stroke-linejoin="round"/>
<path d="M152.767 141.547H166.075" stroke="black" stroke-width="0.53" stroke-linecap="round" stroke-linejoin="round"/>
<path d="M152.767 162.078H166.075" stroke="black" stroke-width="0.53" stroke-linecap="round" stroke-linejoin="round"/>
<path d="M152.767 182.611H166.075" stroke="black" stroke-width="0.53" stroke-linecap="round" stroke-linejoin="round"/>
<path d="M89.644 57.8906H76.7173V62.0723H89.644V57.8906Z" stroke="black" stroke-width="0.53" stroke-linecap="round" stroke-linejoin="round"/>
<path d="M107.897 57.8906H94.9707V62.0723H107.897V57.8906Z" stroke="black" stroke-width="0.53" stroke-linecap="round" stroke-linejoin="round"/>
<path d="M126.145 57.8906H113.219V62.0723H126.145V57.8906Z" stroke="black" stroke-width="0.53" stroke-linecap="round" stroke-linejoin="round"/>
<path d="M144.398 57.8906H131.472V62.0723H144.398V57.8906Z" stroke="black" stroke-width="0.53" stroke-linecap="round" stroke-linejoin="round"/>
<path d="M89.644 68.3477H76.7173V72.5294H89.644V68.3477Z" stroke="black" stroke-width="0.53" stroke-linecap="round" stroke-linejoin="round"/>
<path d="M107.897 68.3477H94.9707V72.5294H107.897V68.3477Z" stroke="black" stroke-width="0.53" stroke-linecap="round" stroke-linejoin="round"/>
<path d="M126.145 68.3477H113.219V72.5294H126.145V68.3477Z" stroke="black" stroke-width="0.53" stroke-linecap="round" stroke-linejoin="round"/>
<path d="M144.398 68.3477H131.472V72.5294H144.398V68.3477Z" stroke="black" stroke-width="0.53" stroke-linecap="round" stroke-linejoin="round"/>
<path d="M89.644 78.8047H76.7173V82.9864H89.644V78.8047Z" stroke="black" stroke-width="0.53" stroke-linecap="round" stroke-linejoin="round"/>
<path d="M107.897 78.8047H94.9707V82.9864H107.897V78.8047Z" stroke="black" stroke-width="0.53" stroke-linecap="round" stroke-linejoin="round"/>
<path d="M126.145 78.8047H113.219V82.9864H126.145V78.8047Z" stroke="black" stroke-width="0.53" stroke-linecap="round" stroke-linejoin="round"/>
<path d="M144.398 78.8047H131.472V82.9864H144.398V78.8047Z" stroke="black" stroke-width="0.53" stroke-linecap="round" stroke-linejoin="round"/>
<path d="M89.644 89.2617H76.7173V93.4434H89.644V89.2617Z" stroke="black" stroke-width="0.53" stroke-linecap="round" stroke-linejoin="round"/>
<path d="M107.897 89.2617H94.9707V93.4434H107.897V89.2617Z" stroke="black" stroke-width="0.53" stroke-linecap="round" stroke-linejoin="round"/>
<path d="M126.145 89.2617H113.219V93.4434H126.145V89.2617Z" stroke="black" stroke-width="0.53" stroke-linecap="round" stroke-linejoin="round"/>
<path d="M144.398 89.2617H131.472V93.4434H144.398V89.2617Z" stroke="black" stroke-width="0.53" stroke-linecap="round" stroke-linejoin="round"/>
<path d="M89.644 99.7188H76.7173V103.9H89.644V99.7188Z" stroke="black" stroke-width="0.53" stroke-linecap="round" stroke-linejoin="round"/>
<path d="M107.897 99.7188H94.9707V103.9H107.897V99.7188Z" stroke="black" stroke-width="0.53" stroke-linecap="round" stroke-linejoin="round"/>
<path d="M126.145 99.7188H113.219V103.9H126.145V99.7188Z" stroke="black" stroke-width="0.53" stroke-linecap="round" stroke-linejoin="round"/>
<path d="M144.398 99.7188H131.472V103.9H144.398V99.7188Z" stroke="black" stroke-width="0.53" stroke-linecap="round" stroke-linejoin="round"/>
<path d="M107.897 110.176H94.9707V114.357H107.897V110.176Z" stroke="black" stroke-width="0.53" stroke-linecap="round" stroke-linejoin="round"/>
<path d="M126.145 110.176H113.219V114.357H126.145V110.176Z" stroke="black" stroke-width="0.53" stroke-linecap="round" stroke-linejoin="round"/>
<path d="M144.398 110.176H131.472V114.357H144.398V110.176Z" stroke="black" stroke-width="0.53" stroke-linecap="round" stroke-linejoin="round"/>
<path d="M126.145 122.154H113.219V126.336H126.145V122.154Z" stroke="black" stroke-width="0.53" stroke-linecap="round" stroke-linejoin="round"/>
<path d="M144.398 122.154H131.472V126.336H144.398V122.154Z" stroke="black" stroke-width="0.53" stroke-linecap="round" stroke-linejoin="round"/>
<path d="M126.145 133.559H113.219V137.74H126.145V133.559Z" stroke="black" stroke-width="0.53" stroke-linecap="round" stroke-linejoin="round"/>
<path d="M144.398 133.559H131.472V137.74H144.398V133.559Z" stroke="black" stroke-width="0.53" stroke-linecap="round" stroke-linejoin="round"/>
<path d="M126.145 144.971H113.219V149.152H126.145V144.971Z" stroke="black" stroke-width="0.53" stroke-linecap="round" stroke-linejoin="round"/>
<path d="M144.398 144.971H131.472V149.152H144.398V144.971Z" stroke="black" stroke-width="0.53" stroke-linecap="round" stroke-linejoin="round"/>
<path d="M126.145 156.377H113.219V160.559H126.145V156.377Z" stroke="black" stroke-width="0.53" stroke-linecap="round" stroke-linejoin="round"/>
<path d="M144.398 156.377H131.472V160.559H144.398V156.377Z" stroke="black" stroke-width="0.53" stroke-linecap="round" stroke-linejoin="round"/>
<path d="M126.145 167.781H113.219V171.963H126.145V167.781Z" stroke="black" stroke-width="0.53" stroke-linecap="round" stroke-linejoin="round"/>
<path d="M144.398 167.781H131.472V171.963H144.398V167.781Z" stroke="black" stroke-width="0.53" stroke-linecap="round" stroke-linejoin="round"/>
<path d="M126.145 179.193H113.219V183.375H126.145V179.193Z" stroke="black" stroke-width="0.53" stroke-linecap="round" stroke-linejoin="round"/>
<path d="M144.398 179.193H131.472V183.375H144.398V179.193Z" stroke="black" stroke-width="0.53" stroke-linecap="round" stroke-linejoin="round"/>
<path d="M126.145 190.598H113.219V194.779H126.145V190.598Z" stroke="black" stroke-width="0.53" stroke-linecap="round" stroke-linejoin="round"/>
<path d="M144.398 190.598H131.472V194.779H144.398V190.598Z" stroke="black" stroke-width="0.53" stroke-linecap="round" stroke-linejoin="round"/>
<path d="M126.145 202.004H113.219V206.186H126.145V202.004Z" stroke="black" stroke-width="0.53" stroke-linecap="round" stroke-linejoin="round"/>
<path d="M144.398 202.004H131.472V206.186H144.398V202.004Z" stroke="black" stroke-width="0.53" stroke-linecap="round" stroke-linejoin="round"/>
<path d="M126.145 213.414H113.219V217.596H126.145V213.414Z" stroke="black" stroke-width="0.53" stroke-linecap="round" stroke-linejoin="round"/>
<path d="M144.398 213.414H131.472V217.596H144.398V213.414Z" stroke="black" stroke-width="0.53" stroke-linecap="round" stroke-linejoin="round"/>
<path d="M170.257 76.1445H207.522V90.2107" stroke="black" stroke-width="0.53" stroke-linecap="round" stroke-linejoin="round"/>
<path d="M77.4756 43.4434V39.2617H148.962V43.4434" stroke="black" stroke-width="0.53" stroke-linecap="round" stroke-linejoin="round"/>
</g>
<path d="M52.2472 76.849C52.2472 76.849 51.2402 71.6391 46.7034 69.7894C42.1666 67.9397 39.2834 70.2929 38.6315 71.973C37.9796 73.6531 37.7888 76.5098 35.2713 75.3332C32.7538 74.1566 31.7415 72.8157 28.5456 74.1566C25.3497 75.4975 26.3567 78.3595 24.0035 78.8683C21.6503 79.3771 22.493 78.0256 19.9702 78.3383C17.4474 78.651 17.617 80.2251 16.9598 81.089C16.3026 81.9529 16.2867 81.2586 13.9335 81.5925C12.4941 81.8098 11.1505 82.4457 10.0698 83.421H62.0098C62.0098 83.421 63.356 80.7339 59.8262 78.7146C56.2964 76.6953 53.2595 78.8842 52.2472 76.849Z" stroke="#ADADAD" stroke-width="0.53" stroke-linecap="round" stroke-linejoin="round"/>
<path d="M70.7651 24.6763C70.7651 24.6763 70.3305 22.4291 68.3695 21.6341C66.4085 20.8391 65.1895 21.8514 64.8927 22.5775C64.5959 23.3036 64.527 24.5332 63.4405 24.0244C62.354 23.5156 61.9194 22.9644 60.5414 23.5209C59.1634 24.0774 59.598 25.3335 58.5804 25.5508C57.5628 25.7681 57.9285 25.1851 56.842 25.3335C55.7555 25.4819 55.8244 26.1285 55.5382 26.4889C55.252 26.8493 55.2467 26.5631 54.2291 26.7115C53.6081 26.8063 53.029 27.083 52.5649 27.5065H74.968C74.968 27.5065 75.551 26.3458 74.0246 25.4766C72.4982 24.6074 71.1997 25.5508 70.7651 24.6763Z" stroke="#ADADAD" stroke-width="0.53" stroke-linecap="round" stroke-linejoin="round"/>
<path d="M175.748 34.862C175.748 34.862 175.313 32.6148 173.357 31.8198C171.402 31.0248 170.177 32.0371 169.875 32.7579C169.573 33.4787 169.515 34.7189 168.423 34.2101C167.331 33.7013 166.902 33.1501 165.524 33.6801C164.146 34.2101 164.58 35.4927 163.568 35.71C162.556 35.9273 162.916 35.3496 161.824 35.4927C160.733 35.6358 160.812 36.293 160.521 36.6534C160.229 37.0138 160.229 36.7276 159.217 36.8707C158.594 36.9684 158.014 37.2466 157.547 37.671H179.956C179.956 37.671 180.533 36.5103 179.012 35.6411C177.491 34.7719 176.182 35.7312 175.748 34.862Z" stroke="#ADADAD" stroke-width="0.53" stroke-linecap="round" stroke-linejoin="round"/>
<path d="M229.49 64.804H198.983C198.683 64.8187 198.383 64.7722 198.101 64.6673C197.819 64.5625 197.561 64.4015 197.344 64.1941C197.126 63.9867 196.952 63.7372 196.834 63.4608C196.715 63.1843 196.654 62.8867 196.654 62.5859C196.654 62.2852 196.715 61.9876 196.834 61.7111C196.952 61.4347 197.126 61.1852 197.344 60.9778C197.561 60.7704 197.819 60.6094 198.101 60.5045C198.383 60.3997 198.683 60.3532 198.983 60.3679H229.49C229.791 60.3532 230.091 60.3997 230.373 60.5045C230.655 60.6094 230.912 60.7704 231.13 60.9778C231.348 61.1852 231.521 61.4347 231.64 61.7111C231.758 61.9876 231.819 62.2852 231.819 62.5859C231.819 62.8867 231.758 63.1843 231.64 63.4608C231.521 63.7372 231.348 63.9867 231.13 64.1941C230.912 64.4015 230.655 64.5625 230.373 64.6673C230.091 64.7722 229.791 64.8187 229.49 64.804Z" fill="#073044" stroke="#073044" stroke-width="0.53" stroke-linecap="round" stroke-linejoin="round"/>
<path d="M230.662 104.008L194.68 68.0264C193.233 66.5795 192.767 64.7033 193.62 63.8394C194.473 62.9755 196.36 63.4419 197.807 64.8994L233.789 100.876C235.235 102.323 235.702 104.199 234.849 105.068C233.995 105.937 232.108 105.471 230.662 104.008Z" fill="#073044" stroke="#073044" stroke-width="0.53" stroke-linecap="round" stroke-linejoin="round"/>
<path d="M194.68 100.865L230.661 64.8888C232.108 63.4419 233.979 62.9702 234.848 63.8288C235.718 64.6874 235.246 66.5689 233.788 68.0158L197.807 103.997C196.36 105.444 194.489 105.911 193.62 105.057C192.75 104.204 193.233 102.291 194.68 100.865Z" fill="#073044" stroke="#073044" stroke-width="0.53" stroke-linecap="round" stroke-linejoin="round"/>
<path d="M229.49 22.1055H198.983C198.692 22.1055 198.403 22.048 198.134 21.9364C197.864 21.8248 197.619 21.6612 197.413 21.455C197.207 21.2488 197.043 21.004 196.932 20.7346C196.82 20.4652 196.763 20.1764 196.763 19.8848C196.763 19.5931 196.82 19.3044 196.932 19.0349C197.043 18.7655 197.207 18.5207 197.413 18.3145C197.619 18.1083 197.864 17.9447 198.134 17.8331C198.403 17.7215 198.692 17.6641 198.983 17.6641H229.49C230.079 17.6641 230.644 17.898 231.06 18.3145C231.477 18.731 231.711 19.2958 231.711 19.8848C231.711 20.4737 231.477 21.0386 231.06 21.455C230.644 21.8715 230.079 22.1055 229.49 22.1055Z" fill="#073044" stroke="#073044" stroke-width="0.53" stroke-linecap="round" stroke-linejoin="round"/>
<path d="M230.662 61.3054L194.68 25.3237C193.233 23.8821 192.767 22.0059 193.62 21.1367C194.473 20.2675 196.36 20.7392 197.807 22.1967L233.789 58.1784C235.235 59.6253 235.702 61.5015 234.849 62.3654C233.995 63.2293 232.108 62.7523 230.662 61.3054Z" fill="#073044" stroke="#073044" stroke-width="0.53" stroke-linecap="round" stroke-linejoin="round"/>
<path d="M194.68 58.167L230.661 22.1853C232.108 20.7384 233.979 20.272 234.848 21.1253C235.718 21.9786 235.246 23.8707 233.788 25.3123L197.807 61.294C196.36 62.7409 194.489 63.2126 193.62 62.354C192.75 61.4954 193.233 59.6139 194.68 58.167Z" fill="#073044" stroke="#073044" stroke-width="0.53" stroke-linecap="round" stroke-linejoin="round"/>
<path d="M229.49 107.16H198.983C198.394 107.16 197.83 106.926 197.413 106.51C196.997 106.093 196.763 105.528 196.763 104.939C196.763 104.35 196.997 103.786 197.413 103.369C197.83 102.953 198.394 102.719 198.983 102.719H229.49C230.079 102.719 230.644 102.953 231.06 103.369C231.477 103.786 231.711 104.35 231.711 104.939C231.711 105.528 231.477 106.093 231.06 106.51C230.644 106.926 230.079 107.16 229.49 107.16Z" fill="#073044" stroke="#073044" stroke-width="0.53" stroke-linecap="round" stroke-linejoin="round"/>
<path d="M230.662 146.36L194.68 110.378C193.233 108.937 192.767 107.061 193.62 106.191C194.473 105.322 196.36 105.794 197.807 107.251L233.789 143.233C235.235 144.68 235.702 146.551 234.849 147.42C233.995 148.289 232.108 147.807 230.662 146.36Z" fill="#073044" stroke="#073044" stroke-width="0.53" stroke-linecap="round" stroke-linejoin="round"/>
<path d="M194.68 143.222L230.661 107.24C232.108 105.793 233.979 105.327 234.848 106.18C235.718 107.033 235.246 108.925 233.788 110.367L197.807 146.349C196.36 147.796 194.489 148.267 193.62 147.409C192.75 146.55 193.233 144.69 194.68 143.222Z" fill="#073044" stroke="#073044" stroke-width="0.53" stroke-linecap="round" stroke-linejoin="round"/>
<path d="M229.49 149.513H198.983C198.683 149.528 198.383 149.481 198.101 149.376C197.819 149.271 197.561 149.11 197.344 148.903C197.126 148.696 196.952 148.446 196.834 148.17C196.715 147.893 196.654 147.596 196.654 147.295C196.654 146.994 196.715 146.697 196.834 146.42C196.952 146.144 197.126 145.894 197.344 145.687C197.561 145.479 197.819 145.318 198.101 145.213C198.383 145.109 198.683 145.062 198.983 145.077H229.49C229.791 145.062 230.091 145.109 230.373 145.213C230.655 145.318 230.912 145.479 231.13 145.687C231.348 145.894 231.521 146.144 231.64 146.42C231.758 146.697 231.819 146.994 231.819 147.295C231.819 147.596 231.758 147.893 231.64 148.17C231.521 148.446 231.348 148.696 231.13 148.903C230.912 149.11 230.655 149.271 230.373 149.376C230.091 149.481 229.791 149.528 229.49 149.513Z" fill="#073044" stroke="#073044" stroke-width="0.53" stroke-linecap="round" stroke-linejoin="round"/>
<path d="M230.662 188.717L194.68 152.735C193.233 151.288 192.767 149.412 193.62 148.548C194.473 147.684 196.36 148.151 197.807 149.608L233.789 185.59C235.235 187.032 235.702 188.908 234.849 189.777C233.995 190.646 232.108 190.164 230.662 188.717Z" fill="#073044" stroke="#073044" stroke-width="0.53" stroke-linecap="round" stroke-linejoin="round"/>
<path d="M194.68 185.579L230.661 149.598C232.108 148.151 233.979 147.679 234.848 148.538C235.718 149.396 235.246 151.278 233.788 152.725L197.807 188.706C196.36 190.153 194.489 190.62 193.62 189.766C192.75 188.913 193.233 187.021 194.68 185.579Z" fill="#073044" stroke="#073044" stroke-width="0.53" stroke-linecap="round" stroke-linejoin="round"/>
<path d="M229.49 191.859H198.983C198.394 191.859 197.83 191.625 197.413 191.209C196.997 190.792 196.763 190.228 196.763 189.639C196.763 189.05 196.997 188.485 197.413 188.068C197.83 187.652 198.394 187.418 198.983 187.418H229.49C230.079 187.418 230.644 187.652 231.06 188.068C231.477 188.485 231.711 189.05 231.711 189.639C231.711 190.228 231.477 190.792 231.06 191.209C230.644 191.625 230.079 191.859 229.49 191.859Z" fill="#073044" stroke="#073044" stroke-width="0.53" stroke-linecap="round" stroke-linejoin="round"/>
<path d="M230.662 231.081L194.68 195.099C193.233 193.657 192.767 191.781 193.62 190.912C194.473 190.043 196.36 190.515 197.807 191.972L233.789 227.954C235.235 229.401 235.702 231.277 234.849 232.141C233.995 233.005 232.108 232.517 230.662 231.081Z" fill="#073044" stroke="#073044" stroke-width="0.53" stroke-linecap="round" stroke-linejoin="round"/>
<path d="M194.68 227.933L230.661 191.951C232.108 190.504 233.979 190.038 234.848 190.891C235.718 191.744 235.246 193.636 233.788 195.078L197.817 231.081C196.37 232.528 194.499 232.999 193.63 232.141C192.761 231.282 193.233 229.379 194.68 227.933Z" fill="#073044" stroke="#073044" stroke-width="0.53" stroke-linecap="round" stroke-linejoin="round"/>
<path d="M235.871 12.6191H229.04V247.489H235.871V12.6191Z" fill="#073044" stroke="#073044" stroke-width="0.53" stroke-linecap="round" stroke-linejoin="round"/>
<path d="M198.527 12.6191H191.696V247.489H198.527V12.6191Z" fill="#073044" stroke="#073044" stroke-width="0.53" stroke-linecap="round" stroke-linejoin="round"/>
<path d="M127.396 215.11L133.968 247.488H163.028L159.641 198.988L158.088 173.988L98.8397 172.223L97.4087 196.894L97.0112 247.488H125.133L127.396 215.11Z" fill="#073044" stroke="#073044" stroke-width="0.53" stroke-linecap="round" stroke-linejoin="round"/>
<path d="M113.77 87.8046C113.77 87.8046 97.2072 96.5443 93.3753 98.4046C89.5434 100.265 84.943 101.775 84.0208 104.235C83.0986 106.694 75.4348 129.229 74.2052 132.325C72.9756 135.42 75.7422 139.533 75.8959 140.45C76.0496 141.366 75.2811 143.672 75.5885 144.287C76.0248 145.037 76.2857 145.876 76.3517 146.741C76.3517 147.658 83.8671 142.75 88.6212 145.681C93.3753 148.612 96.7461 154.113 97.2072 155.343C98.1806 158.53 98.7487 161.828 98.8979 165.158C99.0463 169.297 97.0535 172.361 98.4368 174.359C99.8201 176.357 102.422 177.115 102.422 177.115C102.422 177.115 137.233 179.415 144.902 178.175C152.571 176.935 157.32 176.49 158.088 174.036C158.857 171.582 158.698 168.359 158.852 167.745C159.005 167.13 160.389 155.327 160.972 151.315C161.555 147.302 165.742 144.425 166.187 143.953C166.632 143.481 170.178 142.416 174.778 142.114C179.378 141.812 184.896 145.485 184.896 145.485C184.896 145.485 187.503 145.638 188.272 141.499C189.04 137.36 187.657 133.369 186.274 128.922C184.89 124.475 178.917 113.897 178.917 113.897C178.917 113.897 178.303 110.674 174.624 103.01C170.946 95.3466 169.563 94.8802 166.674 94.2654C163.786 93.6506 148.596 89.4371 144.133 87.8259C139.671 86.2147 131.546 85.5097 131.546 85.5097C131.546 85.5097 117.294 85.197 113.77 87.8046Z" fill="#3C9645"/>
<g opacity="0.47">
<path d="M76.3205 146.339H78.0377C78.4299 146.19 78.8804 146.021 79.3733 145.846H76.2251C76.268 146.008 76.2999 146.172 76.3205 146.339Z" fill="white"/>
<path d="M105.417 92.2207V96.6568H100.849V94.6004L100.356 94.8601V96.6568H96.8683L95.5751 97.3193V101.443H91.0065V99.4976L90.5136 99.7149V101.443H86.9785C86.5479 101.687 86.132 101.956 85.733 102.248V106.488H83.2102C83.1519 106.647 83.0989 106.812 83.0353 106.981H85.7224V111.274H81.5513C81.493 111.433 81.44 111.597 81.3817 111.767H85.7224V116.33H81.1538V112.424C80.9948 112.891 80.8252 113.368 80.6609 113.855V116.33H79.8182L79.6433 116.823H80.6715V121.116H78.1646L77.9897 121.609H80.6715V126.141H76.405C76.3485 126.31 76.2902 126.475 76.2301 126.634H80.6715V130.927H74.7302C74.6666 131.101 74.603 131.266 74.55 131.419H80.6927V135.983H74.2002C74.2426 136.152 74.2903 136.317 74.3433 136.481H80.7033V140.769H75.9333C75.9333 140.917 75.9333 141.087 75.8909 141.262H80.6927V145.401L81.1856 145.258V141.262H85.7542V144.701C85.9185 144.701 86.0828 144.733 86.2471 144.754V141.262H90.5348V145.83H88.9872C89.231 145.989 89.4748 146.148 89.708 146.323H90.5348V146.948L91.0277 147.362V146.302H95.5963V150.59H94.1759C94.3137 150.752 94.4462 150.916 94.5734 151.082H95.5963V152.46C95.7712 152.715 95.9355 152.959 96.0892 153.197V151.077H100.377V155.646H97.3665C97.4142 155.789 97.4619 155.953 97.5149 156.139H100.377V160.426H98.4318L98.5113 160.919H100.377V165.488H98.8982C98.8982 165.652 98.8982 165.816 98.8982 165.981H100.361V170.268H98.241C98.2039 170.438 98.1721 170.602 98.1403 170.761H100.35V175.33H99.407C99.6066 175.505 99.8153 175.67 100.032 175.823H100.35V176.035C100.52 176.141 100.684 176.236 100.843 176.326V175.823H105.412V177.201L105.905 177.227V175.823H110.193V177.476L110.685 177.508V175.823H115.254V177.747L115.747 177.773V175.823H120.035V177.975H120.528V175.802H125.08V178.16H125.573V175.78H129.861V178.293H130.354V175.765H134.922V178.377H135.415V175.765H139.703V178.362H140.196V175.775H144.764V178.054H144.881L145.257 177.996V175.791H149.545V177.317L150.038 177.238V175.791H154.606V176.289L155.099 176.141V175.791H156.027C156.346 175.653 156.653 175.488 156.944 175.298H155.099V170.73H158.629C158.629 170.56 158.656 170.396 158.666 170.237H155.099V165.949H159.069L159.133 165.456H155.099V160.962H159.387V163.527C159.541 162.324 159.71 160.967 159.88 159.578V156.181H160.315L160.378 155.688H159.88V151.12H161.014C161.046 150.955 161.078 150.786 161.12 150.627H159.901V146.339H163.611C163.77 146.164 163.924 146 164.078 145.846H159.891V141.277H164.459V145.464C164.629 145.302 164.793 145.148 164.952 145.003V141.293H169.24V142.883L169.733 142.772V141.272H174.301V142.125L174.789 142.088V141.272H179.077V142.703L179.57 142.862V141.272H184.138V144.982C184.34 145.099 184.509 145.199 184.631 145.279V141.267H188.309C188.341 141.104 188.368 140.94 188.389 140.774H184.631V136.486H188.299L188.219 135.988H184.631V131.441H187.09C187.043 131.276 186.995 131.112 186.942 130.948H184.652V126.671H185.458L185.246 126.178H184.652V124.869C184.493 124.524 184.329 124.174 184.159 123.809V126.141H179.591V121.577H183.073L182.818 121.084H179.591V116.791H180.566L180.296 116.299H179.591V115.011L179.098 114.126V116.293H174.81V111.73H178.329L178.165 111.237H174.81V106.944H176.49C176.421 106.785 176.347 106.621 176.278 106.451H174.831V103.298L174.678 102.969L174.338 102.269V106.451H169.77V101.888H174.148C174.063 101.718 173.983 101.554 173.898 101.395H169.77V97.102H171.386C171.254 96.9271 171.127 96.7628 170.999 96.6091H169.77V95.406C169.612 95.289 169.447 95.1811 169.277 95.0827V96.6091H164.989V93.816L164.496 93.6888V96.6091H159.901V92.4698L159.408 92.3373V96.6091H155.121V92.0458H158.354L156.589 91.5529H155.121V91.1607L154.628 91.0229V91.5794H150.059V89.6926L149.566 89.5442V91.5794H145.278V88.2033C145.104 88.1503 144.939 88.092 144.786 88.039V91.5794H140.217V86.7564L139.724 86.6557V91.5794H135.436V85.9402L134.944 85.8766V91.5741H130.38V85.4844H129.887V91.5741H125.61V85.5851L125.117 85.6116V91.5741H120.549V85.9773L120.056 86.0356V91.5741H115.752V86.9207C115.583 86.9737 115.418 87.032 115.259 87.0903V91.6006H110.691V89.4541L110.198 89.7138V91.6006H106.604L105.417 92.2207ZM105.91 92.0935H110.198V96.6568H105.91V92.0935ZM144.786 121.127H140.217V116.834H144.786V121.127ZM145.278 116.834H149.566V121.127H145.278V116.834ZM110.691 121.604H115.259V126.141H110.691V121.604ZM110.198 126.167H105.91V121.604H110.198V126.167ZM125.61 145.846V141.277H129.898V145.846H125.61ZM129.898 146.339V150.627H125.61V146.339H129.898ZM125.61 140.785V136.497H129.898V140.785H125.61ZM120.549 121.593H125.08V126.141H120.512L120.549 121.593ZM120.056 126.157H115.752V121.593H120.04L120.056 126.157ZM125.61 121.593H129.898V126.141H125.61V121.593ZM125.08 126.671V130.964H120.512V126.671H125.08ZM125.573 126.671H129.861V130.964H125.61L125.573 126.671ZM129.861 131.441V136.004H125.61V131.441H129.861ZM130.354 136.502H134.922V140.79H130.38L130.354 136.502ZM130.354 136.004V131.441H134.922V136.004H130.354ZM130.354 130.948V126.671H134.922V130.964L130.354 130.948ZM130.354 126.178V121.614H134.922V126.141L130.354 126.178ZM130.354 121.122V116.829H134.922V121.122H130.354ZM129.861 121.122H125.61V116.829H129.898L129.861 121.122ZM125.091 121.122H120.522V116.829H125.08L125.091 121.122ZM120.029 121.122H115.752V116.829H120.04L120.029 121.122ZM115.259 121.122H110.691V116.829H115.259V121.122ZM115.259 126.671V130.964H110.691V126.671H115.259ZM115.752 126.671H120.04V130.964H115.752V126.671ZM120.04 131.441V136.004H115.752V131.441H120.04ZM120.533 131.441H125.08V136.004H120.512L120.533 131.441ZM125.101 136.502V140.79H120.533V136.502H125.101ZM125.101 141.272V145.841H120.533V141.272H125.101ZM125.101 146.334V150.621H120.533V146.334H125.101ZM125.101 151.104V155.672H120.533V151.104H125.101ZM125.594 151.104H129.882V155.672H125.61L125.594 151.104ZM130.364 151.104H134.933V155.672H130.38L130.364 151.104ZM130.364 150.611V146.323H134.933V150.611H130.364ZM130.364 145.841V141.272H134.933V145.841H130.364ZM135.426 141.272H139.713V145.841H135.426V141.272ZM135.426 140.779V136.492H139.713V140.779H135.426ZM135.426 136.009V131.441H139.713V136.004L135.426 136.009ZM135.426 130.953V126.671H139.713V130.964L135.426 130.953ZM135.426 126.183V121.62H139.713V126.141L135.426 126.183ZM140.196 121.62H144.764V126.141H140.196V121.62ZM139.703 121.127H135.415V116.834H139.703V121.127ZM135.415 116.357V111.794H139.703V116.357H135.415ZM134.922 116.357H130.38V111.794H134.949L134.922 116.357ZM129.861 116.357H125.61V111.794H129.898L129.861 116.357ZM125.091 116.357H120.522V111.794H125.08L125.091 116.357ZM120.029 116.357H115.752V111.794H120.04L120.029 116.357ZM115.259 116.357H110.691V111.794H115.259V116.357ZM110.198 116.357H105.91V111.794H110.198V116.357ZM110.198 116.85V121.143H105.91V116.85H110.198ZM105.428 121.143H100.859V116.85H105.428V121.143ZM105.428 121.636V126.141H100.859V121.577L105.428 121.636ZM105.428 126.692V130.985H100.859V126.671L105.428 126.692ZM105.921 126.692H110.208V130.985H105.921V126.692ZM110.208 131.462V136.025H105.921V131.441L110.208 131.462ZM110.701 131.462H115.27V136.025H110.701V131.462ZM115.27 136.523V140.811H110.701V136.523H115.27ZM115.763 136.523H120.05V140.811H115.752L115.763 136.523ZM120.05 141.293V145.862H115.752V141.293H120.05ZM120.05 146.355V150.643H115.752V146.355H120.05ZM120.05 151.125V155.693H115.752V151.125H120.05ZM120.05 156.186V160.474H115.752V156.186H120.05ZM120.543 156.186H125.08V160.474H120.512L120.543 156.186ZM125.605 156.186H129.893V160.474H125.61L125.605 156.186ZM130.375 156.186H134.944V160.474H130.38L130.375 156.186ZM135.436 156.186H139.724V160.474H135.436V156.186ZM135.436 155.693V151.125H139.724V155.693H135.436ZM135.436 150.632V146.344H139.724V150.632H135.436ZM140.206 146.344H144.775V150.632H140.206V146.344ZM140.206 145.851V141.283H144.775V145.851H140.206ZM140.206 140.79V136.502H144.775V140.79H140.206ZM140.206 136.02V131.441H144.775V136.004L140.206 136.02ZM140.206 130.964V126.671H144.775V130.964H140.206ZM145.268 126.671H149.556V130.964H145.268V126.671ZM145.268 126.178V121.614H149.556V126.141L145.268 126.178ZM150.038 121.614H154.606V126.141H150.038V121.614ZM155.099 121.614H159.387V126.141H155.099V121.614ZM155.099 121.122V116.829H159.387V121.122H155.099ZM154.606 121.122H150.038V116.829H154.606V121.122ZM150.038 116.352V111.788H154.606V116.352H150.038ZM149.545 116.352H145.257V111.788H149.545V116.352ZM144.775 116.352H140.206V111.788H144.775V116.352ZM140.206 111.295V107.002H144.775V111.295H140.206ZM139.713 111.295H135.426V107.002H139.713V111.295ZM134.944 111.295H130.38V107.002H134.949L134.944 111.295ZM129.882 111.295H125.61V107.002H129.898L129.882 111.295ZM125.112 111.295H120.543V107.002H125.08L125.112 111.295ZM120.05 111.295H115.752V107.002H120.04L120.05 111.295ZM115.28 111.295H110.712V107.002H115.28V111.295ZM110.219 111.295H105.931V107.002H110.219V111.295ZM105.449 111.295H100.88V107.002H105.449V111.295ZM105.449 111.788V116.352H100.88V111.788H105.449ZM100.387 116.352H96.0998V111.788H100.387V116.352ZM100.387 116.844V121.137H96.0998V116.844H100.387ZM100.387 121.614V126.141H96.0998V121.577L100.387 121.614ZM95.6175 126.178H91.0489V121.614H95.6175V126.178ZM95.6175 126.671V130.964H91.0489V126.671H95.6175ZM96.1104 126.671H100.398V130.964H96.1104V126.671ZM100.398 131.441V136.004H96.1104V131.441H100.398ZM100.891 131.441H105.46V136.004H100.891V131.441ZM105.46 136.502V140.79H100.891V136.502H105.46ZM105.952 136.502H110.24V140.79H105.952V136.502ZM110.24 141.272V145.841H105.952V141.272H110.24ZM110.733 141.272H115.302V145.841H110.733V141.272ZM115.302 146.334V150.621H110.733V146.334H115.302ZM115.302 151.104V155.672H110.733V151.104H115.302ZM115.302 156.165V160.453H110.733V156.165H115.302ZM115.302 160.935V165.504H110.733V160.962L115.302 160.935ZM115.795 160.935H120.082V165.504H115.752L115.795 160.935ZM120.565 160.935H125.08V165.504H120.512L120.565 160.935ZM125.626 160.935H129.914V165.504H125.61L125.626 160.935ZM130.396 160.935H134.965V165.504H130.38L130.396 160.935ZM135.458 160.935H139.745V165.504H135.458V160.935ZM140.228 160.935H144.796V165.504H140.228V160.935ZM140.228 160.442V156.155H144.796V160.442H140.228ZM140.228 155.672V151.104H144.796V155.672H140.228ZM145.289 151.104H149.577V155.672H145.289V151.104ZM145.289 150.611V146.323H149.577V150.611H145.289ZM145.289 145.841V141.272H149.577V145.841H145.289ZM145.289 140.779V136.492H149.577V140.779H145.289ZM145.289 136.009V131.441H149.577V136.004L145.289 136.009ZM150.059 131.446H154.628V136.009H150.059V131.446ZM150.059 130.953V126.671H154.628V130.964L150.059 130.953ZM155.121 126.66H159.408V130.953H155.121V126.66ZM159.891 126.66H164.459V130.953H159.901L159.891 126.66ZM164.952 126.66H169.24V130.953H164.952V126.66ZM164.952 126.167V121.604H169.24V126.141L164.952 126.167ZM164.459 126.167H159.901V121.604H164.47L164.459 126.167ZM159.891 121.111V116.818H164.459V121.111H159.891ZM159.891 116.341V111.778H164.459V116.341H159.891ZM159.398 116.341H155.11V111.778H159.398V116.341ZM155.11 111.285V106.992H159.398V111.285H155.11ZM154.617 111.285H150.048V106.992H154.617V111.285ZM149.556 111.285H145.268V106.992H149.556V111.285ZM145.268 106.515V101.951H149.556V106.515H145.268ZM144.775 106.515H140.206V101.951H144.775V106.515ZM139.713 106.515H135.426V101.951H139.713V106.515ZM134.944 106.515H130.38V101.951H134.949L134.944 106.515ZM129.882 106.515H125.61V101.951H129.898L129.882 106.515ZM125.112 106.515H120.543V101.951H125.08L125.112 106.515ZM120.05 106.515H115.752V101.951H120.04L120.05 106.515ZM115.28 106.515H110.712V101.951H115.28V106.515ZM110.219 106.515H105.931V101.951H110.219V106.515ZM105.449 106.515H100.88V101.951H105.449V106.515ZM100.387 106.515H96.0998V101.951H100.387V106.515ZM100.387 107.008V111.301H96.0998V107.008H100.387ZM95.6175 111.301H91.0489V107.008H95.6175V111.301ZM95.6175 111.794V116.357H91.0489V111.794H95.6175ZM95.6175 116.85V121.143H91.0489V116.85H95.6175ZM90.556 121.143H86.2683V116.85H90.556V121.143ZM90.556 121.636V126.141H86.2683V121.577L90.556 121.636ZM90.556 126.692V130.985H86.2683V126.671L90.556 126.692ZM90.556 131.462V136.025H86.2683V131.441L90.556 131.462ZM91.0489 131.462H95.6175V136.025H91.0489V131.462ZM95.6175 136.523V140.811H91.0489V136.523H95.6175ZM96.1104 136.523H100.398V140.811H96.1104V136.523ZM100.398 141.293V145.862H96.1104V141.293H100.398ZM100.891 141.293H105.46V145.862H100.891V141.293ZM105.46 146.355V150.643H100.891V146.355H105.46ZM105.952 146.355H110.24V150.643H105.952V146.355ZM110.24 151.125V155.693H105.952V151.125H110.24ZM110.24 156.186V160.474H105.952V156.186H110.24ZM110.24 160.956V165.525H105.952V160.962L110.24 160.956ZM110.24 166.018V170.306H105.952V166.018H110.24ZM110.733 166.018H115.302V170.306H110.733V166.018ZM115.795 166.018H120.082V170.306H115.752L115.795 166.018ZM120.565 166.018H125.08V170.306H120.512L120.565 166.018ZM125.626 166.018H129.914V170.306H125.61L125.626 166.018ZM130.396 166.018H134.965V170.306H130.38L130.396 166.018ZM135.458 166.018H139.745V170.306H135.458V166.018ZM140.228 166.018H144.796V170.306H140.228V166.018ZM145.289 166.018H149.577V170.306H145.289V166.018ZM145.289 165.525V160.962H149.577V165.53L145.289 165.525ZM145.289 160.463V156.176H149.577V160.463H145.289ZM150.059 156.176H154.628V160.463H150.059V156.176ZM150.059 155.683V151.114H154.628V155.683H150.059ZM150.059 150.621V146.334H154.628V150.621H150.059ZM150.059 145.851V141.283H154.628V145.851H150.059ZM150.059 140.79V136.502H154.628V140.79H150.059ZM155.121 136.502H159.408V140.79H155.121V136.502ZM155.121 136.004V131.441H159.408V136.004H155.121ZM159.891 131.441H164.459V136.004H159.901L159.891 131.441ZM164.952 131.441H169.24V136.004H164.952V131.441ZM169.722 131.441H174.291V136.004H169.722V131.441ZM174.784 131.441H179.071V136.004H174.784V131.441ZM174.784 130.948V126.671H179.071V130.964L174.784 130.948ZM174.291 130.948H169.722V126.671H174.291V130.948ZM169.722 126.178V121.614H174.291V126.141L169.722 126.178ZM169.722 121.122V116.829H174.291V121.122H169.722ZM169.229 121.122H164.941V116.829H169.229V121.122ZM164.941 116.352V111.788H169.229V116.352H164.941ZM164.941 111.295V107.002H169.229V111.295H164.941ZM164.449 111.295H159.901V107.002H164.47L164.449 111.295ZM159.88 106.525V101.962H164.449V106.525H159.88ZM159.387 106.525H155.099V101.962H159.387V106.525ZM154.617 106.525H150.048V101.962H154.617V106.525ZM150.048 101.469V97.1762H154.617V101.469H150.048ZM149.556 101.469H145.268V97.1762H149.556V101.469ZM144.786 101.469H140.217V97.1762H144.786V101.469ZM139.724 101.469H135.436V97.1762H139.724V101.469ZM134.954 101.469H130.38V97.1762H134.949L134.954 101.469ZM129.893 101.469H125.61V97.1762H129.898L129.893 101.469ZM125.123 101.469H120.554V97.1762H125.08L125.123 101.469ZM120.061 101.469H115.752V97.1762H120.04L120.061 101.469ZM115.291 101.469H110.722V97.1762H115.291V101.469ZM110.23 101.469H105.942V97.1762H110.23V101.469ZM105.46 97.1762V101.469H100.891V97.1762H105.46ZM96.1104 97.1762H100.398V101.469H96.1104V97.1762ZM95.6175 101.946V106.509H91.0489V101.946H95.6175ZM86.2683 101.946H90.556V106.509H86.2683V101.946ZM86.2683 107.002H90.556V111.295H86.2683V107.002ZM86.2683 111.772H90.556V116.336H86.2683V111.772ZM81.2068 116.829H85.7754V121.122H81.2068V116.829ZM81.2068 121.599H85.7754V126.141H81.2068V121.599ZM81.2068 126.655H85.7754V130.948H81.2068V126.655ZM81.2068 131.425H85.7754V135.988H81.2068V131.425ZM81.2068 140.774V136.486H85.7754V140.774H81.2068ZM86.2683 140.774V136.486H90.556V140.774H86.2683ZM91.0383 145.835V141.267H95.6069V145.835H91.0383ZM96.0998 150.605V146.318H100.387V150.605H96.0998ZM100.87 151.098H105.438V155.667H100.87V151.098ZM100.87 156.16H105.438V160.448H100.87V156.16ZM100.87 160.93H105.438V165.498H100.87V160.93ZM100.87 165.991H105.438V170.279H100.87V165.991ZM100.87 175.341V170.772H105.438V175.341H100.87ZM105.931 175.341V170.772H110.219V175.341H105.931ZM110.701 175.341V170.772H115.27V175.341H110.701ZM115.763 175.341V170.772H120.05V175.341H115.763ZM120.533 175.341V170.772H125.08V175.341H120.533ZM125.594 175.341V170.772H129.882V175.341H125.594ZM130.364 175.341V170.772H134.933V175.341H130.364ZM135.426 175.341V170.772H139.713V175.341H135.426ZM140.196 175.341V170.772H144.764V175.341H140.196ZM145.257 175.341V170.772H149.545V175.341H145.257ZM154.606 175.341H150.038V170.772H154.606V175.341ZM154.606 170.279H150.038V165.991H154.606V170.279ZM154.606 165.509H150.038V160.962H154.606V165.509ZM159.376 160.448H155.089V156.16H159.376V160.448ZM159.376 155.678H155.089V151.109H159.376V155.678ZM159.376 150.616H155.089V146.328H159.376V150.616ZM159.376 145.846H155.089V141.277H159.376V145.846ZM159.869 140.785V136.497H164.438V140.785H159.869ZM164.931 140.785V136.497H169.219V140.785H164.931ZM169.701 140.785V136.497H174.27V140.785H169.701ZM174.762 140.785V136.497H179.05V140.785H174.762ZM184.112 140.785H179.543V136.497H184.112V140.785ZM184.112 136.015H179.543V131.441H184.112V136.015ZM184.112 126.665V130.958H179.543V126.671L184.112 126.665ZM179.05 126.172H174.762V121.609H179.05V126.172ZM179.05 116.823V121.116H174.762V116.823H179.05ZM174.28 116.33H169.711V111.767H174.28V116.33ZM174.28 106.981V111.274H169.711V106.981H174.28ZM169.219 106.488H164.931V101.925H169.219V106.488ZM169.219 97.1391V101.432H164.931V97.1391H169.219ZM164.449 97.1391V101.432H159.901V97.1391H164.449ZM159.387 97.1391V101.432H155.099V97.1391H159.387ZM154.617 92.0829V96.6462H150.048V92.0829H154.617ZM149.556 92.0829V96.6462H145.268V92.0829H149.556ZM144.786 92.0829V96.6462H140.217V92.0829H144.786ZM139.724 92.0829V96.6462H135.436V92.0829H139.724ZM134.954 92.0829V96.6462H130.38V92.0829H134.954ZM129.893 92.0829V96.6462H125.61V92.0829H129.893ZM125.123 92.0829V96.6462H120.554V92.0829H125.123ZM120.061 92.0829V96.6462H115.752V92.0829H120.061ZM115.291 92.0829V96.6462H110.722V92.0829H115.291Z" fill="white"/>
</g>
<path d="M98.8978 146.54C98.8978 146.54 97.9756 137.032 96.4439 134.117C94.9122 131.202 91.9919 125.992 91.5361 125.531" stroke="#073044" stroke-width="0.53" stroke-linecap="round" stroke-linejoin="round"/>
<path d="M93.8842 118.885C93.718 118.02 93.4967 117.167 93.2217 116.33" stroke="#073044" stroke-width="0.53" stroke-linecap="round" stroke-linejoin="round"/>
<path d="M165.826 106.436C165.826 106.436 165.068 107.39 164.056 108.847" stroke="#073044" stroke-width="0.53" stroke-linecap="round" stroke-linejoin="round"/>
<path d="M161.804 141.685C161.804 141.685 158.051 139.035 158.671 136.343C159.291 133.651 164.618 123.332 164.719 122.494" stroke="#073044" stroke-width="0.53" stroke-linecap="round" stroke-linejoin="round"/>
<path d="M172.521 132.537C173.604 132.19 174.711 131.919 175.833 131.727" stroke="#073044" stroke-width="0.53" stroke-linecap="round" stroke-linejoin="round"/>
<path d="M165.164 137.837C165.164 137.837 166.304 135.234 170.522 133.311" stroke="#073044" stroke-width="0.53" stroke-linecap="round" stroke-linejoin="round"/>
<path d="M128.276 154.5L128.424 158.003" stroke="#073044" stroke-width="0.53" stroke-linecap="round" stroke-linejoin="round"/>
<path d="M126.946 123.406L128.218 153.07" stroke="#073044" stroke-width="0.53" stroke-linecap="round" stroke-linejoin="round"/>
<path d="M113.77 87.8046C113.77 87.8046 97.2072 96.5443 93.3753 98.4046C89.5434 100.265 84.943 101.775 84.0208 104.235C83.0986 106.694 75.4348 129.229 74.2052 132.325C72.9756 135.42 75.7422 139.533 75.8959 140.45C76.0496 141.366 75.2811 143.672 75.5885 144.287C76.0248 145.037 76.2857 145.876 76.3517 146.741C76.3517 147.658 83.8671 142.75 88.6212 145.681C93.3753 148.612 96.7461 154.113 97.2072 155.343C98.1806 158.53 98.7487 161.828 98.8979 165.158C99.0463 169.297 97.0535 172.361 98.4368 174.359C99.8201 176.357 102.422 177.115 102.422 177.115C102.422 177.115 137.233 179.415 144.902 178.175C152.571 176.935 157.32 176.49 158.088 174.036C158.857 171.582 158.698 168.359 158.852 167.745C159.005 167.13 160.389 155.327 160.972 151.315C161.555 147.302 165.742 144.425 166.187 143.953C166.632 143.481 170.178 142.416 174.778 142.114C179.378 141.812 184.896 145.485 184.896 145.485C184.896 145.485 187.503 145.638 188.272 141.499C189.04 137.36 187.657 133.369 186.274 128.922C184.89 124.475 178.917 113.897 178.917 113.897C178.917 113.897 178.303 110.674 174.624 103.01C170.946 95.3466 169.563 94.8802 166.674 94.2654C163.786 93.6506 148.596 89.4371 144.133 87.8259C139.671 86.2147 131.546 85.5097 131.546 85.5097C131.546 85.5097 117.294 85.197 113.77 87.8046Z" stroke="#073044" stroke-width="0.53" stroke-linecap="round" stroke-linejoin="round"/>
<path d="M118.063 99.6406C118.063 99.6406 120.517 107.304 122.049 111.444C123.58 115.583 126.819 120.189 126.819 120.189C126.819 120.189 132.341 106.234 132.802 104.087C133.263 101.941 133.56 100.701 133.56 100.701L118.063 99.6406Z" fill="#8C8C8C" stroke="#073044" stroke-width="0.53" stroke-linecap="round" stroke-linejoin="round"/>
<path d="M113.77 95.1668C113.77 95.1668 112.392 102.523 112.392 105.438C112.392 108.353 112.545 110.961 112.545 110.961C113.012 111.028 113.489 110.965 113.922 110.777C114.355 110.59 114.728 110.287 114.999 109.901C116.059 108.523 118.349 106.89 121.041 105.56C123.734 104.23 129.85 104.67 129.85 104.67C129.85 104.67 134.62 108.046 136.443 109.44C138.266 110.834 139.973 111.284 139.973 109.747C139.973 108.21 138.743 101.315 137.826 97.3292C136.909 93.3436 136.136 91.8066 136.136 91.8066L114.517 92.7288L113.77 95.1668Z" fill="#3C9645" stroke="#073044" stroke-width="0.53" stroke-linecap="round" stroke-linejoin="round"/>
<path d="M160.452 146.948C160.452 146.948 160.828 144.595 161.115 143.471C161.401 142.347 161.772 140.37 161.957 139.899C162.143 139.427 168.816 134.731 176.331 135.86C183.846 136.989 190.8 144.595 190.991 146.195C191.182 147.796 188.547 153.991 188.076 155.963C187.604 157.935 185.161 159.064 183.836 159.344C182.711 159.49 181.57 159.459 180.454 159.254C180.454 159.254 182.521 148.654 178.292 145.538C174.063 142.422 167.867 145.819 165.424 146.662C162.98 147.504 160.828 147.87 160.452 146.948Z" fill="#3C9645" stroke="#073044" stroke-width="0.53" stroke-linecap="round" stroke-linejoin="round"/>
<path d="M117.883 171.078L127.423 186.729C127.423 186.729 124.953 190.354 119.186 192.331C113.42 194.308 104.876 194.451 101.882 193.815C98.8875 193.179 99.0836 192.167 102.216 184.916C105.348 177.666 113.42 173.712 117.883 171.078Z" fill="white" stroke="#073044" stroke-width="0.53" stroke-linecap="round" stroke-linejoin="round"/>
<path d="M123.32 176.018C123.32 176.018 120.845 177.009 120.352 177.995C119.859 178.981 116.727 183.597 116.727 183.597L136.003 170.58L135.017 169.266L123.32 176.018Z" fill="#073044" stroke="#073044" stroke-width="0.53" stroke-linecap="round" stroke-linejoin="round"/>
<path d="M153.785 163.008C153.785 163.008 167.766 163.061 175.154 161.084C182.542 159.107 186.284 157.803 186.957 155.678C187.63 153.552 181.546 143.631 178.133 142.497C174.72 141.362 167.416 142.846 163.235 144.86C159.053 146.874 148.395 152.869 148.395 152.869L153.785 163.008Z" fill="white" stroke="#073044" stroke-width="0.53" stroke-linecap="round" stroke-linejoin="round"/>
<path d="M144.006 171.72C144.006 171.72 153.239 169.224 153.742 168.434C154.246 167.645 154.962 162.122 153.377 157.437C151.792 152.752 145.607 149.46 144.001 149.391C142.395 149.323 137.721 153.541 137.721 153.541L130.497 162.551C130.497 162.551 122.875 166.431 122.017 167.814C121.158 169.198 122.186 174.964 122.292 176.368C122.398 177.773 122.361 179.755 122.865 181.409C123.368 183.062 124.571 185.241 125.425 185.267C126.278 185.294 127.062 185.797 127.841 184.896C128.62 183.995 128.234 182.607 127.905 181.971C127.576 181.335 127.757 177.55 127.995 176.967C128.234 176.384 127.64 178.504 128.451 179.289C129.262 180.073 130.115 181.329 130.809 181.748C131.504 182.167 132.012 181.467 134.62 181.08C137.228 180.693 138.171 180.714 139.263 180.163C140.355 179.612 140.853 179.946 141.664 178.282C142.385 176.622 142.884 174.873 143.148 173.082L143.195 172.42L144.006 171.72Z" fill="#DBDBDB" stroke="#073044" stroke-width="0.53" stroke-linecap="round" stroke-linejoin="round"/>
<path d="M139.252 172.367C139.252 172.367 139.189 176.517 139.284 177.736C139.336 178.551 139.336 179.369 139.284 180.185" stroke="#073044" stroke-width="0.53" stroke-linecap="round" stroke-linejoin="round"/>
<path d="M133.868 172.207C133.868 172.207 132.808 176.977 133.613 178.731C134.419 180.486 134.62 181.1 134.62 181.1" stroke="#073044" stroke-width="0.53" stroke-linecap="round" stroke-linejoin="round"/>
<path d="M128.604 171.105L128.016 176.988" stroke="#073044" stroke-width="0.53" stroke-linecap="round" stroke-linejoin="round"/>
<path d="M128.922 177.767C128.922 177.767 130.947 175.917 133.39 177.052" stroke="#073044" stroke-width="0.53" stroke-linecap="round" stroke-linejoin="round"/>
<path d="M135.617 176.602C135.617 176.602 138.055 175.186 139.29 176.602C139.29 176.602 140.848 176.013 141.685 178.303" stroke="#073044" stroke-width="0.53" stroke-linecap="round" stroke-linejoin="round"/>
<path d="M132.998 162.006C132.998 162.006 140.084 163.538 142.591 170.417" stroke="#073044" stroke-width="0.53" stroke-linecap="round" stroke-linejoin="round"/>
<path d="M124.142 195.65C124.142 195.65 124.969 194.707 122.165 192.81C121.425 192.263 120.53 191.968 119.61 191.968C118.691 191.968 117.795 192.263 117.056 192.81C117.056 192.81 116.234 190.912 114.75 190.721L113.266 190.536C113.266 190.536 113.102 186.932 111.289 186.55C109.477 186.169 108.639 188.257 108.639 188.257C108.639 188.257 106.169 185.983 104.685 186.55C104.259 186.708 103.874 186.961 103.56 187.29C103.246 187.618 103.011 188.014 102.873 188.448C102.873 188.448 100.896 185.607 99.5762 186.365C98.2565 187.123 97.9279 189.396 97.9279 189.396C97.9279 189.396 96.2796 188.448 95.1295 189.778C93.9794 191.108 94.1384 192.243 94.1384 192.243C94.1384 192.243 92.4901 190.154 91.0114 191.67C90.5907 192.055 90.2557 192.525 90.0284 193.048C89.801 193.571 89.6863 194.137 89.6917 194.707C89.6917 194.707 88.0434 194.135 87.8791 195.083L87.7148 196.032H126.267L124.142 195.65Z" fill="#9E9E9E" stroke="#073044" stroke-width="0.53" stroke-linecap="round" stroke-linejoin="round"/>
<path d="M84.7046 139.787C84.7046 139.787 72.3344 142.798 71.6666 144.637C70.9988 146.476 72.1648 154.664 72.6683 156.339C73.1718 158.014 75.8483 158.682 78.3499 159.519C80.8515 160.356 88.7167 162.169 91.2236 162.36C93.7305 162.551 96.407 162.863 97.5836 160.86C98.7602 158.857 98.5853 156.848 99.2531 153.17C99.9209 149.491 102.597 150.159 97.414 145.479C92.2306 140.799 86.8776 139.787 84.7046 139.787Z" fill="#3C9645" stroke="#073044" stroke-width="0.53" stroke-linecap="round" stroke-linejoin="round"/>
<path d="M75.5093 152.327L80.1892 172.891L93.2325 173.723L95.8825 157.34C95.8825 157.34 94.3773 151.993 87.5244 149.82C80.6715 147.647 75.5093 152.327 75.5093 152.327Z" fill="white" stroke="#073044" stroke-width="0.53" stroke-linecap="round" stroke-linejoin="round"/>
<path d="M95.7391 182.086C95.7391 182.086 95.4052 169.212 95.5695 168.211C95.7338 167.209 94.3982 164.193 86.5595 164.193C78.7208 164.193 73.5215 169.88 73.8395 171.216C74.1575 172.551 76.3464 181.079 76.3464 181.079C76.1281 182.405 76.0164 183.747 76.0125 185.091C76.0125 187.264 74.1734 188.939 74.8412 191.451C75.509 193.963 78.6837 199.142 80.6712 198.304C82.6587 197.467 83.3477 197.302 82.6746 194.796C82.0015 192.289 81.5086 190.45 81.5086 190.45C81.5086 190.45 83.512 196.969 84.5137 198.638C84.8728 199.277 85.4152 199.794 86.0708 200.122C86.7264 200.449 87.4652 200.573 88.1919 200.477L89.1989 200.313C89.7202 200.699 90.3308 200.948 90.9739 201.035C91.617 201.122 92.2717 201.045 92.8771 200.811C94.8805 199.979 95.2144 198.638 95.2144 198.638C95.2144 198.638 96.7196 199.475 97.3874 196.131C98.0552 192.787 98.8926 188.944 97.9174 185.934C96.9422 182.924 95.7391 182.086 95.7391 182.086Z" fill="#DBDBDB" stroke="#073044" stroke-width="0.53" stroke-linecap="round" stroke-linejoin="round"/>
<path d="M76.3467 181.081C76.3467 181.081 76.8449 177.901 83.8674 177.238C90.8899 176.576 93.7307 179.575 93.7307 179.575" stroke="#073044" stroke-width="0.53" stroke-linecap="round" stroke-linejoin="round"/>
<path d="M80.6924 186.432C80.6924 186.432 77.0142 184.593 75.3447 187.768" stroke="#073044" stroke-width="0.53" stroke-linecap="round" stroke-linejoin="round"/>
<path d="M89.2201 200.309C89.2201 200.309 87.9163 191.326 87.5029 189.895L89.2201 200.309Z" fill="white"/>
<path d="M89.2201 200.309C89.2201 200.309 87.9163 191.326 87.5029 189.895" stroke="#073044" stroke-width="0.53" stroke-linecap="round" stroke-linejoin="round"/>
<path d="M95.2359 198.634C95.2359 198.634 94.4674 190.609 94.3667 188.871L95.2359 198.634Z" fill="white"/>
<path d="M95.2359 198.634C95.2359 198.634 94.4674 190.609 94.3667 188.871" stroke="#073044" stroke-width="0.53" stroke-linecap="round" stroke-linejoin="round"/>
<path d="M106.646 80.2051C106.646 80.2051 107.033 84.8426 108.581 86.1941C110.129 87.5456 110.346 88.5102 110.346 88.5102V80.2157L106.646 80.2051Z" fill="white" stroke="#073044" stroke-width="0.53" stroke-linecap="round" stroke-linejoin="round"/>
<path d="M109.901 83.2109C109.901 83.2109 111.258 93.7102 113.314 96.7842C115.371 99.8582 118.423 106.006 120.538 106.711C122.653 107.416 127.137 109.112 132.14 105.651C137.143 102.19 138.722 93.3975 139.507 89.8041L140.291 86.216C140.291 86.216 144.833 85.2567 145.459 80.4708C146.084 75.6849 145.013 75.4941 145.013 75.4941C145.013 75.4941 142.761 77.3809 129.85 77.5823C116.939 77.7837 113.219 77.9586 111.3 77.7095C110.242 77.5509 109.163 77.594 108.12 77.8367L109.901 83.2109Z" fill="white" stroke="#073044" stroke-width="0.53" stroke-linecap="round" stroke-linejoin="round"/>
<path d="M109.18 81.964C109.18 81.964 109.71 85.0751 110.325 88.4989C110.94 91.9227 111.735 95.6751 112.265 96.9789C113.325 99.5335 115.561 104.526 118.005 106.227C120.448 107.929 124.068 109.842 128 108.676C131.933 107.51 135.548 104.966 136.931 102.189C138.314 99.4116 138.632 99.2102 139.374 95.0656C140.116 90.921 140.758 84.8578 140.758 84.8578L141.611 79.8652L138.431 80.7132C138.431 80.7132 139.385 83.1565 139.385 84.6458C139.385 86.1351 137.684 93.5763 137.366 94.8536C137.048 96.1309 136.194 97.0849 135.346 97.2969C134.498 97.5089 133.645 97.6202 131.636 96.3429C129.628 95.0656 126.638 95.1716 124.746 95.2829C122.854 95.3942 122.939 94.3289 120.172 95.1769C117.406 96.0249 114.872 97.0902 114.872 97.0902C114.872 97.0902 113.065 96.5602 112.005 92.5216C110.945 88.483 110.516 82.2078 110.516 82.2078L109.18 81.964Z" fill="#073044" stroke="#073044" stroke-width="0.53" stroke-linecap="round" stroke-linejoin="round"/>
<path d="M127.062 94.1918C126.491 94.9367 125.768 95.5526 124.942 95.9991C123.665 96.6351 121.762 96.2111 121.328 95.3578C120.893 94.5045 121.752 87.1746 121.752 87.1746L120.374 84.832" fill="white"/>
<path d="M127.062 94.1918C126.491 94.9367 125.768 95.5526 124.942 95.9991C123.665 96.6351 121.762 96.2111 121.328 95.3578C120.893 94.5045 121.752 87.1746 121.752 87.1746L120.374 84.832" stroke="#073044" stroke-width="0.53" stroke-linecap="round" stroke-linejoin="round"/>
<path d="M118.45 86.9193C118.45 87.7673 118.026 88.4563 117.496 88.4563C116.966 88.4563 116.537 87.7673 116.537 86.9193C116.537 86.0713 116.966 85.377 117.496 85.377C118.026 85.377 118.45 86.0554 118.45 86.9193Z" fill="#073044" stroke="#073044" stroke-width="0.53" stroke-linecap="round" stroke-linejoin="round"/>
<path d="M130.677 87.3333C130.677 88.1813 130.253 88.8756 129.723 88.8756C129.193 88.8756 128.764 88.1813 128.764 87.3333C128.764 86.4853 129.193 85.791 129.723 85.791C130.253 85.791 130.677 86.48 130.677 87.3333Z" fill="#073044" stroke="#073044" stroke-width="0.53" stroke-linecap="round" stroke-linejoin="round"/>
<path d="M118.773 97.5938C118.773 97.5938 120.045 99.5071 123.766 99.8251C126.153 99.9547 128.525 99.3618 130.571 98.1237" stroke="white" stroke-width="0.53" stroke-linecap="round" stroke-linejoin="round"/>
<path d="M128.127 89.9355C128.127 89.9355 130.247 91.2128 131.837 90.7888" stroke="#073044" stroke-width="0.53" stroke-linecap="round" stroke-linejoin="round"/>
<path d="M119.515 88.4473C119.515 88.4473 118.026 90.0373 116.431 90.2546" stroke="#073044" stroke-width="0.53" stroke-linecap="round" stroke-linejoin="round"/>
<path d="M120.055 50.0213C120.055 50.0213 114.226 51.712 111.427 55.5863C108.629 59.4606 107.023 67.3099 107.023 67.3099C107.023 67.3099 105.343 68.0413 105.29 69.0642C105.246 69.7229 105.257 70.3841 105.321 71.0411C105.364 71.5234 103.837 73.3519 104.261 74.3271C104.685 75.3023 104.42 77.7509 105.321 79.8444C106.222 81.9379 107.521 83.3742 111.247 83.9095C114.973 84.4448 128.52 85.0331 131.535 84.7151C134.551 84.3971 138.309 83.1251 139.803 81.9485C141.298 80.7719 147.483 74.7829 147.154 73.2671C146.826 71.7513 146.858 69.9069 146.211 69.1914C145.564 68.4759 144.801 67.4795 144.801 67.4795C144.801 67.4795 143.1 57.7699 139.92 54.6694C138.122 52.8743 136.064 51.3609 133.814 50.1803C132.974 49.5147 131.939 49.1424 130.867 49.1203C129.224 49.168 128.18 48.2935 126.627 48.4843L125.037 48.6751C125.037 48.6751 120.967 48.2935 120.055 50.0213Z" fill="white" stroke="#073044" stroke-width="0.53" stroke-linecap="round" stroke-linejoin="round"/>
<path d="M107.023 67.3105V75.2923C107.023 75.2923 112.18 78.3663 123.225 78.5412C134.27 78.7161 139.263 77.2109 140.715 76.4212C142.167 75.6315 143.895 74.5397 143.895 74.5397C143.895 74.5397 143.503 71.7201 143.715 70.2997C143.909 69.3059 144.282 68.3558 144.817 67.496" stroke="#073044" stroke-width="0.53" stroke-linecap="round" stroke-linejoin="round"/>
<path d="M111.777 76.7126C111.777 76.7126 111.591 72.4726 112.243 70.5275C112.895 68.5824 116.807 68.0418 118.174 65.4554C119.541 62.869 119.737 55.3006 119.965 53.541" stroke="#073044" stroke-width="0.53" stroke-linecap="round" stroke-linejoin="round"/>
<path d="M135.383 76.7387C135.383 76.7387 136.496 72.4298 133.793 69.6261C131.09 66.8224 127.608 69.1597 125.843 63.9498C124.078 58.7399 125.456 51.9877 126.903 49.5391" stroke="#073044" stroke-width="0.53" stroke-linecap="round" stroke-linejoin="round"/>
<path d="M128.318 194.176C128.127 194.911 128.091 195.678 128.212 196.428L105.878 196.031L68.0045 207.352C68.3649 209.212 66.4728 207.484 66.7908 209.212L67.1035 210.945L50.1011 220.729V222.79V234.111V236.168V247.51H245.798V182.85H128.318V194.176Z" fill="#9E9E9E" stroke="#073044" stroke-width="0.53" stroke-linecap="round" stroke-linejoin="round"/>
<path d="M166.192 182.855H128.318V194.176H166.192V182.855Z" fill="white" stroke="#073044" stroke-width="0.53" stroke-linecap="round" stroke-linejoin="round"/>
<path d="M206.122 182.855H168.249V194.176H206.122V182.855Z" fill="white" stroke="#073044" stroke-width="0.53" stroke-linecap="round" stroke-linejoin="round"/>
<path d="M105.878 196.031H68.0044V207.352H105.878V196.031Z" fill="white" stroke="#073044" stroke-width="0.53" stroke-linecap="round" stroke-linejoin="round"/>
<path d="M145.814 196.031H107.94V207.352H145.814V196.031Z" fill="white" stroke="#073044" stroke-width="0.53" stroke-linecap="round" stroke-linejoin="round"/>
<path d="M185.95 196.031H148.077V207.352H185.95V196.031Z" fill="white" stroke="#073044" stroke-width="0.53" stroke-linecap="round" stroke-linejoin="round"/>
<path d="M225.881 196.031H188.007V207.352H225.881V196.031Z" fill="white" stroke="#073044" stroke-width="0.53" stroke-linecap="round" stroke-linejoin="round"/>
<path d="M245.803 196.031H227.492V207.352H245.803V196.031Z" fill="white" stroke="#073044" stroke-width="0.53" stroke-linecap="round" stroke-linejoin="round"/>
<path d="M87.9749 209.408H50.1011V220.729H87.9749V209.408Z" fill="white" stroke="#073044" stroke-width="0.53" stroke-linecap="round" stroke-linejoin="round"/>
<path d="M127.905 209.408H90.0312V220.729H127.905V209.408Z" fill="white" stroke="#073044" stroke-width="0.53" stroke-linecap="round" stroke-linejoin="round"/>
<path d="M168.042 209.408H130.168V220.729H168.042V209.408Z" fill="white" stroke="#073044" stroke-width="0.53" stroke-linecap="round" stroke-linejoin="round"/>
<path d="M207.977 209.408H170.104V220.729H207.977V209.408Z" fill="white" stroke="#073044" stroke-width="0.53" stroke-linecap="round" stroke-linejoin="round"/>
<path d="M105.878 222.791H68.0044V234.112H105.878V222.791Z" fill="white" stroke="#073044" stroke-width="0.53" stroke-linecap="round" stroke-linejoin="round"/>
<path d="M66.2605 222.791H50.0796V234.112H66.2605V222.791Z" fill="white" stroke="#073044" stroke-width="0.53" stroke-linecap="round" stroke-linejoin="round"/>
<path d="M145.814 222.791H107.94V234.112H145.814V222.791Z" fill="white" stroke="#073044" stroke-width="0.53" stroke-linecap="round" stroke-linejoin="round"/>
<path d="M185.95 222.791H148.077V234.112H185.95V222.791Z" fill="white" stroke="#073044" stroke-width="0.53" stroke-linecap="round" stroke-linejoin="round"/>
<path d="M225.881 222.791H188.007V234.112H225.881V222.791Z" fill="white" stroke="#073044" stroke-width="0.53" stroke-linecap="round" stroke-linejoin="round"/>
<path d="M245.803 222.791H227.492V234.112H245.803V222.791Z" fill="white" stroke="#073044" stroke-width="0.53" stroke-linecap="round" stroke-linejoin="round"/>
<path d="M87.9749 236.168H50.1011V247.489H87.9749V236.168Z" fill="white" stroke="#073044" stroke-width="0.53" stroke-linecap="round" stroke-linejoin="round"/>
<path d="M127.905 236.168H90.0312V247.489H127.905V236.168Z" fill="white" stroke="#073044" stroke-width="0.53" stroke-linecap="round" stroke-linejoin="round"/>
<path d="M168.042 236.168H130.168V247.489H168.042V236.168Z" fill="white" stroke="#073044" stroke-width="0.53" stroke-linecap="round" stroke-linejoin="round"/>
<path d="M207.977 236.168H170.104V247.489H207.977V236.168Z" fill="white" stroke="#073044" stroke-width="0.53" stroke-linecap="round" stroke-linejoin="round"/>
<path d="M245.804 182.855H208.009V194.176H245.804V182.855Z" fill="white" stroke="#073044" stroke-width="0.53" stroke-linecap="round" stroke-linejoin="round"/>
<path d="M245.798 209.408H209.859V220.729H245.798V209.408Z" fill="white" stroke="#073044" stroke-width="0.53" stroke-linecap="round" stroke-linejoin="round"/>
<path d="M245.798 236.168H209.859V247.489H245.798V236.168Z" fill="white" stroke="#073044" stroke-width="0.53" stroke-linecap="round" stroke-linejoin="round"/>
<path d="M254.887 247.488H9.1582" stroke="#073044" stroke-width="0.53" stroke-linecap="round" stroke-linejoin="round"/>
</svg>
