<svg width="265" height="265" viewBox="0 0 265 265" fill="none" xmlns="http://www.w3.org/2000/svg">
<path d="M120.973 27.1992C186.693 21.3692 186.825 58.4321 216.442 92.9881C246.058 127.544 252.402 143.206 241.235 183.04C230.068 222.875 192.443 254.098 145.893 236.406C99.3433 218.715 72.679 235.701 43.317 219.976C13.955 204.251 3.037 173.909 24.5497 138.139C46.0624 102.369 39.9144 34.4178 120.973 27.1992Z" fill="#197BC0"/>
<path opacity="0.7" d="M120.973 27.1992C186.693 21.3692 186.825 58.4321 216.442 92.9881C246.058 127.544 252.402 143.206 241.235 183.04C230.068 222.875 192.443 254.098 145.893 236.406C99.3433 218.715 72.679 235.701 43.317 219.976C13.955 204.251 3.037 173.909 24.5497 138.139C46.0624 102.369 39.9144 34.4178 120.973 27.1992Z" fill="white"/>
<path d="M135.896 29.6362L125.082 31.9129C123.624 32.2199 122.691 33.6506 122.998 35.1086L125.275 45.922C125.582 47.3799 127.013 48.313 128.471 48.006L139.284 45.7292C140.742 45.4222 141.675 43.9915 141.368 42.5336L139.091 31.7202C138.784 30.2622 137.354 29.3292 135.896 29.6362Z" stroke="#073044" stroke-width="0.53" stroke-linecap="round" stroke-linejoin="round"/>
<path d="M131.498 35.5352L132.876 42.0966" stroke="#073044" stroke-width="0.53" stroke-linecap="round" stroke-linejoin="round"/>
<path d="M135.468 38.123L128.906 39.5063" stroke="#073044" stroke-width="0.53" stroke-linecap="round" stroke-linejoin="round"/>
<path d="M244.9 145.251L234.087 147.528C232.629 147.835 231.696 149.266 232.003 150.724L234.28 161.537C234.587 162.995 236.018 163.928 237.475 163.621L248.289 161.344C249.747 161.037 250.68 159.607 250.373 158.149L248.096 147.335C247.789 145.877 246.358 144.944 244.9 145.251Z" stroke="#073044" stroke-width="0.53" stroke-linecap="round" stroke-linejoin="round"/>
<path d="M243.026 151.617L239.364 157.235" stroke="#073044" stroke-width="0.53" stroke-linecap="round" stroke-linejoin="round"/>
<path d="M244.001 156.259L238.383 152.592" stroke="#073044" stroke-width="0.53" stroke-linecap="round" stroke-linejoin="round"/>
<path d="M98.904 215.641L87.8535 214.978C86.3636 214.889 85.0833 216.024 84.9939 217.514L84.3309 228.565C84.2415 230.055 85.3768 231.335 86.8667 231.424L97.9172 232.087C99.4071 232.177 100.687 231.041 100.777 229.551L101.44 218.501C101.529 217.011 100.394 215.731 98.904 215.641Z" stroke="#073044" stroke-width="0.530953" stroke-linecap="round" stroke-linejoin="round"/>
<path d="M96.6079 223.135L89.9087 222.748" stroke="#073044" stroke-width="0.53" stroke-linecap="round" stroke-linejoin="round"/>
<path d="M32.9691 138.722L22.4793 135.247C21.065 134.778 19.5386 135.545 19.0701 136.959L15.5948 147.449C15.1262 148.863 15.8929 150.39 17.3072 150.858L27.797 154.334C29.2113 154.802 30.7377 154.035 31.2062 152.621L34.6815 142.131C35.1501 140.717 34.3834 139.191 32.9691 138.722Z" stroke="#073044" stroke-width="0.53" stroke-linecap="round" stroke-linejoin="round"/>
<path d="M29.3352 142.686L20.9453 146.899" stroke="#073044" stroke-width="0.53" stroke-linecap="round" stroke-linejoin="round"/>
<path d="M24.5229 140.98C24.6236 141.188 24.6608 141.42 24.6299 141.648C24.599 141.877 24.5015 142.091 24.3494 142.264C24.1974 142.437 23.9976 142.562 23.7752 142.622C23.5527 142.682 23.3174 142.676 23.0988 142.603C22.8801 142.53 22.6878 142.394 22.546 142.212C22.4041 142.031 22.319 141.811 22.3013 141.582C22.2836 141.352 22.3341 141.122 22.4465 140.921C22.5588 140.719 22.728 140.556 22.9329 140.45C23.0716 140.378 23.2234 140.334 23.3793 140.322C23.5352 140.31 23.6919 140.329 23.8403 140.378C23.9886 140.428 24.1255 140.506 24.2428 140.61C24.3601 140.713 24.4553 140.839 24.5229 140.98V140.98Z" stroke="#073044" stroke-width="0.53" stroke-linecap="round" stroke-linejoin="round"/>
<path d="M27.8511 147.584C27.9517 147.791 27.9889 148.024 27.958 148.252C27.9272 148.48 27.8296 148.695 27.6776 148.868C27.5255 149.041 27.3258 149.165 27.1033 149.226C26.8808 149.286 26.6455 149.279 26.4269 149.206C26.2082 149.133 26.0159 148.998 25.8741 148.816C25.7322 148.634 25.6471 148.415 25.6294 148.185C25.6117 147.955 25.6622 147.725 25.7746 147.524C25.8869 147.323 26.0562 147.159 26.2611 147.054C26.3997 146.981 26.5515 146.938 26.7074 146.926C26.8633 146.913 27.0201 146.932 27.1684 146.982C27.3167 147.031 27.4536 147.11 27.5709 147.213C27.6882 147.317 27.7835 147.443 27.8511 147.584V147.584Z" stroke="#073044" stroke-width="0.53" stroke-linecap="round" stroke-linejoin="round"/>
<path d="M136.581 212.419C135.484 214.008 133.941 215.236 132.146 215.947C130.352 216.659 128.386 216.822 126.499 216.417C124.611 216.012 122.886 215.056 121.541 213.67C120.197 212.285 119.294 210.532 118.945 208.633C118.597 206.734 118.82 204.774 119.585 203.002C120.35 201.229 121.624 199.724 123.245 198.675C124.866 197.626 126.762 197.082 128.692 197.11C130.622 197.139 132.501 197.739 134.09 198.835C136.221 200.307 137.681 202.564 138.148 205.111C138.615 207.659 138.052 210.287 136.581 212.419Z" fill="#197BC0"/>
<mask id="mask0_3805_10945" style="mask-type:luminance" maskUnits="userSpaceOnUse" x="118" y="197" width="21" height="20">
<path d="M136.581 212.419C135.484 214.008 133.941 215.236 132.146 215.947C130.352 216.659 128.386 216.822 126.499 216.417C124.611 216.012 122.886 215.056 121.541 213.67C120.197 212.285 119.294 210.532 118.945 208.633C118.597 206.734 118.82 204.774 119.585 203.002C120.35 201.229 121.624 199.724 123.245 198.675C124.866 197.626 126.762 197.082 128.692 197.11C130.622 197.139 132.501 197.739 134.09 198.835C136.221 200.307 137.681 202.564 138.148 205.111C138.615 207.659 138.052 210.287 136.581 212.419Z" fill="white"/>
</mask>
<g mask="url(#mask0_3805_10945)">
<path opacity="0.3" d="M135.31 211.54C134.386 212.876 133.086 213.908 131.576 214.506C130.065 215.104 128.411 215.24 126.823 214.898C125.235 214.556 123.784 213.751 122.653 212.584C121.523 211.417 120.764 209.942 120.472 208.343C120.18 206.745 120.368 205.097 121.013 203.606C121.658 202.115 122.731 200.848 124.096 199.967C125.46 199.085 127.055 198.628 128.68 198.653C130.304 198.678 131.885 199.185 133.221 200.108C135.014 201.347 136.24 203.248 136.632 205.392C137.024 207.535 136.548 209.747 135.31 211.54Z" fill="black" fill-opacity="0.7"/>
<path d="M135.31 211.54C134.386 212.876 133.086 213.908 131.576 214.506C130.065 215.104 128.411 215.24 126.823 214.898C125.235 214.556 123.784 213.751 122.653 212.584C121.523 211.417 120.764 209.942 120.472 208.343C120.18 206.745 120.368 205.097 121.013 203.606C121.658 202.115 122.731 200.848 124.096 199.967C125.46 199.085 127.055 198.628 128.68 198.653C130.304 198.678 131.885 199.185 133.221 200.108C135.014 201.347 136.24 203.248 136.632 205.392C137.024 207.535 136.548 209.747 135.31 211.54V211.54Z" stroke="#073044" stroke-width="0.53" stroke-linecap="round" stroke-linejoin="round"/>
<path d="M130.656 202.762L131.053 202.195L132.039 202.874L131.642 203.446C132.378 204.215 132.362 205.174 131.642 206.213L131.472 206.457L130.332 205.667L130.555 205.349C130.931 204.819 130.857 204.443 130.476 204.178C130.094 203.913 129.728 203.966 129.347 204.517C128.965 205.068 128.923 205.577 129.288 206.806C129.728 208.28 129.649 209.117 129.045 209.986C128.324 211.046 127.412 211.386 126.437 210.972L126.05 211.529L125.08 210.856L125.467 210.294C124.72 209.52 124.746 208.55 125.467 207.506L125.827 206.976L126.967 207.766L126.554 208.365C126.172 208.895 126.278 209.276 126.66 209.546C127.041 209.817 127.423 209.78 127.804 209.228C128.186 208.677 128.234 208.137 127.863 206.939C127.412 205.481 127.497 204.633 128.106 203.759C128.79 202.731 129.686 202.365 130.656 202.762Z" fill="#197BC0" stroke="#073044" stroke-width="0.53" stroke-linecap="round" stroke-linejoin="round"/>
<path opacity="0.2" d="M125.828 198.952C125.829 201.234 125.236 203.477 124.108 205.461C122.98 207.445 121.355 209.101 119.393 210.267C118.928 209.015 118.724 207.681 118.796 206.347C118.867 205.013 119.211 203.707 119.808 202.512C120.404 201.316 121.239 200.256 122.262 199.397C123.285 198.537 124.473 197.897 125.753 197.516C125.805 197.993 125.83 198.472 125.828 198.952Z" fill="black" fill-opacity="0.7"/>
</g>
<path d="M136.581 212.419C135.484 214.008 133.941 215.236 132.146 215.947C130.352 216.659 128.386 216.822 126.499 216.417C124.611 216.012 122.886 215.056 121.541 213.67C120.197 212.285 119.294 210.532 118.945 208.633C118.597 206.734 118.82 204.774 119.585 203.002C120.35 201.229 121.624 199.724 123.245 198.675C124.866 197.626 126.762 197.082 128.692 197.11C130.622 197.139 132.501 197.739 134.09 198.835C136.221 200.307 137.681 202.564 138.148 205.111C138.615 207.659 138.052 210.287 136.581 212.419V212.419Z" stroke="#073044" stroke-width="0.53" stroke-linecap="round" stroke-linejoin="round"/>
<path d="M114.607 208.417C120.002 208.417 124.375 204.043 124.375 198.649C124.375 193.254 120.002 188.881 114.607 188.881C109.213 188.881 104.839 193.254 104.839 198.649C104.839 204.043 109.213 208.417 114.607 208.417Z" fill="#197BC0" stroke="#073044" stroke-width="0.53" stroke-linecap="round" stroke-linejoin="round"/>
<path opacity="0.3" d="M114.607 206.864C119.144 206.864 122.822 203.186 122.822 198.649C122.822 194.112 119.144 190.434 114.607 190.434C110.07 190.434 106.392 194.112 106.392 198.649C106.392 203.186 110.07 206.864 114.607 206.864Z" fill="black" fill-opacity="0.7"/>
<path d="M114.607 206.864C119.144 206.864 122.822 203.186 122.822 198.649C122.822 194.112 119.144 190.434 114.607 190.434C110.07 190.434 106.392 194.112 106.392 198.649C106.392 203.186 110.07 206.864 114.607 206.864Z" stroke="#073044" stroke-width="0.53" stroke-linecap="round" stroke-linejoin="round"/>
<path d="M114.008 194.076V193.387H115.206V194.076C116.266 194.293 116.796 195.088 116.796 196.355V196.63H115.408V196.243C115.408 195.576 115.143 195.321 114.676 195.321C114.21 195.321 113.945 195.576 113.945 196.243C113.945 196.911 114.21 197.372 115.196 198.162C116.393 199.121 116.786 199.853 116.786 200.918C116.786 202.185 116.256 203.001 115.196 203.213V203.891H113.998V203.213C112.938 203.001 112.408 202.185 112.408 200.918V200.282H113.791V201.013C113.791 201.681 114.083 201.92 114.549 201.92C115.015 201.92 115.312 201.681 115.312 201.013C115.312 200.346 115.047 199.869 114.056 199.095C112.858 198.146 112.466 197.404 112.466 196.334C112.461 195.104 112.98 194.304 114.008 194.076Z" fill="#197BC0" stroke="#073044" stroke-width="0.53" stroke-linecap="round" stroke-linejoin="round"/>
<path d="M169.428 206.854C172.338 202.312 171.015 196.271 166.473 193.36C161.931 190.45 155.889 191.772 152.979 196.315C150.068 200.857 151.391 206.898 155.933 209.809C160.476 212.719 166.517 211.397 169.428 206.854Z" fill="#197BC0" stroke="#073044" stroke-width="0.53" stroke-linecap="round" stroke-linejoin="round"/>
<path opacity="0.3" d="M167.221 195.999C168.327 197.189 169.055 198.681 169.313 200.285C169.571 201.89 169.348 203.534 168.671 205.012C167.994 206.489 166.895 207.732 165.511 208.585C164.128 209.437 162.523 209.86 160.899 209.8C159.275 209.74 157.705 209.2 156.389 208.247C155.072 207.295 154.067 205.974 153.501 204.451C152.936 202.927 152.834 201.27 153.21 199.69C153.586 198.109 154.423 196.675 155.614 195.57C156.403 194.835 157.33 194.263 158.341 193.886C159.353 193.51 160.428 193.337 161.506 193.377C162.584 193.417 163.644 193.669 164.624 194.119C165.605 194.569 166.487 195.207 167.221 195.999Z" fill="black" fill-opacity="0.7"/>
<path d="M167.221 195.999C168.327 197.189 169.055 198.681 169.313 200.285C169.571 201.89 169.348 203.534 168.671 205.012C167.994 206.489 166.895 207.732 165.511 208.585C164.128 209.437 162.523 209.86 160.899 209.8C159.275 209.74 157.705 209.2 156.389 208.247C155.072 207.295 154.067 205.974 153.501 204.451C152.936 202.927 152.834 201.27 153.21 199.69C153.586 198.109 154.423 196.675 155.614 195.57C156.403 194.835 157.33 194.263 158.341 193.886C159.353 193.51 160.428 193.337 161.506 193.377C162.584 193.417 163.644 193.669 164.624 194.119C165.605 194.569 166.487 195.207 167.221 195.999V195.999Z" stroke="#073044" stroke-width="0.53" stroke-linecap="round" stroke-linejoin="round"/>
<path d="M157.654 198.649L157.182 198.119L158.057 197.303L158.528 197.833C159.44 197.303 160.373 197.504 161.231 198.432L161.433 198.644L160.42 199.587L160.155 199.306C159.7 198.819 159.334 198.813 158.995 199.131C158.656 199.449 158.629 199.815 159.08 200.303C159.53 200.79 160.049 200.949 161.306 200.859C162.837 200.742 163.638 200.997 164.364 201.781C165.222 202.709 165.376 203.673 164.761 204.537L165.222 205.035L164.342 205.852L163.881 205.353C162.964 205.915 162.021 205.682 161.162 204.755L160.723 204.288L161.74 203.345L162.238 203.875C162.694 204.362 163.07 204.341 163.415 204.023C163.759 203.705 163.807 203.329 163.351 202.841C162.896 202.354 162.376 202.184 161.131 202.311C159.604 202.433 158.793 202.168 158.073 201.384C157.219 200.451 157.055 199.513 157.654 198.649Z" fill="#197BC0" stroke="#073044" stroke-width="0.53" stroke-linecap="round" stroke-linejoin="round"/>
<path opacity="0.2" d="M157.182 159.133C157.182 159.133 157.14 179.4 157.182 180.582C157.225 181.764 158.772 188.882 158.772 188.882L153.849 197.955L158.089 201.369L166.33 193.27C166.33 193.27 173.347 197.6 174.63 203.801C175.913 210.002 183.55 214.518 191.473 231.69C199.397 248.862 208.433 193.27 208.433 193.27L183.984 162.488L157.182 159.133Z" fill="black" fill-opacity="0.7"/>
<path d="M231.923 50.25L224.434 123.326L219.828 168.281L155.465 161.688L142.941 160.405L134.922 159.584L142.03 90.2067L147.017 41.5527L231.923 50.25Z" fill="white"/>
<mask id="mask1_3805_10945" style="mask-type:luminance" maskUnits="userSpaceOnUse" x="134" y="41" width="98" height="128">
<path d="M231.923 50.25L224.434 123.326L219.828 168.281L155.465 161.688L142.941 160.405L134.922 159.584L142.03 90.2067L147.017 41.5527L231.923 50.25Z" fill="white"/>
</mask>
<g mask="url(#mask1_3805_10945)">
<path d="M207.262 53.0005L170.613 49.2428C170.449 49.2261 170.284 49.2418 170.126 49.2889C169.969 49.3361 169.822 49.4138 169.695 49.5177C169.567 49.6215 169.461 49.7494 169.383 49.8942C169.305 50.0389 169.257 50.1975 169.24 50.3611C169.223 50.5247 169.239 50.6899 169.286 50.8474C169.333 51.0049 169.411 51.1516 169.515 51.2791C169.619 51.4065 169.746 51.5123 169.891 51.5903C170.036 51.6683 170.195 51.7171 170.358 51.7338L207.008 55.4915C207.338 55.5252 207.668 55.4264 207.926 55.2166C208.183 55.0069 208.347 54.7035 208.38 54.3732C208.414 54.0429 208.315 53.7127 208.106 53.4552C207.896 53.1978 207.592 53.0342 207.262 53.0005Z" fill="#073044"/>
<path d="M197.574 57.1599L179.252 55.2784C179.086 55.2621 178.92 55.312 178.791 55.4173C178.662 55.5225 178.58 55.6746 178.563 55.8402C178.555 55.922 178.563 56.0046 178.587 56.0832C178.61 56.1619 178.65 56.235 178.702 56.2985C178.754 56.362 178.818 56.4146 178.891 56.4533C178.963 56.492 179.043 56.516 179.124 56.5239L197.446 58.4054C197.612 58.4217 197.778 58.3718 197.907 58.2666C198.036 58.1613 198.118 58.0093 198.135 57.8436C198.144 57.7617 198.137 57.6789 198.113 57.5999C198.089 57.521 198.05 57.4476 197.998 57.3839C197.946 57.3203 197.881 57.2677 197.808 57.2292C197.736 57.1908 197.656 57.1672 197.574 57.1599Z" fill="#073044"/>
<path d="M217.74 111.093L158.253 104.998C158.092 104.98 157.93 105.025 157.801 105.124C157.673 105.223 157.588 105.368 157.564 105.528C157.548 105.694 157.598 105.859 157.703 105.988C157.808 106.118 157.96 106.2 158.126 106.217L217.613 112.36C217.695 112.368 217.777 112.36 217.856 112.336C217.935 112.312 218.008 112.273 218.071 112.221C218.135 112.168 218.187 112.104 218.226 112.032C218.265 111.959 218.289 111.88 218.297 111.798C218.309 111.715 218.303 111.63 218.282 111.549C218.26 111.468 218.222 111.392 218.17 111.326C218.118 111.26 218.053 111.206 217.979 111.166C217.905 111.126 217.824 111.101 217.74 111.093Z" fill="#073044"/>
<path d="M217.3 115.572L148.109 108.486C148.027 108.477 147.945 108.485 147.866 108.508C147.787 108.531 147.714 108.57 147.651 108.622C147.587 108.673 147.534 108.737 147.496 108.809C147.457 108.882 147.433 108.961 147.425 109.043C147.407 109.204 147.452 109.366 147.551 109.494C147.649 109.623 147.794 109.708 147.955 109.731L217.125 116.818C217.207 116.826 217.29 116.818 217.368 116.795C217.447 116.771 217.52 116.732 217.584 116.68C217.648 116.628 217.701 116.564 217.74 116.492C217.779 116.42 217.803 116.34 217.812 116.258C217.82 116.177 217.812 116.094 217.788 116.015C217.765 115.937 217.726 115.863 217.674 115.799C217.622 115.736 217.558 115.683 217.486 115.644C217.413 115.605 217.334 115.58 217.252 115.572H217.3Z" fill="#073044"/>
<path d="M197.452 118.068L147.632 112.964C147.467 112.947 147.301 112.996 147.172 113.1C147.043 113.204 146.961 113.356 146.943 113.521C146.925 113.686 146.974 113.851 147.079 113.981C147.183 114.11 147.334 114.192 147.499 114.21L197.319 119.314C197.401 119.322 197.484 119.314 197.562 119.29C197.641 119.266 197.714 119.227 197.778 119.175C197.841 119.122 197.894 119.058 197.933 118.986C197.971 118.913 197.995 118.834 198.003 118.752C198.012 118.671 198.005 118.589 197.982 118.511C197.959 118.432 197.921 118.359 197.869 118.296C197.818 118.232 197.755 118.18 197.683 118.14C197.612 118.101 197.533 118.077 197.452 118.068Z" fill="#073044"/>
<path d="M146.868 117.795L144.845 137.545L214.577 144.69L216.601 124.939L146.868 117.795Z" fill="#BFBFBF" stroke="#073044" stroke-width="0.53" stroke-miterlimit="10"/>
<path d="M178.846 94.9398C185.433 89.4518 186.323 79.6632 180.835 73.0763C175.347 66.4894 165.559 65.5986 158.972 71.0866C152.385 76.5745 151.494 86.3632 156.982 92.95C162.47 99.5369 172.259 100.428 178.846 94.9398Z" fill="#197BC0"/>
<mask id="mask2_3805_10945" style="mask-type:luminance" maskUnits="userSpaceOnUse" x="153" y="67" width="32" height="32">
<path d="M178.846 94.9398C185.433 89.4518 186.323 79.6632 180.835 73.0763C175.347 66.4894 165.559 65.5986 158.972 71.0866C152.385 76.5745 151.494 86.3632 156.982 92.95C162.47 99.5369 172.259 100.428 178.846 94.9398Z" fill="white"/>
</mask>
<g mask="url(#mask2_3805_10945)">
<path opacity="0.5" d="M178.846 94.9398C185.433 89.4518 186.323 79.6632 180.835 73.0763C175.347 66.4894 165.559 65.5986 158.972 71.0866C152.385 76.5745 151.494 86.3632 156.982 92.95C162.47 99.5369 172.259 100.428 178.846 94.9398Z" fill="white"/>
</g>
<path d="M178.846 94.9398C185.433 89.4518 186.323 79.6632 180.835 73.0763C175.347 66.4894 165.559 65.5986 158.972 71.0866C152.385 76.5745 151.494 86.3632 156.982 92.95C162.47 99.5369 172.259 100.428 178.846 94.9398Z" stroke="#073044" stroke-width="0.53" stroke-miterlimit="10"/>
<path d="M169.356 82.9768L182.267 89.4693C183.472 86.9676 183.951 84.1782 183.649 81.4181C183.347 78.6579 182.277 76.0378 180.561 73.8555L169.356 82.9768Z" fill="white"/>
<path d="M169.441 82.2774L180.253 73.4794C178.639 71.5558 176.562 70.0748 174.217 69.1758L172.25 74.5288L169.441 82.2774Z" fill="#197BC0"/>
<path d="M170.66 68.3066L169.356 81.0902L173.755 69.0009C172.752 68.6588 171.714 68.426 170.66 68.3066Z" fill="#757575"/>
<path d="M168.683 82.86L170.183 68.2532C167.628 68.0386 165.06 68.4899 162.731 69.5629C160.402 70.636 158.391 72.2943 156.894 74.3762C155.396 76.4581 154.464 78.8924 154.188 81.4419C153.911 83.9913 154.3 86.5689 155.317 88.9232L168.683 82.86Z" fill="#999999"/>
<path d="M167.401 97.7745C170.348 98.0744 173.318 97.4851 175.928 96.0824C178.538 94.6797 180.668 92.5279 182.044 89.904L168.906 83.2949L155.513 89.3793C156.606 91.6818 158.275 93.6638 160.357 95.1342C162.439 96.6047 164.865 97.514 167.401 97.7745Z" fill="#BFBFBF"/>
<path d="M193.82 72.9416L192.053 72.7606C191.87 72.7418 191.706 72.8753 191.687 73.0587L191.506 74.825C191.487 75.0084 191.621 75.1724 191.804 75.1912L193.571 75.3721C193.754 75.3909 193.918 75.2575 193.937 75.074L194.118 73.3078C194.137 73.1243 194.003 72.9604 193.82 72.9416Z" fill="#197BC0" stroke="#073044" stroke-width="0.53" stroke-miterlimit="10"/>
<path d="M218.429 76.3634L195.607 74.0261C195.554 74.0015 195.509 73.9606 195.48 73.9093C195.451 73.8579 195.439 73.7987 195.445 73.7401C195.451 73.6814 195.476 73.6262 195.516 73.5825C195.555 73.5387 195.608 73.5084 195.665 73.4961L218.487 75.791C218.556 75.8045 218.617 75.8433 218.659 75.8997C218.701 75.9561 218.72 76.0261 218.712 76.0959C218.705 76.1657 218.672 76.2302 218.62 76.2767C218.567 76.3233 218.499 76.3485 218.429 76.3475V76.3634Z" fill="#073044"/>
<path d="M216.071 77.3484L195.485 75.2284C195.412 75.2204 195.344 75.1836 195.298 75.126C195.251 75.0684 195.229 74.9947 195.236 74.921C195.24 74.8842 195.25 74.8485 195.268 74.8159C195.285 74.7834 195.309 74.7546 195.337 74.7314C195.366 74.7082 195.399 74.6909 195.434 74.6807C195.47 74.6705 195.507 74.6675 195.544 74.6719L216.129 76.7919C216.198 76.8054 216.259 76.8442 216.301 76.9006C216.342 76.957 216.361 77.027 216.354 77.0968C216.347 77.1666 216.314 77.2311 216.261 77.2776C216.209 77.3242 216.141 77.3494 216.071 77.3484Z" fill="#073044"/>
<path d="M193.262 78.3849L191.496 78.204C191.313 78.1852 191.149 78.3186 191.13 78.5021L190.949 80.2683C190.93 80.4518 191.064 80.6157 191.247 80.6345L193.013 80.8155C193.197 80.8343 193.361 80.7008 193.38 80.5174L193.561 78.7511C193.579 78.5677 193.446 78.4037 193.262 78.3849Z" fill="#757575" stroke="#073044" stroke-width="0.53" stroke-linecap="round" stroke-linejoin="round"/>
<path d="M217.873 81.8059L195.04 79.4686C194.971 79.4551 194.91 79.4163 194.868 79.3599C194.827 79.3035 194.808 79.2335 194.815 79.1637C194.822 79.094 194.855 79.0295 194.908 78.9829C194.96 78.9364 195.028 78.9111 195.099 78.9121L217.915 81.2494C217.989 81.2575 218.057 81.2941 218.105 81.3515C218.152 81.4089 218.175 81.4826 218.169 81.5568C218.161 81.6285 218.126 81.6944 218.071 81.7408C218.016 81.7871 217.945 81.8105 217.873 81.8059Z" fill="#073044"/>
<path d="M215.509 82.7963L194.929 80.6763C194.854 80.6693 194.786 80.633 194.738 80.5753C194.69 80.5177 194.668 80.4434 194.675 80.3689C194.682 80.2944 194.718 80.2258 194.776 80.1781C194.833 80.1304 194.907 80.1075 194.982 80.1145L215.567 82.2345C215.604 82.2384 215.64 82.2494 215.672 82.2671C215.705 82.2847 215.734 82.3086 215.757 82.3374C215.781 82.3662 215.798 82.3993 215.809 82.4349C215.819 82.4704 215.823 82.5077 215.819 82.5446C215.815 82.5815 215.804 82.6172 215.786 82.6499C215.769 82.6825 215.745 82.7113 215.716 82.7347C215.687 82.758 215.654 82.7755 215.619 82.7861C215.583 82.7967 215.546 82.8002 215.509 82.7963Z" fill="#073044"/>
<path d="M192.705 83.8322L190.939 83.6512C190.756 83.6324 190.592 83.7659 190.573 83.9493L190.392 85.7156C190.373 85.899 190.507 86.063 190.69 86.0818L192.456 86.2628C192.64 86.2816 192.804 86.1481 192.823 85.9646L193.003 84.1984C193.022 84.0149 192.889 83.851 192.705 83.8322Z" fill="#999999" stroke="#073044" stroke-width="0.53" stroke-linecap="round" stroke-linejoin="round"/>
<path d="M217.3 87.254L194.51 84.9114C194.471 84.9108 194.433 84.9021 194.397 84.8858C194.362 84.8696 194.33 84.8461 194.304 84.817C194.278 84.7878 194.259 84.7535 194.247 84.7164C194.235 84.6793 194.231 84.64 194.235 84.6012C194.239 84.5624 194.251 84.5249 194.27 84.4911C194.29 84.4572 194.316 84.4277 194.347 84.4046C194.379 84.3814 194.415 84.365 194.453 84.3564C194.491 84.3479 194.53 84.3474 194.568 84.3549L217.385 86.6922C217.422 86.696 217.458 86.7071 217.49 86.7247C217.523 86.7424 217.552 86.7663 217.575 86.7951C217.598 86.8239 217.616 86.857 217.626 86.8925C217.637 86.9281 217.641 86.9653 217.637 87.0022C217.633 87.0391 217.622 87.0749 217.604 87.1075C217.587 87.1401 217.563 87.1689 217.534 87.1923C217.505 87.2157 217.472 87.2332 217.436 87.2437C217.401 87.2543 217.364 87.2578 217.327 87.254H217.3Z" fill="#073044"/>
<path d="M214.952 88.2394L194.367 86.1194C194.294 86.1113 194.226 86.0745 194.179 86.017C194.133 85.9594 194.111 85.8857 194.118 85.812C194.126 85.7379 194.163 85.6699 194.22 85.6224C194.278 85.5749 194.351 85.5516 194.426 85.5576L215.011 87.6776C215.085 87.6853 215.154 87.7223 215.201 87.7804C215.248 87.8386 215.27 87.9131 215.262 87.9876C215.255 88.0621 215.218 88.1305 215.16 88.1777C215.101 88.2249 215.027 88.2471 214.952 88.2394Z" fill="#073044"/>
<path d="M192.148 89.2795L190.381 89.0985C190.198 89.0797 190.034 89.2132 190.015 89.3966L189.834 91.1629C189.816 91.3463 189.949 91.5103 190.132 91.5291L191.899 91.71C192.082 91.7288 192.246 91.5953 192.265 91.4119L192.446 89.6456C192.465 89.4622 192.331 89.2982 192.148 89.2795Z" fill="#BFBFBF" stroke="#073044" stroke-width="0.53" stroke-miterlimit="10"/>
<path d="M216.771 92.6969L193.954 90.3596C193.917 90.3563 193.881 90.3457 193.848 90.3284C193.815 90.3111 193.786 90.2875 193.763 90.2589C193.739 90.2303 193.721 90.1973 193.71 90.1619C193.7 90.1264 193.696 90.0891 193.7 90.0522C193.708 89.9781 193.744 89.9101 193.802 89.8626C193.859 89.8151 193.933 89.7918 194.007 89.7978L216.829 92.1404C216.868 92.141 216.906 92.1497 216.942 92.1659C216.977 92.1822 217.009 92.2056 217.035 92.2348C217.061 92.264 217.08 92.2982 217.092 92.3354C217.104 92.3725 217.108 92.4117 217.104 92.4505C217.1 92.4893 217.088 92.5269 217.068 92.5607C217.049 92.5946 217.023 92.624 216.992 92.6472C216.96 92.6704 216.924 92.6868 216.886 92.6953C216.848 92.7039 216.809 92.7044 216.771 92.6969Z" fill="#073044"/>
<path d="M214.396 93.6824L193.811 91.5624C193.742 91.5489 193.681 91.5101 193.639 91.4537C193.597 91.3972 193.578 91.3273 193.586 91.2575C193.593 91.1877 193.626 91.1232 193.678 91.0767C193.731 91.0301 193.799 91.0049 193.869 91.0059L214.454 93.1259C214.498 93.1166 214.543 93.1177 214.586 93.1292C214.629 93.1408 214.668 93.1623 214.701 93.1921C214.734 93.2219 214.76 93.2592 214.776 93.3008C214.791 93.3423 214.797 93.3871 214.792 93.4313C214.787 93.4755 214.772 93.5179 214.748 93.5551C214.723 93.5922 214.69 93.623 214.652 93.6449C214.613 93.6669 214.569 93.6793 214.525 93.6812C214.481 93.6831 214.436 93.6744 214.396 93.6559V93.6824Z" fill="#073044"/>
<path d="M191.591 94.7228L189.824 94.5418C189.641 94.523 189.477 94.6565 189.458 94.84L189.277 96.6062C189.258 96.7897 189.392 96.9536 189.575 96.9724L191.342 97.1534C191.525 97.1722 191.689 97.0387 191.708 96.8553L191.889 95.089C191.908 94.9056 191.774 94.7416 191.591 94.7228Z" fill="white" stroke="#073044" stroke-width="0.53" stroke-linecap="round" stroke-linejoin="round"/>
<path d="M216.198 98.1407L193.376 95.8034C193.323 95.7788 193.278 95.738 193.249 95.6866C193.22 95.6353 193.208 95.5761 193.214 95.5174C193.221 95.4587 193.245 95.4036 193.285 95.3598C193.324 95.316 193.377 95.2858 193.434 95.2734L216.24 97.5842C216.284 97.5749 216.329 97.5761 216.372 97.5876C216.415 97.5991 216.455 97.6207 216.488 97.6505C216.521 97.6803 216.546 97.7175 216.562 97.7591C216.578 97.8007 216.583 97.8454 216.578 97.8896C216.574 97.9338 216.558 97.9763 216.534 98.0134C216.509 98.0506 216.476 98.0814 216.438 98.1033C216.399 98.1252 216.356 98.1377 216.311 98.1396C216.267 98.1415 216.223 98.1328 216.182 98.1142L216.198 98.1407Z" fill="#073044"/>
<path d="M213.839 99.1095L193.254 96.9895C193.215 96.9889 193.177 96.9802 193.141 96.964C193.106 96.9477 193.074 96.9243 193.048 96.8951C193.022 96.8659 193.003 96.8317 192.991 96.7945C192.979 96.7574 192.975 96.7182 192.979 96.6794C192.983 96.6406 192.995 96.6031 193.015 96.5692C193.034 96.5353 193.06 96.5059 193.092 96.4827C193.123 96.4595 193.159 96.4431 193.197 96.4346C193.235 96.426 193.274 96.4255 193.313 96.433L213.892 98.553C213.932 98.5528 213.971 98.5609 214.007 98.5766C214.042 98.5924 214.075 98.6155 214.101 98.6444C214.128 98.6734 214.148 98.7076 214.16 98.7448C214.173 98.7821 214.177 98.8215 214.173 98.8605C214.17 98.8996 214.158 98.9375 214.139 98.9717C214.119 99.0059 214.093 99.0356 214.062 99.0591C214.03 99.0826 213.994 99.0992 213.956 99.1078C213.918 99.1165 213.878 99.1171 213.839 99.1095Z" fill="#073044"/>
<path d="M206.043 138.031L207.346 138.164L208.109 130.714L206.807 130.581L206.043 138.031Z" fill="#757575" stroke="#073044" stroke-width="0.53" stroke-linecap="round" stroke-linejoin="round"/>
<path d="M206.162 136.904L207.464 137.037L207.823 133.531L206.521 133.398L206.162 136.904Z" fill="#197BC0" stroke="#073044" stroke-width="0.53" stroke-miterlimit="10"/>
<path d="M209.174 136.447L210.477 136.58L211.24 129.13L209.938 128.997L209.174 136.447Z" fill="#757575" stroke="#073044" stroke-width="0.53" stroke-linecap="round" stroke-linejoin="round"/>
<path d="M209.729 130.967L209.37 134.473L210.672 134.606L211.032 131.1L209.729 130.967Z" fill="#197BC0" stroke="#073044" stroke-width="0.53" stroke-miterlimit="10"/>
<path d="M211.957 138.171L213.259 138.305L214.023 130.855L212.72 130.721L211.957 138.171Z" fill="#757575" stroke="#073044" stroke-width="0.53" stroke-linecap="round" stroke-linejoin="round"/>
<path d="M212.244 135.374L213.546 135.508L213.905 132.002L212.603 131.868L212.244 135.374Z" fill="#197BC0" stroke="#073044" stroke-width="0.53" stroke-miterlimit="10"/>
<path d="M203.262 136.259L204.564 136.393L205.328 128.943L204.025 128.809L203.262 136.259Z" fill="#757575" stroke="#073044" stroke-width="0.53" stroke-linecap="round" stroke-linejoin="round"/>
<path d="M203.38 135.126L204.683 135.26L205.042 131.754L203.74 131.62L203.38 135.126Z" fill="#197BC0" stroke="#073044" stroke-width="0.53" stroke-miterlimit="10"/>
<path d="M200.106 138.154L201.408 138.287L202.172 130.837L200.869 130.704L200.106 138.154Z" fill="#757575" stroke="#073044" stroke-width="0.53" stroke-linecap="round" stroke-linejoin="round"/>
<path d="M200.189 137.318L201.491 137.451L201.85 133.945L200.548 133.812L200.189 137.318Z" fill="#197BC0" stroke="#073044" stroke-width="0.53" stroke-miterlimit="10"/>
<path d="M197.369 135.931L198.671 136.064L199.434 128.615L198.132 128.481L197.369 135.931Z" fill="#757575" stroke="#073044" stroke-width="0.53" stroke-linecap="round" stroke-linejoin="round"/>
<path d="M197.397 135.66L198.7 135.793L199.059 132.287L197.757 132.153L197.397 135.66Z" fill="#197BC0" stroke="#073044" stroke-width="0.53" stroke-miterlimit="10"/>
<path d="M194.034 139.527L195.336 139.66L196.1 132.21L194.797 132.077L194.034 139.527Z" fill="#757575" stroke="#073044" stroke-width="0.53" stroke-linecap="round" stroke-linejoin="round"/>
<path d="M194.058 139.251L195.36 139.385L195.719 135.879L194.417 135.745L194.058 139.251Z" fill="#197BC0" stroke="#073044" stroke-width="0.53" stroke-miterlimit="10"/>
<path d="M191.583 134.531L192.886 134.664L193.649 127.214L192.347 127.081L191.583 134.531Z" fill="#757575" stroke="#073044" stroke-width="0.53" stroke-linecap="round" stroke-linejoin="round"/>
<path d="M191.702 133.41L193.004 133.543L193.364 130.037L192.061 129.903L191.702 133.41Z" fill="#197BC0" stroke="#073044" stroke-width="0.53" stroke-miterlimit="10"/>
<path d="M188.69 133.804L189.992 133.938L190.755 126.488L189.453 126.354L188.69 133.804Z" fill="#757575" stroke="#073044" stroke-width="0.53" stroke-linecap="round" stroke-linejoin="round"/>
<path d="M188.982 130.986L190.285 131.119L190.644 127.613L189.342 127.48L188.982 130.986Z" fill="#197BC0" stroke="#073044" stroke-width="0.53" stroke-miterlimit="10"/>
<path d="M185.286 138.175L186.588 138.309L187.351 130.859L186.049 130.725L185.286 138.175Z" fill="#757575" stroke="#073044" stroke-width="0.53" stroke-linecap="round" stroke-linejoin="round"/>
<path d="M185.603 135.083L186.905 135.217L187.264 131.711L185.962 131.577L185.603 135.083Z" fill="#197BC0" stroke="#073044" stroke-width="0.53" stroke-miterlimit="10"/>
<path d="M182.687 134.595L183.99 134.729L184.753 127.279L183.451 127.145L182.687 134.595Z" fill="#757575" stroke="#073044" stroke-width="0.53" stroke-linecap="round" stroke-linejoin="round"/>
<path d="M182.83 133.195L184.132 133.328L184.492 129.822L183.189 129.689L182.83 133.195Z" fill="#197BC0" stroke="#073044" stroke-width="0.53" stroke-miterlimit="10"/>
<path d="M179.547 136.247L180.85 136.381L181.613 128.931L180.311 128.798L179.547 136.247Z" fill="#757575" stroke="#073044" stroke-width="0.53" stroke-linecap="round" stroke-linejoin="round"/>
<path d="M179.671 135.117L180.973 135.25L181.332 131.744L180.03 131.61L179.671 135.117Z" fill="#197BC0" stroke="#073044" stroke-width="0.53" stroke-miterlimit="10"/>
<path d="M176.273 139.29L177.576 139.424L178.339 131.974L177.037 131.841L176.273 139.29Z" fill="#757575" stroke="#073044" stroke-width="0.53" stroke-linecap="round" stroke-linejoin="round"/>
<path d="M176.283 139.285L177.585 139.418L177.945 135.912L176.642 135.778L176.283 139.285Z" fill="#197BC0" stroke="#073044" stroke-width="0.53" stroke-miterlimit="10"/>
<path d="M173.831 134.267L175.133 134.4L175.896 126.95L174.594 126.817L173.831 134.267Z" fill="#757575" stroke="#073044" stroke-width="0.53" stroke-linecap="round" stroke-linejoin="round"/>
<path d="M173.914 133.419L175.216 133.553L175.576 130.047L174.273 129.913L173.914 133.419Z" fill="#197BC0" stroke="#073044" stroke-width="0.53" stroke-miterlimit="10"/>
<path d="M171.227 130.697L172.529 130.83L173.292 123.38L171.99 123.247L171.227 130.697Z" fill="#757575" stroke="#073044" stroke-width="0.53" stroke-linecap="round" stroke-linejoin="round"/>
<path d="M171.321 129.851L172.623 129.984L172.982 126.478L171.68 126.345L171.321 129.851Z" fill="#197BC0" stroke="#073044" stroke-width="0.53" stroke-miterlimit="10"/>
<path d="M167.892 134.337L169.194 134.471L169.957 127.021L168.655 126.887L167.892 134.337Z" fill="#757575" stroke="#073044" stroke-width="0.53" stroke-linecap="round" stroke-linejoin="round"/>
<path d="M168.179 131.535L169.481 131.668L169.841 128.162L168.538 128.028L168.179 131.535Z" fill="#197BC0" stroke="#073044" stroke-width="0.53" stroke-miterlimit="10"/>
<path d="M164.531 138.245L165.833 138.379L166.597 130.929L165.295 130.796L164.531 138.245Z" fill="#757575" stroke="#073044" stroke-width="0.53" stroke-linecap="round" stroke-linejoin="round"/>
<path d="M164.873 134.874L166.175 135.008L166.534 131.502L165.232 131.368L164.873 134.874Z" fill="#197BC0" stroke="#073044" stroke-width="0.53" stroke-miterlimit="10"/>
<path d="M162.028 133.734L163.331 133.867L164.094 126.417L162.792 126.284L162.028 133.734Z" fill="#757575" stroke="#073044" stroke-width="0.53" stroke-linecap="round" stroke-linejoin="round"/>
<path d="M162.142 132.619L163.444 132.752L163.803 129.246L162.501 129.112L162.142 132.619Z" fill="#197BC0" stroke="#073044" stroke-width="0.53" stroke-miterlimit="10"/>
<path d="M159.223 132.199L160.525 132.332L161.288 124.882L159.986 124.749L159.223 132.199Z" fill="#757575" stroke="#073044" stroke-width="0.53" stroke-linecap="round" stroke-linejoin="round"/>
<path d="M159.54 129.107L160.842 129.24L161.201 125.734L159.899 125.601L159.54 129.107Z" fill="#197BC0" stroke="#073044" stroke-width="0.53" stroke-miterlimit="10"/>
<path d="M156.047 134.224L157.349 134.357L158.112 126.908L156.81 126.774L156.047 134.224Z" fill="#757575" stroke="#073044" stroke-width="0.53" stroke-linecap="round" stroke-linejoin="round"/>
<path d="M156.051 134.216L157.354 134.35L157.713 130.843L156.41 130.71L156.051 134.216Z" fill="#197BC0" stroke="#073044" stroke-width="0.53" stroke-miterlimit="10"/>
<path d="M153.354 131.591L154.656 131.725L155.42 124.275L154.117 124.141L153.354 131.591Z" fill="#757575" stroke="#073044" stroke-width="0.53" stroke-linecap="round" stroke-linejoin="round"/>
<path d="M153.413 131.035L154.715 131.168L155.074 127.662L153.772 127.528L153.413 131.035Z" fill="#197BC0" stroke="#073044" stroke-width="0.53" stroke-miterlimit="10"/>
<path d="M150.32 132.296L151.622 132.43L152.385 124.98L151.083 124.846L150.32 132.296Z" fill="#757575" stroke="#073044" stroke-width="0.53" stroke-linecap="round" stroke-linejoin="round"/>
<path d="M150.349 132.015L151.651 132.148L152.011 128.642L150.708 128.509L150.349 132.015Z" fill="#197BC0" stroke="#073044" stroke-width="0.53" stroke-miterlimit="10"/>
<path d="M147.485 131.036L148.787 131.17L149.55 123.72L148.248 123.587L147.485 131.036Z" fill="#757575" stroke="#073044" stroke-width="0.53" stroke-linecap="round" stroke-linejoin="round"/>
<path d="M147.861 127.396L149.163 127.529L149.522 124.023L148.22 123.89L147.861 127.396Z" fill="#197BC0" stroke="#073044" stroke-width="0.53" stroke-miterlimit="10"/>
<path d="M214.041 147.172L154.559 141.071C154.393 141.055 154.228 141.105 154.098 141.21C153.969 141.316 153.887 141.468 153.87 141.633C153.861 141.715 153.868 141.797 153.892 141.876C153.915 141.954 153.954 142.028 154.005 142.091C154.057 142.155 154.121 142.207 154.193 142.246C154.265 142.285 154.345 142.309 154.426 142.317L213.913 148.401C214.079 148.418 214.245 148.368 214.374 148.262C214.503 148.157 214.585 148.005 214.602 147.839C214.614 147.677 214.562 147.516 214.457 147.391C214.352 147.267 214.203 147.188 214.041 147.172Z" fill="#073044"/>
<path d="M213.59 151.649L144.415 144.558C144.249 144.541 144.083 144.591 143.954 144.697C143.825 144.802 143.743 144.954 143.726 145.12C143.717 145.201 143.725 145.284 143.748 145.363C143.772 145.442 143.811 145.516 143.863 145.579C143.915 145.643 143.98 145.695 144.053 145.734C144.126 145.772 144.205 145.796 144.287 145.803L213.458 152.895C213.623 152.909 213.787 152.859 213.915 152.754C214.043 152.649 214.124 152.497 214.142 152.333C214.15 152.252 214.143 152.17 214.12 152.091C214.097 152.013 214.059 151.94 214.008 151.877C213.957 151.813 213.893 151.76 213.822 151.721C213.75 151.682 213.671 151.658 213.59 151.649Z" fill="#073044"/>
<path d="M184.069 153.171L143.954 149.058C143.788 149.041 143.622 149.091 143.493 149.197C143.364 149.302 143.282 149.454 143.265 149.62C143.257 149.701 143.265 149.784 143.289 149.863C143.313 149.941 143.352 150.014 143.404 150.078C143.456 150.141 143.52 150.194 143.593 150.233C143.665 150.271 143.745 150.295 143.827 150.303L183.942 154.416C184.024 154.424 184.107 154.417 184.185 154.393C184.264 154.369 184.337 154.331 184.401 154.279C184.465 154.227 184.518 154.163 184.557 154.09C184.596 154.018 184.62 153.939 184.629 153.857C184.637 153.775 184.629 153.692 184.606 153.614C184.582 153.535 184.543 153.462 184.491 153.398C184.439 153.334 184.375 153.281 184.303 153.242C184.231 153.203 184.151 153.179 184.069 153.171Z" fill="#073044"/>
<path opacity="0.2" d="M220.602 113.151C218.551 112.986 217.841 116.257 217.841 116.257C217.841 116.257 214.597 112.017 215.111 102.01C215.111 102.01 213.521 97.5793 209.281 100.256C205.041 102.932 200.637 112.361 201.686 122.643L193.45 95.2473C190.599 95.8515 184.806 99.6834 186.332 118.186L177.322 108.646C177.322 108.646 174.884 107.861 173.506 110.018C172.128 112.176 172.786 127.625 173.925 133.402C175.065 139.179 172.16 150.786 172.16 150.786C172.16 150.786 169.054 137.642 163.436 134.314L142.04 90.207L134.922 159.584L142.941 160.406L155.82 154.136C155.746 157.035 155.677 159.701 155.465 161.688L219.828 168.281L224.434 123.327C222.871 117.725 221.376 113.209 220.602 113.151Z" fill="black" fill-opacity="0.7"/>
</g>
<path d="M231.923 50.25L224.434 123.326L219.828 168.281L155.465 161.688L142.941 160.405L134.922 159.584L142.03 90.2067L147.017 41.5527L231.923 50.25Z" stroke="#073044" stroke-width="0.53" stroke-linecap="round" stroke-linejoin="round"/>
<path d="M230.863 238.38L193.233 244.782C193.233 244.782 186.682 209.987 182.776 204.502C178.87 199.016 179.596 196.764 177.688 193.07C176.543 190.839 170.798 186.678 166.298 182.571C165.906 182.215 165.524 181.86 165.159 181.511C165 181.367 164.851 181.214 164.703 181.071C164.104 180.477 163.547 179.899 163.055 179.332C162.874 179.131 162.698 178.929 162.525 178.728C161.689 177.798 161.067 176.696 160.701 175.5C160.685 175.447 160.675 175.392 160.67 175.336C160.654 175.272 160.644 175.206 160.638 175.14C160.537 174.318 160.431 173.38 160.325 172.363C160.325 172.161 160.283 171.949 160.256 171.737L160.224 171.483C160.134 170.635 160.034 169.734 159.917 168.806C159.8 167.879 159.673 166.83 159.525 165.817C159.477 165.467 159.429 165.118 159.371 164.757C159.313 164.365 159.249 163.973 159.186 163.575L159 162.552C159 162.494 158.974 162.441 158.968 162.393L158.746 161.217C158.731 161.174 158.722 161.13 158.719 161.084C158.645 160.74 158.576 160.401 158.497 160.056C158.332 159.288 158.147 158.535 157.967 157.804C157.602 156.427 157.132 155.081 156.562 153.776C153.848 147.718 157.378 149.907 155.253 134.319C155.253 134.319 156.816 130.705 161.274 133.593C161.618 133.818 161.951 134.06 162.27 134.319C163.173 135.05 163.971 135.903 164.639 136.853C165.545 138.146 166.236 139.578 166.685 141.093C167.414 143.549 167.619 146.131 167.289 148.672C167.289 148.672 170.639 160.152 172.404 162.764C174.169 165.377 181.467 150.368 180.995 148.619C180.829 147.834 180.704 147.042 180.619 146.244C180.587 145.985 180.555 145.714 180.518 145.418C180.481 145.121 180.449 144.824 180.417 144.511C180.417 144.363 180.38 144.204 180.359 144.05C180.359 143.987 180.359 143.923 180.359 143.865C180.295 143.266 180.221 142.63 180.152 141.973C180.152 141.787 180.115 141.612 180.094 141.443C180.062 141.13 180.03 140.807 179.999 140.489C179.995 140.436 179.995 140.383 179.999 140.33C179.999 140.149 179.956 139.964 179.94 139.8C179.898 139.429 179.861 139.052 179.824 138.676C179.787 138.3 179.76 138.029 179.728 137.706C179.665 137.097 179.606 136.487 179.548 135.899C179.506 135.459 179.463 135.024 179.426 134.6C179.426 134.505 179.426 134.409 179.4 134.319C179.177 131.987 179.002 130.079 178.939 129.253C178.939 129.253 173.639 121.398 173.109 117.699C172.579 113.999 172.61 110.104 174.831 108.519C180.089 104.777 178.541 110.809 180.905 113.289C183.269 115.769 186.867 119.877 188.913 121.154C190.8 122.352 192.485 126.984 192.724 127.684C192.454 126.666 189.756 116.66 189.698 114.646C189.629 112.526 188.007 101.311 190.758 97.2883C193.508 93.2656 197.176 96.3873 197.515 97.1823C197.854 97.9773 197.955 108.842 198.925 111.863C199.895 114.884 203.955 127.482 203.955 127.482C203.955 127.482 204.124 115.229 205.015 109.743C205.905 104.258 208.311 99.9701 210.643 99.7263C212.975 99.4825 215.132 102.053 215.132 102.053C215.132 102.053 214.21 110.798 214.475 112.817C214.74 114.837 214.094 122.129 215.201 126.067C215.201 126.067 215.074 115.621 216.696 114.285C218.318 112.95 219.712 112.308 220.623 113.225C221.535 114.142 221.731 120.311 222.658 124.032C223.586 127.753 223.469 132.809 224.079 138.612C224.688 144.416 227.089 152.472 226.612 157.078C226.135 161.683 224.667 173.105 223.485 179.809C222.303 186.514 219.288 195.709 219.288 195.709C219.288 195.709 220.66 200.612 220.395 204.984C220.13 209.357 230.863 238.38 230.863 238.38Z" fill="white"/>
<path opacity="0.4" d="M198.878 111.832C199.598 114.068 202.01 121.552 203.208 125.288C203.208 125.288 197.95 129.152 198.077 132.745C198.204 136.339 197.118 143.594 194.754 143.382C192.39 143.17 192.634 128.092 191.834 125.553C192.316 126.645 192.624 127.53 192.687 127.705C192.512 127.053 189.703 116.67 189.645 114.614C189.645 114.132 189.534 113.167 189.422 111.922C189.422 111.922 194.653 106.913 198.491 109.977C198.578 110.603 198.707 111.223 198.878 111.832Z" fill="#197BC0"/>
<path opacity="0.4" d="M214.507 116.135C212.059 118.457 208.365 122.559 207.898 126.518C207.898 126.518 209.26 137.574 208.677 142.418L203.907 127.467C203.907 127.467 204.077 115.213 204.967 109.728C204.967 109.579 205.02 109.426 205.047 109.277C208.024 107.762 211.31 106.952 214.65 106.908C214.445 108.857 214.376 110.817 214.444 112.775C214.524 113.893 214.545 115.015 214.507 116.135Z" fill="#197BC0"/>
<path opacity="0.4" d="M216.675 114.226C216.616 114.263 216.473 114.379 216.267 114.554C216.389 114.316 216.528 114.086 216.68 113.865L216.675 114.226Z" fill="#197BC0"/>
<path opacity="0.4" d="M217.92 144.792C217.92 144.792 214.772 132.984 214.74 123.476C214.714 119.956 215.122 116.75 216.262 114.582C216.384 114.344 216.522 114.114 216.675 113.893V114.232C217.245 113.741 217.875 113.324 218.551 112.992C217.666 114.37 216.648 117.068 217.825 121.472C219.675 128.314 218.064 136.704 217.92 144.792Z" fill="#197BC0"/>
<path opacity="0.4" d="M174.497 167.296C174.497 167.296 175.34 178.548 166.298 182.576C165.906 182.221 165.525 181.866 165.159 181.516C165 181.373 164.852 181.219 164.703 181.076C164.104 180.483 163.548 179.905 163.055 179.338C162.869 179.131 162.705 178.93 162.525 178.734C161.689 177.803 161.067 176.702 160.702 175.506C160.685 175.453 160.675 175.397 160.67 175.342C160.654 175.277 160.644 175.212 160.638 175.146C160.537 174.324 160.431 173.386 160.325 172.368C160.325 172.167 160.283 171.955 160.256 171.743L160.225 171.489C160.135 170.641 160.034 169.74 159.917 168.812C159.801 167.885 159.673 166.835 159.525 165.823C159.472 165.473 159.424 165.118 159.371 164.763C159.313 164.371 159.249 163.979 159.186 163.581L159 162.553C159 162.495 158.974 162.442 158.969 162.394L158.746 161.217C158.731 161.174 158.723 161.13 158.719 161.085C158.645 160.74 158.576 160.401 158.497 160.057C158.327 159.293 158.142 158.541 157.967 157.804C161.544 154.364 169.802 156.521 165.806 148.545C165.806 148.545 167.82 141.719 162.27 134.32C166.065 137.378 168.01 142.757 167.29 148.63C167.29 148.63 170.639 160.11 172.404 162.722C174.169 165.335 181.467 150.326 180.995 148.577C180.83 147.792 180.704 147 180.619 146.202C180.587 145.943 180.555 145.672 180.518 145.376C180.481 145.079 180.449 144.782 180.418 144.469C180.418 144.321 180.38 144.162 180.359 144.008C180.359 143.945 180.359 143.881 180.359 143.823C180.296 143.218 180.227 142.588 180.153 141.931C180.153 141.745 180.115 141.57 180.094 141.401C180.062 141.088 180.031 140.765 179.999 140.447C179.996 140.394 179.996 140.34 179.999 140.288C179.999 140.107 179.957 139.922 179.941 139.758C179.898 139.387 179.861 139.01 179.824 138.634C179.787 138.258 179.76 137.987 179.729 137.664C179.665 137.055 179.607 136.445 179.548 135.857C179.506 135.417 179.469 134.977 179.427 134.558C179.427 134.463 179.427 134.367 179.4 134.277C179.543 134.972 182.23 147.766 183.767 150.744C185.31 153.797 178.61 169.946 174.497 167.296Z" fill="#197BC0"/>
<path opacity="0.4" d="M223.464 179.734C222.282 186.444 219.267 195.634 219.267 195.634C219.267 195.634 220.639 200.537 220.374 204.909C220.3 206.086 221.032 209.059 222.123 212.769C221.805 211.953 218.413 203.197 218.482 200.145C218.551 196.938 217.64 196.053 215.832 192.115C214.025 188.177 211.322 188.612 211.322 188.612C211.322 188.612 210.262 198.433 207.803 191.977C205.344 185.522 204.861 178.012 211.078 151.936C211.078 151.936 212.016 155.206 211.232 164.921C210.448 174.636 212.769 177.577 212.769 177.577C216.258 171.496 219.031 165.031 221.032 158.312C221.032 158.312 220.226 169.648 219.511 174.811C218.795 179.973 222.06 168.827 224.339 161.942C226.459 155.481 226.56 153.022 225.743 148.422C226.348 151.66 226.803 154.782 226.57 157.013C226.114 161.598 224.646 173.03 223.464 179.734Z" fill="#197BC0"/>
<path opacity="0.4" d="M180.942 201.592C182.776 204.507 187.265 208.36 189.952 219.018C192.639 229.676 190.943 241.342 190.943 241.342L180.942 201.592Z" fill="#197BC0"/>
<path opacity="0.2" d="M166.69 141.072C166.69 141.072 157.304 145.842 156.562 153.792C153.848 147.734 157.378 149.923 155.253 134.336C155.253 134.336 156.816 130.721 161.274 133.609C161.618 133.834 161.951 134.077 162.27 134.336C163.173 135.066 163.971 135.919 164.639 136.869L166.69 141.072Z" fill="black" fill-opacity="0.7"/>
<path d="M193.233 244.78C193.233 244.78 186.682 209.986 182.776 204.5C178.87 199.015 179.596 196.762 177.688 193.068C175.78 189.374 161.295 180.385 160.654 175.133C160.013 169.881 159.276 159.832 156.562 153.769C153.849 147.706 157.379 149.9 155.248 134.313C155.248 134.313 156.838 130.698 161.274 133.586C165.71 136.475 168.074 142.252 167.295 148.649C167.295 148.649 170.645 160.118 172.415 162.736C174.185 165.355 181.467 150.34 180.995 148.585C180.524 146.831 179.125 131.912 178.907 129.187C178.907 129.187 173.607 121.328 173.077 117.628C172.547 113.929 172.579 110.033 174.8 108.454C180.057 104.712 178.51 110.743 180.874 113.224C183.237 115.704 186.836 119.806 188.877 121.089C190.917 122.372 192.698 127.73 192.698 127.73C192.698 127.73 189.703 116.738 189.645 114.612C189.587 112.487 187.954 101.278 190.705 97.2603C193.456 93.2429 197.129 96.354 197.468 97.149C197.807 97.944 197.908 108.809 198.883 111.83L203.902 127.449C203.902 127.449 204.077 115.195 204.994 109.71C205.911 104.224 208.29 99.9368 210.622 99.693C212.954 99.4492 215.112 102.02 215.112 102.02C215.112 102.02 214.189 110.765 214.449 112.784C214.709 114.803 214.073 122.091 215.18 126.034C215.18 126.034 215.053 115.588 216.675 114.252C218.297 112.916 219.691 112.275 220.602 113.192C221.514 114.109 221.71 120.278 222.638 123.999C223.565 127.719 223.448 132.776 224.058 138.579C224.667 144.383 227.068 152.439 226.591 157.039C226.114 161.639 224.646 173.071 223.459 179.781C222.272 186.491 219.272 195.681 219.272 195.681C219.272 195.681 220.639 200.584 220.374 204.956C220.109 209.329 230.858 238.436 230.858 238.436" stroke="#073044" stroke-width="0.53" stroke-linecap="round" stroke-linejoin="round"/>
<path d="M203.902 127.439C204.999 130.015 207.707 140.891 208.672 142.396C209.163 143.231 209.88 143.91 210.739 144.357" stroke="#073044" stroke-width="0.53" stroke-linecap="round" stroke-linejoin="round"/>
<path d="M215.18 126.008C215.18 126.008 214.947 128.239 216.15 135.341C217.353 142.443 217.942 145.469 218.615 147.054" stroke="#073044" stroke-width="0.53" stroke-linecap="round" stroke-linejoin="round"/>
<path d="M192.698 127.73C194.166 132.061 194.998 138.961 195.835 141.039C196.673 143.116 197.425 143.546 197.425 143.546" stroke="#073044" stroke-width="0.53" stroke-linecap="round" stroke-linejoin="round"/>
<path d="M195.077 138.109C195.961 138.781 196.661 139.665 197.112 140.68" stroke="#073044" stroke-width="0.53" stroke-linecap="round" stroke-linejoin="round"/>
<path d="M172.415 162.742C172.415 162.742 173.215 168.482 176.814 168.042" stroke="#073044" stroke-width="0.53" stroke-linecap="round" stroke-linejoin="round"/>
<path d="M180.995 148.592C180.995 148.592 181.928 155.418 180.402 158.312" stroke="#073044" stroke-width="0.53" stroke-linecap="round" stroke-linejoin="round"/>
<path d="M209.742 148.656C209.742 148.656 212.159 150.135 210.543 154.486C208.926 158.838 206.112 176.338 206.112 176.338" stroke="#073044" stroke-width="0.53" stroke-linecap="round" stroke-linejoin="round"/>
<path d="M220.263 153.234C221.275 157.156 221.365 157.257 219.733 162.075C218.1 166.892 215.435 178.696 215.435 178.696" stroke="#073044" stroke-width="0.53" stroke-linecap="round" stroke-linejoin="round"/>
<path d="M219.272 195.625C219.272 195.625 217.682 192.445 218.996 189.795" stroke="#073044" stroke-width="0.53" stroke-linecap="round" stroke-linejoin="round"/>
<path d="M182.776 204.506C182.776 204.506 186.772 210.119 188.51 216.399" stroke="#073044" stroke-width="0.53" stroke-linecap="round" stroke-linejoin="round"/>
<path d="M212.181 106.122L213.262 105.057L213.749 104.914L213.718 105.444L212.727 106.711L212.181 106.122Z" fill="#757575" stroke="#073044" stroke-width="0.53" stroke-linecap="round" stroke-linejoin="round"/>
<path d="M213.06 106.716L211.301 110.702L164.025 173.74L158.762 170.38L165.89 161.412L208.354 108.147L212.101 105.768C212.33 105.827 212.54 105.946 212.709 106.112C212.877 106.279 212.998 106.487 213.06 106.716Z" fill="#197BC0"/>
<mask id="mask3_3805_10945" style="mask-type:luminance" maskUnits="userSpaceOnUse" x="158" y="105" width="56" height="69">
<path d="M213.06 106.716L211.301 110.702L164.025 173.74L158.762 170.38L165.89 161.412L208.354 108.147L212.101 105.768C212.33 105.827 212.54 105.946 212.709 106.112C212.877 106.279 212.998 106.487 213.06 106.716Z" fill="white"/>
</mask>
<g mask="url(#mask3_3805_10945)">
<path opacity="0.3" d="M213.06 106.717L211.301 110.703L164.025 173.741L158.762 170.381L165.89 161.413C169.176 161.074 169.727 163.003 169.727 163.003L210.458 109.844C210.055 108.413 208.338 108.138 208.338 108.138L212.085 105.758C212.319 105.815 212.533 105.935 212.704 106.104C212.876 106.273 212.999 106.484 213.06 106.717Z" fill="black" fill-opacity="0.7"/>
</g>
<path d="M213.06 106.716L211.301 110.702L164.025 173.74L158.762 170.38L165.89 161.412L208.354 108.147L212.101 105.768C212.33 105.827 212.54 105.946 212.709 106.112C212.877 106.279 212.998 106.487 213.06 106.716Z" stroke="#073044" stroke-width="0.53" stroke-linecap="round" stroke-linejoin="round"/>
<path d="M179.442 155.074C179.442 155.074 174.142 165.547 169.086 172.957L165.461 173.895C165.461 173.895 157.14 182.163 152.062 186.291C151.141 185.719 150.305 185.017 149.582 184.208C149.582 184.208 156.79 170.365 164.767 161.604C165.701 161.936 166.582 162.404 167.379 162.993C168.414 163.727 169.336 164.609 170.114 165.611L179.002 154.428L179.442 155.074Z" fill="#197BC0"/>
<mask id="mask4_3805_10945" style="mask-type:luminance" maskUnits="userSpaceOnUse" x="149" y="154" width="31" height="33">
<path d="M179.442 155.074C179.442 155.074 174.142 165.547 169.086 172.957L165.461 173.895C165.461 173.895 157.14 182.163 152.062 186.291C151.141 185.719 150.305 185.017 149.582 184.208C149.582 184.208 156.79 170.365 164.767 161.604C165.701 161.936 166.582 162.404 167.379 162.993C168.414 163.727 169.336 164.609 170.114 165.611L179.002 154.428L179.442 155.074Z" fill="white"/>
</mask>
<g mask="url(#mask4_3805_10945)">
<path opacity="0.3" d="M179.442 155.074C179.442 155.074 174.142 165.547 169.086 172.956L165.461 173.894C165.461 173.894 157.14 182.162 152.062 186.291L152.2 184.044C157.707 175.633 164.703 166.458 167.379 162.992C168.414 163.726 169.336 164.608 170.114 165.61L165.175 172.204L168.005 171.674L179.002 154.406L179.442 155.074Z" fill="black" fill-opacity="0.7"/>
</g>
<path d="M179.442 155.074C179.442 155.074 174.142 165.547 169.086 172.957L165.461 173.895C165.461 173.895 157.14 182.163 152.062 186.291C151.141 185.719 150.305 185.017 149.582 184.208C149.582 184.208 156.79 170.365 164.767 161.604C165.701 161.936 166.582 162.404 167.379 162.993C168.414 163.727 169.336 164.609 170.114 165.611L179.002 154.428L179.442 155.074Z" stroke="#073044" stroke-width="0.53" stroke-linecap="round" stroke-linejoin="round"/>
<path d="M197.415 143.536L182.649 157.846L180.29 160.136C181.907 155.981 181.123 149.536 181.022 148.778C181.022 148.735 181.022 148.709 181.022 148.709C181.022 148.709 181.022 148.624 181.022 148.598C180.856 147.813 180.731 147.021 180.646 146.223C180.614 145.964 180.582 145.693 180.545 145.396C180.508 145.1 180.476 144.803 180.444 144.49C180.444 144.342 180.407 144.183 180.386 144.029C180.386 143.965 180.386 143.902 180.386 143.844C180.322 143.245 180.248 142.609 180.179 141.951C180.179 141.766 180.142 141.591 180.121 141.421C180.089 141.109 180.057 140.785 180.025 140.467C180.022 140.415 180.022 140.361 180.025 140.309C180.025 140.128 179.983 139.943 179.967 139.779C179.925 139.408 179.888 139.031 179.851 138.655C179.813 138.279 179.787 138.008 179.755 137.685C179.692 137.075 179.633 136.466 179.575 135.878C179.533 135.438 179.49 135.003 179.453 134.579C179.453 134.484 179.453 134.388 179.427 134.298C179.204 131.966 179.029 130.058 178.965 129.232C178.965 129.232 173.665 121.377 173.135 117.678C172.605 113.978 172.637 110.083 174.858 108.498C180.116 104.756 178.568 110.788 180.932 113.268C183.296 115.748 186.894 119.856 188.94 121.133C190.986 122.41 192.698 127.732 192.698 127.732C194.166 132.056 194.998 138.957 195.835 141.035C196.673 143.112 197.415 143.536 197.415 143.536Z" fill="white"/>
<path d="M195.077 138.109C195.961 138.781 196.661 139.665 197.112 140.68" stroke="#073044" stroke-width="0.53" stroke-linecap="round" stroke-linejoin="round"/>
<path opacity="0.4" d="M180.852 113.246C183.195 115.748 186.793 119.807 188.839 121.101C188.553 120.957 184.785 119.124 182.68 121.164C180.492 123.284 178.907 129.194 178.907 129.194C178.907 129.194 173.607 121.339 173.077 117.64C172.547 113.94 172.579 110.045 174.799 108.46C180.036 104.718 178.499 110.771 180.852 113.246Z" fill="#197BC0"/>
<path opacity="0.4" d="M182.649 157.856L180.29 160.146C181.907 155.991 181.122 149.546 181.022 148.788C181.028 148.728 181.028 148.668 181.022 148.608C180.856 147.823 180.73 147.031 180.645 146.234C180.613 145.974 180.582 145.704 180.545 145.407C180.507 145.11 180.476 144.813 180.444 144.5C180.444 144.352 180.407 144.193 180.386 144.039C180.386 143.976 180.386 143.912 180.386 143.854C180.322 143.25 180.253 142.619 180.179 141.962C180.179 141.776 180.142 141.601 180.121 141.432C180.089 141.119 180.057 140.796 180.025 140.478C180.022 140.425 180.022 140.372 180.025 140.319C180.025 140.139 179.983 139.953 179.967 139.789C179.924 139.418 179.887 139.041 179.85 138.665C179.813 138.289 179.787 138.019 179.755 137.695C179.691 137.086 179.633 136.476 179.575 135.888C179.532 135.448 179.495 135.008 179.453 134.589C179.453 134.494 179.453 134.399 179.426 134.309C179.569 135.003 182.256 147.797 183.793 150.776C184.313 151.857 183.772 154.761 182.649 157.856Z" fill="#197BC0"/>
<path d="M197.42 143.536C197.42 143.536 196.673 143.107 195.83 141.029C194.987 138.951 194.161 132.051 192.693 127.721C192.693 127.721 190.896 122.421 188.85 121.117C186.804 119.813 183.2 115.753 180.847 113.252C178.494 110.75 180.031 104.719 174.773 108.482C172.553 110.072 172.505 113.962 173.051 117.656C173.597 121.35 178.881 129.215 178.881 129.215C179.098 131.94 180.497 146.864 180.969 148.613" stroke="#073044" stroke-width="0.53" stroke-linecap="round" stroke-linejoin="round"/>
<path d="M180.995 148.592C180.995 148.592 181.928 155.418 180.402 158.312" stroke="#073044" stroke-width="0.53" stroke-linecap="round" stroke-linejoin="round"/>
<path opacity="0.2" d="M90.349 156.938C90.349 156.938 93.7039 172.52 86.4376 183.852C79.1713 195.183 73.5745 198.209 71.0676 201.591C68.5607 204.972 58.708 223.877 58.708 223.877L47.207 189.814L58.708 147.674L90.349 156.938Z" fill="black" fill-opacity="0.7"/>
<path d="M158.136 145.028L86.8192 175.042L79.4681 178.137L65.6139 145.219L33.4429 68.7771L112.111 35.668L158.136 145.028Z" fill="white"/>
<mask id="mask5_3805_10945" style="mask-type:luminance" maskUnits="userSpaceOnUse" x="33" y="35" width="126" height="144">
<path d="M158.136 145.028L86.8192 175.042L79.4681 178.137L65.6139 145.219L33.4429 68.7771L112.111 35.668L158.136 145.028Z" fill="white"/>
</mask>
<g mask="url(#mask5_3805_10945)">
<path d="M91.7853 49.8977L57.8282 64.2077C57.5217 64.3363 57.2789 64.5814 57.1532 64.889C57.0275 65.1966 57.0291 65.5416 57.1577 65.848C57.2863 66.1544 57.5314 66.3972 57.839 66.523C58.1467 66.6487 58.4916 66.6471 58.7981 66.5185L92.7499 52.2032C92.9041 52.1415 93.0445 52.0497 93.1629 51.9331C93.2813 51.8166 93.3752 51.6776 93.4393 51.5243C93.5034 51.3711 93.5363 51.2066 93.5361 51.0405C93.536 50.8743 93.5027 50.7099 93.4383 50.5568C93.3739 50.4037 93.2796 50.2649 93.1609 50.1486C93.0423 50.0323 92.9017 49.9408 92.7473 49.8795C92.593 49.8181 92.4279 49.7881 92.2618 49.7912C92.0957 49.7944 91.9319 49.8305 91.78 49.8977H91.7853Z" fill="#073044"/>
<path d="M85.2929 58.2131L68.3329 65.3575C68.1797 65.4222 68.0585 65.545 67.9959 65.6991C67.9332 65.8532 67.9344 66.0258 67.999 66.179C68.0637 66.3322 68.1866 66.4535 68.3406 66.5161C68.4947 66.5787 68.6673 66.5776 68.8205 66.5129L85.7805 59.3632C85.8602 59.3341 85.9331 59.2891 85.9948 59.231C86.0565 59.1728 86.1058 59.1027 86.1395 59.0249C86.1733 58.9472 86.1909 58.8633 86.1913 58.7785C86.1917 58.6937 86.1748 58.6097 86.1417 58.5317C86.1086 58.4536 86.06 58.3831 85.9988 58.3244C85.9376 58.2657 85.8651 58.2201 85.7857 58.1903C85.7063 58.1605 85.6217 58.1471 85.537 58.1511C85.4523 58.155 85.3692 58.1761 85.2929 58.2131Z" fill="#073044"/>
<path d="M113.229 101.758C113.229 101.758 113.945 107.381 111.851 108.261C109.938 109.067 107.421 106.051 105.221 106.973C103.022 107.895 104.755 115.877 102.635 116.767C100.515 117.658 97.9601 114.382 96.1263 115.177C94.2925 115.972 95.4055 120.053 93.5187 120.848C91.9605 121.5 89.7345 118.241 87.9537 117.525C87.7897 117.445 87.6113 117.4 87.4291 117.39C87.2469 117.381 87.0648 117.409 86.8937 117.472C85.0281 118.257 85.9556 126.827 84.3444 127.5C83.8937 127.694 83.4026 127.776 82.9134 127.738C82.3139 127.625 81.7055 127.567 81.0955 127.564C80.8618 127.587 80.6331 127.646 80.4171 127.738C79.0444 128.316 79.2299 132.826 77.9738 133.356C76.7177 133.886 75.4775 133.229 74.1366 133.791C72.7957 134.353 72.8169 136.701 70.8135 137.543L71.6615 139.552L120.48 119.009" fill="#BFBFBF"/>
<path d="M113.229 101.758C113.229 101.758 113.945 107.381 111.851 108.261C109.938 109.067 107.421 106.051 105.221 106.973C103.022 107.895 104.755 115.877 102.635 116.767C100.515 117.658 97.9601 114.382 96.1263 115.177C94.2925 115.972 95.4055 120.053 93.5187 120.848C91.9605 121.5 89.7345 118.241 87.9537 117.525C87.7897 117.445 87.6113 117.4 87.4291 117.39C87.2469 117.381 87.0648 117.409 86.8937 117.472C85.0281 118.257 85.9556 126.827 84.3444 127.5C83.8937 127.694 83.4026 127.776 82.9134 127.738C82.3139 127.625 81.7055 127.567 81.0955 127.564C80.8618 127.587 80.6331 127.646 80.4171 127.738C79.0444 128.316 79.2299 132.826 77.9738 133.356C76.7177 133.886 75.4775 133.229 74.1366 133.791C72.7957 134.353 72.8169 136.701 70.8135 137.543L71.6615 139.552L120.48 119.009" stroke="#073044" stroke-width="0.53" stroke-miterlimit="10"/>
<path d="M61.7769 116.025L71.6614 139.51L122.775 118.002" stroke="#073044" stroke-width="0.53" stroke-linecap="round" stroke-linejoin="round"/>
<path d="M117.157 111.075C117.157 111.075 116.913 110.778 116.552 110.423C115.922 109.814 114.92 109.04 114.157 109.363C113.394 109.687 113.346 110.911 113.362 112.236C113.362 113.826 113.521 115.575 112.71 115.914C112.021 116.206 111.406 115.771 110.77 115.294C110.044 114.764 109.302 114.16 108.406 114.536C106.901 115.172 107.346 117.133 106.816 118.813C106.672 119.297 106.418 119.74 106.073 120.108C105.728 120.476 105.302 120.758 104.829 120.933C103.53 121.463 102.211 120.933 100.965 120.096C98.8452 118.665 96.9796 116.343 95.7606 116.857C93.8155 117.679 95.9567 122.937 93.8685 123.816C92.7025 124.309 90.2857 120.636 87.9378 117.456C86.0828 114.949 84.2702 112.766 83.1678 113.216C80.6503 114.276 84.8002 126.853 82.9717 127.622L82.9134 127.648C82.6191 127.77 82.2996 127.817 81.9827 127.787C81.6658 127.756 81.3612 127.649 81.0955 127.473C80.4383 127.102 79.8977 126.567 79.1716 126.874C77.8201 127.447 78.6098 132.376 77.1258 133.001C75.6418 133.627 74.7461 132.72 73.0713 133.425C71.6562 134.024 70.8135 137.453 70.8135 137.453L71.6615 139.462L120.48 118.919" fill="#757575"/>
<path d="M117.157 111.075C117.157 111.075 116.913 110.778 116.552 110.423C115.922 109.814 114.92 109.04 114.157 109.363C113.394 109.687 113.346 110.911 113.362 112.236C113.362 113.826 113.521 115.575 112.71 115.914C112.021 116.206 111.406 115.771 110.77 115.294C110.044 114.764 109.302 114.16 108.406 114.536C106.901 115.172 107.346 117.133 106.816 118.813C106.672 119.297 106.418 119.74 106.073 120.108C105.728 120.476 105.302 120.758 104.829 120.933C103.53 121.463 102.211 120.933 100.965 120.096C98.8452 118.665 96.9796 116.343 95.7606 116.857C93.8155 117.679 95.9567 122.937 93.8685 123.816C92.7025 124.309 90.2857 120.636 87.9378 117.456C86.0828 114.949 84.2702 112.766 83.1678 113.216C80.6503 114.276 84.8002 126.853 82.9717 127.622L82.9134 127.648C82.6191 127.77 82.2996 127.817 81.9827 127.787C81.6658 127.756 81.3612 127.649 81.0955 127.473C80.4383 127.102 79.8977 126.567 79.1716 126.874C77.8201 127.447 78.6098 132.376 77.1258 133.001C75.6418 133.627 74.7461 132.72 73.0713 133.425C71.6562 134.024 70.8135 137.453 70.8135 137.453L71.6615 139.462L120.48 118.919" stroke="#073044" stroke-width="0.53" stroke-linecap="round" stroke-linejoin="round"/>
<path d="M106.821 127.838L89.8613 134.983C89.7081 135.047 89.5868 135.17 89.5242 135.324C89.4616 135.478 89.4627 135.651 89.5274 135.804C89.592 135.958 89.7149 136.079 89.869 136.141C90.023 136.204 90.1956 136.203 90.3489 136.138L107.309 128.994C107.462 128.929 107.583 128.806 107.646 128.652C107.709 128.498 107.707 128.326 107.643 128.172C107.578 128.019 107.455 127.898 107.301 127.835C107.147 127.773 106.974 127.774 106.821 127.838Z" fill="#073044"/>
<path d="M120.268 99.7131L118.631 100.402C118.461 100.473 118.381 100.669 118.453 100.839L119.141 102.476C119.213 102.646 119.409 102.725 119.579 102.654L121.215 101.965C121.385 101.894 121.465 101.698 121.393 101.528L120.705 99.8914C120.633 99.7214 120.438 99.6416 120.268 99.7131Z" fill="#BFBFBF" stroke="#073044" stroke-width="0.53" stroke-miterlimit="10"/>
<path d="M129.145 96.9354L122.361 99.7921C122.291 99.8189 122.214 99.8179 122.145 99.7893C122.076 99.7607 122.021 99.7067 121.99 99.6384C121.962 99.5702 121.962 99.4935 121.989 99.4251C122.017 99.3566 122.071 99.3019 122.139 99.2727L128.928 96.416C128.996 96.3877 129.073 96.3874 129.141 96.4151C129.21 96.4429 129.264 96.4965 129.294 96.5644C129.308 96.5985 129.316 96.6351 129.317 96.6723C129.318 96.7095 129.311 96.7464 129.297 96.7809C129.283 96.8154 129.263 96.8468 129.237 96.8733C129.21 96.8999 129.179 96.9209 129.145 96.9354Z" fill="#073044"/>
<path d="M127.55 98.9334L122.833 100.916C122.765 100.944 122.688 100.944 122.62 100.916C122.551 100.889 122.496 100.835 122.467 100.767C122.452 100.733 122.444 100.696 122.444 100.659C122.443 100.622 122.45 100.585 122.464 100.551C122.478 100.516 122.498 100.485 122.524 100.458C122.55 100.432 122.581 100.411 122.616 100.396L127.333 98.414C127.401 98.3857 127.477 98.3854 127.546 98.4132C127.614 98.441 127.669 98.4946 127.698 98.5624C127.727 98.6314 127.727 98.7088 127.7 98.7781C127.672 98.8474 127.618 98.9032 127.55 98.9334Z" fill="#073044"/>
<path d="M122.392 104.758L120.756 105.447C120.586 105.518 120.506 105.714 120.577 105.884L121.266 107.52C121.337 107.69 121.533 107.77 121.703 107.699L123.34 107.01C123.51 106.939 123.589 106.743 123.518 106.573L122.829 104.936C122.758 104.766 122.562 104.687 122.392 104.758Z" fill="#757575" stroke="#073044" stroke-width="0.53" stroke-linecap="round" stroke-linejoin="round"/>
<path d="M131.265 101.981L124.481 104.832C124.446 104.846 124.409 104.853 124.371 104.853C124.334 104.853 124.296 104.846 124.262 104.831C124.227 104.817 124.196 104.795 124.169 104.769C124.143 104.742 124.122 104.71 124.107 104.676C124.093 104.641 124.086 104.604 124.086 104.566C124.086 104.528 124.094 104.491 124.108 104.456C124.123 104.422 124.144 104.39 124.171 104.364C124.197 104.337 124.229 104.316 124.264 104.302L131.048 101.445C131.082 101.431 131.12 101.424 131.157 101.424C131.195 101.424 131.232 101.432 131.267 101.446C131.302 101.461 131.333 101.482 131.36 101.508C131.386 101.535 131.407 101.567 131.421 101.602C131.436 101.636 131.443 101.674 131.443 101.711C131.443 101.749 131.435 101.786 131.421 101.821C131.406 101.855 131.385 101.887 131.358 101.913C131.331 101.94 131.3 101.961 131.265 101.975V101.981Z" fill="#073044"/>
<path d="M129.67 103.974L124.958 105.961C124.888 105.991 124.808 105.991 124.738 105.962C124.667 105.934 124.611 105.878 124.582 105.808C124.552 105.737 124.552 105.658 124.58 105.588C124.609 105.517 124.665 105.461 124.735 105.431L129.452 103.449C129.487 103.435 129.524 103.428 129.562 103.428C129.599 103.428 129.637 103.435 129.671 103.45C129.706 103.464 129.738 103.486 129.764 103.512C129.791 103.539 129.812 103.571 129.826 103.605C129.84 103.64 129.847 103.678 129.847 103.715C129.847 103.753 129.84 103.79 129.825 103.825C129.811 103.859 129.789 103.891 129.763 103.917C129.736 103.944 129.704 103.965 129.67 103.979V103.974Z" fill="#073044"/>
<path d="M140.19 122.778L85.0702 145.97C84.917 146.035 84.7958 146.158 84.7332 146.312C84.6705 146.466 84.6717 146.639 84.7364 146.792C84.801 146.945 84.9239 147.066 85.0779 147.129C85.232 147.192 85.4046 147.19 85.5578 147.126L140.678 123.928C140.757 123.899 140.83 123.854 140.892 123.795C140.954 123.737 141.003 123.667 141.037 123.589C141.071 123.512 141.088 123.428 141.089 123.343C141.089 123.258 141.072 123.174 141.039 123.096C141.006 123.018 140.957 122.948 140.896 122.889C140.835 122.83 140.762 122.785 140.683 122.755C140.604 122.725 140.519 122.712 140.434 122.716C140.35 122.719 140.267 122.741 140.19 122.778Z" fill="#073044"/>
<path d="M141.939 126.928L77.8463 153.9C77.7667 153.929 77.6938 153.974 77.6321 154.032C77.5703 154.09 77.5211 154.16 77.4873 154.238C77.4535 154.316 77.4359 154.4 77.4356 154.485C77.4352 154.569 77.4521 154.653 77.4852 154.731C77.5183 154.81 77.5669 154.88 77.6281 154.939C77.6893 154.997 77.7618 155.043 77.8412 155.073C77.9206 155.103 78.0052 155.116 78.0899 155.112C78.1746 155.108 78.2576 155.087 78.3339 155.05L142.422 128.078C142.503 128.051 142.579 128.007 142.643 127.95C142.707 127.892 142.758 127.822 142.794 127.744C142.829 127.665 142.849 127.58 142.85 127.494C142.851 127.408 142.835 127.322 142.801 127.243C142.768 127.163 142.719 127.092 142.656 127.032C142.594 126.973 142.52 126.927 142.439 126.897C142.358 126.868 142.272 126.855 142.186 126.861C142.1 126.866 142.016 126.889 141.939 126.928Z" fill="#073044"/>
<path d="M143.683 131.078L79.5953 158.05C79.5157 158.079 79.4428 158.124 79.3811 158.182C79.3194 158.24 79.2701 158.311 79.2363 158.388C79.2026 158.466 79.1849 158.55 79.1846 158.635C79.1842 158.72 79.2011 158.804 79.2342 158.882C79.2673 158.96 79.3159 159.03 79.3771 159.089C79.4383 159.148 79.5108 159.193 79.5902 159.223C79.6696 159.253 79.7542 159.266 79.8389 159.262C79.9236 159.258 80.0067 159.237 80.0829 159.2L144.16 132.228C144.24 132.199 144.312 132.154 144.374 132.096C144.436 132.038 144.485 131.968 144.519 131.89C144.553 131.812 144.57 131.729 144.571 131.644C144.571 131.559 144.554 131.475 144.521 131.397C144.488 131.319 144.439 131.248 144.378 131.19C144.317 131.131 144.244 131.085 144.165 131.056C144.086 131.026 144.001 131.012 143.916 131.016C143.832 131.02 143.749 131.041 143.672 131.078H143.683Z" fill="#073044"/>
<path d="M145.432 135.227L81.3444 162.177C81.2626 162.204 81.1873 162.248 81.1233 162.306C81.0592 162.363 81.0077 162.434 80.9721 162.512C80.9364 162.59 80.9174 162.675 80.9161 162.762C80.9148 162.848 80.9314 162.933 80.9647 163.013C80.998 163.092 81.0474 163.164 81.1097 163.223C81.1721 163.283 81.246 163.329 81.327 163.358C81.4079 163.388 81.4941 163.4 81.58 163.395C81.666 163.39 81.75 163.367 81.8267 163.327L145.914 136.356C145.996 136.329 146.071 136.285 146.135 136.227C146.199 136.17 146.251 136.099 146.287 136.021C146.322 135.942 146.341 135.858 146.343 135.771C146.344 135.685 146.327 135.6 146.294 135.52C146.261 135.441 146.211 135.369 146.149 135.31C146.087 135.25 146.013 135.204 145.932 135.175C145.851 135.145 145.765 135.133 145.679 135.138C145.593 135.143 145.509 135.166 145.432 135.206V135.227Z" fill="#073044"/>
<path d="M120.257 150.704L83.088 166.349C83.0084 166.378 82.9355 166.423 82.8738 166.481C82.812 166.54 82.7628 166.61 82.729 166.688C82.6952 166.765 82.6776 166.849 82.6773 166.934C82.6769 167.019 82.6938 167.103 82.7269 167.181C82.76 167.259 82.8086 167.329 82.8698 167.388C82.931 167.447 83.0035 167.492 83.0829 167.522C83.1623 167.552 83.2469 167.565 83.3316 167.561C83.4163 167.557 83.4993 167.536 83.5756 167.499L120.745 151.859C120.82 151.827 120.889 151.78 120.947 151.722C121.005 151.663 121.051 151.594 121.082 151.517C121.113 151.441 121.128 151.36 121.128 151.277C121.127 151.195 121.11 151.113 121.078 151.038C121.046 150.962 121 150.893 120.941 150.835C120.883 150.777 120.813 150.731 120.737 150.7C120.661 150.669 120.579 150.654 120.497 150.654C120.414 150.655 120.333 150.672 120.257 150.704Z" fill="#073044"/>
<path d="M48.3359 84.0879L58.2204 107.572L109.328 86.0595" stroke="#073044" stroke-width="0.53" stroke-linecap="round" stroke-linejoin="round"/>
<path d="M93.2272 95.5357L76.2672 102.68C76.114 102.744 75.9924 102.866 75.9293 103.02C75.8662 103.173 75.8667 103.346 75.9306 103.499C75.9946 103.652 76.1168 103.774 76.2704 103.837C76.4239 103.9 76.5963 103.899 76.7495 103.835L93.7095 96.6911C93.7853 96.6591 93.8542 96.6124 93.912 96.5538C93.9698 96.4952 94.0156 96.4258 94.0466 96.3495C94.0776 96.2732 94.0933 96.1915 94.0927 96.1092C94.0922 96.0269 94.0754 95.9454 94.0434 95.8696C94.0114 95.7937 93.9647 95.7249 93.9061 95.667C93.8475 95.6092 93.7781 95.5635 93.7018 95.5325C93.6255 95.5015 93.5439 95.4858 93.4615 95.4863C93.3792 95.4869 93.2977 95.5036 93.2219 95.5357H93.2272Z" fill="#073044"/>
<path d="M105.967 65.7346L104.33 66.4232C104.16 66.4948 104.08 66.6905 104.152 66.8605L104.841 68.497C104.912 68.667 105.108 68.7468 105.278 68.6753L106.914 67.9867C107.084 67.9152 107.164 67.7194 107.093 67.5494L106.404 65.9129C106.332 65.7429 106.137 65.6631 105.967 65.7346Z" fill="#BFBFBF" stroke="#073044" stroke-width="0.53" stroke-miterlimit="10"/>
<path d="M114.846 62.9561L108.062 65.8128C107.992 65.8396 107.914 65.8386 107.845 65.81C107.776 65.7814 107.721 65.7274 107.691 65.6591C107.663 65.5902 107.663 65.513 107.692 65.4445C107.721 65.3759 107.775 65.3216 107.844 65.2934L114.628 62.4367C114.697 62.4087 114.774 62.4091 114.843 62.438C114.911 62.4668 114.966 62.5216 114.994 62.5904C115.009 62.6241 115.017 62.6604 115.017 62.6972C115.018 62.7339 115.011 62.7704 114.997 62.8045C114.983 62.8386 114.963 62.8696 114.937 62.8956C114.911 62.9216 114.88 62.9422 114.846 62.9561Z" fill="#073044"/>
<path d="M113.25 64.9552L108.533 66.9374C108.463 66.9662 108.384 66.9659 108.314 66.9366C108.244 66.9073 108.188 66.8513 108.16 66.781C108.131 66.7108 108.131 66.6319 108.16 66.5618C108.19 66.4918 108.246 66.4362 108.316 66.4074L113.033 64.4199C113.101 64.3916 113.178 64.3913 113.246 64.4191C113.315 64.4468 113.369 64.5004 113.399 64.5683C113.415 64.6033 113.425 64.6413 113.426 64.68C113.428 64.7187 113.421 64.7574 113.407 64.7935C113.393 64.8297 113.372 64.8627 113.345 64.8905C113.318 64.9183 113.286 64.9403 113.25 64.9552Z" fill="#073044"/>
<path d="M108.097 70.7815L106.46 71.4701C106.29 71.5416 106.21 71.7374 106.282 71.9074L106.97 73.5439C107.042 73.7139 107.238 73.7937 107.408 73.7222L109.044 73.0336C109.214 72.962 109.294 72.7663 109.223 72.5963L108.534 70.9598C108.462 70.7898 108.267 70.71 108.097 70.7815Z" fill="#197BC0" stroke="#073044" stroke-width="0.53" stroke-miterlimit="10"/>
<path d="M116.966 68.0017L110.182 70.8584C110.113 70.8864 110.036 70.886 109.967 70.8572C109.899 70.8284 109.844 70.7736 109.816 70.7047C109.801 70.6711 109.793 70.6347 109.793 70.598C109.792 70.5612 109.799 70.5247 109.813 70.4906C109.827 70.4565 109.848 70.4256 109.874 70.3995C109.9 70.3735 109.93 70.3529 109.964 70.339L116.748 67.4823C116.783 67.4681 116.821 67.4608 116.858 67.4609C116.896 67.4611 116.933 67.4686 116.968 67.4831C117.002 67.4977 117.034 67.5189 117.06 67.5456C117.087 67.5722 117.108 67.6039 117.122 67.6387C117.136 67.6735 117.144 67.7108 117.144 67.7484C117.143 67.786 117.136 67.8232 117.121 67.8579C117.107 67.8926 117.086 67.9241 117.059 67.9506C117.032 67.9771 117.001 67.9981 116.966 68.0123V68.0017Z" fill="#073044"/>
<path d="M115.37 70.0006L110.658 71.9828C110.588 72.0123 110.509 72.0127 110.439 71.9839C110.368 71.9551 110.312 71.8994 110.282 71.8291C110.253 71.7588 110.252 71.6797 110.281 71.6091C110.31 71.5386 110.366 71.4823 110.436 71.4528L115.153 69.4706C115.188 69.4564 115.225 69.4491 115.263 69.4492C115.3 69.4494 115.337 69.4569 115.372 69.4714C115.407 69.4859 115.438 69.5071 115.465 69.5338C115.491 69.5605 115.512 69.5922 115.527 69.627C115.541 69.6618 115.548 69.699 115.548 69.7367C115.548 69.7743 115.54 69.8115 115.526 69.8462C115.511 69.8809 115.49 69.9124 115.463 69.9389C115.437 69.9654 115.405 69.9864 115.37 70.0006Z" fill="#073044"/>
<path opacity="0.2" d="M86.8191 175.042L79.468 178.137L65.6138 145.219C66.8513 143.991 67.663 142.399 67.9299 140.676C68.7567 136.267 68.1737 122.089 79.2136 120.627C90.2535 119.164 80.9414 143.989 81.4502 148.717C81.9166 153.031 88.2077 165.555 86.8191 175.042Z" fill="black" fill-opacity="0.7"/>
</g>
<path d="M158.136 145.028L86.8192 175.042L79.4681 178.137L65.6139 145.219L33.4429 68.7771L112.111 35.668L158.136 145.028Z" stroke="#073044" stroke-width="0.53" stroke-linecap="round" stroke-linejoin="round"/>
<path d="M82.3777 150.519C83.6179 146.279 88.4515 132.701 87.8155 126.696C87.7638 126.196 87.6498 125.704 87.4763 125.233C85.7803 120.749 78.8479 121.184 76.182 124.899C73.2617 128.985 70.882 136.342 70.67 140.799C70.4826 143.035 69.7551 145.192 68.55 147.085C68.1337 147.784 67.6641 148.45 67.1455 149.078L51.3409 111.58C49.7443 112.91 48.3498 114.465 47.2016 116.196C46.5561 117.162 46.1392 118.262 45.9826 119.413C45.6593 123.113 41.4723 138.329 39.7498 144.689C39.7127 144.827 39.6756 144.959 39.6438 145.087C37.969 151.245 42.3892 174.12 41.1225 180.766C39.8558 187.412 39.0767 187.259 38.8912 191.981C38.7587 195.426 33.8297 205.899 28.2912 216.653C25.1112 222.816 21.7616 229.06 18.9897 234.143L59.4393 232.462C60.1389 227.549 60.8597 222.361 61.5169 217.336C61.8026 215.246 62.206 213.174 62.7253 211.13C63.6157 207.526 64.7022 204.266 65.3753 202.358C66.2349 199.556 66.9426 196.709 67.4953 193.831C72.2017 188.849 78.3709 181.021 80.157 175.721V175.684C80.5945 174.595 80.7335 173.409 80.5598 172.249C80.3627 171.297 80.2545 170.328 80.2365 169.355C80.0298 163.6 81.3389 154.044 82.3777 150.519Z" fill="white"/>
<path opacity="0.4" d="M68.5605 147.122C67.3044 149.64 65.7939 152.083 64.8505 154.903C63.9071 157.722 62.8524 158.125 60.0222 160.335C57.192 162.545 55.125 158.904 55.125 158.904C55.125 158.904 58.8721 155.014 57.6266 152.846C56.3811 150.678 51.7171 145.288 51.9927 142.315C52.2683 139.342 49.1678 132.674 49.1678 132.674C49.1678 132.674 56.2327 128.524 54.86 123.664C54.1127 121.014 50.4133 118.189 47.2227 116.181C48.3708 114.449 49.7653 112.894 51.362 111.564L67.1772 149.099C67.6878 148.476 68.1502 147.815 68.5605 147.122Z" fill="#197BC0"/>
<path opacity="0.4" d="M42.9299 170.129C43.0253 170.447 45.3255 178.042 43.3857 181.206C41.4459 184.37 39.4531 188.567 40.4018 192.866C41.1544 196.3 34.7944 208.702 28.3125 216.663C33.8351 205.909 38.7641 195.436 38.9125 191.991C39.098 187.269 39.8771 187.412 41.1438 180.776C42.4105 174.141 37.9638 151.255 39.6651 145.097C39.6969 144.97 39.734 144.837 39.7711 144.699C41.006 151.679 43.8786 165.581 44.6683 170.049C45.6382 175.752 43.0147 170.367 42.9299 170.129Z" fill="#197BC0"/>
<path opacity="0.4" d="M57.4731 215.974C62.1742 195.734 77.9947 180.215 80.1359 175.721C78.3498 181.021 72.1859 188.849 67.4742 193.831C66.9215 196.709 66.2138 199.556 65.3542 202.359C64.6917 204.267 63.6052 207.526 62.7042 211.13C58.1303 216.552 57.4731 215.974 57.4731 215.974Z" fill="#197BC0"/>
<path opacity="0.4" d="M82.3776 150.52C81.3176 154.044 80.0297 163.6 80.2311 169.34C79.399 165.736 77.7984 161.157 77.5334 154.781C77.0829 143.969 83.2097 147.87 81.0897 142.522C78.9697 137.174 72.8641 144.022 75.8639 132.749C78.0528 124.518 84.2909 124.592 87.4921 125.233C87.6656 125.705 87.7795 126.196 87.8313 126.696C88.4514 132.701 83.6178 146.28 82.3776 150.52Z" fill="#197BC0"/>
<path d="M25.1431 222.986C30.2099 213.716 35.1442 204.181 38.6899 193.899C39.1139 192.421 38.5468 190.492 38.9761 189.013C43.7779 175.662 38.3295 161.76 39.2252 148.081C39.9831 142.691 41.7056 137.269 43.4599 131.826C44.2708 127.899 44.5729 123.5 45.8714 119.546C47.207 116.567 48.5214 113.106 51.3675 111.596C56.7735 123.982 62.1583 136.426 67.1827 149.13C69.4564 147.816 69.8327 144.89 70.2037 142.426C71.4227 136.527 72.6576 131.121 74.8889 126.155C77.1573 122.164 82.9343 120.463 86.48 123.722C87.4967 124.741 88.0781 126.115 88.1018 127.554C87.4128 134.402 85.261 141.334 83.0933 147.736C82.24 150.694 81.3708 153.169 81.0051 156.105C81.0422 157.08 81.0634 157.563 81.1058 158.538C79.8497 163.462 81.0051 167.797 80.7189 172.684C79.6218 181.497 72.5675 187.635 67.4689 194.18C66.2075 199.104 64.9514 204.028 63.2289 208.973C61.1089 216.393 60.4305 223.707 59.7044 230.835" stroke="#073044" stroke-width="0.53" stroke-linecap="round" stroke-linejoin="round"/>
<path d="M67.1616 149.115C66.2022 150.966 65.4213 152.904 64.8296 154.903C64.1671 157.5 60.8122 157.129 59.0791 158.74" stroke="#073044" stroke-width="0.53" stroke-linecap="round" stroke-linejoin="round"/>
<path d="M54.5049 144.541C54.5049 144.541 59.0682 146.131 61.7288 148.225C64.3894 150.318 66.3504 150.806 66.3504 150.806" stroke="#073044" stroke-width="0.53" stroke-linecap="round" stroke-linejoin="round"/>
<path d="M51.5952 133.225C51.5952 133.225 55.3052 134.258 58.0082 132.96C58.1316 131.637 58.3638 130.327 58.7025 129.043" stroke="#073044" stroke-width="0.53" stroke-linecap="round" stroke-linejoin="round"/>
<path d="M58.8882 133.496C58.8882 133.496 58.9253 134.026 60.8015 134.026" stroke="#073044" stroke-width="0.53" stroke-linecap="round" stroke-linejoin="round"/>
<path d="M67.4741 193.83C64.9026 196.426 62.9276 199.552 61.6865 202.988" stroke="#073044" stroke-width="0.53" stroke-linecap="round" stroke-linejoin="round"/>
<path d="M39.4109 146.236C39.2413 149.416 42.9725 160.695 44.1014 166.302C45.2303 171.91 45.6596 175.874 45.6596 175.874" stroke="#073044" stroke-width="0.53" stroke-linecap="round" stroke-linejoin="round"/>
<path d="M95.4924 71.8148L93.8411 70.3987L99.8294 68.4777L100.645 76.7372L99.376 75.6439L99.1875 75.4815L99.0135 75.6594L87.4369 87.4994L70.6175 85.7802L70.4448 85.7625L70.3596 85.9139L61.5484 101.574L55.4627 95.8732L67.0127 82.4197L83.5611 84.0952L83.6868 84.1079L83.7758 84.0183L95.5079 72.2026L95.7088 72.0003L95.4924 71.8148Z" fill="#BFBFBF" stroke="#073044" stroke-width="0.53"/>
<path d="M94.4519 61.9488L95.5605 69.5628L94.2051 68.6996L93.9031 68.5073L93.8074 68.8523L88.744 87.1026L71.7355 87.9202L71.5841 87.9275L71.5136 88.0617L63.1207 104.054L58.4631 101.028L68.0357 85.3194L84.8304 84.4971L85.0206 84.4878L85.0725 84.3046L90.2579 65.9684L90.3117 65.7782L90.1447 65.6724L88.4691 64.6115L94.4519 61.9488Z" fill="#197BC0" stroke="#073044" stroke-width="0.53"/>
<path d="M76.6569 70.3264L76.403 69.6639L77.5095 69.2094L77.7634 69.8719C78.8035 69.6983 79.6049 70.2164 80.0803 71.3875L80.1938 71.6569L78.9134 72.1817L78.7648 71.8253C78.5108 71.2081 78.1705 71.0739 77.7408 71.2515C77.3111 71.4291 77.1571 71.7618 77.4062 72.3772C77.6553 72.9925 78.085 73.3248 79.2919 73.6844C80.766 74.1167 81.4247 74.6375 81.8267 75.6279C82.3022 76.799 82.105 77.7556 81.2246 78.3465L81.4799 78.9755L80.3684 79.4281L80.1131 78.7991C79.0569 79.0006 78.2567 78.4491 77.7813 77.278L77.5347 76.6862L78.82 76.1633L79.0987 76.8352C79.3528 77.4524 79.7123 77.5656 80.147 77.3898C80.5816 77.2141 80.7592 76.8789 80.5052 76.2617C80.2511 75.6445 79.8251 75.3023 78.6151 74.9811C77.1441 74.5557 76.4792 74.0212 76.0821 73.0327C75.6135 71.8586 75.7913 70.9229 76.6569 70.3264Z" fill="#197BC0" stroke="#073044" stroke-width="0.53" stroke-linecap="round" stroke-linejoin="round"/>
<path d="M184.293 26.1451L184.294 26.1452C184.868 26.2265 185.451 26.0774 185.915 25.7304C186.38 25.3834 186.688 24.8668 186.773 24.2932L186.773 24.2927C186.835 23.8637 186.769 23.4258 186.583 23.0344C186.396 22.643 186.098 22.3156 185.726 22.0939C185.353 21.8721 184.923 21.7658 184.49 21.7884C184.057 21.8111 183.641 21.9617 183.294 22.2211C182.946 22.4806 182.684 22.8372 182.539 23.246C182.395 23.6547 182.375 24.0971 182.482 24.5172C182.589 24.9374 182.818 25.3163 183.14 25.6061C183.463 25.8958 183.864 26.0835 184.293 26.1451ZM183.067 20.7381C183.708 20.4333 184.424 20.3252 185.126 20.4276C186.068 20.5649 186.916 21.0705 187.485 21.8333C188.053 22.596 188.295 23.5534 188.158 24.4947C188.056 25.1967 187.747 25.8526 187.272 26.3794C186.797 26.9063 186.176 27.2803 185.489 27.4544C184.801 27.6284 184.077 27.5946 183.408 27.3572C182.74 27.1199 182.157 26.6895 181.733 26.1207C181.309 25.5519 181.063 24.8702 181.026 24.1617C180.99 23.4532 181.164 22.7498 181.528 22.1404C181.891 21.531 182.427 21.043 183.067 20.7381Z" fill="#197BC0" stroke="#073044" stroke-width="0.53"/>
<path d="M191.043 33.3207C191.684 33.0164 192.401 32.909 193.103 33.0121C194.043 33.1503 194.891 33.6562 195.458 34.4187C196.026 35.1813 196.268 36.138 196.131 37.0787C196.028 37.7809 195.72 38.4369 195.245 38.9638C194.769 39.4906 194.148 39.8647 193.46 40.0386C192.773 40.2125 192.048 40.1784 191.38 39.9408C190.711 39.7031 190.128 39.2724 189.704 38.7032C189.281 38.1341 189.035 37.452 188.999 36.7434C188.963 36.0347 189.138 35.3312 189.502 34.722C189.865 34.1127 190.402 33.6251 191.043 33.3207ZM191.117 38.1863C191.44 38.4763 191.841 38.664 192.27 38.7258C192.844 38.8082 193.427 38.6601 193.891 38.3137C194.356 37.9674 194.665 37.4511 194.749 36.8778C194.813 36.4487 194.748 36.0105 194.562 35.6186C194.376 35.2266 194.078 34.8987 193.706 34.6762C193.333 34.4538 192.903 34.3468 192.47 34.3689C192.037 34.391 191.62 34.5412 191.273 34.8004C190.925 35.0596 190.662 35.4162 190.517 35.825C190.372 36.2338 190.352 36.6764 190.458 37.0968C190.565 37.5171 190.794 37.8963 191.117 38.1863Z" fill="#197BC0" stroke="#073044" stroke-width="0.53"/>
<path d="M194.947 21.8602L183.719 38.8938L181.764 38.6086L192.991 21.5749L194.947 21.8602Z" fill="#197BC0" stroke="#073044" stroke-width="0.53"/>
<g opacity="0.5">
<path d="M184.293 26.1451L184.294 26.1452C184.868 26.2265 185.451 26.0774 185.915 25.7304C186.38 25.3834 186.688 24.8668 186.773 24.2932L186.773 24.2927C186.835 23.8637 186.769 23.4258 186.583 23.0344C186.396 22.643 186.098 22.3156 185.726 22.0939C185.353 21.8721 184.923 21.7658 184.49 21.7884C184.057 21.8111 183.641 21.9617 183.294 22.2211C182.946 22.4806 182.684 22.8372 182.539 23.246C182.395 23.6547 182.375 24.0971 182.482 24.5172C182.589 24.9374 182.818 25.3163 183.14 25.6061C183.463 25.8958 183.864 26.0835 184.293 26.1451ZM183.067 20.7381C183.708 20.4333 184.424 20.3252 185.126 20.4276C186.068 20.5649 186.916 21.0705 187.485 21.8333C188.053 22.596 188.295 23.5534 188.158 24.4947C188.056 25.1967 187.747 25.8526 187.272 26.3794C186.797 26.9063 186.176 27.2803 185.489 27.4544C184.801 27.6284 184.077 27.5946 183.408 27.3572C182.74 27.1199 182.157 26.6895 181.733 26.1207C181.309 25.5519 181.063 24.8702 181.026 24.1617C180.99 23.4532 181.164 22.7498 181.528 22.1404C181.891 21.531 182.427 21.043 183.067 20.7381Z" fill="#197BC0" stroke="#073044" stroke-width="0.53"/>
<path d="M191.043 33.3207C191.684 33.0164 192.401 32.909 193.103 33.0121C194.043 33.1503 194.891 33.6562 195.458 34.4187C196.026 35.1813 196.268 36.138 196.131 37.0787C196.028 37.7809 195.72 38.4369 195.245 38.9638C194.769 39.4906 194.148 39.8647 193.46 40.0386C192.773 40.2125 192.048 40.1784 191.38 39.9408C190.711 39.7031 190.128 39.2724 189.704 38.7032C189.281 38.1341 189.035 37.452 188.999 36.7434C188.963 36.0347 189.138 35.3312 189.502 34.722C189.865 34.1127 190.402 33.6251 191.043 33.3207ZM191.117 38.1863C191.44 38.4763 191.841 38.664 192.27 38.7258C192.844 38.8082 193.427 38.6601 193.891 38.3137C194.356 37.9674 194.665 37.4511 194.749 36.8778C194.813 36.4487 194.748 36.0105 194.562 35.6186C194.376 35.2266 194.078 34.8987 193.706 34.6762C193.333 34.4538 192.903 34.3468 192.47 34.3689C192.037 34.391 191.62 34.5412 191.273 34.8004C190.925 35.0596 190.662 35.4162 190.517 35.825C190.372 36.2338 190.352 36.6764 190.458 37.0968C190.565 37.5171 190.794 37.8963 191.117 38.1863Z" fill="#197BC0" stroke="#073044" stroke-width="0.53"/>
<path d="M194.947 21.8602L183.719 38.8938L181.764 38.6086L192.991 21.5749L194.947 21.8602Z" fill="#197BC0" stroke="#073044" stroke-width="0.53"/>
</g>
</svg>
