<svg width="58" height="45" viewBox="0 0 58 45" fill="none" xmlns="http://www.w3.org/2000/svg">
<path d="M36.3657 8.10459L40.5262 5.74609C39.3337 6.07469 38.2843 7.07109 37.0547 6.93329C36.8324 6.8749 36.5987 6.8749 36.3763 6.93329C36.2373 7.02288 36.1372 7.16156 36.096 7.32168C36.0547 7.4818 36.0753 7.6516 36.1537 7.79719C36.2074 7.91038 36.279 8.01418 36.3657 8.10459Z" fill="#197BC0"/>
<path d="M25.9301 14.0245C25.9209 13.9328 25.9394 13.8406 25.9831 13.7595C26.0853 13.7951 26.1929 13.813 26.3011 13.8125L27.7374 13.0016C27.9622 12.7473 28.2187 12.5228 28.5006 12.3338C28.7728 12.1882 29.0609 12.0743 29.3592 11.9946L29.6772 11.8992L32.3272 10.4046C32.3551 10.3504 32.3929 10.3019 32.4385 10.2615C32.4795 10.2342 32.5241 10.2128 32.571 10.1979L29.8362 9.37109L29.0995 9.78449L29.02 10.3675L25.8665 12.0529C25.5543 12.2479 25.2067 12.3794 24.8436 12.4398C24.708 12.4557 24.5711 12.4557 24.4355 12.4398L19.9411 14.9891C19.9769 15.2021 20.0373 15.4102 20.1213 15.6092C19.8576 15.5601 19.6069 15.4572 19.3846 15.3071L18.4624 15.8371C19.1196 16.2717 19.7662 16.7169 20.3969 17.1886L25.9301 14.0245Z" fill="#197BC0"/>
<path d="M45.169 3.11744L42.996 1.89844L41.9678 2.48144C42.5736 3.10447 43.3562 3.5263 44.2097 3.68984L45.169 3.11744Z" fill="#197BC0"/>
<path d="M56.8556 15.9494L48.6512 1.48568C48.3321 0.926355 47.8046 0.516003 47.184 0.344215C46.5634 0.172428 45.9 0.25316 45.3387 0.56878L44.3529 1.13058L44.7292 1.49628C45.1214 1.88848 45.5242 2.28598 45.8899 2.70468L46.3881 2.42378C46.4571 2.38522 46.5386 2.37527 46.6149 2.39608C46.6912 2.41689 46.7563 2.4668 46.7962 2.53508L55.0059 17.0041C55.044 17.0738 55.0531 17.1557 55.0313 17.2321C55.0095 17.3084 54.9585 17.3731 54.8893 17.4122L43.7222 23.7722C44.6868 23.8305 45.662 23.6927 46.6266 23.804C46.9741 23.8478 47.319 23.9097 47.6601 23.9895L55.9387 19.2937C56.2198 19.1357 56.4669 18.9234 56.6654 18.6692C56.864 18.4151 57.0101 18.124 57.0954 17.813C57.1807 17.5019 57.2034 17.177 57.1622 16.8571C57.1211 16.5372 57.0168 16.2287 56.8556 15.9494Z" fill="#197BC0"/>
<path d="M6.57985 34.3558L2.72145 27.54C2.70153 27.5056 2.68861 27.4676 2.68343 27.4281C2.67824 27.3887 2.68089 27.3486 2.69123 27.3102C2.70157 27.2718 2.7194 27.2358 2.74369 27.2043C2.76797 27.1728 2.79824 27.1464 2.83275 27.1266L13.9627 20.809C13.9256 20.7242 13.878 20.6394 13.8462 20.5546C14.0034 20.5481 14.1608 20.5659 14.3126 20.6076L18.8123 18.0583C18.6639 18.0106 18.5208 17.9523 18.3776 17.8993L16.2577 17.0566L14.5617 18.0212L16.406 19.1501C15.7647 18.7579 14.4557 18.7049 13.3268 18.7208L1.80985 25.2769C1.24947 25.5951 0.83819 26.1225 0.666289 26.7436C0.494387 27.3646 0.57591 28.0284 0.892956 28.5894L4.24255 34.4936C4.39625 34.4512 4.55525 34.4141 4.70895 34.3876C5.13357 34.3266 5.56297 34.3053 5.99155 34.324C6.18812 34.3226 6.38459 34.3332 6.57985 34.3558Z" fill="#197BC0"/>
<path d="M20.3283 37.0174C20.5171 37.1865 20.7318 37.3243 20.9643 37.4255C21.2028 37.5315 21.5208 37.7859 21.3353 37.9555C20.4767 38.3477 19.4167 38.0562 18.574 38.4855C18.1129 38.7081 17.6677 39.148 17.1748 39.0155C17.771 39.3774 18.3074 39.8298 18.7648 40.3563L39.8111 28.4208C39.8111 28.336 39.8376 28.2512 39.8535 28.1611C39.854 27.9942 39.8925 27.8297 39.9662 27.6801C40.0398 27.5304 40.1466 27.3994 40.2784 27.2972C40.4103 27.195 40.5637 27.1243 40.727 27.0903C40.8903 27.0563 41.0592 27.06 41.2209 27.1011C41.4939 27.089 41.7672 27.1176 42.0318 27.1859L44.6553 25.6966C44.2953 25.0761 43.8688 24.4968 43.3833 23.9688L20.3283 37.0174Z" fill="#197BC0"/>
<path d="M16.9204 40.5196C16.4128 40.355 15.9452 40.086 15.5477 39.7299L11.3501 42.1149C11.3161 42.1347 11.2785 42.1476 11.2394 42.1527C11.2004 42.1578 11.1607 42.1551 11.1228 42.1447C11.0848 42.1344 11.0492 42.1166 11.0182 42.0924C10.9872 42.0681 10.9613 42.038 10.942 42.0036L7.23201 35.5005C6.87653 35.3776 6.4984 35.3342 6.12431 35.3733C5.69501 35.4581 5.31871 35.9563 5.55191 36.322C5.77102 36.3277 5.98469 36.3915 6.17097 36.507C6.35725 36.6225 6.50944 36.7855 6.61191 36.9792C6.38331 37.1611 6.13212 37.3125 5.8646 37.4297L9.0446 43.053C9.20259 43.337 9.41577 43.5866 9.67159 43.787C9.92742 43.9875 10.2207 44.1347 10.5343 44.2201C10.8479 44.3056 11.1753 44.3274 11.4975 44.2845C11.8196 44.2415 12.1299 44.1346 12.4101 43.9699L17.9115 40.8482L17.8479 40.8111C17.5442 40.6973 17.2346 40.6 16.9204 40.5196Z" fill="#197BC0"/>
<path d="M12.5599 28.5691C12.8691 28.9666 13.2516 29.5767 13.7075 30.3994C14.1634 31.2221 14.4798 31.8732 14.6567 32.3529C14.8367 32.8219 14.8902 33.2633 14.8173 33.677C14.6942 34.385 14.2995 34.9237 13.6332 35.2929C12.9669 35.6622 12.3009 35.7113 11.6353 35.4403C11.2459 35.2828 10.8966 35.0054 10.5875 34.6079C10.2814 34.1999 9.90035 33.5845 9.44444 32.7618C8.98853 31.9391 8.67061 31.2933 8.49066 30.8242C8.31374 30.3446 8.26174 29.8979 8.33466 29.4843C8.45772 28.7762 8.85241 28.2375 9.51873 27.8683C10.185 27.499 10.851 27.4499 11.5167 27.7209C11.9061 27.8784 12.2538 28.1611 12.5599 28.5691ZM13.2411 33.4306C13.2308 33.1075 12.9036 32.3646 12.2593 31.2019C11.615 30.0393 11.1585 29.368 10.8899 29.188C10.6893 29.0504 10.4733 29.0456 10.2422 29.1737C10.011 29.3018 9.90055 29.4874 9.91087 29.7306C9.92109 30.0537 10.2484 30.7966 10.8927 31.9593C11.537 33.1219 11.9934 33.7932 12.262 33.9732C12.4627 34.1108 12.6786 34.1156 12.9098 33.9875C13.141 33.8594 13.2514 33.6738 13.2411 33.4306Z" fill="#197BC0"/>
<path d="M22.4261 32.2332L21.0595 32.9905L20.2457 31.5219L17.3594 33.1213L18.1733 34.5899L16.8067 35.3473L15.2694 32.5732L15.7589 32.302C15.5798 31.0326 15.1361 29.7588 14.4277 28.4806L13.06 26.0125L16.9457 23.8591L20.2463 29.8152L20.8889 29.4591L22.4261 32.2332ZM18.7981 30.6177L16.2209 25.9671L15.1807 26.5436L16.0454 28.104C16.6482 29.1919 17.0457 30.318 17.2377 31.4825L18.7981 30.6177Z" fill="#197BC0"/>
<path d="M23.157 22.6966C23.4661 23.0941 23.8487 23.7042 24.3046 24.5269C24.7605 25.3496 25.0769 26.0007 25.2538 26.4803C25.4338 26.9494 25.4873 27.3907 25.4144 27.8044C25.2913 28.5125 24.8966 29.0511 24.2303 29.4204C23.564 29.7896 22.898 29.8388 22.2324 29.5678C21.8429 29.4103 21.4937 29.1328 21.1845 28.7354C20.8784 28.3274 20.4974 27.712 20.0415 26.8893C19.5856 26.0666 19.2677 25.4207 19.0877 24.9517C18.9108 24.472 18.8588 24.0254 18.9317 23.6117C19.0548 22.9037 19.4495 22.365 20.1158 21.9958C20.7821 21.6265 21.4481 21.5774 22.1137 21.8484C22.5031 22.0058 22.8509 22.2886 23.157 22.6966ZM23.8381 27.5581C23.8279 27.235 23.5007 26.4921 22.8564 25.3294C22.2121 24.1668 21.7556 23.4954 21.487 23.3155C21.2863 23.1778 21.0704 23.1731 20.8392 23.3012C20.6081 23.4293 20.4976 23.6149 20.5079 23.858C20.5182 24.1812 20.8454 24.9241 21.4897 26.0867C22.134 27.2494 22.5905 27.9207 22.8591 28.1007C23.0598 28.2383 23.2757 28.2431 23.5069 28.115C23.738 27.9869 23.8485 27.8012 23.8381 27.5581Z" fill="#197BC0"/>
<path d="M28.6203 21.602C29.141 21.82 29.6124 22.3098 30.0343 23.0713C30.4563 23.8328 30.6236 24.4955 30.5362 25.0594C30.445 25.6165 30.0255 26.1023 29.2776 26.5167L27.2276 27.6527L23.2036 20.3913L26.9363 18.3227L27.6597 19.6282L25.3752 20.8941L26.1099 22.22L26.7117 21.8865C27.4596 21.4721 28.0958 21.3772 28.6203 21.602ZM28.7635 24.2421C28.7244 24.1394 28.6653 24.0166 28.5861 23.8738C28.507 23.731 28.4343 23.6158 28.3679 23.5282C28.3084 23.4368 28.2315 23.3461 28.1372 23.2561C28.0391 23.1594 27.9308 23.1083 27.8123 23.1029C27.6968 23.0869 27.5745 23.1147 27.4453 23.1863L26.8334 23.5254L27.9524 25.5447L28.5643 25.2056C28.6935 25.1341 28.7838 25.0485 28.8353 24.9488C28.8898 24.8387 28.9039 24.7198 28.8776 24.5921C28.8475 24.4577 28.8095 24.341 28.7635 24.2421Z" fill="#197BC0"/>
<path d="M32.132 16.2166C32.6527 16.4346 33.1241 16.9244 33.5461 17.6859C33.9681 18.4474 34.1353 19.1101 34.0479 19.674C33.9567 20.2311 33.5372 20.7169 32.7893 21.1313L32.1876 21.4648L33.6457 24.0961L32.1975 24.8986L28.1734 17.6371L30.2234 16.5011C30.9713 16.0867 31.6075 15.9918 32.132 16.2166ZM32.2753 18.8567C32.2361 18.754 32.177 18.6312 32.0978 18.4884C32.0187 18.3456 31.946 18.2304 31.8796 18.1428C31.8201 18.0514 31.7432 17.9607 31.6489 17.8707C31.5508 17.774 31.4426 17.7229 31.324 17.7175C31.2085 17.7015 31.0862 17.7293 30.957 17.8009L30.3451 18.14L31.4641 20.1594L32.076 19.8203C32.2052 19.7487 32.2955 19.6631 32.347 19.5635C32.4015 19.4533 32.4156 19.3344 32.3893 19.2068C32.3592 19.0723 32.3212 18.9556 32.2753 18.8567Z" fill="#197BC0"/>
<path d="M40.5125 20.2907L37.1674 22.1445L33.1433 14.883L36.4885 13.0292L37.2119 14.3347L35.3149 15.3859L36.2249 17.0279L37.8567 16.1236L38.5801 17.429L36.9483 18.3333L37.8921 20.0365L39.7891 18.9853L40.5125 20.2907Z" fill="#197BC0"/>
<path d="M45.5001 17.5268L44.0519 18.3293L42.3676 15.2901L41.1642 15.957L42.8484 18.9962L41.4002 19.7988L37.3762 12.5373L38.8244 11.7348L40.4408 14.6516L41.6442 13.9847L40.0278 11.0678L41.476 10.2653L45.5001 17.5268Z" fill="#197BC0"/>
<path d="M47.5084 9.20194C47.8175 9.5994 48.2 10.2095 48.6559 11.0322C49.1118 11.8549 49.4282 12.506 49.6052 12.9857C49.7851 13.4547 49.8386 13.8961 49.7657 14.3097C49.6426 15.0178 49.248 15.5565 48.5816 15.9257C47.9153 16.295 47.2494 16.3441 46.5837 16.0731C46.1943 15.9156 45.845 15.6382 45.5359 15.2407C45.2298 14.8327 44.8488 14.2173 44.3929 13.3946C43.937 12.5719 43.619 11.926 43.4391 11.457C43.2622 10.9774 43.2102 10.5307 43.2831 10.1171C43.4062 9.40898 43.8008 8.87032 44.4672 8.50107C45.1335 8.13182 45.7994 8.0827 46.4651 8.3537C46.8545 8.51116 47.2023 8.7939 47.5084 9.20194ZM48.1895 14.0634C48.1793 13.7403 47.852 12.9974 47.2077 11.8347C46.5634 10.6721 46.107 10.0008 45.8384 9.82078C45.6377 9.68316 45.4218 9.6784 45.1906 9.8065C44.9594 9.93461 44.849 10.1202 44.8593 10.3634C44.8695 10.6865 45.1968 11.4294 45.8411 12.5921C46.4854 13.7547 46.9418 14.426 47.2104 14.606C47.4111 14.7436 47.627 14.7484 47.8582 14.6203C48.0894 14.4922 48.1998 14.3066 48.1895 14.0634Z" fill="#197BC0"/>
<g opacity="0.2">
<path d="M12.5599 28.5691C12.8691 28.9666 13.2516 29.5767 13.7075 30.3994C14.1634 31.2221 14.4798 31.8732 14.6567 32.3529C14.8367 32.8219 14.8902 33.2633 14.8173 33.677C14.6942 34.385 14.2995 34.9237 13.6332 35.2929C12.9669 35.6622 12.3009 35.7113 11.6353 35.4403C11.2459 35.2828 10.8966 35.0054 10.5875 34.6079C10.2814 34.1999 9.90035 33.5845 9.44444 32.7618C8.98853 31.9391 8.67061 31.2933 8.49066 30.8242C8.31374 30.3446 8.26174 29.8979 8.33466 29.4843C8.45772 28.7762 8.85241 28.2375 9.51873 27.8683C10.185 27.499 10.851 27.4499 11.5167 27.7209C11.9061 27.8784 12.2538 28.1611 12.5599 28.5691ZM13.2411 33.4306C13.2308 33.1075 12.9036 32.3646 12.2593 31.2019C11.615 30.0393 11.1585 29.368 10.8899 29.188C10.6893 29.0504 10.4733 29.0456 10.2422 29.1737C10.011 29.3018 9.90055 29.4874 9.91087 29.7306C9.92109 30.0537 10.2484 30.7966 10.8927 31.9593C11.537 33.1219 11.9934 33.7932 12.262 33.9732C12.4627 34.1108 12.6786 34.1156 12.9098 33.9875C13.141 33.8594 13.2514 33.6738 13.2411 33.4306Z" fill="black"/>
<path d="M22.4261 32.2332L21.0595 32.9905L20.2457 31.5219L17.3594 33.1213L18.1733 34.5899L16.8067 35.3473L15.2694 32.5732L15.7589 32.302C15.5798 31.0326 15.1361 29.7588 14.4277 28.4806L13.06 26.0125L16.9457 23.8591L20.2463 29.8152L20.8889 29.4591L22.4261 32.2332ZM18.7981 30.6177L16.2209 25.9671L15.1807 26.5436L16.0454 28.104C16.6482 29.1919 17.0457 30.318 17.2377 31.4825L18.7981 30.6177Z" fill="black"/>
<path d="M23.157 22.6966C23.4661 23.0941 23.8487 23.7042 24.3046 24.5269C24.7605 25.3496 25.0769 26.0007 25.2538 26.4803C25.4338 26.9494 25.4873 27.3907 25.4144 27.8044C25.2913 28.5125 24.8966 29.0511 24.2303 29.4204C23.564 29.7896 22.898 29.8388 22.2324 29.5678C21.8429 29.4103 21.4937 29.1328 21.1845 28.7354C20.8784 28.3274 20.4974 27.712 20.0415 26.8893C19.5856 26.0666 19.2677 25.4207 19.0877 24.9517C18.9108 24.472 18.8588 24.0254 18.9317 23.6117C19.0548 22.9037 19.4495 22.365 20.1158 21.9958C20.7821 21.6265 21.4481 21.5774 22.1137 21.8484C22.5031 22.0058 22.8509 22.2886 23.157 22.6966ZM23.8381 27.5581C23.8279 27.235 23.5007 26.4921 22.8564 25.3294C22.2121 24.1668 21.7556 23.4954 21.487 23.3155C21.2863 23.1778 21.0704 23.1731 20.8392 23.3012C20.6081 23.4293 20.4976 23.6149 20.5079 23.858C20.5182 24.1812 20.8454 24.9241 21.4897 26.0867C22.134 27.2494 22.5905 27.9207 22.8591 28.1007C23.0598 28.2383 23.2757 28.2431 23.5069 28.115C23.738 27.9869 23.8485 27.8012 23.8381 27.5581Z" fill="black"/>
<path d="M28.6203 21.602C29.141 21.82 29.6124 22.3098 30.0343 23.0713C30.4563 23.8328 30.6236 24.4955 30.5362 25.0594C30.445 25.6165 30.0255 26.1023 29.2776 26.5167L27.2276 27.6527L23.2036 20.3913L26.9363 18.3227L27.6597 19.6282L25.3752 20.8941L26.1099 22.22L26.7117 21.8865C27.4596 21.4721 28.0958 21.3772 28.6203 21.602ZM28.7635 24.2421C28.7244 24.1394 28.6653 24.0166 28.5861 23.8738C28.507 23.731 28.4343 23.6158 28.3679 23.5282C28.3084 23.4368 28.2315 23.3461 28.1372 23.2561C28.0391 23.1594 27.9308 23.1083 27.8123 23.1029C27.6968 23.0869 27.5745 23.1147 27.4453 23.1863L26.8334 23.5254L27.9524 25.5447L28.5643 25.2056C28.6935 25.1341 28.7838 25.0485 28.8353 24.9488C28.8898 24.8387 28.9039 24.7198 28.8776 24.5921C28.8475 24.4577 28.8095 24.341 28.7635 24.2421Z" fill="black"/>
<path d="M32.132 16.2166C32.6527 16.4346 33.1241 16.9244 33.5461 17.6859C33.9681 18.4474 34.1353 19.1101 34.0479 19.674C33.9567 20.2311 33.5372 20.7169 32.7893 21.1313L32.1876 21.4648L33.6457 24.0961L32.1975 24.8986L28.1734 17.6371L30.2234 16.5011C30.9713 16.0867 31.6075 15.9918 32.132 16.2166ZM32.2753 18.8567C32.2361 18.754 32.177 18.6312 32.0978 18.4884C32.0187 18.3456 31.946 18.2304 31.8796 18.1428C31.8201 18.0514 31.7432 17.9607 31.6489 17.8707C31.5508 17.774 31.4426 17.7229 31.324 17.7175C31.2085 17.7015 31.0862 17.7293 30.957 17.8009L30.3451 18.14L31.4641 20.1594L32.076 19.8203C32.2052 19.7487 32.2955 19.6631 32.347 19.5635C32.4015 19.4533 32.4156 19.3344 32.3893 19.2068C32.3592 19.0723 32.3212 18.9556 32.2753 18.8567Z" fill="black"/>
<path d="M40.5125 20.2907L37.1674 22.1445L33.1433 14.883L36.4885 13.0292L37.2119 14.3347L35.3149 15.3859L36.2249 17.0279L37.8567 16.1236L38.5801 17.429L36.9483 18.3333L37.8921 20.0365L39.7891 18.9853L40.5125 20.2907Z" fill="black"/>
<path d="M45.5001 17.5268L44.0519 18.3293L42.3676 15.2901L41.1642 15.957L42.8484 18.9962L41.4002 19.7988L37.3762 12.5373L38.8244 11.7348L40.4408 14.6516L41.6442 13.9847L40.0278 11.0678L41.476 10.2653L45.5001 17.5268Z" fill="black"/>
<path d="M47.5084 9.20194C47.8175 9.5994 48.2 10.2095 48.6559 11.0322C49.1118 11.8549 49.4282 12.506 49.6052 12.9857C49.7851 13.4547 49.8386 13.8961 49.7657 14.3097C49.6426 15.0178 49.248 15.5565 48.5816 15.9257C47.9153 16.295 47.2494 16.3441 46.5837 16.0731C46.1943 15.9156 45.845 15.6382 45.5359 15.2407C45.2298 14.8327 44.8488 14.2173 44.3929 13.3946C43.937 12.5719 43.619 11.926 43.4391 11.457C43.2622 10.9774 43.2102 10.5307 43.2831 10.1171C43.4062 9.40898 43.8008 8.87032 44.4672 8.50107C45.1335 8.13182 45.7994 8.0827 46.4651 8.3537C46.8545 8.51116 47.2023 8.7939 47.5084 9.20194ZM48.1895 14.0634C48.1793 13.7403 47.852 12.9974 47.2077 11.8347C46.5634 10.6721 46.107 10.0008 45.8384 9.82078C45.6377 9.68316 45.4218 9.6784 45.1906 9.8065C44.9594 9.93461 44.849 10.1202 44.8593 10.3634C44.8695 10.6865 45.1968 11.4294 45.8411 12.5921C46.4854 13.7547 46.9418 14.426 47.2104 14.606C47.4111 14.7436 47.627 14.7484 47.8582 14.6203C48.0894 14.4922 48.1998 14.3066 48.1895 14.0634Z" fill="black"/>
</g>
<g opacity="0.2">
<path d="M36.3657 8.10459L40.5262 5.74609C39.3337 6.07469 38.2843 7.07109 37.0547 6.93329C36.8324 6.8749 36.5987 6.8749 36.3763 6.93329C36.2373 7.02288 36.1372 7.16156 36.096 7.32168C36.0547 7.4818 36.0753 7.6516 36.1537 7.79719C36.2074 7.91038 36.279 8.01418 36.3657 8.10459Z" fill="black"/>
<path d="M25.9301 14.0245C25.9209 13.9328 25.9394 13.8406 25.9831 13.7595C26.0853 13.7951 26.1929 13.813 26.3011 13.8125L27.7374 13.0016C27.9622 12.7473 28.2187 12.5228 28.5006 12.3338C28.7728 12.1882 29.0609 12.0743 29.3592 11.9946L29.6772 11.8992L32.3272 10.4046C32.3551 10.3504 32.3929 10.3019 32.4385 10.2615C32.4795 10.2342 32.5241 10.2128 32.571 10.1979L29.8362 9.37109L29.0995 9.78449L29.02 10.3675L25.8665 12.0529C25.5543 12.2479 25.2067 12.3794 24.8436 12.4398C24.708 12.4557 24.5711 12.4557 24.4355 12.4398L19.9411 14.9891C19.9769 15.2021 20.0373 15.4102 20.1213 15.6092C19.8576 15.5601 19.6069 15.4572 19.3846 15.3071L18.4624 15.8371C19.1196 16.2717 19.7662 16.7169 20.3969 17.1886L25.9301 14.0245Z" fill="black"/>
<path d="M45.169 3.11744L42.996 1.89844L41.9678 2.48144C42.5736 3.10447 43.3562 3.5263 44.2097 3.68984L45.169 3.11744Z" fill="black"/>
<path d="M56.8556 15.9494L48.6512 1.48568C48.3321 0.926355 47.8046 0.516003 47.184 0.344215C46.5634 0.172428 45.9 0.25316 45.3387 0.56878L44.3529 1.13058L44.7292 1.49628C45.1214 1.88848 45.5242 2.28598 45.8899 2.70468L46.3881 2.42378C46.4571 2.38522 46.5386 2.37527 46.6149 2.39608C46.6912 2.41689 46.7563 2.4668 46.7962 2.53508L55.0059 17.0041C55.044 17.0738 55.0531 17.1557 55.0313 17.2321C55.0095 17.3084 54.9585 17.3731 54.8893 17.4122L43.7222 23.7722C44.6868 23.8305 45.662 23.6927 46.6266 23.804C46.9741 23.8478 47.319 23.9097 47.6601 23.9895L55.9387 19.2937C56.2198 19.1357 56.4669 18.9234 56.6654 18.6692C56.864 18.4151 57.0101 18.124 57.0954 17.813C57.1807 17.5019 57.2034 17.177 57.1622 16.8571C57.1211 16.5372 57.0168 16.2287 56.8556 15.9494Z" fill="black"/>
<path d="M6.57985 34.3558L2.72145 27.54C2.70153 27.5056 2.68861 27.4676 2.68343 27.4281C2.67824 27.3887 2.68089 27.3486 2.69123 27.3102C2.70157 27.2718 2.7194 27.2358 2.74369 27.2043C2.76797 27.1728 2.79824 27.1464 2.83275 27.1266L13.9627 20.809C13.9256 20.7242 13.878 20.6394 13.8462 20.5546C14.0034 20.5481 14.1608 20.5659 14.3126 20.6076L18.8123 18.0583C18.6639 18.0106 18.5208 17.9523 18.3776 17.8993L16.2577 17.0566L14.5617 18.0212L16.406 19.1501C15.7647 18.7579 14.4557 18.7049 13.3268 18.7208L1.80985 25.2769C1.24947 25.5951 0.83819 26.1225 0.666289 26.7436C0.494387 27.3646 0.57591 28.0284 0.892956 28.5894L4.24255 34.4936C4.39625 34.4512 4.55525 34.4141 4.70895 34.3876C5.13357 34.3266 5.56297 34.3053 5.99155 34.324C6.18812 34.3226 6.38459 34.3332 6.57985 34.3558Z" fill="black"/>
<path d="M20.3283 37.0174C20.5171 37.1865 20.7318 37.3243 20.9643 37.4255C21.2028 37.5315 21.5208 37.7859 21.3353 37.9555C20.4767 38.3477 19.4167 38.0562 18.574 38.4855C18.1129 38.7081 17.6677 39.148 17.1748 39.0155C17.771 39.3774 18.3074 39.8298 18.7648 40.3563L39.8111 28.4208C39.8111 28.336 39.8376 28.2512 39.8535 28.1611C39.854 27.9942 39.8925 27.8297 39.9662 27.6801C40.0398 27.5304 40.1466 27.3994 40.2784 27.2972C40.4103 27.195 40.5637 27.1243 40.727 27.0903C40.8903 27.0563 41.0592 27.06 41.2209 27.1011C41.4939 27.089 41.7672 27.1176 42.0318 27.1859L44.6553 25.6966C44.2953 25.0761 43.8688 24.4968 43.3833 23.9688L20.3283 37.0174Z" fill="black"/>
<path d="M16.9204 40.5196C16.4128 40.355 15.9452 40.086 15.5477 39.7299L11.3501 42.1149C11.3161 42.1347 11.2785 42.1476 11.2394 42.1527C11.2004 42.1578 11.1607 42.1551 11.1228 42.1447C11.0848 42.1344 11.0492 42.1166 11.0182 42.0924C10.9872 42.0681 10.9613 42.038 10.942 42.0036L7.23201 35.5005C6.87653 35.3776 6.4984 35.3342 6.12431 35.3733C5.69501 35.4581 5.31871 35.9563 5.55191 36.322C5.77102 36.3277 5.98469 36.3915 6.17097 36.507C6.35725 36.6225 6.50944 36.7855 6.61191 36.9792C6.38331 37.1611 6.13212 37.3125 5.8646 37.4297L9.0446 43.053C9.20259 43.337 9.41577 43.5866 9.67159 43.787C9.92742 43.9875 10.2207 44.1347 10.5343 44.2201C10.8479 44.3056 11.1753 44.3274 11.4975 44.2845C11.8196 44.2415 12.1299 44.1346 12.4101 43.9699L17.9115 40.8482L17.8479 40.8111C17.5442 40.6973 17.2346 40.6 16.9204 40.5196Z" fill="black"/>
</g>
</svg>
