<svg width="41" height="40" viewBox="0 0 41 40" fill="none" xmlns="http://www.w3.org/2000/svg">
    <path d="M28.6649 5.5C28.6649 5.10218 28.8229 4.72064 29.1042 4.43934C29.3855 4.15804 29.767 4 30.1649 4H35.1649C35.5627 4 35.9442 4.15804 36.2255 4.43934C36.5068 4.72064 36.6649 5.10218 36.6649 5.5V10.5C36.6649 10.8978 36.5068 11.2794 36.2255 11.5607C35.9442 11.842 35.5627 12 35.1649 12C34.767 12 34.3855 11.842 34.1042 11.5607C33.8229 11.2794 33.6649 10.8978 33.6649 10.5V9.12L24.7249 18.06C24.4436 18.3409 24.0624 18.4987 23.6649 18.4987C23.2674 18.4987 22.8861 18.3409 22.6049 18.06L17.6649 13.12L9.22486 21.56C9.08753 21.7074 8.92193 21.8256 8.73793 21.9076C8.55394 21.9895 8.35531 22.0336 8.1539 22.0372C7.9525 22.0407 7.75244 22.0037 7.56566 21.9282C7.37889 21.8528 7.20922 21.7405 7.06678 21.5981C6.92434 21.4556 6.81205 21.286 6.73661 21.0992C6.66117 20.9124 6.62412 20.7124 6.62767 20.511C6.63123 20.3095 6.67531 20.1109 6.7573 19.9269C6.83928 19.7429 6.95748 19.5773 7.10486 19.44L16.6049 9.94C16.8861 9.6591 17.2674 9.50132 17.6649 9.50132C18.0624 9.50132 18.4436 9.6591 18.7249 9.94L23.6649 14.88L31.5449 7H30.1649C29.767 7 29.3855 6.84196 29.1042 6.56066C28.8229 6.27936 28.6649 5.89782 28.6649 5.5ZM8.16486 28C8.56268 28 8.94421 28.158 9.22552 28.4393C9.50682 28.7206 9.66486 29.1022 9.66486 29.5V34.5C9.66486 34.8978 9.50682 35.2794 9.22552 35.5607C8.94421 35.842 8.56268 36 8.16486 36C7.76703 36 7.3855 35.842 7.1042 35.5607C6.82289 35.2794 6.66486 34.8978 6.66486 34.5V29.5C6.66486 29.1022 6.82289 28.7206 7.1042 28.4393C7.3855 28.158 7.76703 28 8.16486 28ZM17.6649 23.5C17.6649 23.1022 17.5068 22.7206 17.2255 22.4393C16.9442 22.158 16.5627 22 16.1649 22C15.767 22 15.3855 22.158 15.1042 22.4393C14.8229 22.7206 14.6649 23.1022 14.6649 23.5V34.5C14.6649 34.8978 14.8229 35.2794 15.1042 35.5607C15.3855 35.842 15.767 36 16.1649 36C16.5627 36 16.9442 35.842 17.2255 35.5607C17.5068 35.2794 17.6649 34.8978 17.6649 34.5V23.5ZM24.1649 26C24.5627 26 24.9442 26.158 25.2255 26.4393C25.5068 26.7206 25.6649 27.1022 25.6649 27.5V34.5C25.6649 34.8978 25.5068 35.2794 25.2255 35.5607C24.9442 35.842 24.5627 36 24.1649 36C23.767 36 23.3855 35.842 23.1042 35.5607C22.8229 35.2794 22.6649 34.8978 22.6649 34.5V27.5C22.6649 27.1022 22.8229 26.7206 23.1042 26.4393C23.3855 26.158 23.767 26 24.1649 26ZM33.6649 19.5C33.6649 19.1022 33.5068 18.7206 33.2255 18.4393C32.9442 18.158 32.5627 18 32.1649 18C31.767 18 31.3855 18.158 31.1042 18.4393C30.8229 18.7206 30.6649 19.1022 30.6649 19.5V34.5C30.6649 34.8978 30.8229 35.2794 31.1042 35.5607C31.3855 35.842 31.767 36 32.1649 36C32.5627 36 32.9442 35.842 33.2255 35.5607C33.5068 35.2794 33.6649 34.8978 33.6649 34.5V19.5Z" fill="#592B64"/>
</svg>
