<svg width="265" height="265" viewBox="0 0 265 265" fill="none" xmlns="http://www.w3.org/2000/svg">
<g clip-path="url(#clip0_3805_400)">
<path d="M91.3348 236.815H185.776C189.285 234.53 192.648 232.029 195.846 229.326C241.993 190.366 251.496 114.284 214.926 65.7203C194.351 38.367 159.949 27.3219 126.241 29.7811C89.7713 32.4311 51.5106 51.3838 35.6106 85.8232C16.9705 126.183 37.6034 176.565 62.5028 209.843C70.3939 220.512 80.1644 229.652 91.3348 236.815Z" fill="#283A86"/>
<path opacity="0.7" d="M91.3348 236.815H185.776C189.285 234.53 192.648 232.029 195.846 229.326C241.993 190.366 251.496 114.284 214.926 65.7203C194.351 38.367 159.949 27.3219 126.241 29.7811C89.7713 32.4311 51.5106 51.3838 35.6106 85.8232C16.9705 126.183 37.6034 176.565 62.5028 209.843C70.3939 220.512 80.1644 229.652 91.3348 236.815Z" fill="white"/>
<mask id="path-3-inside-1_3805_400" fill="white">
<path fill-rule="evenodd" clip-rule="evenodd" d="M149.164 58.4471C145.998 62.1543 145.855 62.5094 145.186 68.2713L144.493 74.2493L138.662 76.03L132.831 77.8107L126.621 86.1984C119.356 96.0097 112.915 105.397 108.329 112.856C106.53 115.784 104.799 117.919 104.482 117.602C104.166 117.286 104.682 114.124 105.63 110.577C111.515 88.5563 121.137 71.7625 137.55 54.8632L145.022 47.1699L148.735 50.8854L152.448 54.6001L149.164 58.4471ZM24.1045 81.9786C27.5833 85.7268 30.8972 88.7934 31.4686 88.7934C32.0407 88.7934 33.4382 88.1304 34.5755 87.3201C35.9498 86.3408 36.9387 86.0552 37.523 86.4682C38.5643 87.2035 58.9383 111.006 58.9383 111.487C58.9383 111.793 52.5073 113.422 47.6664 114.343C45.6798 114.721 45.5198 114.573 44.0331 110.983C41.6699 105.279 35.9743 99.8368 29.813 97.3965C25.9712 95.8747 24.3831 94.8082 22.7104 92.6261C19.2882 88.1624 18.1332 87.4625 14.16 87.4455C12.1931 87.4373 10.5845 87.2267 10.5845 86.978C10.5845 86.2147 16.9305 75.1638 17.3684 75.1638C17.5945 75.1638 20.6251 78.2305 24.1045 81.9786ZM18.6555 91.349C19.6662 92.3801 21.0984 94.0599 21.8387 95.0828C22.6675 96.2291 25.2745 97.8449 28.6321 99.2937C35.0815 102.077 39.2338 105.858 41.7577 111.246C43.1171 114.148 43.2942 115.024 42.5689 115.266C42.0588 115.436 39.558 117.533 37.0116 119.926C34.4652 122.319 30.9312 124.9 29.1578 125.66C27.3844 126.421 23.3227 128.551 20.1313 130.394C16.9407 132.236 12.6447 134.236 10.5845 134.838C3.26335 136.976 2.40252 138.486 5.81725 143.204C6.94096 144.756 7.86037 146.173 7.86037 146.352C7.86037 146.743 -2.2953 151.49 -3.13229 151.49C-4.09937 151.49 -3.79154 136.842 -2.6617 129.088C-0.810629 116.392 2.77572 103.552 7.21202 93.7342L9.13732 89.4749H12.9777C16.2685 89.4749 17.0816 89.7434 18.6555 91.349ZM133.172 108.556C133.172 108.931 132.694 109.238 132.11 109.238C131.526 109.238 131.238 108.931 131.469 108.556C131.701 108.182 132.178 107.875 132.531 107.875C132.884 107.875 133.172 108.182 133.172 108.556ZM91.6282 110.886C91.6282 111.042 91.8142 111.656 92.0416 112.249C92.3358 113.015 92.0525 113.327 91.0602 113.327C89.5 113.327 88.6044 112.318 89.2446 111.282C89.6485 110.628 91.6282 110.299 91.6282 110.886ZM74.3475 116.729C77.7663 118.873 84.3554 123.539 88.9899 127.098C93.625 130.656 98.0865 133.92 98.9045 134.351C99.7231 134.782 103.309 135.134 106.875 135.134H113.358L117.476 139.922C121.506 144.607 121.594 144.796 121.594 148.726C121.594 155.182 122.053 154.897 111.646 154.897H102.525V152.808C102.525 150.015 101.409 148.082 99.796 148.082C98.1131 148.082 91.0323 151.201 89.438 152.645C88.7699 153.25 88.223 154.272 88.223 154.915C88.223 155.921 87.1586 156.154 80.6185 156.578C76.4363 156.849 72.6259 157.22 72.1519 157.402C71.6772 157.585 70.8238 156.833 70.2538 155.73C69.0824 153.463 66.9399 152.457 62.003 151.854C55.228 151.026 54.8521 150.866 54.8521 148.793C54.8521 147.744 54.4053 146.515 53.8591 146.062C52.7756 145.162 28.4754 141.273 23.5243 141.207C21.4818 141.18 18.9307 141.865 15.8776 143.262C13.3577 144.414 10.906 145.345 10.4292 145.331C9.30213 145.297 5.63609 139.997 6.02973 138.971C6.19591 138.537 8.59112 137.461 11.3527 136.58C14.1143 135.7 18.8251 133.518 21.8217 131.733C24.8182 129.947 28.786 127.827 30.6391 127.019C32.4929 126.212 35.896 123.738 38.2027 121.521C40.5101 119.305 43.1307 117.348 44.0276 117.172C44.9246 116.997 50.1018 115.79 55.5331 114.492C60.9644 113.193 66.0211 112.288 66.7703 112.48C67.5194 112.673 70.9294 114.584 74.3475 116.729ZM97.3612 112.377C98.5435 112.831 98.7751 115.146 97.7944 116.698C97.2802 117.511 96.9288 117.392 95.7846 116.017C94.1842 114.092 93.9921 112.904 95.2037 112.415C95.6722 112.226 96.1068 112.047 96.1694 112.018C96.2328 111.988 96.7687 112.15 97.3612 112.377ZM131.376 115.559C132.854 116.642 132.3 118.286 130.051 119.49C128.599 120.268 128.207 120.236 127.237 119.265C126.258 118.286 126.231 117.91 127.031 116.414C128.046 114.518 129.549 114.223 131.376 115.559ZM117.397 124.829C118.924 125.797 118.05 128.562 115.989 129.284C113.57 130.132 113.316 129.78 114.153 126.748C114.847 124.233 115.681 123.74 117.397 124.829ZM36.9639 144.692C44.7421 145.826 51.5661 147.009 52.1279 147.322C52.777 147.684 53.0712 148.65 52.9343 149.971C52.683 152.395 52.7259 152.414 60.8507 153.622C63.9624 154.085 66.914 154.791 67.4105 155.192C67.9063 155.592 69.9289 159.529 71.9046 163.94L75.4964 171.962L74.6227 176.598C73.8701 180.588 73.8974 181.743 74.8168 184.881C76.0794 189.192 75.9275 189.57 71.0854 194.129C67.9233 197.107 66.1928 198.023 57.7567 201.181C52.4249 203.176 48.229 205.079 48.4326 205.409C49.0394 206.391 50.0106 206.145 59.6194 202.565C68.0186 199.436 69.1573 198.804 72.7893 195.248C77.8372 190.307 78.2322 189.294 76.8803 184.741C76.0127 181.818 75.9534 180.51 76.5677 177.845C77.7343 172.787 77.5171 171.16 74.9101 165.436C73.2027 161.686 72.7253 159.986 73.2837 159.64C73.7189 159.372 77.4068 158.936 81.4801 158.671C88.2836 158.23 89.0273 158.303 90.6292 159.563C93.8654 162.111 95.9215 162.065 99.4527 159.368L102.629 156.942H111.888C123.051 156.942 123.637 156.645 123.637 150.998C123.637 147.494 123.714 147.331 125.169 147.755C128.767 148.803 143.722 156.424 149.931 160.374C166.065 170.635 169.579 172.616 171.661 172.616C172.819 172.616 176.952 171.542 180.844 170.23L187.923 167.845H206.373H224.823L228.135 164.48C232.061 160.491 231.203 160.68 251.62 159.321C269.751 158.114 268.698 158.135 268.698 158.986C268.698 159.379 266.465 159.68 263.42 159.698C256.896 159.736 255.232 160.466 251.836 164.779C249.705 167.485 248.265 168.534 244.829 169.875C242.451 170.805 239.477 172.264 238.219 173.119L235.931 174.672L233.015 172.963C229.535 170.921 227.567 170.843 221.705 172.513C219.271 173.205 215.135 174.166 212.513 174.647C206.623 175.729 206.14 175.979 201.285 180.445C199.126 182.43 196.632 184.276 195.742 184.546C194.853 184.817 191.52 186.528 188.336 188.349C185.152 190.171 180.723 192.287 178.495 193.052C174.4 194.459 173.382 195.274 173.363 197.167C173.351 198.432 179.519 207.132 181.326 208.398C182.038 208.898 186.163 209.95 190.494 210.738C197.67 212.043 200.595 212.08 200.595 210.866C200.595 210.618 196.687 209.731 191.911 208.893C183.622 207.438 183.131 207.259 181.086 204.953C177.724 201.164 175.227 197.292 175.676 196.565C175.902 196.2 178.079 195.257 180.514 194.47C182.95 193.682 186.867 191.86 189.219 190.419C191.571 188.979 194.997 187.135 196.832 186.323C198.667 185.511 201.889 183.205 203.99 181.199C207.013 178.313 208.443 177.451 210.843 177.068C212.511 176.801 216.842 175.844 220.468 174.94C224.095 174.037 227.601 173.297 228.26 173.297C230.186 173.297 238.432 178.478 247.246 185.226C256.297 192.155 257.748 193.06 259.8 193.06C260.574 193.06 261.207 193.325 261.207 193.648C261.207 194.915 285.516 238.401 281.96 245.125C271.253 265.368 250.737 289.381 232.07 302.365C168.547 346.552 22.2376 325.946 -19.8752 261.025C-31.9759 242.371 -2.78633 178.453 -3.23241 159.964L-3.37679 153.96L9.22245 148.31C16.152 145.202 22.0464 142.654 22.3216 142.645C22.596 142.637 29.1851 143.558 36.9639 144.692ZM101.139 150.082C101.526 150.807 101.844 152.59 101.844 154.045C101.844 156.396 101.58 156.816 99.4602 157.827C98.1492 158.452 97.0766 159.276 97.0766 159.657C97.0766 161.868 90.8791 159.17 89.6233 156.412C88.6037 154.173 89.5456 153.116 94.6929 150.725C99.6059 148.442 100.228 148.38 101.139 150.082ZM106.271 160.723C103.249 162.273 102.513 163.519 103.296 165.765C105.124 171.016 109.329 172.077 113.149 168.254C115.928 165.473 116.01 164.509 113.701 161.764C111.704 159.389 109.481 159.077 106.271 160.723ZM112.308 161.762C113.295 162.538 114.103 163.822 114.103 164.614C114.103 166.869 111.47 169.208 108.931 169.208C107.138 169.208 106.443 168.756 105.237 166.804C103.529 164.039 104.043 162.859 107.633 161.294C110.301 160.13 110.225 160.122 112.308 161.762ZM268.015 163.927C268.011 166.808 265.921 177.719 264.098 184.371C262.291 190.967 262.262 191.016 260.154 191.016C258.549 191.016 256.408 189.757 251.39 185.863C247.738 183.029 243.224 179.613 241.358 178.272L237.967 175.834L239.768 174.651C240.759 174 243.69 172.614 246.281 171.571C250.232 169.979 251.434 169.086 253.737 166.033L256.484 162.393H262.25C267.778 162.393 268.017 162.457 268.015 163.927ZM87.2015 168.372C84.2124 170.004 83.7718 170.526 83.5927 172.651C83.1854 177.501 89.3958 180.976 91.7508 177.216C92.2786 176.372 93.1217 174.022 93.6237 171.992C94.4627 168.596 94.4368 168.23 93.2927 167.392C91.6024 166.155 91.1222 166.233 87.2015 168.372ZM92.6028 171.082C91.9865 175.322 90.5495 178.068 88.947 178.068C87.5883 178.068 84.1368 174.456 84.1368 173.034C84.1368 170.965 88.4737 167.925 91.4995 167.873C92.9917 167.847 93.0496 168.014 92.6028 171.082ZM140.274 182.863C136.124 184.399 136.489 188.022 141.033 190.403C144.106 192.014 144.166 192.019 145.137 190.708C146.156 189.332 145.868 185.321 144.638 183.763C143.771 182.665 141.869 182.273 140.274 182.863ZM144.045 184.837C144.805 186.26 145 189.856 144.352 190.505C143.865 190.992 139.742 188.62 138.526 187.154C137.782 186.257 137.893 185.887 139.228 184.804C141.265 183.154 143.151 183.168 144.045 184.837ZM101.473 187.918C99.482 189.91 99.3601 192.106 101.113 194.389C102.273 195.899 102.645 195.996 105.014 195.404C107.484 194.788 107.629 194.606 107.557 192.227C107.471 189.351 105.718 186.245 104.181 186.245C103.61 186.245 102.392 186.998 101.473 187.918ZM106.225 190.419C106.843 191.965 107.225 193.355 107.073 193.507C106.41 194.17 102.525 194.954 102.525 194.424C102.525 194.102 102.05 193.364 101.471 192.784C100.611 191.924 100.567 191.444 101.232 190.18C103.051 186.725 104.781 186.808 106.225 190.419Z"/>
</mask>
<path fill-rule="evenodd" clip-rule="evenodd" d="M149.164 58.4471C145.998 62.1543 145.855 62.5094 145.186 68.2713L144.493 74.2493L138.662 76.03L132.831 77.8107L126.621 86.1984C119.356 96.0097 112.915 105.397 108.329 112.856C106.53 115.784 104.799 117.919 104.482 117.602C104.166 117.286 104.682 114.124 105.63 110.577C111.515 88.5563 121.137 71.7625 137.55 54.8632L145.022 47.1699L148.735 50.8854L152.448 54.6001L149.164 58.4471ZM24.1045 81.9786C27.5833 85.7268 30.8972 88.7934 31.4686 88.7934C32.0407 88.7934 33.4382 88.1304 34.5755 87.3201C35.9498 86.3408 36.9387 86.0552 37.523 86.4682C38.5643 87.2035 58.9383 111.006 58.9383 111.487C58.9383 111.793 52.5073 113.422 47.6664 114.343C45.6798 114.721 45.5198 114.573 44.0331 110.983C41.6699 105.279 35.9743 99.8368 29.813 97.3965C25.9712 95.8747 24.3831 94.8082 22.7104 92.6261C19.2882 88.1624 18.1332 87.4625 14.16 87.4455C12.1931 87.4373 10.5845 87.2267 10.5845 86.978C10.5845 86.2147 16.9305 75.1638 17.3684 75.1638C17.5945 75.1638 20.6251 78.2305 24.1045 81.9786ZM18.6555 91.349C19.6662 92.3801 21.0984 94.0599 21.8387 95.0828C22.6675 96.2291 25.2745 97.8449 28.6321 99.2937C35.0815 102.077 39.2338 105.858 41.7577 111.246C43.1171 114.148 43.2942 115.024 42.5689 115.266C42.0588 115.436 39.558 117.533 37.0116 119.926C34.4652 122.319 30.9312 124.9 29.1578 125.66C27.3844 126.421 23.3227 128.551 20.1313 130.394C16.9407 132.236 12.6447 134.236 10.5845 134.838C3.26335 136.976 2.40252 138.486 5.81725 143.204C6.94096 144.756 7.86037 146.173 7.86037 146.352C7.86037 146.743 -2.2953 151.49 -3.13229 151.49C-4.09937 151.49 -3.79154 136.842 -2.6617 129.088C-0.810629 116.392 2.77572 103.552 7.21202 93.7342L9.13732 89.4749H12.9777C16.2685 89.4749 17.0816 89.7434 18.6555 91.349ZM133.172 108.556C133.172 108.931 132.694 109.238 132.11 109.238C131.526 109.238 131.238 108.931 131.469 108.556C131.701 108.182 132.178 107.875 132.531 107.875C132.884 107.875 133.172 108.182 133.172 108.556ZM91.6282 110.886C91.6282 111.042 91.8142 111.656 92.0416 112.249C92.3358 113.015 92.0525 113.327 91.0602 113.327C89.5 113.327 88.6044 112.318 89.2446 111.282C89.6485 110.628 91.6282 110.299 91.6282 110.886ZM74.3475 116.729C77.7663 118.873 84.3554 123.539 88.9899 127.098C93.625 130.656 98.0865 133.92 98.9045 134.351C99.7231 134.782 103.309 135.134 106.875 135.134H113.358L117.476 139.922C121.506 144.607 121.594 144.796 121.594 148.726C121.594 155.182 122.053 154.897 111.646 154.897H102.525V152.808C102.525 150.015 101.409 148.082 99.796 148.082C98.1131 148.082 91.0323 151.201 89.438 152.645C88.7699 153.25 88.223 154.272 88.223 154.915C88.223 155.921 87.1586 156.154 80.6185 156.578C76.4363 156.849 72.6259 157.22 72.1519 157.402C71.6772 157.585 70.8238 156.833 70.2538 155.73C69.0824 153.463 66.9399 152.457 62.003 151.854C55.228 151.026 54.8521 150.866 54.8521 148.793C54.8521 147.744 54.4053 146.515 53.8591 146.062C52.7756 145.162 28.4754 141.273 23.5243 141.207C21.4818 141.18 18.9307 141.865 15.8776 143.262C13.3577 144.414 10.906 145.345 10.4292 145.331C9.30213 145.297 5.63609 139.997 6.02973 138.971C6.19591 138.537 8.59112 137.461 11.3527 136.58C14.1143 135.7 18.8251 133.518 21.8217 131.733C24.8182 129.947 28.786 127.827 30.6391 127.019C32.4929 126.212 35.896 123.738 38.2027 121.521C40.5101 119.305 43.1307 117.348 44.0276 117.172C44.9246 116.997 50.1018 115.79 55.5331 114.492C60.9644 113.193 66.0211 112.288 66.7703 112.48C67.5194 112.673 70.9294 114.584 74.3475 116.729ZM97.3612 112.377C98.5435 112.831 98.7751 115.146 97.7944 116.698C97.2802 117.511 96.9288 117.392 95.7846 116.017C94.1842 114.092 93.9921 112.904 95.2037 112.415C95.6722 112.226 96.1068 112.047 96.1694 112.018C96.2328 111.988 96.7687 112.15 97.3612 112.377ZM131.376 115.559C132.854 116.642 132.3 118.286 130.051 119.49C128.599 120.268 128.207 120.236 127.237 119.265C126.258 118.286 126.231 117.91 127.031 116.414C128.046 114.518 129.549 114.223 131.376 115.559ZM117.397 124.829C118.924 125.797 118.05 128.562 115.989 129.284C113.57 130.132 113.316 129.78 114.153 126.748C114.847 124.233 115.681 123.74 117.397 124.829ZM36.9639 144.692C44.7421 145.826 51.5661 147.009 52.1279 147.322C52.777 147.684 53.0712 148.65 52.9343 149.971C52.683 152.395 52.7259 152.414 60.8507 153.622C63.9624 154.085 66.914 154.791 67.4105 155.192C67.9063 155.592 69.9289 159.529 71.9046 163.94L75.4964 171.962L74.6227 176.598C73.8701 180.588 73.8974 181.743 74.8168 184.881C76.0794 189.192 75.9275 189.57 71.0854 194.129C67.9233 197.107 66.1928 198.023 57.7567 201.181C52.4249 203.176 48.229 205.079 48.4326 205.409C49.0394 206.391 50.0106 206.145 59.6194 202.565C68.0186 199.436 69.1573 198.804 72.7893 195.248C77.8372 190.307 78.2322 189.294 76.8803 184.741C76.0127 181.818 75.9534 180.51 76.5677 177.845C77.7343 172.787 77.5171 171.16 74.9101 165.436C73.2027 161.686 72.7253 159.986 73.2837 159.64C73.7189 159.372 77.4068 158.936 81.4801 158.671C88.2836 158.23 89.0273 158.303 90.6292 159.563C93.8654 162.111 95.9215 162.065 99.4527 159.368L102.629 156.942H111.888C123.051 156.942 123.637 156.645 123.637 150.998C123.637 147.494 123.714 147.331 125.169 147.755C128.767 148.803 143.722 156.424 149.931 160.374C166.065 170.635 169.579 172.616 171.661 172.616C172.819 172.616 176.952 171.542 180.844 170.23L187.923 167.845H206.373H224.823L228.135 164.48C232.061 160.491 231.203 160.68 251.62 159.321C269.751 158.114 268.698 158.135 268.698 158.986C268.698 159.379 266.465 159.68 263.42 159.698C256.896 159.736 255.232 160.466 251.836 164.779C249.705 167.485 248.265 168.534 244.829 169.875C242.451 170.805 239.477 172.264 238.219 173.119L235.931 174.672L233.015 172.963C229.535 170.921 227.567 170.843 221.705 172.513C219.271 173.205 215.135 174.166 212.513 174.647C206.623 175.729 206.14 175.979 201.285 180.445C199.126 182.43 196.632 184.276 195.742 184.546C194.853 184.817 191.52 186.528 188.336 188.349C185.152 190.171 180.723 192.287 178.495 193.052C174.4 194.459 173.382 195.274 173.363 197.167C173.351 198.432 179.519 207.132 181.326 208.398C182.038 208.898 186.163 209.95 190.494 210.738C197.67 212.043 200.595 212.08 200.595 210.866C200.595 210.618 196.687 209.731 191.911 208.893C183.622 207.438 183.131 207.259 181.086 204.953C177.724 201.164 175.227 197.292 175.676 196.565C175.902 196.2 178.079 195.257 180.514 194.47C182.95 193.682 186.867 191.86 189.219 190.419C191.571 188.979 194.997 187.135 196.832 186.323C198.667 185.511 201.889 183.205 203.99 181.199C207.013 178.313 208.443 177.451 210.843 177.068C212.511 176.801 216.842 175.844 220.468 174.94C224.095 174.037 227.601 173.297 228.26 173.297C230.186 173.297 238.432 178.478 247.246 185.226C256.297 192.155 257.748 193.06 259.8 193.06C260.574 193.06 261.207 193.325 261.207 193.648C261.207 194.915 285.516 238.401 281.96 245.125C271.253 265.368 250.737 289.381 232.07 302.365C168.547 346.552 22.2376 325.946 -19.8752 261.025C-31.9759 242.371 -2.78633 178.453 -3.23241 159.964L-3.37679 153.96L9.22245 148.31C16.152 145.202 22.0464 142.654 22.3216 142.645C22.596 142.637 29.1851 143.558 36.9639 144.692ZM101.139 150.082C101.526 150.807 101.844 152.59 101.844 154.045C101.844 156.396 101.58 156.816 99.4602 157.827C98.1492 158.452 97.0766 159.276 97.0766 159.657C97.0766 161.868 90.8791 159.17 89.6233 156.412C88.6037 154.173 89.5456 153.116 94.6929 150.725C99.6059 148.442 100.228 148.38 101.139 150.082ZM106.271 160.723C103.249 162.273 102.513 163.519 103.296 165.765C105.124 171.016 109.329 172.077 113.149 168.254C115.928 165.473 116.01 164.509 113.701 161.764C111.704 159.389 109.481 159.077 106.271 160.723ZM112.308 161.762C113.295 162.538 114.103 163.822 114.103 164.614C114.103 166.869 111.47 169.208 108.931 169.208C107.138 169.208 106.443 168.756 105.237 166.804C103.529 164.039 104.043 162.859 107.633 161.294C110.301 160.13 110.225 160.122 112.308 161.762ZM268.015 163.927C268.011 166.808 265.921 177.719 264.098 184.371C262.291 190.967 262.262 191.016 260.154 191.016C258.549 191.016 256.408 189.757 251.39 185.863C247.738 183.029 243.224 179.613 241.358 178.272L237.967 175.834L239.768 174.651C240.759 174 243.69 172.614 246.281 171.571C250.232 169.979 251.434 169.086 253.737 166.033L256.484 162.393H262.25C267.778 162.393 268.017 162.457 268.015 163.927ZM87.2015 168.372C84.2124 170.004 83.7718 170.526 83.5927 172.651C83.1854 177.501 89.3958 180.976 91.7508 177.216C92.2786 176.372 93.1217 174.022 93.6237 171.992C94.4627 168.596 94.4368 168.23 93.2927 167.392C91.6024 166.155 91.1222 166.233 87.2015 168.372ZM92.6028 171.082C91.9865 175.322 90.5495 178.068 88.947 178.068C87.5883 178.068 84.1368 174.456 84.1368 173.034C84.1368 170.965 88.4737 167.925 91.4995 167.873C92.9917 167.847 93.0496 168.014 92.6028 171.082ZM140.274 182.863C136.124 184.399 136.489 188.022 141.033 190.403C144.106 192.014 144.166 192.019 145.137 190.708C146.156 189.332 145.868 185.321 144.638 183.763C143.771 182.665 141.869 182.273 140.274 182.863ZM144.045 184.837C144.805 186.26 145 189.856 144.352 190.505C143.865 190.992 139.742 188.62 138.526 187.154C137.782 186.257 137.893 185.887 139.228 184.804C141.265 183.154 143.151 183.168 144.045 184.837ZM101.473 187.918C99.482 189.91 99.3601 192.106 101.113 194.389C102.273 195.899 102.645 195.996 105.014 195.404C107.484 194.788 107.629 194.606 107.557 192.227C107.471 189.351 105.718 186.245 104.181 186.245C103.61 186.245 102.392 186.998 101.473 187.918ZM106.225 190.419C106.843 191.965 107.225 193.355 107.073 193.507C106.41 194.17 102.525 194.954 102.525 194.424C102.525 194.102 102.05 193.364 101.471 192.784C100.611 191.924 100.567 191.444 101.232 190.18C103.051 186.725 104.781 186.808 106.225 190.419Z" fill="#283A86" stroke="#073044" stroke-width="1.06" mask="url(#path-3-inside-1_3805_400)"/>
<path d="M224.823 226.091V276.378H-34.374V193.016L-18.367 182.245L-18.232 181.907L-9.22571 158.447L15.3151 142.141L24.4757 120.84L103.604 125.449L128.714 161.619L163.11 184.01L163.659 184.366L168.693 210.199L223.589 225.753H223.599L224.823 226.091Z" fill="#283A86"/>
<mask id="mask0_3805_400" style="mask-type:luminance" maskUnits="userSpaceOnUse" x="-35" y="120" width="260" height="157">
<path d="M224.823 226.091V276.378H-34.374V193.016L-18.367 182.245L-18.232 181.907L-9.22571 158.447L15.3151 142.141L24.4757 120.84L103.604 125.449L128.714 161.619L163.11 184.01L163.659 184.366L168.693 210.199L223.589 225.753H223.599L224.823 226.091Z" fill="white"/>
</mask>
<g mask="url(#mask0_3805_400)">
<path opacity="0.6" d="M224.823 226.091V276.378H-34.374V193.016L-18.367 182.245L-18.232 181.907L-9.22571 158.447L15.3151 142.141L24.4757 120.84L103.604 125.449L128.714 161.619L163.11 184.01L163.659 184.366L168.693 210.199L223.589 225.753H223.599L224.823 226.091Z" fill="white"/>
<path opacity="0.5" d="M57.049 224.162L168.693 210.199L161.567 267.998L224.823 276.377H-34.374L63.9532 263.485L57.049 224.162Z" fill="#283A86"/>
<path opacity="0.5" d="M-6.96896 161.166L77.1737 179.024L57.0493 224.162L-18.3667 182.245L-6.96896 161.166Z" fill="#283A86"/>
<path opacity="0.5" d="M102.968 128.408L124.24 161.165L79.7485 177.413L78.1382 138.9L102.968 128.408Z" fill="#283A86"/>
<g opacity="0.5">
<path d="M24.4663 120.84L56.2006 144.908L103.604 125.449L24.4663 120.84Z" fill="white"/>
<path d="M57.5122 151.62L95.225 136.799L57.0493 163.876L-7.47998 157.299L13.8209 143.144L57.5122 151.62Z" fill="white"/>
<path d="M163.11 184.01L70.4813 214.809L-34.374 193.016L-18.367 182.245L-18.232 181.908L88.7833 195.398L128.714 168.707V161.619L163.11 184.01Z" fill="white"/>
<path d="M223.589 225.753L121.974 232.532V224.48L168.693 210.199L223.589 225.753Z" fill="white"/>
<path d="M110.383 240.602L-34.374 267.187V212.262L110.383 240.602Z" fill="white"/>
</g>
</g>
<path d="M224.823 226.091V276.378H-34.374V193.016L-18.367 182.245L-18.232 181.907L-9.22571 158.447L15.3151 142.141L24.4757 120.84L103.604 125.449L128.714 161.619L163.11 184.01L163.659 184.366L168.693 210.199L223.589 225.753H223.599L224.823 226.091Z" stroke="#073044" stroke-width="0.53" stroke-linecap="round" stroke-linejoin="round"/>
<path d="M224.824 226.091L122.63 235.416L-21.4717 198.609" stroke="#073044" stroke-width="0.53" stroke-linecap="round" stroke-linejoin="round"/>
<path d="M-18.3667 182.244L86.8454 194.819L126.188 167.096" stroke="#073044" stroke-width="0.53" stroke-linecap="round" stroke-linejoin="round"/>
<path d="M163.66 184.367L102.968 206.43" stroke="#073044" stroke-width="0.53" stroke-linecap="round" stroke-linejoin="round"/>
<path d="M15.3154 142.141L57.5121 151.62L98.7735 131.418" stroke="#073044" stroke-width="0.53" stroke-linecap="round" stroke-linejoin="round"/>
<path d="M-9.22559 158.447L51.0609 163.876" stroke="#073044" stroke-width="0.53" stroke-linecap="round" stroke-linejoin="round"/>
<path d="M17.0342 237.244H247.181" stroke="#073044" stroke-width="0.53" stroke-linecap="round" stroke-linejoin="round"/>
<path d="M165.388 90.5631C165.388 90.5631 177.278 82.239 179.928 81.2086C182.577 80.1781 187.765 78.532 190.501 78.586C193.237 78.64 211.269 78.8353 211.269 78.8353L219.711 75.1581L235.815 98.9844L221.307 105.086C221.307 105.086 210.225 113.341 205.692 118.075C201.16 122.808 193.523 124.641 193.523 124.641C193.523 124.641 189.456 126.744 187.831 126.872C186.207 127 181.476 124.244 181.476 124.244C181.476 124.244 178.453 125.712 176.326 124.654C173.836 123.267 171.536 121.563 169.484 119.585C168.684 118.686 168.008 117.684 167.471 116.607C167.471 116.607 158.448 107.904 156.745 103.676C155.042 99.4471 165.388 90.5631 165.388 90.5631Z" fill="white" stroke="#073044" stroke-width="0.53" stroke-linecap="round" stroke-linejoin="round"/>
<path d="M146.156 75.9849L146.377 75.9475L146.377 75.7236L146.377 72.2971L146.377 69.4937L153.958 76.8064C158.379 81.0712 164.853 86.5185 168.356 88.9198L227.609 133.373L229.722 135.348C230.385 135.968 230.864 136.553 231.151 137.066C231.441 137.586 231.513 137.992 231.433 138.279C231.247 138.945 230.906 140.151 230.674 140.96L230.929 141.033L230.674 140.96C230.531 141.46 230.095 142.143 229.458 142.904C228.828 143.656 228.023 144.458 227.176 145.192C226.329 145.927 225.445 146.589 224.658 147.066C224.264 147.305 223.899 147.494 223.578 147.623C223.253 147.754 222.991 147.816 222.799 147.816C222.597 147.816 222.308 147.747 221.934 147.596C221.565 147.446 221.132 147.224 220.652 146.936C219.691 146.359 218.556 145.528 217.373 144.519L217.201 144.72L217.373 144.519L213.442 141.162L166.314 98.0169C160.189 91.7941 152.892 85.6871 145.721 80.7843L145.721 80.7842C144.375 79.8639 143.153 78.9721 142.269 78.2775C141.826 77.9297 141.472 77.6342 141.23 77.4108C141.12 77.309 141.038 77.2261 140.982 77.1628C140.992 77.1563 141.003 77.1494 141.015 77.1421C141.131 77.0722 141.312 76.9913 141.552 76.9068C142.028 76.7387 142.693 76.5705 143.432 76.4455C143.432 76.4455 143.432 76.4455 143.432 76.4455L146.156 75.9849ZM140.913 77.0728C140.913 77.0728 140.914 77.0744 140.915 77.0773C140.914 77.0742 140.913 77.0728 140.913 77.0728ZM140.909 77.221C140.908 77.2225 140.907 77.2233 140.907 77.2233C140.907 77.2233 140.907 77.2226 140.909 77.221Z" fill="#283A86" stroke="#073044" stroke-width="0.53"/>
<path d="M193.185 106.264L199.81 111.299C196.983 115.862 195.146 118.271 191.33 122.694L184.97 117.394L193.185 106.264Z" fill="white"/>
<path d="M169.484 119.584C170.638 117.715 172.122 116.071 173.864 114.734C176.677 112.615 187.181 102.065 188.583 102.5C189.985 102.935 193.121 104.591 193.022 106.783C192.922 108.974 181.791 121.471 181.791 121.471C181.791 121.471 180.71 123.334 181.465 124.23" fill="white"/>
<path d="M169.484 119.584C170.638 117.715 172.122 116.071 173.864 114.734C176.677 112.615 187.181 102.065 188.583 102.5C189.985 102.935 193.121 104.591 193.022 106.783C192.922 108.974 181.791 121.471 181.791 121.471C181.791 121.471 180.71 123.334 181.465 124.23" stroke="#073044" stroke-width="0.53" stroke-linecap="round" stroke-linejoin="round"/>
<path d="M165.454 107.132C163.533 108.197 162.767 108.669 161.35 110.347L168.598 118.034C168.598 118.034 185.154 104.251 185.576 102.098C185.998 99.9454 183.141 97.8445 181.818 97.2068C180.496 96.5691 168.549 105.452 165.454 107.132Z" fill="white" stroke="#073044" stroke-width="0.53" stroke-linecap="round" stroke-linejoin="round"/>
<path d="M163.854 95.5905C161.933 96.6556 158.827 97.9618 157.41 99.6403C156.363 101.735 156.148 102.834 157.145 104.675C158.473 106.844 159.421 108.04 161.385 110.24L162.123 109.446C162.123 109.446 178.68 95.6638 179.101 93.5111C179.523 91.3583 176.666 89.2574 175.344 88.6197C174.022 87.982 166.949 93.9107 163.854 95.5905Z" fill="white" stroke="#073044" stroke-width="0.53" stroke-linecap="round" stroke-linejoin="round"/>
<path d="M193.03 106.777C193.03 106.777 194.248 103.267 196.258 104.469C198.269 105.672 201.899 106.75 199.558 111.582C197.217 116.415 190.16 123.799 190.16 123.799" stroke="#073044" stroke-width="0.53" stroke-linecap="round" stroke-linejoin="round"/>
<path d="M195.569 118.041C195.569 118.041 195.085 122.175 193.708 123.788" stroke="#073044" stroke-width="0.53" stroke-linecap="round" stroke-linejoin="round"/>
<path d="M198.791 106.226C198.791 106.226 199.295 107.142 198.678 108.819C198.417 109.621 198.04 110.381 197.559 111.074C196.884 111.069 196.228 110.849 195.687 110.444C194.82 109.767 194.009 109.021 193.262 108.213" stroke="#073044" stroke-width="0.53" stroke-linecap="round" stroke-linejoin="round"/>
<path d="M192.329 105.535C192.173 106.38 191.822 107.178 191.304 107.864C190.766 108.483 190.174 109.053 189.537 109.568C188.684 109.58 187.856 109.275 187.214 108.713C186.101 107.766 185.8 106.073 186.186 105.594C186.572 105.116 188.007 103.454 188.84 103.042" stroke="#073044" stroke-width="0.53" stroke-linecap="round" stroke-linejoin="round"/>
<path d="M185.075 100.762C184.796 101.575 184.331 102.311 183.717 102.913C183.093 103.446 182.424 103.922 181.717 104.338C180.872 104.223 180.099 103.8 179.547 103.149C178.586 102.048 178.538 100.329 178.991 99.9127C179.443 99.4963 181.108 98.0646 181.993 97.7808" stroke="#073044" stroke-width="0.53" stroke-linecap="round" stroke-linejoin="round"/>
<path d="M178.601 92.1736C178.322 92.9867 177.856 93.7234 177.243 94.3253C176.619 94.8579 175.95 95.3346 175.243 95.7499C174.398 95.6352 173.625 95.2119 173.072 94.5615C172.112 93.4603 172.064 91.7412 172.517 91.3248C172.969 90.9084 174.634 89.4767 175.519 89.1929" stroke="#073044" stroke-width="0.53" stroke-linecap="round" stroke-linejoin="round"/>
<path d="M183.577 122.772C183.577 122.772 184.551 124.082 185.434 124.356C186.101 124.547 186.778 124.695 187.464 124.799C187.464 124.799 185.918 126.048 183.316 123.835" stroke="#073044" stroke-width="0.53" stroke-linecap="round" stroke-linejoin="round"/>
<path d="M187.172 81.3099C187.172 81.3099 175.932 85.8968 174.042 87.8195C172.153 89.7421 167.098 96.8556 165.517 99.0165C163.936 101.178 160.645 102.956 162.423 104.438C164.202 105.92 167.479 106.216 170.128 105.185C172.777 104.155 174.894 101.665 175.869 100.222C176.844 98.7786 178.72 96.5762 178.72 96.5762L183.791 96.8537C183.791 96.8537 193.36 100.458 199.411 99.289C205.461 98.1197 209.882 93.5264 209.882 93.5264" fill="white"/>
<path d="M187.172 81.3099C187.172 81.3099 175.932 85.8968 174.042 87.8195C172.153 89.7421 167.098 96.8556 165.517 99.0165C163.936 101.178 160.645 102.956 162.423 104.438C164.202 105.92 167.479 106.216 170.128 105.185C172.777 104.155 174.894 101.665 175.869 100.222C176.844 98.7786 178.72 96.5762 178.72 96.5762L183.791 96.8537C183.791 96.8537 193.36 100.458 199.411 99.289C205.461 98.1197 209.882 93.5264 209.882 93.5264" stroke="#073044" stroke-width="0.53" stroke-linecap="round" stroke-linejoin="round"/>
<path d="M166.331 98.781C166.331 98.781 166.188 99.139 166.654 99.5362L168.232 100.881C168.232 100.881 168.275 101.396 167.098 102.963C165.921 104.531 164.777 105.311 163.732 105.226" stroke="#073044" stroke-width="0.53" stroke-linecap="round" stroke-linejoin="round"/>
<path d="M172.665 91.3496C173.123 92.318 173.69 93.2313 174.355 94.0717C174.738 94.5537 175.151 95.0123 175.589 95.4451C174.058 94.8767 172.776 93.7852 171.972 92.3635" stroke="#073044" stroke-width="0.53" stroke-linecap="round" stroke-linejoin="round"/>
<path d="M173.534 90.3254C174.253 90.9386 174.796 91.7327 175.105 92.6257" stroke="#073044" stroke-width="0.53" stroke-linecap="round" stroke-linejoin="round"/>
<path d="M214.129 76.6013L234.038 108.977L295.705 72.4643L276.301 39.8695L214.129 76.6013Z" fill="white" stroke="#073044" stroke-width="0.53" stroke-linecap="round" stroke-linejoin="round"/>
</g>
<defs>
<clipPath id="clip0_3805_400">
<rect width="265" height="265" fill="white"/>
</clipPath>
</defs>
</svg>
