<svg width="265" height="265" viewBox="0 0 265 265" fill="none" xmlns="http://www.w3.org/2000/svg">
<path d="M14.8931 149.8C14.8931 149.8 25.0691 191.331 66.3031 213.215C107.537 235.098 156.965 228.855 197.213 224.827C237.461 220.799 263.23 193.53 260.76 159.292C258.29 125.054 225.907 120.311 201.4 85.0022C176.893 49.6936 175.759 36.91 136.014 19.3352C96.2693 1.76041 44.854 25.303 24.7935 70.2417C4.73301 115.18 14.8931 149.8 14.8931 149.8Z" fill="#283A86"/>
<path opacity="0.7" d="M14.8931 149.8C14.8931 149.8 25.0691 191.331 66.3031 213.215C107.537 235.098 156.965 228.855 197.213 224.827C237.461 220.799 263.23 193.53 260.76 159.292C258.29 125.054 225.907 120.311 201.4 85.0022C176.893 49.6936 175.759 36.91 136.014 19.3352C96.2693 1.76041 44.854 25.303 24.7935 70.2417C4.73301 115.18 14.8931 149.8 14.8931 149.8Z" fill="white"/>
<path d="M34.8052 35.334V220.919" stroke="#073044" stroke-width="0.53" stroke-miterlimit="10"/>
<path d="M34.8052 28.1797V31.7307" stroke="#073044" stroke-width="0.53" stroke-miterlimit="10"/>
<path d="M102.385 28.1797V220.919" stroke="#073044" stroke-width="0.53" stroke-miterlimit="10"/>
<path d="M169.966 28.1797V220.919" stroke="#073044" stroke-width="0.53" stroke-miterlimit="10"/>
<path d="M237.546 55.6602V220.919" stroke="#073044" stroke-width="0.53" stroke-miterlimit="10"/>
<path d="M237.546 28.1797V51.028" stroke="#073044" stroke-width="0.53" stroke-miterlimit="10"/>
<path d="M201.829 54.5215H47.0747V146.238H201.829V54.5215Z" fill="#073044"/>
<path d="M200.954 57.1289H47.9487V143.63H200.954V57.1289Z" fill="white" stroke="#073044" stroke-width="0.53" stroke-linecap="round" stroke-linejoin="round"/>
<path d="M202.698 52.9531H45.3096V57.8715H202.698V52.9531Z" fill="#073044"/>
<path d="M126.188 52.8842C128.632 52.8842 130.613 50.9028 130.613 48.4587C130.613 46.0146 128.632 44.0332 126.188 44.0332C123.744 44.0332 121.762 46.0146 121.762 48.4587C121.762 50.9028 123.744 52.8842 126.188 52.8842Z" fill="white" stroke="#073044" stroke-width="0.53" stroke-linecap="round" stroke-linejoin="round"/>
<path d="M128.519 48.4595C128.521 48.921 128.385 49.3724 128.129 49.7565C127.873 50.1407 127.51 50.4405 127.084 50.6178C126.658 50.7951 126.188 50.842 125.736 50.7526C125.283 50.6633 124.867 50.4416 124.54 50.1157C124.214 49.7897 123.991 49.3742 123.901 48.9217C123.81 48.4692 123.856 48.0001 124.032 47.5736C124.209 47.1472 124.508 46.7827 124.891 46.5262C125.275 46.2697 125.726 46.1328 126.187 46.1328C126.805 46.1328 127.397 46.3778 127.835 46.814C128.272 47.2502 128.518 47.8419 128.519 48.4595Z" fill="#283A86" stroke="#073044" stroke-width="0.53" stroke-miterlimit="10"/>
<path d="M75.7317 113.304H56.8213V94.1289H88.9817V113.304H79.3304" stroke="#073044" stroke-width="0.53" stroke-miterlimit="10"/>
<path d="M107.866 122.484H82.1978V137.791H107.866V122.484Z" stroke="#073044" stroke-width="0.53" stroke-miterlimit="10"/>
<path d="M136.194 94.1289H139.432V113.304H107.272V94.1289H133.109" stroke="#073044" stroke-width="0.53" stroke-miterlimit="10"/>
<path d="M109.949 66.0977H147.695V85.2784H99.0146V66.0977H106.35" stroke="#073044" stroke-width="0.53" stroke-miterlimit="10"/>
<path d="M189.592 94.1289H157.431V113.304H189.592V94.1289Z" stroke="#073044" stroke-width="0.53" stroke-miterlimit="10"/>
<path d="M96.3592 75.541C96.3592 75.541 79.2932 77.9101 69.2656 92.3685" stroke="#073044" stroke-width="0.53" stroke-miterlimit="10"/>
<path d="M57.5052 72.0807C59.8901 67.5757 65.9851 62.8058 73.6999 63.5345" stroke="#073044" stroke-width="0.53" stroke-miterlimit="10"/>
<path d="M85.4414 115.371L87.6992 121.964" stroke="#073044" stroke-width="0.53" stroke-miterlimit="10"/>
<path d="M108.751 114.777L106.684 120.973" stroke="#073044" stroke-width="0.53" stroke-miterlimit="10"/>
<path d="M85.2188 119.791L87.6992 121.964L88.3193 119.018" stroke="#073044" stroke-width="0.53" stroke-miterlimit="10"/>
<path d="M105.671 119.018L106.599 121.498L109.233 119.945" stroke="#073044" stroke-width="0.53" stroke-miterlimit="10"/>
<path d="M69.7267 89.4277L69.2656 92.3692L72.5145 90.3552" stroke="#073044" stroke-width="0.53" stroke-miterlimit="10"/>
<path d="M70.7947 64.7849L73.9081 63.5867L70.1258 61.5481" stroke="#073044" stroke-width="0.53" stroke-miterlimit="10"/>
<path d="M140.375 103.213H156.488" stroke="#073044" stroke-width="0.53" stroke-miterlimit="10"/>
<path d="M153.08 101.199L156.647 103.213L153.393 105.227" stroke="#073044" stroke-width="0.53" stroke-miterlimit="10"/>
<path d="M89.5171 103.213H105.629" stroke="#073044" stroke-width="0.53" stroke-miterlimit="10"/>
<path d="M102.221 101.199L105.783 103.213L102.534 105.227" stroke="#073044" stroke-width="0.53" stroke-miterlimit="10"/>
<path d="M123.235 86.8086V91.7111" stroke="#073044" stroke-width="0.53" stroke-miterlimit="10"/>
<path d="M125.244 88.2988L123.23 91.8657L121.222 88.6115" stroke="#073044" stroke-width="0.53" stroke-miterlimit="10"/>
<path d="M156.334 109.006H140.837" stroke="#073044" stroke-width="0.53" stroke-miterlimit="10"/>
<path d="M144.112 106.992L140.688 109.006L143.815 111.02" stroke="#073044" stroke-width="0.53" stroke-miterlimit="10"/>
<path d="M109.079 72.0762H138.208" stroke="#073044" stroke-width="0.53" stroke-miterlimit="10"/>
<path d="M109.079 74.8633H138.208" stroke="#073044" stroke-width="0.53" stroke-miterlimit="10"/>
<path d="M109.079 77.6504H138.208" stroke="#073044" stroke-width="0.53" stroke-miterlimit="10"/>
<path d="M59.8105 101.199H85.9978" stroke="#073044" stroke-width="0.53" stroke-miterlimit="10"/>
<path d="M59.8105 103.992H85.9978" stroke="#073044" stroke-width="0.53" stroke-miterlimit="10"/>
<path d="M59.8105 106.779H85.9978" stroke="#073044" stroke-width="0.53" stroke-miterlimit="10"/>
<path d="M110.632 101.199H136.814" stroke="#073044" stroke-width="0.53" stroke-miterlimit="10"/>
<path d="M110.632 103.992H136.814" stroke="#073044" stroke-width="0.53" stroke-miterlimit="10"/>
<path d="M110.632 106.779H136.814" stroke="#073044" stroke-width="0.53" stroke-miterlimit="10"/>
<path d="M159.588 101.199H185.77" stroke="#073044" stroke-width="0.53" stroke-miterlimit="10"/>
<path d="M159.588 103.992H185.77" stroke="#073044" stroke-width="0.53" stroke-miterlimit="10"/>
<path d="M159.588 106.779H185.77" stroke="#073044" stroke-width="0.53" stroke-miterlimit="10"/>
<path d="M85.5312 127.693H105.518" stroke="#073044" stroke-width="0.53" stroke-miterlimit="10"/>
<path d="M85.5312 130.48H105.518" stroke="#073044" stroke-width="0.53" stroke-miterlimit="10"/>
<path d="M85.5312 133.275H105.518" stroke="#073044" stroke-width="0.53" stroke-miterlimit="10"/>
<path d="M174.158 74.5079C174.101 74.5066 174.046 74.4872 174.001 74.4525C173.957 74.4178 173.924 74.3696 173.909 74.315C173.893 74.2604 173.896 74.2024 173.916 74.1493C173.936 74.0963 173.972 74.051 174.02 74.0203L174.221 73.8931L174.147 73.9355C174.088 73.961 174.022 73.9642 173.961 73.9445C173.9 73.9249 173.848 73.8837 173.815 73.8286C173.782 73.7735 173.77 73.7083 173.781 73.6451C173.793 73.5819 173.827 73.525 173.877 73.485L174.937 72.8119L174.009 73.3419C173.95 73.3716 173.882 73.378 173.818 73.3598C173.754 73.3415 173.699 73.2999 173.665 73.2433C173.63 73.1866 173.618 73.119 173.631 73.0538C173.643 72.9887 173.68 72.9307 173.734 72.8914L175.631 71.6512L173.834 72.7112C173.775 72.7448 173.705 72.7542 173.639 72.7374C173.573 72.7206 173.516 72.6789 173.479 72.6211C173.444 72.5621 173.433 72.4921 173.448 72.4252C173.463 72.3583 173.502 72.2995 173.559 72.2607L176.516 70.2838L173.633 71.9427C173.575 71.9765 173.506 71.9865 173.441 71.9707C173.376 71.9549 173.319 71.9145 173.283 71.8579C173.264 71.8301 173.251 71.7988 173.244 71.7659C173.237 71.7329 173.237 71.699 173.244 71.6659C173.25 71.6329 173.263 71.6015 173.282 71.5735C173.3 71.5455 173.324 71.5215 173.352 71.5028L177.788 68.3228L173.357 70.8827C173.298 70.9163 173.228 70.9257 173.162 70.9089C173.096 70.8921 173.039 70.8504 173.002 70.7926C172.966 70.7354 172.953 70.6663 172.967 70.5999C172.981 70.5336 173.02 70.4753 173.077 70.4375L176.257 68.2327L173.13 70.04C173.072 70.073 173.004 70.0831 172.939 70.0684C172.874 70.0537 172.818 70.0152 172.78 69.9605C172.743 69.9033 172.731 69.8342 172.745 69.7678C172.758 69.7015 172.798 69.6432 172.854 69.6054L174.656 68.3917L172.955 69.3722C172.895 69.4058 172.825 69.4152 172.759 69.3984C172.693 69.3816 172.636 69.3399 172.6 69.2821C172.564 69.2243 172.552 69.1547 172.567 69.0883C172.582 69.0219 172.622 68.964 172.679 68.927L173.84 68.1426L172.78 68.7521C172.722 68.7791 172.656 68.7843 172.595 68.7667C172.533 68.7492 172.48 68.71 172.446 68.6565C172.411 68.6029 172.396 68.5386 172.405 68.4754C172.414 68.4121 172.445 68.3541 172.494 68.3122L175.594 66.0173L172.525 67.7875C172.467 67.8187 172.399 67.8271 172.335 67.8109C172.271 67.7948 172.216 67.7554 172.179 67.7003C172.143 67.6453 172.128 67.5786 172.138 67.5134C172.148 67.4481 172.182 67.389 172.234 67.3476L174.979 65.2276L172.25 66.7805C172.191 66.8133 172.121 66.8228 172.056 66.8071C171.99 66.7914 171.933 66.7516 171.895 66.6957C171.858 66.6391 171.844 66.5705 171.857 66.5042C171.87 66.4379 171.908 66.3792 171.964 66.3406L173.304 65.3495L172.064 66.0703C172.005 66.1031 171.936 66.1126 171.87 66.0969C171.805 66.0812 171.747 66.0414 171.709 65.9855C171.673 65.9292 171.659 65.8613 171.671 65.7954C171.683 65.7296 171.719 65.6706 171.773 65.6304L172.87 64.7983L171.879 65.3707C171.821 65.4045 171.752 65.4145 171.687 65.3987C171.622 65.3829 171.565 65.3425 171.529 65.2859C171.492 65.2308 171.476 65.1638 171.486 65.098C171.496 65.0322 171.53 64.9725 171.582 64.9308L172.112 64.5015L171.688 64.7453C171.636 64.7763 171.574 64.788 171.514 64.7783C171.454 64.7687 171.399 64.7382 171.359 64.6923C171.322 64.6447 171.302 64.5859 171.302 64.5253C171.302 64.4648 171.322 64.406 171.359 64.3584L172.197 63.2984L171.434 63.7383C171.39 63.7668 171.34 63.782 171.288 63.782C171.236 63.782 171.185 63.7668 171.142 63.7383C171.101 63.7073 171.07 63.6655 171.053 63.6177C171.035 63.5699 171.031 63.5179 171.041 63.468L171.121 63.1447C171.076 63.1417 171.032 63.1281 170.994 63.1051C170.955 63.082 170.922 63.0502 170.898 63.0122C170.865 62.9507 170.857 62.8789 170.876 62.8117C170.895 62.7446 170.939 62.6873 170.999 62.6518L171.381 62.4292C171.425 62.4043 171.476 62.3929 171.528 62.3964C171.579 62.4 171.628 62.4183 171.669 62.4491C171.71 62.48 171.741 62.5221 171.758 62.5703C171.776 62.6185 171.779 62.6707 171.767 62.7207L171.699 62.991L173.098 62.1854C173.151 62.156 173.213 62.1458 173.272 62.1565C173.332 62.1671 173.387 62.198 173.426 62.244C173.466 62.29 173.489 62.3482 173.491 62.4089C173.493 62.4696 173.474 62.5292 173.437 62.5776L172.605 63.6376L175.112 62.1907C175.17 62.1589 175.237 62.1494 175.302 62.164C175.366 62.1787 175.423 62.2164 175.462 62.2702C175.498 62.3258 175.513 62.3933 175.502 62.4591C175.491 62.525 175.456 62.5843 175.403 62.6253L174.873 63.0599L176.198 62.2914C176.256 62.2602 176.324 62.2518 176.388 62.2679C176.452 62.284 176.508 62.3235 176.544 62.3785C176.581 62.4336 176.596 62.5002 176.585 62.5655C176.575 62.6307 176.541 62.6899 176.49 62.7313L175.393 63.5634L177.2 62.5034C177.259 62.4706 177.328 62.4611 177.394 62.4768C177.46 62.4925 177.517 62.5322 177.555 62.5882C177.591 62.6445 177.605 62.7124 177.593 62.7782C177.581 62.8441 177.545 62.9031 177.491 62.9433L176.145 63.9344L178.165 62.7684C178.193 62.7492 178.225 62.7359 178.259 62.7291C178.293 62.7224 178.327 62.7223 178.361 62.729C178.395 62.7356 178.427 62.7488 178.455 62.7679C178.484 62.7869 178.508 62.8114 178.528 62.8399C178.547 62.8685 178.56 62.9005 178.567 62.9342C178.574 62.9679 178.574 63.0026 178.567 63.0363C178.56 63.07 178.547 63.1021 178.528 63.1307C178.509 63.1593 178.485 63.1838 178.456 63.203L175.711 65.323L179.331 63.203C179.39 63.1702 179.459 63.1607 179.525 63.1764C179.59 63.1921 179.648 63.2318 179.686 63.2878C179.722 63.3441 179.735 63.412 179.724 63.4778C179.712 63.5437 179.676 63.6027 179.622 63.6429L176.516 65.9378L180.343 63.733C180.402 63.6989 180.471 63.6887 180.537 63.7045C180.603 63.7203 180.661 63.7608 180.698 63.8178C180.735 63.8758 180.747 63.9457 180.734 64.013C180.72 64.0802 180.68 64.1394 180.624 64.1782L179.458 64.9573L180.963 64.0881C181.022 64.06 181.088 64.0545 181.151 64.0725C181.213 64.0905 181.267 64.1308 181.302 64.1857C181.336 64.2406 181.349 64.3064 181.339 64.3705C181.328 64.4345 181.294 64.4925 181.244 64.5333L179.447 65.747L181.567 64.5174C181.626 64.4893 181.693 64.4838 181.755 64.5018C181.817 64.5198 181.871 64.5601 181.906 64.615C181.94 64.6699 181.954 64.7357 181.943 64.7998C181.932 64.8638 181.899 64.9218 181.848 64.9626L178.668 67.1674L182.283 65.0792C182.341 65.0511 182.408 65.0456 182.471 65.0636C182.533 65.0816 182.587 65.1219 182.621 65.1768C182.656 65.2317 182.669 65.2975 182.659 65.3616C182.648 65.4256 182.614 65.4836 182.564 65.5244L178.127 68.7044L183.067 65.8477C183.126 65.8141 183.197 65.8047 183.263 65.8215C183.329 65.8383 183.386 65.8799 183.422 65.9378C183.441 65.9659 183.454 65.9974 183.46 66.0306C183.467 66.0637 183.466 66.0978 183.459 66.1309C183.453 66.1639 183.439 66.1953 183.42 66.2231C183.401 66.2509 183.376 66.2746 183.348 66.2929L180.385 68.2804L183.602 66.4201C183.662 66.3903 183.73 66.3839 183.794 66.4022C183.858 66.4205 183.913 66.462 183.947 66.5187C183.982 66.5753 183.994 66.643 183.981 66.7081C183.968 66.7733 183.932 66.8313 183.878 66.8706L181.981 68.1108L184.01 66.9395C184.07 66.9045 184.14 66.8944 184.207 66.9112C184.273 66.9281 184.33 66.9707 184.366 67.0296C184.384 67.058 184.397 67.0898 184.403 67.1232C184.409 67.1566 184.408 67.1908 184.401 67.2239C184.393 67.2569 184.379 67.2882 184.36 67.3158C184.34 67.3434 184.315 67.3669 184.286 67.3847L183.226 68.0631L184.323 67.4271C184.382 67.3921 184.453 67.382 184.519 67.3988C184.586 67.4157 184.643 67.4583 184.678 67.5172C184.713 67.5761 184.724 67.6462 184.71 67.7131C184.695 67.78 184.655 67.8388 184.599 67.8776L184.397 68.0048L184.625 67.8723C184.684 67.8442 184.751 67.8387 184.813 67.8567C184.876 67.8747 184.929 67.915 184.964 67.9699C184.998 68.0248 185.012 68.0906 185.001 68.1547C184.991 68.2187 184.957 68.2767 184.906 68.3175L181.853 70.4905L185.033 68.6514C185.092 68.6159 185.162 68.605 185.228 68.6209C185.295 68.6367 185.352 68.6782 185.388 68.7362C185.425 68.7942 185.438 68.8641 185.424 68.9314C185.41 68.9986 185.371 69.0578 185.314 69.0966L185.245 69.139C185.304 69.1054 185.374 69.0956 185.44 69.1118C185.506 69.128 185.563 69.1688 185.6 69.2259C185.636 69.2829 185.65 69.3519 185.637 69.4186C185.624 69.4852 185.587 69.5445 185.532 69.5842L184.938 70.0029L185.5 69.6849C185.553 69.6505 185.617 69.6369 185.68 69.6466C185.743 69.6564 185.8 69.6888 185.841 69.7378C185.881 69.7868 185.902 69.8489 185.9 69.9124C185.898 69.9759 185.872 70.0364 185.828 70.0824L184.821 71.2431L185.797 70.6813C185.844 70.6534 185.898 70.6414 185.953 70.6471C186.007 70.6529 186.058 70.676 186.099 70.7131C186.14 70.7488 186.17 70.7965 186.183 70.8497C186.196 70.9028 186.193 70.9588 186.173 71.0099L186.067 71.259C186.118 71.2533 186.17 71.2628 186.217 71.2863C186.263 71.3099 186.301 71.3464 186.327 71.3915C186.361 71.452 186.371 71.5238 186.353 71.5913C186.335 71.6588 186.291 71.7165 186.231 71.7519L185.669 72.0752C185.622 72.1037 185.567 72.1164 185.512 72.1113C185.457 72.1063 185.405 72.0838 185.363 72.0471C185.322 72.0104 185.293 71.9615 185.282 71.9075C185.27 71.8534 185.276 71.797 185.298 71.7466L185.388 71.524L183.719 72.4886C183.665 72.5173 183.602 72.5264 183.542 72.5143C183.482 72.5021 183.428 72.4696 183.389 72.422C183.351 72.3745 183.33 72.315 183.33 72.2537C183.33 72.1924 183.351 72.1331 183.39 72.0858L184.397 70.9251L180.534 73.1405C180.475 73.173 180.407 73.1823 180.342 73.1666C180.277 73.1509 180.221 73.1113 180.184 73.0557C180.165 73.0279 180.152 72.9966 180.145 72.9637C180.138 72.9307 180.138 72.8968 180.144 72.8638C180.151 72.8307 180.164 72.7993 180.182 72.7713C180.201 72.7433 180.225 72.7192 180.253 72.7006L180.846 72.2766L178.647 73.5433C178.587 73.5769 178.517 73.5863 178.451 73.5695C178.385 73.5527 178.328 73.511 178.292 73.4532C178.256 73.3954 178.244 73.3258 178.259 73.2594C178.274 73.193 178.314 73.135 178.371 73.0981L178.435 73.0504L176.967 73.8984C176.909 73.9322 176.84 73.9422 176.775 73.9264C176.71 73.9106 176.653 73.8702 176.617 73.8136C176.598 73.7858 176.585 73.7545 176.578 73.7216C176.571 73.6886 176.571 73.6547 176.577 73.6216C176.584 73.5886 176.597 73.5572 176.615 73.5292C176.634 73.5012 176.658 73.4772 176.686 73.4585L179.755 71.3014L174.29 74.4549C174.253 74.4857 174.206 74.5042 174.158 74.5079Z" fill="#283A86"/>
<path d="M165.991 81.9278C164.793 80.9088 163.828 79.644 163.162 78.2192C162.497 76.7944 162.145 75.243 162.132 73.6704C162.132 67.4164 167.554 62.3496 174.243 62.3496C180.931 62.3496 186.359 67.4164 186.359 73.6704C186.359 79.9244 180.937 84.9912 174.243 84.9912C172.49 84.9915 170.756 84.6306 169.15 83.9312" stroke="#073044" stroke-width="0.53" stroke-miterlimit="10"/>
<path d="M151.463 71.2266H159.111" stroke="#073044" stroke-width="0.53" stroke-miterlimit="10"/>
<path d="M151.463 73.8613H159.111" stroke="#073044" stroke-width="0.53" stroke-miterlimit="10"/>
<path d="M151.463 76.5H159.111" stroke="#073044" stroke-width="0.53" stroke-miterlimit="10"/>
<path d="M59.0156 116.197H72.467" stroke="#073044" stroke-width="0.53" stroke-miterlimit="10"/>
<path d="M59.0156 118.838H72.467" stroke="#073044" stroke-width="0.53" stroke-miterlimit="10"/>
<path d="M59.0156 121.471H72.467" stroke="#073044" stroke-width="0.53" stroke-miterlimit="10"/>
<path d="M59.0156 127.01H72.467" stroke="#073044" stroke-width="0.53" stroke-miterlimit="10"/>
<path d="M59.0156 129.648H72.467" stroke="#073044" stroke-width="0.53" stroke-miterlimit="10"/>
<path d="M59.0156 132.289H72.467" stroke="#073044" stroke-width="0.53" stroke-miterlimit="10"/>
<path d="M171.021 62.6367L174.291 74.4716L186.253 71.7421" stroke="#073044" stroke-width="0.53" stroke-miterlimit="10"/>
<path d="M56.3652 69.1074V82.2832H77.5228" stroke="#073044" stroke-width="0.53" stroke-miterlimit="10"/>
<path d="M68.4069 70.9043H64.0132V82.2834H68.4069V70.9043Z" fill="#283A86" stroke="#073044" stroke-width="0.53" stroke-miterlimit="10"/>
<path d="M62.9533 73.4961H58.5596V82.2782H62.9533V73.4961Z" fill="#283A86" stroke="#073044" stroke-width="0.53" stroke-miterlimit="10"/>
<path d="M73.8605 67.3105H69.4668V82.283H73.8605V67.3105Z" fill="#283A86" stroke="#073044" stroke-width="0.53" stroke-miterlimit="10"/>
<path d="M30.8941 150.579C30.8941 150.579 30.8941 148.363 27.7936 145.279C24.6931 142.194 22.7003 140.408 22.7003 140.408C22.7003 140.408 21.1474 145.501 24.0306 148.602C26.1474 150.783 28.4432 152.783 30.8941 154.58V150.579Z" fill="#283A86"/>
<path d="M26.3944 164.412C26.3944 164.412 26.3944 162.196 23.2939 159.112C20.1934 156.027 18.2006 154.23 18.2006 154.23C18.2006 154.23 16.6477 159.324 19.5256 162.424C21.6516 164.606 23.9563 166.605 26.4156 168.403L26.3944 164.412Z" fill="#283A86"/>
<path d="M30.698 154.352C30.698 154.352 30.9365 152.147 34.3444 149.391C37.7523 146.635 39.9253 145.088 39.9253 145.088C39.9253 145.088 40.9323 150.314 37.7417 153.096C35.403 155.04 32.907 156.786 30.2793 158.317L30.698 154.352Z" fill="#283A86"/>
<path d="M25.2653 170.687C25.2653 170.687 25.7264 168.525 29.4099 166.14C33.0934 163.755 35.4095 162.43 35.4095 162.43C35.4095 162.43 35.86 167.73 32.3938 170.162C29.8707 171.85 27.2115 173.325 24.4438 174.572L25.2653 170.687Z" fill="#283A86"/>
<path d="M26.2829 188.501C26.2829 188.501 26.2829 186.285 29.3887 183.201C32.4945 180.116 34.482 178.33 34.482 178.33C34.482 178.33 36.0296 183.423 33.1517 186.524C31.027 188.707 28.7222 190.706 26.2617 192.502L26.2829 188.501Z" fill="#283A86"/>
<path d="M26.2352 192.846C26.2352 192.846 26.5479 190.657 23.9191 187.143C21.2903 183.63 19.5678 181.6 19.5678 181.6C19.5678 181.6 17.31 186.423 19.7215 189.899C21.5076 192.358 23.4967 194.663 25.6681 196.789L26.2352 192.846Z" fill="#283A86"/>
<path d="M23.1769 205.737C23.1769 205.737 23.1769 203.521 26.2774 200.437C29.3779 197.352 31.3707 195.561 31.3707 195.561C31.3707 195.561 32.9236 200.654 30.0404 203.754C27.9162 205.939 25.6113 207.941 23.1504 209.738L23.1769 205.737Z" fill="#283A86"/>
<path d="M25.2441 217.418C25.2441 217.418 24.6876 215.272 26.8977 211.487C29.1078 207.703 30.6077 205.482 30.6077 205.482C30.6077 205.482 33.3955 210.019 31.3974 213.75C29.8982 216.397 28.1822 218.914 26.267 221.276L25.2441 217.418Z" fill="#283A86"/>
<path d="M31.1748 149.99C31.0185 152.301 30.7354 154.601 30.3268 156.88C29.1025 163.24 26.0338 167.3 24.8095 173.019C23.5852 178.737 27.1044 186.11 26.161 193.456C25.2176 200.801 22.3609 204.893 23.1771 209.795C23.9933 214.698 28.2863 227.974 28.2863 227.974" stroke="#073044" stroke-width="0.53" stroke-linecap="round" stroke-linejoin="round"/>
<path d="M30.6714 155.827L34.0104 153.262" stroke="#073044" stroke-width="0.53" stroke-linecap="round" stroke-linejoin="round"/>
<path d="M30.825 152.869L29.4258 150.383" stroke="#073044" stroke-width="0.53" stroke-linecap="round" stroke-linejoin="round"/>
<path d="M24.9951 172.78C24.9951 172.78 27.7935 170.66 30.6714 168.588" stroke="#073044" stroke-width="0.53" stroke-linecap="round" stroke-linejoin="round"/>
<path d="M26.3943 168.397C26.3943 168.397 24.0623 163.828 21.4229 160.797" stroke="#073044" stroke-width="0.53" stroke-linecap="round" stroke-linejoin="round"/>
<path d="M26.394 191.655C27.9916 188.711 30.0071 186.013 32.3777 183.646" stroke="#073044" stroke-width="0.53" stroke-linecap="round" stroke-linejoin="round"/>
<path d="M25.8537 194.76C25.0039 192.763 23.9899 190.84 22.8221 189.01C21.1897 186.604 20.9565 186.291 20.9565 186.291" stroke="#073044" stroke-width="0.53" stroke-linecap="round" stroke-linejoin="round"/>
<path d="M23.1772 209.806C23.8851 208.045 24.7267 206.34 25.6947 204.707C26.6635 203.196 27.7555 201.767 28.9595 200.436" stroke="#073044" stroke-width="0.53" stroke-linecap="round" stroke-linejoin="round"/>
<path d="M26.2564 221.276C26.0939 219.594 26.383 217.9 27.0938 216.368C28.2598 214.115 29.5795 211.158 30.1254 210.008" stroke="#073044" stroke-width="0.53" stroke-linecap="round" stroke-linejoin="round"/>
<path d="M10.6001 180.169C10.6001 180.169 10.3563 178.781 11.9675 176.502C13.5787 174.223 14.6175 172.893 14.6175 172.893C14.6175 172.893 16.1439 175.919 14.6705 178.193C13.5798 179.791 12.3565 181.294 11.0135 182.687L10.6001 180.169Z" fill="#283A86"/>
<path d="M14.9145 188.357C14.9145 188.357 14.6707 186.968 16.2819 184.684C17.8931 182.4 18.9319 181.08 18.9319 181.08C18.9319 181.08 20.453 184.106 18.9849 186.38C17.8936 187.979 16.6703 189.484 15.3279 190.88L14.9145 188.357Z" fill="#283A86"/>
<path d="M11.1303 182.517C11.1303 182.517 10.7434 181.16 8.30539 179.804C5.86739 178.447 4.34099 177.684 4.34099 177.684C4.34099 177.684 4.27739 181.076 6.58289 182.454C8.2523 183.439 10.0023 184.281 11.814 184.971L11.1303 182.517Z" fill="#283A86"/>
<path d="M16.303 192.169C16.303 192.169 15.773 190.865 13.2078 189.768C10.6426 188.671 9.04199 188.104 9.04199 188.104C9.04199 188.104 9.33879 191.48 11.7768 192.624C13.5467 193.403 15.3779 194.034 17.2517 194.511L16.303 192.169Z" fill="#283A86"/>
<path d="M17.5964 203.453C17.5964 203.453 17.3579 202.064 15.0736 200.453C12.7893 198.842 11.3636 197.951 11.3636 197.951C11.3636 197.951 10.9396 201.317 13.0861 202.949C14.6441 204.087 16.2947 205.092 18.0204 205.954L17.5964 203.453Z" fill="#283A86"/>
<path d="M18.0998 206.172C18.0998 206.172 17.6652 204.831 18.9319 202.345C20.1986 199.859 21.0519 198.396 21.0519 198.396C21.0519 198.396 22.9917 201.174 21.8575 203.617C21.007 205.354 20.0106 207.015 18.8789 208.583L18.0998 206.172Z" fill="#283A86"/>
<path d="M21.9899 217.375C21.9899 217.375 22.1542 215.976 24.3378 214.238C26.5214 212.499 27.9153 211.529 27.9153 211.529C27.9153 211.529 28.5248 214.863 26.479 216.612C24.9837 217.839 23.3881 218.938 21.709 219.898L21.9899 217.375Z" fill="#283A86"/>
<path d="M21.4176 213.919C21.4176 213.919 21.2003 212.53 18.8948 210.94C16.5893 209.35 15.1848 208.434 15.1848 208.434C15.1848 208.434 14.7661 211.799 16.9126 213.432C18.476 214.57 20.1318 215.575 21.8628 216.437L21.4176 213.919Z" fill="#283A86"/>
<path d="M21.386 221.472C21.386 221.472 21.5079 220.068 19.7059 217.932C17.9039 215.796 16.7379 214.566 16.7379 214.566C16.7379 214.566 15.4818 217.715 17.1407 219.835C18.3742 221.335 19.7323 222.729 21.2005 224L21.386 221.472Z" fill="#283A86"/>
<path d="M10.3511 179.846C10.6995 181.281 11.1259 182.697 11.6284 184.086C13.0859 187.928 15.4497 190.154 16.8436 193.626C18.2375 197.097 16.8436 202.106 18.211 206.59C19.5784 211.073 21.8362 213.347 21.8574 216.511C21.8786 219.675 20.6278 228.431 20.6278 228.431" stroke="#073044" stroke-width="0.53" stroke-linecap="round" stroke-linejoin="round"/>
<path d="M11.2997 183.433L8.92529 182.188" stroke="#073044" stroke-width="0.53" stroke-linecap="round" stroke-linejoin="round"/>
<path d="M10.8813 181.601L11.4908 179.889" stroke="#073044" stroke-width="0.53" stroke-linecap="round" stroke-linejoin="round"/>
<path d="M16.6952 193.451C16.6952 193.451 14.713 192.439 12.6831 191.432" stroke="#073044" stroke-width="0.53" stroke-linecap="round" stroke-linejoin="round"/>
<path d="M15.3701 190.859C15.9522 189.018 16.7212 187.242 17.665 185.559" stroke="#073044" stroke-width="0.53" stroke-linecap="round" stroke-linejoin="round"/>
<path d="M17.8721 205.439C16.5494 203.767 14.9929 202.295 13.2505 201.066" stroke="#073044" stroke-width="0.53" stroke-linecap="round" stroke-linejoin="round"/>
<path d="M18.5503 207.332C18.8649 205.987 19.2903 204.67 19.8223 203.394C20.5855 201.709 20.6968 201.486 20.6968 201.486" stroke="#073044" stroke-width="0.53" stroke-linecap="round" stroke-linejoin="round"/>
<path d="M21.73 218.89C22.5025 217.934 23.3573 217.047 24.2846 216.24C24.8853 215.799 25.449 215.31 25.97 214.777" stroke="#073044" stroke-width="0.53" stroke-linecap="round" stroke-linejoin="round"/>
<path d="M21.8573 216.473C21.2257 215.446 20.517 214.468 19.7373 213.547C18.965 212.704 18.1247 211.926 17.2251 211.221" stroke="#073044" stroke-width="0.53" stroke-linecap="round" stroke-linejoin="round"/>
<path d="M21.2005 224.001C21.1184 222.928 20.7526 221.896 20.1405 221.011C19.1653 219.729 18.0205 218.017 17.5488 217.344" stroke="#073044" stroke-width="0.53" stroke-linecap="round" stroke-linejoin="round"/>
<path d="M249.704 86.5214C252.107 76.1802 245.671 65.8493 235.33 63.4466C224.989 61.044 214.658 67.4794 212.255 77.8206C209.853 88.1617 216.288 98.4927 226.629 100.895C236.97 103.298 247.301 96.8626 249.704 86.5214Z" fill="#073044" stroke="#073044" stroke-width="0.53" stroke-miterlimit="10"/>
<path d="M237.33 97.2082C245.634 93.6917 249.516 84.1088 245.999 75.8042C242.483 67.4996 232.9 63.6182 224.595 67.1347C216.291 70.6512 212.409 80.2341 215.926 88.5387C219.442 96.8433 229.025 100.725 237.33 97.2082Z" fill="white" stroke="#073044" stroke-width="0.53" stroke-miterlimit="10"/>
<path d="M236.009 71.6895L230.963 82.157H238.171" stroke="#073044" stroke-width="0.53" stroke-miterlimit="10"/>
<path d="M232.797 82.1508C232.799 82.5137 232.692 82.8688 232.491 83.171C232.29 83.4733 232.004 83.7092 231.669 83.8488C231.334 83.9884 230.965 84.0254 230.609 83.9553C230.253 83.8851 229.926 83.7109 229.669 83.4546C229.412 83.1984 229.237 82.8717 229.166 82.5158C229.094 82.1599 229.13 81.7909 229.269 81.4555C229.408 81.1201 229.643 80.8334 229.944 80.6317C230.246 80.43 230.601 80.3223 230.964 80.3223C231.204 80.3216 231.443 80.3684 231.665 80.4599C231.887 80.5515 232.09 80.6861 232.26 80.856C232.43 81.0258 232.566 81.2276 232.658 81.4498C232.75 81.672 232.797 81.9102 232.797 82.1508Z" fill="#283A86" stroke="#073044" stroke-width="0.53" stroke-miterlimit="10"/>
<path d="M127.02 131.823L124.55 128.23C124.55 128.23 125.038 122.453 124.486 121.552C123.935 120.651 115.01 119.607 114.48 120.274C113.95 120.942 115.826 121.546 115.826 121.546C115.826 121.546 114.554 122.108 114.687 122.75C114.883 123.693 116.51 123.81 116.51 123.81C116.51 123.81 115.217 124.673 115.376 125.235C115.503 125.68 116.796 126.03 116.796 126.03C116.796 126.03 115.487 126.624 116.558 127.382C117.628 128.14 118.535 128.924 118.535 128.924C118.535 128.924 117.793 130.514 119.801 131.897C121.81 133.281 125.281 135.798 125.281 135.798L127.02 131.823Z" fill="white" stroke="#073044" stroke-width="0.53" stroke-linecap="round" stroke-linejoin="round"/>
<path d="M114.814 117.867L112.837 117.703V118.313L114.427 119.208C114.517 118.751 114.647 118.302 114.814 117.867Z" fill="#073044" stroke="#073044" stroke-width="0.53" stroke-linecap="round" stroke-linejoin="round"/>
<path d="M122.584 121.869C122.496 121.872 122.408 121.859 122.324 121.832L114.48 119.357C114.378 119.329 114.282 119.281 114.199 119.216C114.115 119.151 114.046 119.069 113.995 118.976C113.944 118.883 113.913 118.781 113.902 118.676C113.892 118.57 113.903 118.464 113.935 118.363C113.967 118.262 114.019 118.168 114.088 118.088C114.157 118.008 114.241 117.942 114.336 117.895C114.431 117.848 114.535 117.821 114.641 117.816C114.746 117.81 114.852 117.826 114.952 117.862L122.796 120.337C122.972 120.393 123.123 120.51 123.222 120.666C123.321 120.823 123.361 121.009 123.336 121.192C123.31 121.376 123.221 121.544 123.083 121.668C122.946 121.792 122.769 121.863 122.584 121.869Z" fill="white" stroke="#073044" stroke-width="0.53" stroke-linecap="round" stroke-linejoin="round"/>
<path d="M126.67 123.411C126.551 123.411 126.433 123.394 126.32 123.358L122.271 122.081C122.118 122.059 121.972 122.005 121.842 121.921C121.713 121.838 121.603 121.727 121.521 121.596C121.439 121.466 121.386 121.319 121.366 121.166C121.346 121.013 121.36 120.858 121.407 120.711C121.453 120.564 121.531 120.429 121.635 120.315C121.74 120.201 121.867 120.112 122.01 120.052C122.152 119.993 122.305 119.965 122.459 119.972C122.614 119.978 122.764 120.017 122.902 120.088L126.951 121.365C127.213 121.451 127.43 121.636 127.558 121.881C127.686 122.125 127.713 122.41 127.634 122.674C127.568 122.881 127.441 123.062 127.268 123.194C127.096 123.326 126.887 123.402 126.67 123.411Z" fill="#073044" stroke="#073044" stroke-width="0.53" stroke-linecap="round" stroke-linejoin="round"/>
<path d="M123.405 124.593C123.041 123.534 122.616 122.497 122.133 121.487C121.577 120.459 120.506 119.574 120.082 118.54C119.658 117.507 118.524 119.107 118.943 119.881C119.362 120.655 120.31 121.805 120.326 122.33C120.342 122.855 120.48 123.241 119.876 124.98C119.271 126.718 118.938 128.69 120.289 130.078" fill="white"/>
<path d="M123.405 124.593C123.041 123.534 122.616 122.497 122.133 121.487C121.577 120.459 120.506 119.574 120.082 118.54C119.658 117.507 118.524 119.107 118.943 119.881C119.362 120.655 120.31 121.805 120.326 122.33C120.342 122.855 120.48 123.241 119.876 124.98C119.271 126.718 118.938 128.69 120.289 130.078" stroke="#073044" stroke-width="0.53" stroke-linecap="round" stroke-linejoin="round"/>
<path d="M115.847 121.545L120.326 122.329" stroke="#073044" stroke-width="0.53" stroke-linecap="round" stroke-linejoin="round"/>
<path d="M116.531 123.815C117.061 123.666 119.876 124.959 119.876 124.959" stroke="#073044" stroke-width="0.53" stroke-linecap="round" stroke-linejoin="round"/>
<path d="M116.817 126.035L119.144 126.814" stroke="#073044" stroke-width="0.53" stroke-linecap="round" stroke-linejoin="round"/>
<path d="M158.38 124.916C158.38 124.916 157.044 124.126 156.456 126.241C155.868 128.356 154.14 132.071 153.377 132.876C152.614 133.682 145.109 141.113 145.109 141.113C145.109 141.113 141.886 138.585 141.129 139.523C140.81 139.988 140.367 140.355 139.851 140.583L126.983 130.486L122.213 137.699C122.213 137.699 139.703 153.684 141.166 154.167C142.628 154.649 143.662 154.485 144.181 154.209C144.701 153.933 154.304 146.704 154.304 146.704C154.304 146.704 160.161 127.804 160.664 127.137C161.168 126.469 158.38 124.916 158.38 124.916Z" fill="#283A86" stroke="#073044" stroke-width="0.53" stroke-linecap="round" stroke-linejoin="round"/>
<path d="M141.097 141.156C141.097 141.156 143.704 144.167 143.704 147.977L141.097 141.156Z" fill="#283A86"/>
<path d="M141.097 141.156C141.097 141.156 143.704 144.167 143.704 147.977" stroke="#073044" stroke-width="0.53" stroke-linecap="round" stroke-linejoin="round"/>
<path d="M145.31 142.359C145.31 142.359 146.11 144.368 144.907 148.778L145.31 142.359Z" fill="#283A86"/>
<path d="M145.31 142.359C145.31 142.359 146.11 144.368 144.907 148.778" stroke="#073044" stroke-width="0.53" stroke-linecap="round" stroke-linejoin="round"/>
<path d="M164.115 101.591C164.115 101.591 158.433 97.881 159.106 94.3565C159.779 90.832 172.52 87.9966 179.845 90.3763C187.17 92.756 188.659 103.716 187.694 110.479C186.73 117.242 186.147 132.676 186.147 132.676L161.295 133.407C161.295 133.407 163.611 115.334 164.093 109.621C164.576 103.907 164.115 101.591 164.115 101.591Z" fill="#073044" stroke="#073044" stroke-width="0.53" stroke-linecap="round" stroke-linejoin="round"/>
<path d="M151.394 201.098C151.924 206.499 152.931 230.296 153.514 233.82H179.352C179.299 229.761 179.23 202.338 179.813 200.097C180.55 197.293 181.583 187.944 180.444 182.58C179.304 177.216 177.921 174.63 177.921 174.63L151.103 174.604L151.182 176.803C151.182 176.803 150.679 193.45 151.394 201.098Z" fill="#073044" stroke="#073044" stroke-width="0.53" stroke-linecap="round" stroke-linejoin="round"/>
<path d="M157.129 184.902C158.189 185.628 159.249 186.148 159.249 187.197C159.779 196.621 161.867 223.089 162.604 232.624" stroke="#4C4C4C" stroke-width="0.53" stroke-linecap="round" stroke-linejoin="round"/>
<path d="M164.83 124.551L177.942 125.038C177.942 125.038 167.417 141.24 167.507 150.144C167.597 159.048 169.362 177.503 169.362 177.503C169.362 177.503 163.595 182.066 157.633 181.213C156.986 181.118 156.642 175.775 156.642 175.775C156.642 175.775 156.26 180.964 155.82 180.884C152.481 180.286 151.183 176.835 151.183 176.835L151.877 159.001C151.877 159.001 151.877 147.304 153.181 143.943C154.485 140.583 163.293 125.658 163.293 125.658L164.83 124.551Z" fill="white" stroke="#073044" stroke-width="0.53" stroke-linecap="round" stroke-linejoin="round"/>
<path d="M164.3 134.875C164.3 134.875 160.245 143.302 158.761 148.242C157.277 153.181 156.641 175.754 156.641 175.754" stroke="#073044" stroke-width="0.53" stroke-linecap="round" stroke-linejoin="round"/>
<path d="M176.363 124.912C176.363 124.912 167.167 138.629 165.392 143.568C163.616 148.508 162.429 167.418 162.662 175.432C162.896 183.445 165.429 192.286 165.429 192.286C172.885 193.476 180.514 192.952 187.737 190.754C187.737 190.754 184.525 176.534 182.967 171.865C181.994 168.805 181.26 165.674 180.773 162.5C180.773 162.5 191.33 128.834 191.33 128.315C191.33 127.795 191.123 127.255 190.069 126.953C189.014 126.651 176.363 124.912 176.363 124.912Z" fill="#283A86" stroke="#073044" stroke-width="0.53" stroke-linecap="round" stroke-linejoin="round"/>
<path d="M167.936 177.381L181.583 176.289L181.763 178.473L175.944 179.199" fill="#283A86"/>
<path d="M167.936 177.381L181.583 176.289L181.763 178.473L175.944 179.199" stroke="#073044" stroke-width="0.53" stroke-linecap="round" stroke-linejoin="round"/>
<path d="M164.708 126.299C164.708 126.299 153.753 145.66 153.509 149.158C153.265 152.656 151.644 168.768 150.743 173.861C149.842 178.954 145.946 188.844 145.946 188.844C145.946 188.844 144.944 184.509 145.236 182.58C145.527 180.65 149.746 169.701 150.197 167.241C150.647 164.782 151.257 156.032 151.151 152.195C151.045 148.358 150.78 145.57 151.575 142.755C152.37 139.941 158.38 124.916 158.38 124.916L167.098 124.486L164.708 126.299Z" fill="#283A86" stroke="#073044" stroke-width="0.53" stroke-linecap="round" stroke-linejoin="round"/>
<path d="M162.334 124.699L160.511 133.047L165.196 129.411L162.334 124.699Z" fill="white" stroke="#073044" stroke-width="0.53" stroke-linecap="round" stroke-linejoin="round"/>
<path d="M167.915 120.65L162.334 124.7L164.438 130.206L164.321 134.876L170.65 125.489L167.915 120.65Z" fill="white" stroke="#073044" stroke-width="0.53" stroke-linecap="round" stroke-linejoin="round"/>
<path d="M167.592 118.456C167.592 118.456 166.532 126.262 166.198 128.34C165.864 130.418 164.3 134.875 164.3 134.875C164.3 134.875 174.248 125.255 174.741 124.46C175.234 123.665 176.951 115.98 176.951 115.98C176.951 115.98 170.57 118.371 167.592 118.456Z" fill="white" stroke="#073044" stroke-width="0.53" stroke-linecap="round" stroke-linejoin="round"/>
<path d="M167.289 120.644C168.646 121.492 169.701 121.492 171.269 121.249C172.838 121.005 174.979 119.531 176.421 118.371C176.739 117.019 176.951 115.98 176.951 115.98C176.951 115.98 170.549 118.371 167.57 118.456C167.591 118.456 167.48 119.367 167.289 120.644Z" fill="#073044" stroke="#073044" stroke-width="0.53" stroke-linecap="round" stroke-linejoin="round"/>
<path d="M170.777 94.791L163.436 100.573C163.436 100.573 162.694 106.165 162.419 110.06C162.273 111.663 162.511 113.277 163.115 114.769C163.719 116.26 164.67 117.586 165.89 118.636C168.01 120.517 169.187 120.613 171.249 120.289C173.31 119.966 176.352 117.549 177.487 116.479C178.621 115.408 180.73 112.239 180.73 112.239C180.73 112.239 182.421 112.578 182.919 111.788C183.168 111.417 183.372 111.019 183.529 110.601C183.529 110.601 176.549 106.663 173.681 101.697C170.814 96.7308 170.777 94.791 170.777 94.791Z" fill="white" stroke="#073044" stroke-width="0.53" stroke-linecap="round" stroke-linejoin="round"/>
<path d="M168.492 105.09C168.385 105.908 168.145 106.703 167.782 107.443C167.289 108.233 165.36 108.678 166.42 109.563C167.226 110.119 168.186 110.409 169.165 110.39" stroke="#073044" stroke-width="0.53" stroke-linecap="round" stroke-linejoin="round"/>
<path d="M166.361 111.89C166.361 111.89 170.294 113.586 172.822 111.307" stroke="#073044" stroke-width="0.53" stroke-linecap="round" stroke-linejoin="round"/>
<path d="M167.676 112.499C167.676 112.499 168.259 114.682 169.542 114.253C170.824 113.824 171.937 112.133 171.937 112.133C170.527 112.351 169.103 112.474 167.676 112.499V112.499Z" stroke="#073044" stroke-width="0.53" stroke-linecap="round" stroke-linejoin="round"/>
<path d="M173.442 106.107C173.442 106.68 173.215 107.167 172.912 107.167C172.61 107.167 172.319 106.722 172.303 106.15C172.287 105.577 172.531 105.09 172.833 105.09C173.135 105.09 173.427 105.54 173.442 106.107Z" fill="#073044"/>
<path d="M167.268 105.387C167.268 105.959 167.04 106.447 166.738 106.447C166.436 106.447 166.144 106.002 166.128 105.429C166.112 104.857 166.356 104.369 166.658 104.369C166.96 104.369 167.252 104.814 167.268 105.387Z" fill="#073044"/>
<path d="M165.19 102.986C165.384 102.783 165.617 102.622 165.875 102.514C166.134 102.406 166.412 102.352 166.692 102.356C166.972 102.36 167.248 102.421 167.503 102.537C167.758 102.653 167.987 102.82 168.174 103.028" stroke="#073044" stroke-width="0.53" stroke-linecap="round" stroke-linejoin="round"/>
<path d="M171.158 103.352C171.158 103.352 174.105 102.233 175.345 104.783" stroke="#073044" stroke-width="0.53" stroke-linecap="round" stroke-linejoin="round"/>
<path d="M169.526 126.951L164.321 134.875L171.969 130.762L169.526 126.951Z" fill="white" stroke="#073044" stroke-width="0.53" stroke-linecap="round" stroke-linejoin="round"/>
<path d="M178.26 120.082L169.526 126.951L172.07 134.127L180.46 124.423L178.26 120.082Z" fill="white" stroke="#073044" stroke-width="0.53" stroke-linecap="round" stroke-linejoin="round"/>
<path d="M167.644 160.792C166.465 160.464 165.339 159.967 164.3 159.319C162.344 158.153 160.261 158.561 158.518 158.614C156.774 158.667 155.56 159.054 155.756 159.743C155.953 160.432 157.696 160.384 158.221 160.368C158.746 160.352 159.641 161.2 159.641 161.2L155.279 162.26C155.279 162.26 153.912 163.177 154.988 164.19C156.064 165.202 156.26 164.974 156.26 164.974C156.26 164.974 157.908 167.544 159.657 167.666C161.406 167.788 168.514 166.007 168.514 166.007L167.644 160.792Z" fill="white" stroke="#073044" stroke-width="0.53" stroke-linecap="round" stroke-linejoin="round"/>
<path d="M180.004 140.759C180.21 141.819 181.339 157.417 181.339 157.417L166.95 160.809L167.718 168.997C167.718 168.997 193.471 165.966 193.948 164.381C194.425 162.796 192.745 135.427 192.888 133.853C193.031 132.279 195.13 126.963 188.844 126.963" fill="#283A86"/>
<path d="M180.004 140.759C180.21 141.819 181.339 157.417 181.339 157.417L166.95 160.809L167.718 168.997C167.718 168.997 193.471 165.966 193.948 164.381C194.425 162.796 192.745 135.427 192.888 133.853C193.031 132.279 195.13 126.963 188.844 126.963" stroke="#073044" stroke-width="0.53" stroke-linecap="round" stroke-linejoin="round"/>
<path d="M182.41 138.15C182.41 138.15 186.618 132.734 191.235 132.935L182.41 138.15Z" fill="#283A86"/>
<path d="M182.41 138.15C182.41 138.15 186.618 132.734 191.235 132.935" stroke="#073044" stroke-width="0.53" stroke-linecap="round" stroke-linejoin="round"/>
<path d="M182.41 140.154C182.41 140.154 186.019 138.15 189.629 138.15L182.41 140.154Z" fill="#283A86"/>
<path d="M182.41 140.154C182.41 140.154 186.019 138.15 189.629 138.15" stroke="#073044" stroke-width="0.53" stroke-linecap="round" stroke-linejoin="round"/>
<path d="M21.5496 233.82V203.154C21.5496 202.912 21.4535 202.68 21.2826 202.509C21.1116 202.338 20.8797 202.242 20.638 202.242H16.8803C16.638 202.242 16.4056 202.338 16.2338 202.509C16.062 202.68 15.9648 202.912 15.9634 203.154V233.82H21.5496Z" fill="#4C4C4C" stroke="#073044" stroke-width="0.53" stroke-linecap="round" stroke-linejoin="round"/>
<path d="M16.8698 233.82V203.154C16.8684 202.912 16.7712 202.68 16.5994 202.509C16.4276 202.338 16.1952 202.242 15.9529 202.242H12.1899C11.9481 202.242 11.7163 202.338 11.5453 202.509C11.3744 202.68 11.2783 202.912 11.2783 203.154V233.82H16.8698Z" fill="#073044" stroke="#073044" stroke-width="0.53" stroke-linecap="round" stroke-linejoin="round"/>
<path d="M18.9843 233.82H86.0664C85.5976 232.634 84.804 231.606 83.7768 230.852C80.7346 228.933 51.7595 224.449 51.7595 224.449L21.6608 223.967L20.2192 224.449C20.2192 224.449 18.6292 226.691 18.7829 227.809C18.8624 228.376 18.8995 231.122 18.9843 233.82Z" fill="#073044" stroke="#073044" stroke-width="0.53" stroke-linecap="round" stroke-linejoin="round"/>
<path d="M46.3163 166.336C46.3163 166.336 39.2726 170.337 36.8717 172.579C34.4708 174.821 30.4693 182.188 30.146 186.667C29.8227 191.145 26.3035 208.291 26.3035 208.291C26.3035 208.291 19.0796 222.367 20.2191 224.45C21.3586 226.533 50.9591 224.45 51.7594 224.45C52.5597 224.45 50.9591 215.647 50.9591 215.647C50.9591 215.647 62.1633 198.353 62.6191 193.71C63.0749 189.068 59.7359 176.422 59.0946 173.539C58.4533 170.655 47.7579 165.695 46.3163 166.336Z" fill="white" stroke="#073044" stroke-width="0.53" stroke-linecap="round" stroke-linejoin="round"/>
<path d="M40.8096 190.801C40.8096 190.801 46.4117 196.101 48.7596 197.876" stroke="#073044" stroke-width="0.53" stroke-linecap="round" stroke-linejoin="round"/>
<path d="M38.1597 194.918C38.1597 194.918 48.4788 198.453 51.1288 198.75" stroke="#073044" stroke-width="0.53" stroke-linecap="round" stroke-linejoin="round"/>
<path d="M68.2479 148.401C68.2479 148.401 69.0482 154.326 68.8892 156.086C68.7302 157.846 67.1296 163.93 66.6473 165.213C66.165 166.495 65.688 167.931 63.9284 167.772C62.9035 167.692 61.9138 167.363 61.0452 166.813L59.2856 172.733L47.0956 165.69L48.6856 162.51C48.6856 162.51 46.926 159.632 46.4437 154.825C45.9614 150.017 48.6856 144.58 52.2101 142.502C55.7346 140.424 61.8137 141.219 63.5733 142.661C65.3329 144.103 68.2479 148.401 68.2479 148.401Z" fill="white" stroke="#073044" stroke-width="0.53" stroke-linecap="round" stroke-linejoin="round"/>
<path d="M46.4757 163.293C47.117 163.457 60.8864 169.701 61.0454 171.301C61.2044 172.902 61.8457 177.863 61.8457 177.863C59.0207 175.435 55.9638 173.29 52.7191 171.46C50.1493 170.105 47.6881 168.552 45.3574 166.817L46.4757 163.293Z" fill="white" stroke="#073044" stroke-width="0.53" stroke-linecap="round" stroke-linejoin="round"/>
<path d="M58.644 135.277C58.644 135.277 62.8045 133.518 66.1647 134.318C69.5249 135.118 70.8075 138.961 70.8075 142.162C70.8075 145.363 69.0479 149.206 68.4066 149.365C67.7653 149.524 66.1647 141.844 63.1066 139.602C61.4111 138.392 59.9068 136.934 58.644 135.277Z" fill="#073044" stroke="#999999" stroke-width="0.53" stroke-linecap="round" stroke-linejoin="round"/>
<path d="M53.5299 136.242C53.5299 136.242 60.0966 132.717 65.8577 137.678C71.6188 142.639 69.7002 147.605 68.4176 149.364C67.135 151.124 67.1403 154.489 66.1757 155.131C65.2111 155.772 65.0574 152.571 63.9391 151.951C62.8208 151.331 62.9639 153.7 61.6866 156.88C60.4093 160.06 54.6429 164.724 51.6166 164.406C48.5903 164.088 44.8909 160.696 42.808 153.679C40.7251 146.661 42.172 139.109 45.988 136.719C47.1069 136.019 48.3821 135.61 49.6987 135.527C51.0153 135.443 52.332 135.689 53.5299 136.242Z" fill="#073044" stroke="#999999" stroke-width="0.53" stroke-linecap="round" stroke-linejoin="round"/>
<path d="M66.2497 139.258C66.2497 139.258 67.5217 142.936 64.2675 147.033C61.0133 151.13 56.6355 153.393 53.3866 151.416C50.1377 149.439 49.9893 147.176 49.9893 147.176" stroke="#999999" stroke-width="0.53" stroke-linecap="round" stroke-linejoin="round"/>
<path d="M44.774 147.871C44.774 147.871 44.0638 158.911 50.71 160.061C57.3562 161.211 61.0291 154.231 61.0291 154.231" stroke="#999999" stroke-width="0.53" stroke-linecap="round" stroke-linejoin="round"/>
<path d="M46.8781 148.088C50.5487 148.088 53.5243 145.077 53.5243 141.362C53.5243 137.648 50.5487 134.637 46.8781 134.637C43.2075 134.637 40.2319 137.648 40.2319 141.362C40.2319 145.077 43.2075 148.088 46.8781 148.088Z" fill="#073044" stroke="#999999" stroke-width="0.53" stroke-linecap="round" stroke-linejoin="round"/>
<path d="M45.479 140.392C45.479 140.392 46.327 136.009 48.7279 135.441" stroke="#999999" stroke-width="0.53" stroke-linecap="round" stroke-linejoin="round"/>
<path d="M45.1982 140.981C45.1982 140.981 50 139.285 52.2631 141.124" stroke="#999999" stroke-width="0.53" stroke-linecap="round" stroke-linejoin="round"/>
<path d="M44.9118 141.801C44.9118 141.801 42.7918 143.216 43.502 146.47" stroke="#073044" stroke-width="0.53" stroke-linecap="round" stroke-linejoin="round"/>
<path d="M64.8876 155.608C64.8876 155.608 64.4053 150.806 62.9637 150.965C61.5221 151.124 62.1634 158.332 62.9637 159.445C63.0342 159.588 63.14 159.711 63.2711 159.803C63.4022 159.894 63.5543 159.95 63.7133 159.967C63.8722 159.983 64.0327 159.959 64.1797 159.896C64.3267 159.834 64.4554 159.735 64.5537 159.609" fill="white"/>
<path d="M64.8876 155.608C64.8876 155.608 64.4053 150.806 62.9637 150.965C61.5221 151.124 62.1634 158.332 62.9637 159.445C63.0342 159.588 63.14 159.711 63.2711 159.803C63.4022 159.894 63.5543 159.95 63.7133 159.967C63.8722 159.983 64.0327 159.959 64.1797 159.896C64.3267 159.834 64.4554 159.735 64.5537 159.609" stroke="#073044" stroke-width="0.53" stroke-linecap="round" stroke-linejoin="round"/>
<path d="M200.197 227.317H51.5317L56.5455 214.697H166.748L200.197 227.317Z" fill="#B5B5B5" stroke="#073044" stroke-width="0.53" stroke-linecap="round" stroke-linejoin="round"/>
<path d="M198.156 229.84H53.1802V233.82H198.156V229.84Z" fill="#073044" stroke="#073044" stroke-width="0.53" stroke-linecap="round" stroke-linejoin="round"/>
<path d="M200.197 227.316H51.5317V232.002H200.197V227.316Z" fill="#4C4C4C" stroke="#073044" stroke-width="0.53" stroke-linecap="round" stroke-linejoin="round"/>
<path d="M107.537 216.314L111.846 223.114H76.9453L80.3426 216.314H107.537Z" fill="white"/>
<path d="M100.965 218.355L105.273 225.15H70.3677L73.7703 218.355H100.965Z" fill="white"/>
<path d="M58.4853 180.904L65.1898 212.121L91.287 215.805C91.287 215.805 99.131 212.625 99.767 212.625C100.403 212.625 101.527 214.543 102.009 215.185C102.491 215.826 103.286 216.775 103.599 217.268C103.912 217.761 104.076 220.145 103.599 220.787C103.122 221.428 102.157 223.188 101.193 223.029C100.228 222.87 101.193 220.31 101.193 220.31C101.193 220.31 95.5906 222.546 93.831 222.546C92.0714 222.546 88.531 220.956 88.531 220.956C88.531 220.956 58.8298 224.29 57.0437 223.659C56.3154 223.434 55.641 223.062 55.0622 222.567C54.4833 222.071 54.0123 221.461 53.6782 220.776C53.0422 219.499 42.792 185.234 42.792 185.234" fill="white"/>
<path d="M58.4853 180.904L65.1898 212.121L91.287 215.805C91.287 215.805 99.131 212.625 99.767 212.625C100.403 212.625 101.527 214.543 102.009 215.185C102.491 215.826 103.286 216.775 103.599 217.268C103.912 217.761 104.076 220.145 103.599 220.787C103.122 221.428 102.157 223.188 101.193 223.029C100.228 222.87 101.193 220.31 101.193 220.31C101.193 220.31 95.5906 222.546 93.831 222.546C92.0714 222.546 88.531 220.956 88.531 220.956C88.531 220.956 58.8298 224.29 57.0437 223.659C56.3154 223.434 55.641 223.062 55.0622 222.567C54.4833 222.071 54.0123 221.461 53.6782 220.776C53.0422 219.499 42.792 185.234 42.792 185.234" stroke="#073044" stroke-width="0.53" stroke-linecap="round" stroke-linejoin="round"/>
<path d="M102.03 215.181C101.548 214.54 100.44 212.621 99.7883 212.621C99.1364 212.621 91.3083 215.801 91.3083 215.801L76.4365 213.681C77.4059 216.387 77.6525 219.299 77.152 222.129C83.3583 221.493 88.5841 220.9 88.5841 220.9C88.5841 220.9 92.1086 222.49 93.8841 222.49C95.6596 222.49 101.23 220.29 101.23 220.29C101.23 220.29 100.271 222.85 101.23 223.009C102.189 223.168 103.154 221.419 103.636 220.767C104.118 220.115 103.954 217.725 103.636 217.248C103.318 216.771 102.507 215.806 102.03 215.181Z" fill="white" stroke="#073044" stroke-width="0.53" stroke-linecap="round" stroke-linejoin="round"/>
<path d="M7.29248 233.82H260.76" stroke="#073044" stroke-width="0.53" stroke-linecap="round" stroke-linejoin="round"/>
<path d="M146.524 223.326H174.699V222.42L132.754 216.145L133.772 217.051L146.524 223.326Z" fill="white" stroke="#073044" stroke-width="0.53" stroke-linecap="round" stroke-linejoin="round"/>
<path d="M146.524 222.42H174.699L159.816 216.293L133.772 216.145L146.524 222.42Z" fill="white" stroke="#073044" stroke-width="0.53" stroke-linecap="round" stroke-linejoin="round"/>
<path d="M151.114 217.538H153.753L152.407 216.977L149.82 216.998L151.114 217.538Z" fill="white" stroke="#073044" stroke-width="0.3975" stroke-linecap="round" stroke-linejoin="round"/>
<path d="M156.472 219.779L157.823 220.346H160.463L159.111 219.779H156.472Z" fill="white" stroke="#073044" stroke-width="0.3975" stroke-linecap="round" stroke-linejoin="round"/>
<path d="M161.364 218.932H158.443L159.217 219.255H162.148L161.364 218.932Z" fill="white" stroke="#073044" stroke-width="0.3975" stroke-linecap="round" stroke-linejoin="round"/>
<path d="M155.21 219.255H157.855L157.081 218.932H154.442L155.21 219.255Z" fill="white" stroke="#073044" stroke-width="0.3975" stroke-linecap="round" stroke-linejoin="round"/>
<path d="M157.187 218.408H160.086L159.26 218.068H156.376L157.187 218.408Z" fill="white" stroke="#073044" stroke-width="0.3975" stroke-linecap="round" stroke-linejoin="round"/>
<path d="M147.107 217.538H149.751L148.485 217.008L145.893 217.034L147.107 217.538Z" fill="white" stroke="#073044" stroke-width="0.3975" stroke-linecap="round" stroke-linejoin="round"/>
<path d="M152.37 218.068L153.181 218.408H155.825L155.014 218.068H152.37Z" fill="white" stroke="#073044" stroke-width="0.3975" stroke-linecap="round" stroke-linejoin="round"/>
<path d="M165.318 221.81H168.355L166.086 220.877H163.086L165.318 221.81Z" fill="white" stroke="#073044" stroke-width="0.3975" stroke-linecap="round" stroke-linejoin="round"/>
<path d="M159.08 220.877L161.311 221.81H163.956L161.724 220.877H159.08Z" fill="white" stroke="#073044" stroke-width="0.3975" stroke-linecap="round" stroke-linejoin="round"/>
<path d="M155.073 220.877L157.304 221.81H159.949L157.717 220.877H155.073Z" fill="white" stroke="#073044" stroke-width="0.3975" stroke-linecap="round" stroke-linejoin="round"/>
<path d="M153.711 220.877H148.548L150.393 221.81H155.942L153.711 220.877Z" fill="white" stroke="#073044" stroke-width="0.3975" stroke-linecap="round" stroke-linejoin="round"/>
<path d="M155.12 217.538H157.977L156.519 216.939L153.742 216.966L155.12 217.538Z" fill="white" stroke="#073044" stroke-width="0.3975" stroke-linecap="round" stroke-linejoin="round"/>
<path d="M160.479 219.779L161.83 220.346H164.809L163.431 219.779H160.479Z" fill="white" stroke="#073044" stroke-width="0.3975" stroke-linecap="round" stroke-linejoin="round"/>
<path d="M156.461 220.346L155.104 219.779H152.465L153.816 220.346H156.461Z" fill="white" stroke="#073044" stroke-width="0.3975" stroke-linecap="round" stroke-linejoin="round"/>
<path d="M145.745 217.538L144.557 217.045L141.043 217.071L141.96 217.538H145.745Z" fill="white" stroke="#073044" stroke-width="0.3975" stroke-linecap="round" stroke-linejoin="round"/>
<path d="M153.074 218.932H150.435L151.204 219.255H153.848L153.074 218.932Z" fill="white" stroke="#073044" stroke-width="0.3975" stroke-linecap="round" stroke-linejoin="round"/>
<path d="M148.363 218.068L149.174 218.408H151.818L151.008 218.068H148.363Z" fill="white" stroke="#073044" stroke-width="0.3975" stroke-linecap="round" stroke-linejoin="round"/>
<path d="M149.842 219.255L149.073 218.932H144.711L145.353 219.255H149.842Z" fill="white" stroke="#073044" stroke-width="0.3975" stroke-linecap="round" stroke-linejoin="round"/>
<path d="M143.672 218.408H147.811L147.001 218.068H143.004L143.672 218.408Z" fill="white" stroke="#073044" stroke-width="0.3975" stroke-linecap="round" stroke-linejoin="round"/>
<path d="M151.103 219.779H146.392L147.51 220.346H152.455L151.103 219.779Z" fill="white" stroke="#073044" stroke-width="0.3975" stroke-linecap="round" stroke-linejoin="round"/>
<path d="M146.524 222.419H145.506L126.018 194.319L126.983 194.027H139.74L146.524 222.419Z" fill="white" stroke="#073044" stroke-width="0.53" stroke-linecap="round" stroke-linejoin="round"/>
<path d="M145.506 222.419L132.754 216.144L125.97 194.027H138.722L145.506 222.419Z" fill="white" stroke="#073044" stroke-width="0.53" stroke-linecap="round" stroke-linejoin="round"/>
<path d="M257.008 233.821V199.753C257.008 199.51 256.911 199.276 256.739 199.104C256.567 198.933 256.334 198.836 256.091 198.836H243.678C243.435 198.836 243.202 198.933 243.03 199.104C242.858 199.276 242.761 199.51 242.761 199.753V233.821H257.008Z" fill="#073044" stroke="#073044" stroke-width="0.53" stroke-linecap="round" stroke-linejoin="round"/>
<path d="M252.518 233.821V199.753C252.519 199.632 252.496 199.513 252.45 199.401C252.404 199.29 252.337 199.188 252.251 199.103C252.166 199.018 252.065 198.95 251.953 198.904C251.842 198.858 251.722 198.835 251.602 198.836H239.194C239.074 198.835 238.954 198.858 238.843 198.904C238.731 198.95 238.63 199.018 238.544 199.103C238.459 199.188 238.392 199.29 238.346 199.401C238.3 199.513 238.277 199.632 238.277 199.753V233.821H252.518Z" fill="#4C4C4C" stroke="#073044" stroke-width="0.53" stroke-linecap="round" stroke-linejoin="round"/>
<path d="M202.789 179.508C202.789 179.508 197.319 183.154 196.63 185.396C195.941 187.638 191.86 200.4 191.442 201.381C191.023 202.361 187.657 207.55 187.657 207.55L169.712 208.387C169.712 208.387 161.581 206.569 160.876 206.569C160.172 206.569 153.165 211.196 152.603 212.458C152.041 213.719 150.785 215.542 151.342 215.961C151.898 216.38 152.746 215.68 152.746 215.68C152.746 215.68 153.027 217.641 156.53 216.941C160.034 216.242 163.542 213.719 163.542 213.719C163.542 213.719 167.888 215.839 169.568 215.399L169.712 215.357V217.222C169.712 217.222 193.408 218.484 194.388 218.203C195.369 217.922 200.558 211.615 200.558 211.615L206.584 179.084C206.584 179.084 206.292 175.999 202.789 179.508Z" fill="#283A86" stroke="#073044" stroke-width="0.53" stroke-linecap="round" stroke-linejoin="round"/>
<path d="M170.088 208.874L169.748 208.386H169.701C169.701 208.386 161.571 206.568 160.866 206.568C160.161 206.568 153.154 211.195 152.592 212.457C152.031 213.718 150.774 215.541 151.331 215.96C151.887 216.379 152.735 215.679 152.735 215.679C152.735 215.679 153.016 217.64 156.52 216.94C160.023 216.241 163.532 213.718 163.532 213.718C163.532 213.718 167.878 215.838 169.558 215.398L169.701 215.356V217.221L170.088 208.874Z" fill="#4C4C4C" stroke="#073044" stroke-width="0.53" stroke-linecap="round" stroke-linejoin="round"/>
<path d="M203.457 233.82H204.013C203.584 232.803 203.207 231.87 203.054 231.361C202.609 229.866 197.224 210.405 196.62 207.564C196.015 204.723 196.317 200.674 197.817 194.987C199.317 189.3 202.789 179.506 202.789 179.506L197.817 186.459C197.817 186.459 193.625 202.624 193.625 204.718C193.625 206.811 195.719 217.438 197.817 222.68C199.031 225.717 201.554 230.407 203.457 233.82Z" fill="#283A86" stroke="#073044" stroke-width="0.53" stroke-linecap="round" stroke-linejoin="round"/>
<path d="M205.031 175.579C205.031 175.579 199.847 183.71 198.443 189.322C197.038 194.935 195.92 199.837 195.92 204.883C195.92 209.929 201.527 224.233 202.37 226.057C203.213 227.88 212.323 228.436 215.127 219.744C217.931 211.052 219.192 185.957 217.512 180.206C215.832 174.456 208.539 171.795 205.031 175.579Z" fill="white" stroke="#073044" stroke-width="0.53" stroke-linecap="round" stroke-linejoin="round"/>
<path d="M203.573 174.403C203.229 174.933 198.57 177.509 198.57 177.509L198.395 182.338L199.778 179.751L201.93 186.159L204.246 174.229L203.573 174.403Z" fill="#808080" stroke="#073044" stroke-width="0.53" stroke-linecap="round" stroke-linejoin="round"/>
<path d="M204.093 233.821H242.253C240.996 230.461 236.142 217.444 235.993 216.861C235.818 216.167 231.854 185.459 227.709 179.761C223.565 174.064 213.929 171.997 211.841 173.205C211.841 173.205 204.951 187.181 202.349 193.737C199.747 200.294 198.035 213.231 198.035 215.128C198.035 217.026 201.66 228.908 201.66 228.908L204.093 233.821Z" fill="#283A86" stroke="#073044" stroke-width="0.53" stroke-linecap="round" stroke-linejoin="round"/>
<path d="M231.578 223.555L215.079 228.468L216.134 230.572L225.26 227.768" stroke="#073044" stroke-width="0.53" stroke-linecap="round" stroke-linejoin="round"/>
<path d="M195.416 150.112C195.416 150.112 194.091 154.204 194.059 155.046C194.046 155.674 194.066 156.302 194.118 156.928C194.134 157.263 194.053 157.596 193.885 157.887C193.609 158.332 190.508 161.316 190.874 161.915C191.24 162.514 193.381 164.894 193.381 164.894C193.381 164.894 194.881 172.043 196.89 172.87C198.898 173.697 201.734 173.188 201.734 173.188L202.757 175.981L215.286 171.874L215.095 167.756C215.095 167.756 216.351 160.42 214.91 155.152C213.468 149.884 200.934 144.16 195.416 150.112Z" fill="white" stroke="#073044" stroke-width="0.53" stroke-linecap="round" stroke-linejoin="round"/>
<path d="M195.819 158.518C195.671 159.128 195.358 159.578 195.125 159.52C194.892 159.462 194.817 158.921 194.966 158.311C195.114 157.702 195.422 157.251 195.66 157.31C195.899 157.368 195.962 157.909 195.819 158.518Z" fill="#073044"/>
<path d="M194.929 155.742C195.182 155.672 195.446 155.653 195.706 155.685C195.967 155.718 196.218 155.802 196.446 155.932C196.674 156.062 196.874 156.235 197.035 156.443C197.196 156.65 197.314 156.888 197.383 157.141" fill="white"/>
<path d="M194.929 155.742C195.182 155.672 195.446 155.653 195.706 155.685C195.967 155.718 196.218 155.802 196.446 155.932C196.674 156.062 196.874 156.235 197.035 156.443C197.196 156.65 197.314 156.888 197.383 157.141" stroke="#073044" stroke-width="0.53" stroke-linecap="round" stroke-linejoin="round"/>
<path d="M193.704 165.891C193.704 165.891 195.103 167.295 197.557 166.421L193.704 165.891Z" fill="white"/>
<path d="M193.704 165.891C193.704 165.891 195.103 167.295 197.557 166.421" stroke="#073044" stroke-width="0.53" stroke-linecap="round" stroke-linejoin="round"/>
<path d="M203.096 140.085C202.698 139.107 202.062 138.244 201.247 137.573C200.432 136.903 199.463 136.445 198.427 136.243C194.855 135.554 192.3 140.536 193.196 142.449C194.091 144.362 194.494 144.797 192.777 144.892C191.06 144.988 187.768 149.456 190.657 152.196C193.545 154.936 197.049 151.019 197.224 152.418C197.399 153.817 196.927 155.068 198.607 155.127C200.287 155.185 203.048 155.01 202.614 156.096C202.179 157.183 202.084 159.7 203.674 160.087C205.264 160.474 206.26 158.497 207.384 158.778C208.507 159.059 210.034 162.637 209.032 164.608C208.03 166.58 207.368 166.585 207.251 167.067C207.135 167.55 210.246 170.841 213.442 170.247C216.638 169.654 220.793 168.626 221.28 165.181C221.768 161.736 220.75 160.983 222.075 159.775C223.4 158.566 224.667 158.185 224.291 156.234C223.914 154.284 222.701 153.648 223.093 152.042C223.485 150.436 221.89 143.101 215.021 139.921C208.152 136.741 203.096 140.085 203.096 140.085Z" fill="#073044" stroke="#073044" stroke-width="0.53" stroke-linecap="round" stroke-linejoin="round"/>
<path d="M216.606 168L200.812 177.164L201.946 186.158L218.8 172.759L216.606 168Z" fill="white" stroke="#073044" stroke-width="0.53" stroke-linecap="round" stroke-linejoin="round"/>
<path d="M175.282 210.634C175.282 210.634 172.102 209.452 170.088 208.874C166.632 207.883 163.394 206.41 162.185 206.754C160.977 207.099 155.094 211.148 155.094 211.148C155.094 211.148 153.022 216.151 153.197 216.845C153.371 217.54 154.633 216.421 154.633 216.421C154.633 216.421 153.886 217.36 154.575 218.054C155.264 218.748 155.958 217.36 155.958 217.36C155.958 217.36 155.783 219.087 156.816 218.912C157.082 218.902 157.337 218.804 157.542 218.635C157.747 218.465 157.89 218.233 157.951 217.974C157.951 217.974 158.025 218.912 158.889 218.912C159.753 218.912 161.65 215.293 161.65 215.293L164.925 215.462C164.925 215.462 167.517 216.845 169.07 217.015C170.623 217.185 172.52 216.151 172.52 216.151L174.587 216.681L176.315 211.678L175.282 210.634Z" fill="white" stroke="#073044" stroke-width="0.53" stroke-linecap="round" stroke-linejoin="round"/>
<path d="M154.633 216.422C154.633 216.422 156.398 212.182 156.679 211.906C156.96 211.631 160.489 209.648 160.489 209.648" stroke="#073044" stroke-width="0.53" stroke-linecap="round" stroke-linejoin="round"/>
<path d="M155.958 217.36C155.958 217.36 158.078 213.035 158.305 212.823C158.533 212.611 161.194 211.275 161.194 211.275" stroke="#073044" stroke-width="0.53" stroke-linecap="round" stroke-linejoin="round"/>
<path d="M157.94 217.975C157.94 217.975 159.986 214.026 160.341 213.814C160.696 213.602 161.608 213.109 161.608 213.109" stroke="#073044" stroke-width="0.53" stroke-linecap="round" stroke-linejoin="round"/>
<path d="M221.01 179.406C221.01 179.406 210.14 186.476 210.315 189.238C210.49 191.999 211.348 191.999 211.348 191.999L205.826 212.701C205.826 212.701 204.103 211.323 203.928 213.051L203.759 214.773L174.943 209.945L172.012 217.19C172.012 217.19 183.916 221.849 192.199 224.78C200.483 227.71 209.106 230.991 209.965 229.438C210.824 227.885 227.9 202.35 228.96 200.453C230.02 198.555 230.02 195.105 230.02 195.105" fill="#283A86"/>
<path d="M221.01 179.406C221.01 179.406 210.14 186.476 210.315 189.238C210.49 191.999 211.348 191.999 211.348 191.999L205.826 212.701C205.826 212.701 204.103 211.323 203.928 213.051L203.759 214.773L174.943 209.945L172.012 217.19C172.012 217.19 183.916 221.849 192.199 224.78C200.483 227.71 209.106 230.991 209.965 229.438C210.824 227.885 227.9 202.35 228.96 200.453C230.02 198.555 230.02 195.105 230.02 195.105" stroke="#073044" stroke-width="0.53" stroke-linecap="round" stroke-linejoin="round"/>
<path d="M211.337 191.999C211.337 191.999 214.613 185.273 222.552 184.754" stroke="#073044" stroke-width="0.53" stroke-linecap="round" stroke-linejoin="round"/>
</svg>
