<svg width="32" height="32" viewBox="0 0 32 32" fill="none" xmlns="http://www.w3.org/2000/svg">
    <path d="M16.0007 31.9994C19.1654 31.9994 22.259 31.0609 24.8903 29.3027C27.5216 27.5445 29.5725 25.0454 30.7835 22.1216C31.9945 19.1978 32.3113 15.9805 31.6938 12.8767C31.0763 9.77279 29.5522 6.92175 27.3144 4.68407C25.0765 2.44639 22.2253 0.92258 19.1214 0.30534C16.0175 -0.311899 12.8003 0.00515738 9.87655 1.21641C6.95284 2.42767 4.45397 4.47872 2.69595 7.11019C0.937936 9.74166 -0.000262705 12.8354 5.51782e-08 16C4.79345e-08 18.1012 0.413879 20.1818 1.218 22.123C2.02213 24.0642 3.20075 25.8281 4.68657 27.3138C6.17238 28.7994 7.93629 29.9779 9.87758 30.7819C11.8189 31.5859 13.8995 31.9996 16.0007 31.9994Z" fill="#D8D8D8"/>
    <path d="M10.8938 20.8113C10.5662 20.2483 10.3917 19.6094 10.3876 18.958C10.3844 18.899 10.3932 18.84 10.4135 18.7845C10.4338 18.7291 10.4652 18.6783 10.5058 18.6354C10.5464 18.5925 10.5954 18.5583 10.6496 18.535C10.7039 18.5116 10.7623 18.4996 10.8214 18.4996C10.8805 18.4996 10.9389 18.5116 10.9932 18.535C11.0474 18.5583 11.0964 18.5925 11.137 18.6354C11.1776 18.6783 11.209 18.7291 11.2293 18.7845C11.2496 18.84 11.2584 18.899 11.2552 18.958C11.263 19.6124 11.4862 20.2459 11.8902 20.7608C14.1832 20.5874 16.3985 19.8536 18.3415 18.6238C20.2845 17.394 21.8958 15.7059 23.0338 13.7077C22.8275 13.408 22.551 13.1633 22.2284 12.9949C21.9059 12.8266 21.547 12.7397 21.1832 12.7419C19.9649 12.7419 18.9738 13.6918 18.9738 14.8675C18.9677 14.9784 18.9193 15.0827 18.8387 15.159C18.758 15.2354 18.6511 15.2779 18.5401 15.2779C18.429 15.2779 18.3222 15.2354 18.2415 15.159C18.1608 15.0827 18.1125 14.9784 18.1063 14.8675C18.1063 13.2201 19.4867 11.881 21.1832 11.881C21.6122 11.8809 22.0366 11.9699 22.4295 12.1423C22.8224 12.3147 23.1752 12.5668 23.4656 12.8827C24.3967 10.9757 24.8815 8.88174 24.8831 6.75956C24.8794 6.17712 24.8399 5.59546 24.7649 5.01787C22.6969 3.3653 20.2042 2.33048 17.5738 2.03261C14.9434 1.73474 12.2824 2.18593 9.8973 3.33422C7.51215 4.48251 5.49987 6.28118 4.09223 8.52307C2.6846 10.765 1.93886 13.3589 1.94092 16.006C1.94462 16.5885 1.9841 17.1701 2.05916 17.7477C4.54656 19.741 7.63984 20.8256 10.8274 20.8219L10.8938 20.8113Z" fill="#77CCF4"/>
    <path d="M2.05811 17.7436C2.36672 20.2158 3.32986 22.5608 4.84799 24.5363C4.89848 24.6014 4.94497 24.6692 4.99546 24.7329C5.18676 24.9747 5.39401 25.2059 5.5986 25.4344C5.68496 25.53 5.76865 25.627 5.86431 25.7187C6.05694 25.9206 6.26286 26.1173 6.46347 26.3032C6.58038 26.4109 6.69596 26.5185 6.81553 26.6221C7.00949 26.7921 7.21408 26.9529 7.41469 27.111C7.55817 27.2226 7.70298 27.3315 7.85044 27.4378C8.04706 27.5786 8.249 27.7128 8.4496 27.843C8.61832 27.9519 8.79103 28.0542 8.96507 28.1565C9.16036 28.2708 9.36362 28.3824 9.56157 28.4873C9.75952 28.5923 9.95216 28.6786 10.1501 28.7703C10.3481 28.862 10.5487 28.951 10.7426 29.036C10.9366 29.121 11.1824 29.2007 11.4069 29.2791C11.5995 29.3455 11.7895 29.412 11.9848 29.4731C12.2306 29.5475 12.483 29.6059 12.7341 29.6657C12.9161 29.7096 13.0968 29.76 13.2828 29.7986C13.571 29.8557 13.8646 29.8942 14.1582 29.9314C14.315 29.9514 14.4691 29.9819 14.6272 29.9979C15.0789 30.0417 15.5372 30.0669 16.0009 30.0669H16.0129C19.7409 30.0638 23.3151 28.5802 25.9497 25.9425C28.5842 23.3047 30.0633 19.7287 30.0619 16.0006C30.0619 15.5582 30.0367 15.1224 29.9955 14.6907C29.9955 14.6242 29.9862 14.5578 29.9782 14.4901C29.9357 14.0915 29.8733 13.693 29.7962 13.2944C29.7789 13.208 29.7617 13.1217 29.7431 13.0287C29.6607 12.6474 29.5651 12.2701 29.4521 11.9008C29.4269 11.8158 29.3963 11.7307 29.3684 11.6457C29.2608 11.3149 29.1426 10.9815 29.0111 10.6693C28.9725 10.5736 28.9327 10.4779 28.8915 10.3836C28.7586 10.0874 28.6258 9.79774 28.4704 9.51211C28.4093 9.3952 28.3508 9.27696 28.2857 9.16271C28.1276 8.87708 27.9576 8.59942 27.7795 8.3284C27.6905 8.19555 27.6002 8.0627 27.5138 7.92985C27.3438 7.68939 27.1684 7.45158 26.9824 7.22308C26.8629 7.07428 26.7393 6.9308 26.6144 6.78865C26.4895 6.6465 26.3487 6.49771 26.2159 6.35555C26.0228 6.15096 25.824 5.95257 25.6194 5.76038C25.4865 5.6355 25.3537 5.51327 25.2208 5.39371C25.088 5.27414 24.9206 5.128 24.7665 5.00977C24.8415 5.58735 24.881 6.16901 24.8847 6.75145C24.8831 8.87363 24.3983 10.9676 23.4672 12.8746C23.9748 13.4113 24.2597 14.1207 24.2643 14.8594C24.2581 14.9703 24.2098 15.0746 24.1291 15.1509C24.0484 15.2273 23.9416 15.2698 23.8305 15.2698C23.7195 15.2698 23.6126 15.2273 23.5319 15.1509C23.4513 15.0746 23.4029 14.9703 23.3968 14.8594C23.3958 14.4475 23.2703 14.0455 23.0367 13.7062C21.8987 15.7044 20.2874 17.3926 18.3444 18.6224C16.4014 19.8522 14.1861 20.586 11.8931 20.7593C12.7141 21.8461 14.2473 22.5807 16.0115 22.5807C18.63 22.5807 20.7596 20.956 20.7596 18.9565C20.7564 18.8976 20.7652 18.8385 20.7855 18.7831C20.8058 18.7276 20.8372 18.6769 20.8778 18.634C20.9184 18.591 20.9674 18.5569 21.0216 18.5335C21.0759 18.5101 21.1343 18.4981 21.1934 18.4981C21.2525 18.4981 21.3109 18.5101 21.3652 18.5335C21.4194 18.5569 21.4684 18.591 21.509 18.634C21.5496 18.6769 21.581 18.7276 21.6013 18.7831C21.6216 18.8385 21.6304 18.8976 21.6272 18.9565C21.6272 21.4329 19.103 23.4483 16.0115 23.4483C13.7424 23.4483 11.7882 22.3642 10.9034 20.8098H10.8316C7.6441 20.8135 4.55081 19.7289 2.06342 17.7356L2.05811 17.7436Z" fill="#36BDE7"/>
    <path d="M10.8197 18.524C10.7045 18.524 10.594 18.5698 10.5125 18.6513C10.431 18.7327 10.3853 18.8432 10.3853 18.9584C10.3902 19.61 10.5656 20.249 10.8941 20.8117C11.7789 22.3661 13.7331 23.4502 16.0022 23.4502C19.099 23.4502 21.6179 21.4348 21.6179 18.9584C21.6211 18.8995 21.6123 18.8404 21.592 18.785C21.5717 18.7295 21.5403 18.6788 21.4997 18.6359C21.4591 18.5929 21.4101 18.5588 21.3559 18.5354C21.3016 18.512 21.2432 18.5 21.1841 18.5C21.125 18.5 21.0666 18.512 21.0123 18.5354C20.9581 18.5588 20.9091 18.5929 20.8685 18.6359C20.8279 18.6788 20.7965 18.7295 20.7762 18.785C20.7559 18.8404 20.7471 18.8995 20.7503 18.9584C20.7503 20.9512 18.6247 22.5826 16.0022 22.5826C14.2446 22.5826 12.7115 21.848 11.8905 20.7612C11.4865 20.2464 11.2633 19.6128 11.2554 18.9584C11.2554 18.9013 11.2442 18.8447 11.2222 18.7919C11.2003 18.7391 11.1682 18.6911 11.1277 18.6508C11.0872 18.6104 11.0392 18.5785 10.9863 18.5567C10.9335 18.5349 10.8768 18.5238 10.8197 18.524Z" fill="black"/>
    <path d="M13.265 14.8615C13.2712 14.9724 13.3196 15.0767 13.4002 15.1531C13.4809 15.2294 13.5877 15.2719 13.6988 15.2719C13.8099 15.2719 13.9167 15.2294 13.9974 15.1531C14.078 15.0767 14.1264 14.9724 14.1326 14.8615C14.1326 13.2141 12.7522 11.875 11.0544 11.875C9.35654 11.875 7.97754 13.2141 7.97754 14.8615C7.98368 14.9724 8.03205 15.0767 8.11273 15.1531C8.1934 15.2294 8.30024 15.2719 8.4113 15.2719C8.52236 15.2719 8.6292 15.2294 8.70987 15.1531C8.79055 15.0767 8.83892 14.9724 8.84506 14.8615C8.84506 13.6924 9.83614 12.7359 11.0544 12.7359C12.2726 12.7359 13.265 13.6924 13.265 14.8615Z" fill="black"/>
    <path d="M21.1804 11.875C19.4838 11.875 18.1035 13.2142 18.1035 14.8615C18.1097 14.9724 18.158 15.0767 18.2387 15.1531C18.3194 15.2294 18.4262 15.2719 18.5373 15.2719C18.6483 15.2719 18.7552 15.2294 18.8359 15.1531C18.9165 15.0767 18.9649 14.9724 18.971 14.8615C18.971 13.6924 19.9621 12.7359 21.1804 12.7359C21.5442 12.7337 21.9031 12.8206 22.2256 12.989C22.5482 13.1573 22.8247 13.402 23.031 13.7017C23.2646 14.041 23.3901 14.443 23.391 14.8549C23.3972 14.9658 23.4455 15.0701 23.5262 15.1464C23.6069 15.2227 23.7137 15.2653 23.8248 15.2653C23.9358 15.2653 24.0427 15.2227 24.1234 15.1464C24.204 15.0701 24.2524 14.9658 24.2585 14.8549C24.2539 14.1162 23.969 13.4068 23.4614 12.8701C23.1706 12.5556 22.8178 12.3048 22.4252 12.1335C22.0325 11.9623 21.6087 11.8742 21.1804 11.875Z" fill="black"/>
</svg>
