<svg width="150" height="40" viewBox="0 0 150 40" fill="none" xmlns="http://www.w3.org/2000/svg">
    <g clip-path="url(#clip0_2419_4160)">
        <path d="M39.1304 17.9572L34.4635 12.975C34.3167 12.8179 34.088 12.7681 33.8888 12.846C33.6895 12.9251 33.558 13.118 33.558 13.3326V15.2441C30.8822 15.297 26.3462 15.794 22.6625 18.6415V5.55016H24.531C24.7456 5.55016 24.9384 5.41924 25.0175 5.21941C25.0967 5.01949 25.0456 4.79216 24.8886 4.64533L20.0787 0.140754C19.8731 -0.051496 19.5487 -0.0469959 19.3481 0.15542L14.9165 4.65999C14.7683 4.81066 14.7249 5.03483 14.8067 5.22958C14.8884 5.42374 15.0787 5.55016 15.2894 5.55016H17.1579V12.2158C13.4725 9.36957 8.9325 8.8419 6.26234 8.81607V6.90907C6.26234 6.69449 6.13075 6.50166 5.93159 6.42249C5.73109 6.34524 5.50376 6.39307 5.35684 6.55149L0.690098 11.5331C0.594348 11.6352 0.543265 11.7712 0.549598 11.9111C0.554682 12.051 0.616015 12.1826 0.719431 12.2771L5.38617 16.5371C5.48451 16.6265 5.61092 16.6737 5.73867 16.6737C5.81017 16.6737 5.88175 16.6584 5.94942 16.6291C6.13975 16.5447 6.26234 16.3571 6.26234 16.1501V14.3273C8.22825 14.3494 11.4414 14.7293 13.8347 16.6048C15.6623 18.0366 16.7824 20.2013 17.1578 22.9702V39.4763C17.1578 39.765 17.3928 40 17.6815 40H22.1388C22.4275 40 22.6625 39.765 22.6625 39.4763L22.6574 29.4634C23.038 26.6255 24.1581 24.4607 25.9857 23.029C28.3845 21.1486 31.5672 20.7828 33.558 20.7538V22.5743C33.558 22.7812 33.6806 22.969 33.8709 23.0532C33.9386 23.0826 34.0102 23.0979 34.0817 23.0979C34.2094 23.0979 34.3359 23.0506 34.4342 22.9612L39.1009 18.7019C39.2044 18.6074 39.2657 18.4746 39.2708 18.3353C39.2772 18.1961 39.2261 18.0595 39.1304 17.9572ZM34.6054 21.389V20.2255C34.6054 20.1895 34.5917 20.1578 34.5848 20.1238C34.5781 20.091 34.5776 20.0565 34.565 20.0262C34.5499 19.9897 34.5239 19.9607 34.5014 19.9289C34.4851 19.906 34.474 19.8795 34.4544 19.8595C34.4259 19.8304 34.3894 19.8118 34.3549 19.79C34.3324 19.7759 34.314 19.7566 34.2894 19.7459C34.2554 19.7311 34.2165 19.729 34.1794 19.7217C34.149 19.7156 34.1215 19.7025 34.0894 19.702C34.0872 19.7019 34.0843 19.7021 34.082 19.702C34.0819 19.702 34.0819 19.702 34.0818 19.702C34.0817 19.702 34.0816 19.702 34.0815 19.702C32.0363 19.6659 28.2021 19.9613 25.3395 22.2065C23.291 23.8119 22.0393 26.2065 21.6153 29.3944V38.9527H18.204L18.2001 22.9012C17.7812 19.7824 16.5297 17.3876 14.481 15.7823C11.6212 13.5411 7.79258 13.2811 5.73959 13.278C5.73926 13.278 5.73909 13.2778 5.73876 13.2778C5.7385 13.2778 5.73834 13.278 5.73809 13.278C5.73592 13.278 5.73325 13.2778 5.73109 13.2778C5.69742 13.2784 5.66825 13.292 5.63642 13.2986C5.60117 13.3058 5.56392 13.3074 5.53159 13.3215C5.50092 13.3347 5.47726 13.358 5.44992 13.3766C5.42184 13.3957 5.39042 13.4102 5.36659 13.4344C5.34167 13.4596 5.32684 13.4923 5.30742 13.5221C5.29009 13.5487 5.26792 13.5716 5.25559 13.6011C5.24217 13.6334 5.24134 13.6704 5.23451 13.7056C5.22826 13.7378 5.21501 13.7674 5.21501 13.8014V14.9649L1.81643 11.8614L5.21501 8.23299V9.33323C5.21501 9.3344 5.21576 9.3354 5.21576 9.33657C5.21576 9.33782 5.21501 9.33898 5.21501 9.34023C5.21559 9.38357 5.23067 9.42199 5.24117 9.46215C5.24776 9.48732 5.24742 9.51507 5.25751 9.53865C5.27576 9.58123 5.30559 9.6159 5.33401 9.65182C5.34709 9.66832 5.35484 9.6889 5.36976 9.70382C5.40442 9.73823 5.44792 9.76182 5.49109 9.78557C5.50701 9.79423 5.51901 9.80832 5.53576 9.81532C5.59825 9.84157 5.66667 9.85623 5.73859 9.85623C5.74117 9.85623 5.74367 9.85623 5.745 9.85623C8.22783 9.82173 12.901 10.2017 16.5882 13.0913C16.8449 13.2931 17.0913 13.5013 17.3301 13.7196C17.3343 13.7234 17.3406 13.7217 17.3448 13.7253C17.4364 13.8039 17.5516 13.8563 17.6813 13.8563C17.6816 13.8563 17.6819 13.8561 17.6822 13.8561C17.6824 13.8561 17.6825 13.8563 17.6826 13.8563C17.7051 13.8563 17.7261 13.8456 17.7483 13.8427C17.7956 13.8364 17.8437 13.8323 17.8861 13.8142C17.906 13.8058 17.9215 13.7886 17.9404 13.7776C17.9822 13.753 18.0239 13.7287 18.0572 13.6939C18.0609 13.6901 18.066 13.6891 18.0696 13.6851C18.092 13.6605 18.102 13.6301 18.1188 13.6027C18.1353 13.5761 18.1548 13.5526 18.1664 13.5232C18.183 13.4808 18.1877 13.4371 18.1928 13.3926C18.1953 13.372 18.205 13.3538 18.205 13.3326V13.3098C18.2049 13.3092 18.205 13.3087 18.205 13.3081V5.02724C18.205 4.73858 17.97 4.50424 17.6813 4.50424C17.6736 4.50424 17.6671 4.50833 17.6596 4.50866C17.652 4.50833 17.6455 4.50424 17.6378 4.50424H16.5382L19.7361 1.25325L23.2062 4.50424H22.1385C21.8498 4.50424 21.6148 4.73858 21.6148 5.02724V19.7569C21.6148 19.7844 21.6265 19.808 21.6306 19.8344C21.6363 19.872 21.6391 19.9093 21.6531 19.9453C21.6675 19.9823 21.6911 20.0127 21.7132 20.0451C21.7276 20.0665 21.7348 20.091 21.7527 20.1105C21.7554 20.1134 21.7591 20.1141 21.7616 20.117C21.8026 20.1598 21.8522 20.1924 21.9056 20.2195C21.9155 20.2244 21.9231 20.2337 21.9332 20.238C21.9964 20.2651 22.0655 20.2805 22.1384 20.2805C22.2686 20.2805 22.3841 20.2279 22.4758 20.1489C22.4806 20.1448 22.4876 20.1467 22.4921 20.1425C22.7284 19.9254 22.9762 19.7171 23.2329 19.5154C26.9175 16.6277 31.6035 16.2356 34.0748 16.2803C34.0758 16.2802 34.0765 16.2796 34.0775 16.2796C34.0788 16.2796 34.0799 16.2803 34.0812 16.2803C34.3509 16.2803 34.566 16.0725 34.594 15.81C34.5959 15.7936 34.6045 15.7801 34.6048 15.7631C34.6048 15.7619 34.6041 15.761 34.6041 15.7598C34.6041 15.7587 34.6048 15.7578 34.6048 15.7567V14.6558L38.0034 18.2856L34.6054 21.389Z" fill="#F9FAFB"/>
        <path d="M1.04733 10.2989V4.90222C1.97966 5.17297 3.69999 5.42205 5.91332 4.64039C6.12149 4.56697 6.26199 4.36897 6.26199 4.14739V1.52339C6.26199 1.35356 6.17899 1.19456 6.04107 1.09614C5.89932 0.997811 5.72307 0.972228 5.56466 1.03039C2.69358 2.04189 0.845498 1.10189 0.771415 1.06298C0.607915 0.974894 0.413833 0.980561 0.255416 1.07448C0.0970832 1.16898 0 1.33948 0 1.52339V4.13714C0 4.14355 0 4.15055 0 4.15697V10.2989C0 10.5875 0.235 10.8219 0.523666 10.8219C0.812332 10.8219 1.04733 10.5875 1.04733 10.2989ZM1.04733 2.27823C1.87875 2.52022 3.33858 2.74439 5.21474 2.23481V3.76931C3.13166 4.41105 1.63358 4.02347 1.04733 3.80439V2.27823Z" fill="#F9FAFB"/>
        <path d="M11.2369 16.7975C9.88305 16.1347 8.87538 16.6839 8.39772 17.2037C8.24955 17.2305 8.07589 17.2944 7.90855 17.4336C7.56497 17.7209 7.40155 18.2127 7.42064 18.8781V19.1297C7.33505 19.3225 7.2278 19.6687 7.32739 20.0518C7.38105 20.2612 7.51639 20.5422 7.8408 20.7836C8.0388 21.4618 8.62497 22.4401 9.79747 22.4401C9.81155 22.4401 9.82688 22.4401 9.84088 22.4401C11.0274 22.426 11.671 21.4694 11.8805 20.7862C12.2088 20.5448 12.3429 20.2613 12.3978 20.0519C12.4974 19.6687 12.3901 19.3213 12.3045 19.1298L12.3033 18.896C12.3071 18.8092 12.3059 18.7262 12.3033 18.6495C12.3352 17.597 11.6443 16.9891 11.2369 16.7975ZM11.173 19.9981C11.0389 20.0709 10.943 20.2037 10.9111 20.3532C10.9022 20.3966 10.6876 21.3941 9.8613 21.3941C9.84471 21.3941 9.83322 21.3941 9.82047 21.3941C9.0363 21.3941 8.8358 20.4669 8.8153 20.3634C8.78722 20.2076 8.69013 20.0735 8.55222 19.9982C8.46922 19.9522 8.36572 19.8794 8.34022 19.7913C8.31339 19.6929 8.3683 19.5627 8.38622 19.5333C8.43855 19.4503 8.46538 19.3544 8.46672 19.2561V18.864C8.45138 18.3455 8.58038 18.2357 8.54972 18.2293C8.75788 18.2739 8.97122 18.1808 9.09122 18.0096C9.18572 17.8717 9.71063 17.2152 10.777 17.7376C10.8294 17.7644 11.2815 18.0109 11.2573 18.6291C11.256 18.6419 11.256 18.6547 11.2573 18.6687L11.2585 19.2562C11.2598 19.3481 11.2892 19.4465 11.3352 19.5257C11.357 19.5627 11.4119 19.693 11.385 19.7914C11.3595 19.8794 11.256 19.9522 11.173 19.9981Z" fill="#F9FAFB"/>
        <path d="M11.184 22.5206C11.0333 22.4925 10.8864 22.5475 10.774 22.6458C10.6616 22.7454 10.5965 22.8872 10.5951 23.0366C10.5939 23.5066 10.3806 23.9421 10.0127 24.2308L9.86207 24.3483L9.71265 24.232C9.34357 23.9421 9.13023 23.5066 9.12898 23.0366C9.12773 22.8872 9.06257 22.7455 8.95015 22.6458C8.83774 22.5475 8.68957 22.4925 8.54015 22.5206C6.90674 22.725 5.17616 23.5092 5.21449 25.0814V30.5502C5.21449 31.3778 5.88882 32.0521 6.71774 32.0521C6.87891 32.0521 7.02674 32.0073 7.17241 31.96V38.1213C7.17241 39.0063 7.89399 39.7279 8.77907 39.7279C9.19898 39.7279 9.5754 39.557 9.86207 39.2918C10.1488 39.557 10.5251 39.7279 10.9451 39.7279C11.8302 39.7279 12.5518 39.0063 12.5518 38.1213V31.96C12.6975 32.0073 12.8453 32.0521 13.0065 32.0521C13.8354 32.0521 14.5097 31.3778 14.5097 30.5502L14.5085 25.0941C14.5481 23.5092 12.8175 22.725 11.184 22.5206ZM13.4625 30.5502C13.4625 30.8018 13.2581 31.0049 13.0066 31.0049C12.755 31.0049 12.5519 30.8018 12.5519 30.5502V27.5923V27.379C12.5519 27.0904 12.3169 26.8554 12.0282 26.8554C11.7396 26.8554 11.5046 27.0904 11.5046 27.379V27.5923V30.5502V38.1213C11.5046 38.4303 11.2542 38.6807 10.9451 38.6807C10.6361 38.6807 10.3857 38.4303 10.3857 38.1213V33.291C10.3857 33.0023 10.1507 32.7674 9.86207 32.7674C9.5734 32.7674 9.3384 33.0023 9.3384 33.291V38.1213C9.3384 38.4303 9.08807 38.6807 8.77899 38.6807C8.4699 38.6807 8.21957 38.4303 8.21957 38.1213V30.5502V27.5923V27.379C8.21957 27.0904 7.98457 26.8554 7.6959 26.8554C7.40724 26.8554 7.17224 27.0904 7.17224 27.379V27.5923V30.5502C7.17224 30.8018 6.96916 31.0049 6.71757 31.0049C6.46599 31.0049 6.26166 30.8018 6.26166 30.5502L6.26041 25.0686C6.23999 24.213 7.44182 23.8131 8.15699 23.6522C8.2924 24.2027 8.60907 24.6956 9.06757 25.0558L9.54015 25.4249C9.72915 25.573 9.99482 25.573 10.1838 25.4249L10.6576 25.0545C11.1161 24.6955 11.4303 24.2025 11.567 23.6521C12.2822 23.8143 13.484 24.2166 13.4623 25.0813V30.5502H13.4625Z" fill="#F9FAFB"/>
        <path d="M56.8845 14.0771L56.2466 15.6387C56.1807 15.8147 56.0267 15.9247 55.9387 15.9247H48.6142C48.4823 15.9247 48.3943 15.8367 48.3943 15.7047V14.0551L53.4532 7.36848H49.0102C48.9002 7.36848 48.8562 7.23651 48.8562 7.08254V5.3669C48.8562 5.14695 48.9222 5.05897 49.1641 5.05897H56.1367C56.3126 5.05897 56.5106 5.14695 56.5106 5.27892V6.99456L51.5396 13.6152H56.5546C56.9725 13.6152 56.9725 13.7691 56.9725 13.8351C56.9725 13.9451 56.9065 14.0331 56.8845 14.0771ZM63.4611 10.6238L64.6269 5.32291C64.6929 5.08096 64.8028 4.86101 65.0008 4.86101C65.0888 4.86101 65.3307 4.88301 65.3967 4.88301L66.9364 5.08096C67.2663 5.12495 67.4203 5.14695 67.4203 5.30092C67.4203 5.3889 67.3543 5.52087 67.3103 5.69683L65.1548 13.6372C64.7589 15.0669 64.165 17.3104 63.6811 18.5201C63.0432 20.1258 61.6795 20.5877 60.4478 20.5877C59.238 20.5877 57.4564 19.9938 57.4564 19.5759C57.4564 19.4879 57.5004 19.4 57.5444 19.312L58.2042 17.8823C58.2482 17.7723 58.3362 17.7283 58.4022 17.7283C58.6221 17.7283 59.304 18.2782 60.2718 18.2782C61.4156 18.2782 61.7455 17.5963 62.0314 16.6505L62.2514 15.9247H61.3276C61.0416 15.9247 60.9976 15.8367 60.9317 15.6387L57.5664 5.69683C57.5444 5.65284 57.4784 5.47688 57.4564 5.32291C57.4564 5.14695 57.6104 5.12495 57.9403 5.08096L59.7659 4.88301C59.8319 4.88301 60.0738 4.86101 60.1178 4.86101C60.2938 4.86101 60.3598 5.08096 60.4258 5.30092L61.8555 10.6238C62.1194 11.6136 62.5593 13.6812 62.6913 14.429H62.7353C62.8453 13.5712 63.3731 11.0197 63.4611 10.6238ZM72.2813 7.72041V13.6812C72.6772 13.9011 73.0291 14.0991 73.8869 14.0991C75.4266 14.0991 75.8225 12.9993 75.8225 10.4038C75.8225 8.13832 75.4046 6.88458 74.0409 6.88458C73.1171 6.88458 72.5892 7.43447 72.2813 7.72041ZM72.2813 15.7267V19.7519C72.2813 20.0598 72.1273 20.1038 71.8634 20.1478L70.0157 20.5217C69.9498 20.5437 69.7518 20.5877 69.6418 20.5877C69.5318 20.5877 69.4879 20.4997 69.4879 20.1258V8.97414C69.4879 5.8728 69.0699 6.04876 69.0699 5.54287C69.0699 5.43289 69.1579 5.34491 69.3119 5.30092L70.9835 4.75103C71.1155 4.70704 71.2255 4.68505 71.3135 4.68505C71.5994 4.68505 71.7534 5.10296 71.9953 5.82881C72.4792 5.3669 73.3371 4.68505 74.8107 4.68505C77.2522 4.68505 78.6159 6.59865 78.6159 10.2939C78.6159 14.1431 77.4282 16.2986 74.5688 16.2986C73.2931 16.2986 72.7432 15.9687 72.2813 15.7267ZM85.5005 13.7032L85.9404 15.5068C85.9624 15.6168 85.9844 15.6168 85.9844 15.6827C85.9844 15.9907 84.8186 16.2986 83.7629 16.2986C81.0574 16.2986 81.0574 14.0771 81.0574 12.0535V0.835855C81.0574 0.505925 81.2114 0.505924 81.4753 0.439938L83.323 0.0660166C83.3889 0.0660166 83.5869 3.05176e-05 83.6309 3.05176e-05C83.8069 3.05176e-05 83.8508 0.0880121 83.8508 0.461934V12.4494C83.8508 13.1533 83.8508 13.7691 84.4667 13.7691C84.9066 13.7691 85.1926 13.5712 85.3245 13.5712C85.4125 13.5712 85.4785 13.6152 85.5005 13.7032ZM91.4832 14.209C91.4832 15.3748 90.5374 16.2986 89.3937 16.2986C88.2719 16.2986 87.3041 15.3748 87.3041 14.209C87.3041 13.0433 88.2719 12.1195 89.3937 12.1195C90.5374 12.1195 91.4832 13.0433 91.4832 14.209ZM100.897 13.4612L101.469 14.9129C101.491 14.9789 101.535 15.0669 101.535 15.1329C101.535 15.6607 99.7535 16.2986 98.4338 16.2986C95.3764 16.2986 93.5508 14.429 93.5508 10.7118C93.5508 6.99456 95.4204 4.68505 98.6757 4.68505C99.8635 4.68505 101.799 5.34491 101.799 6.02676C101.799 6.09275 101.755 6.15874 101.733 6.22472L100.919 7.65442C100.875 7.69841 100.831 7.7644 100.765 7.7644C100.545 7.7644 99.8195 6.88458 98.6757 6.88458C97.18 6.88458 96.5202 8.02835 96.5202 10.5578C96.5202 12.9773 97.0921 14.0991 98.7857 14.0991C99.9075 14.0991 100.347 13.3512 100.743 13.3512C100.809 13.3512 100.853 13.3952 100.897 13.4612ZM111.543 15.5288L109.871 16.2106C109.783 16.2326 109.673 16.2986 109.585 16.2986C109.387 16.2986 109.058 15.5288 108.948 14.9789C108.508 15.4188 107.738 16.2986 106.088 16.2986C104.065 16.2986 102.789 14.9789 102.789 12.9113C102.789 9.1941 106.792 9.1941 108.53 9.1941V8.51224C108.53 7.52245 108.354 6.88458 106.968 6.88458C105.736 6.88458 104.527 7.54445 104.241 7.54445C104.131 7.54445 104.043 7.41247 104.021 7.32449L103.581 5.98277C103.537 5.89479 103.515 5.80681 103.515 5.71883C103.515 5.21294 105.692 4.68505 107.386 4.68505C110.135 4.68505 111.169 5.93878 111.169 8.2263V12.4714C111.169 14.605 111.741 14.8909 111.741 15.3308C111.741 15.4188 111.653 15.4848 111.543 15.5288ZM108.53 13.4172V10.9977C107.98 10.9977 105.428 10.8218 105.428 12.7574C105.428 13.6152 106.044 14.253 106.88 14.253C107.694 14.253 108.266 13.6812 108.53 13.4172ZM116.932 8.27029V15.6167C116.932 15.8587 116.888 15.9247 116.624 15.9247H114.446C114.182 15.9247 114.138 15.8587 114.138 15.6167V8.97414C114.138 6.55465 113.567 6.15874 113.567 5.65284C113.567 5.56486 113.655 5.49888 113.765 5.45488L115.436 4.77303C115.524 4.75103 115.634 4.68505 115.722 4.68505C115.986 4.68505 116.426 5.67484 116.536 6.42268C116.954 5.91679 117.768 4.68505 119.263 4.68505C119.901 4.68505 120.539 4.905 120.539 5.19094C120.539 5.27892 120.517 5.3669 120.495 5.41089L119.813 7.25851C119.791 7.32449 119.725 7.45646 119.637 7.45646C119.505 7.45646 119.109 7.21452 118.604 7.21452C117.922 7.21452 117.218 7.96236 116.932 8.27029ZM129.491 13.4392L130.041 14.7589C130.085 14.8249 130.107 14.9129 130.107 15.0009C130.107 15.5728 127.908 16.2986 126.17 16.2986C123.267 16.2986 121.243 14.649 121.243 10.6018C121.243 7.10454 123.113 4.68505 126.06 4.68505C129.799 4.68505 130.459 8.02834 130.459 10.6898C130.459 11.1077 130.371 11.2397 129.953 11.2397H124.036C124.036 12.4714 124.388 13.9891 126.456 13.9891C128.04 13.9891 128.941 13.2632 129.249 13.2632C129.359 13.2632 129.447 13.3512 129.491 13.4392ZM124.036 9.1941H127.49C127.49 8.29229 127.424 6.73062 125.906 6.73062C124.19 6.73062 124.102 8.57823 124.036 9.1941ZM140.489 13.4392L141.039 14.7589C141.083 14.8249 141.105 14.9129 141.105 15.0009C141.105 15.5728 138.905 16.2986 137.168 16.2986C134.264 16.2986 132.241 14.649 132.241 10.6018C132.241 7.10454 134.11 4.68505 137.058 4.68505C140.797 4.68505 141.457 8.02834 141.457 10.6898C141.457 11.1077 141.369 11.2397 140.951 11.2397H135.034C135.034 12.4714 135.386 13.9891 137.454 13.9891C139.037 13.9891 139.939 13.2632 140.247 13.2632C140.357 13.2632 140.445 13.3512 140.489 13.4392ZM135.034 9.1941H138.487C138.487 8.29229 138.421 6.73062 136.904 6.73062C135.188 6.73062 135.1 8.57823 135.034 9.1941ZM146.67 8.27029V15.6167C146.67 15.8587 146.626 15.9247 146.362 15.9247H144.184C143.92 15.9247 143.876 15.8587 143.876 15.6167V8.97414C143.876 6.55465 143.304 6.15874 143.304 5.65284C143.304 5.56486 143.392 5.49888 143.502 5.45488L145.174 4.77303C145.262 4.75103 145.372 4.68505 145.46 4.68505C145.724 4.68505 146.164 5.67484 146.274 6.42268C146.692 5.91679 147.505 4.68505 149.001 4.68505C149.639 4.68505 150.277 4.905 150.277 5.19094C150.277 5.27892 150.255 5.3669 150.233 5.41089L149.551 7.25851C149.529 7.32449 149.463 7.45646 149.375 7.45646C149.243 7.45646 148.847 7.21452 148.341 7.21452C147.659 7.21452 146.956 7.96236 146.67 8.27029Z" fill="#F9FAFB"/>
        <path d="M150.277 37.4531H48.3945V40.0002H150.277V37.4531Z" fill="#F9FAFB"/>
        <path d="M51.4512 24.2695H55.9136V24.9012H52.1542V27.6418H55.5061V28.2735H52.1542V31.3911H51.4512V24.2695ZM62.0521 24.6923C62.6192 25.0149 63.0692 25.4513 63.402 26.0015C63.7348 26.5517 63.9012 27.1562 63.9012 27.815C63.9012 28.4738 63.7348 29.0817 63.402 29.6387C63.0692 30.1957 62.6192 30.6372 62.0521 30.9632C61.4849 31.2892 60.8617 31.4522 60.1825 31.4522C59.5033 31.4522 58.8801 31.2892 58.313 30.9632C57.7458 30.6372 57.2958 30.1957 56.963 29.6387C56.6302 29.0817 56.4638 28.4738 56.4638 27.815C56.4638 27.1562 56.6302 26.5517 56.963 26.0015C57.2958 25.4513 57.7458 25.0149 58.313 24.6923C58.8801 24.3697 59.5033 24.2084 60.1825 24.2084C60.8617 24.2084 61.4849 24.3697 62.0521 24.6923ZM58.6848 25.2374C58.223 25.5023 57.8562 25.8623 57.5845 26.3173C57.3128 26.7724 57.177 27.2716 57.177 27.815C57.177 28.3584 57.3128 28.861 57.5845 29.3229C57.8562 29.7847 58.223 30.1498 58.6848 30.4181C59.1467 30.6864 59.6493 30.8205 60.1927 30.8205C60.7293 30.8205 61.2268 30.6864 61.6853 30.4181C62.1438 30.1498 62.5088 29.7847 62.7805 29.3229C63.0522 28.861 63.188 28.3584 63.188 27.815C63.188 27.2716 63.0522 26.7724 62.7805 26.3173C62.5088 25.8623 62.1438 25.5023 61.6853 25.2374C61.2268 24.9725 60.7293 24.84 60.1927 24.84C59.6493 24.84 59.1467 24.9725 58.6848 25.2374ZM70.1466 31.3911L68.6082 29.0682C68.3909 29.0817 68.2244 29.0885 68.109 29.0885H66.1528V31.3911H65.4498V24.2695H68.109C68.9988 24.2695 69.6865 24.475 70.1721 24.8859C70.6577 25.2968 70.9006 25.8792 70.9006 26.6332C70.9006 27.2241 70.7579 27.7165 70.4727 28.1105C70.1874 28.5044 69.7799 28.7795 69.2501 28.9357L70.9617 31.3911H70.1466ZM68.109 28.4569C68.7882 28.4569 69.3112 28.3023 69.678 27.9933C70.0447 27.6843 70.2281 27.2377 70.2281 26.6535C70.2281 26.083 70.0447 25.6483 69.678 25.3494C69.3112 25.0506 68.7882 24.9012 68.109 24.9012H66.1528V28.4569H68.109ZM80.773 24.2695L78.0323 28.8542V31.3911H77.3294V28.8542L74.548 24.2695H75.2815L77.6859 28.1003L80.0394 24.2695H80.773ZM86.4122 24.6923C86.9793 25.0149 87.4293 25.4513 87.7621 26.0015C88.095 26.5517 88.2614 27.1562 88.2614 27.815C88.2614 28.4738 88.095 29.0817 87.7621 29.6387C87.4293 30.1957 86.9793 30.6372 86.4122 30.9632C85.845 31.2892 85.2219 31.4522 84.5426 31.4522C83.8634 31.4522 83.2402 31.2892 82.6731 30.9632C82.106 30.6372 81.656 30.1957 81.3232 29.6387C80.9903 29.0817 80.8239 28.4738 80.8239 27.815C80.8239 27.1562 80.9903 26.5517 81.3232 26.0015C81.656 25.4513 82.106 25.0149 82.6731 24.6923C83.2402 24.3697 83.8634 24.2084 84.5426 24.2084C85.2219 24.2084 85.845 24.3697 86.4122 24.6923ZM83.045 25.2374C82.5831 25.5023 82.2163 25.8623 81.9446 26.3173C81.673 26.7724 81.5371 27.2716 81.5371 27.815C81.5371 28.3584 81.673 28.861 81.9446 29.3229C82.2163 29.7847 82.5831 30.1498 83.045 30.4181C83.5068 30.6864 84.0095 30.8205 84.5528 30.8205C85.0894 30.8205 85.5869 30.6864 86.0454 30.4181C86.5039 30.1498 86.869 29.7847 87.1407 29.3229C87.4123 28.861 87.5482 28.3584 87.5482 27.815C87.5482 27.2716 87.4123 26.7724 87.1407 26.3173C86.869 25.8623 86.5039 25.5023 86.0454 25.2374C85.5869 24.9725 85.0894 24.84 84.5528 24.84C84.0095 24.84 83.5068 24.9725 83.045 25.2374ZM90.946 30.2092C91.3433 30.6168 91.8952 30.8205 92.6016 30.8205C93.3079 30.8205 93.8581 30.6168 94.2521 30.2092C94.646 29.8017 94.843 29.2312 94.843 28.4976V24.2593H95.546V28.4976C95.546 29.4214 95.2862 30.1447 94.7666 30.6677C94.247 31.1907 93.5253 31.4522 92.6016 31.4522C91.6778 31.4522 90.9545 31.1907 90.4315 30.6677C89.9085 30.1447 89.647 29.4214 89.647 28.4976V24.2593H90.35V28.4976C90.35 29.2312 90.5486 29.8017 90.946 30.2092ZM102.321 31.3911L100.783 29.0682C100.565 29.0817 100.399 29.0885 100.284 29.0885H98.3274V31.3911H97.6244V24.2695H100.284C101.173 24.2695 101.861 24.475 102.347 24.8859C102.832 25.2968 103.075 25.8792 103.075 26.6332C103.075 27.2241 102.932 27.7165 102.647 28.1105C102.362 28.5044 101.954 28.7795 101.425 28.9357L103.136 31.3911H102.321ZM100.284 28.4569C100.963 28.4569 101.486 28.3023 101.853 27.9933C102.219 27.6843 102.403 27.2377 102.403 26.6535C102.403 26.083 102.219 25.6483 101.853 25.3494C101.486 25.0506 100.963 24.9012 100.284 24.9012H98.3274V28.4569H100.284ZM107.792 24.2695H112.255V24.9012H108.495V27.6418H111.847V28.2735H108.495V31.3911H107.792V24.2695ZM114.634 30.2092C115.031 30.6168 115.583 30.8205 116.289 30.8205C116.996 30.8205 117.546 30.6168 117.94 30.2092C118.334 29.8017 118.531 29.2312 118.531 28.4976V24.2593H119.234V28.4976C119.234 29.4214 118.974 30.1447 118.454 30.6677C117.935 31.1907 117.213 31.4522 116.289 31.4522C115.366 31.4522 114.642 31.1907 114.119 30.6677C113.596 30.1447 113.335 29.4214 113.335 28.4976V24.2593H114.038V28.4976C114.038 29.2312 114.236 29.8017 114.634 30.2092ZM120.303 24.2593H125.713V24.9012H123.36V31.3911H122.657V24.9012H120.303V24.2593ZM128.082 30.2092C128.48 30.6168 129.031 30.8205 129.738 30.8205C130.444 30.8205 130.994 30.6168 131.388 30.2092C131.782 29.8017 131.979 29.2312 131.979 28.4976V24.2593H132.682V28.4976C132.682 29.4214 132.422 30.1447 131.903 30.6677C131.383 31.1907 130.662 31.4522 129.738 31.4522C128.814 31.4522 128.091 31.1907 127.568 30.6677C127.045 30.1447 126.783 29.4214 126.783 28.4976V24.2593H127.486V28.4976C127.486 29.2312 127.685 29.8017 128.082 30.2092ZM139.457 31.3911L137.919 29.0682C137.702 29.0817 137.535 29.0885 137.42 29.0885H135.464V31.3911H134.761V24.2695H137.42C138.31 24.2695 138.997 24.475 139.483 24.8859C139.968 25.2968 140.211 25.8792 140.211 26.6332C140.211 27.2241 140.069 27.7165 139.783 28.1105C139.498 28.5044 139.091 28.7795 138.561 28.9357L140.272 31.3911H139.457ZM137.42 28.4569C138.099 28.4569 138.622 28.3023 138.989 27.9933C139.355 27.6843 139.539 27.2377 139.539 26.6535C139.539 26.083 139.355 25.6483 138.989 25.3494C138.622 25.0506 138.099 24.9012 137.42 24.9012H135.464V28.4569H137.42ZM142.127 24.2695H146.895V24.9012H142.83V27.4482H146.467V28.0799H142.83V30.7594H147.027V31.3911H142.127V24.2695Z" fill="#F9FAFB"/>
    </g>
    <defs>
        <clipPath id="clip0_2419_4160">
            <rect width="150" height="40" fill="white"/>
        </clipPath>
    </defs>
</svg>
