<svg width="108" height="30" viewBox="0 0 108 30" fill="none" xmlns="http://www.w3.org/2000/svg">
    <g clip-path="url(#clip0_15_3201)">
        <path d="M28.0844 13.5338L24.7349 9.95793C24.6296 9.84519 24.4654 9.80942 24.3224 9.86534C24.1794 9.92216 24.085 10.0606 24.085 10.2146V11.5866C22.1645 11.6245 18.909 11.9812 16.2651 14.0249V4.62898H17.6061C17.7601 4.62898 17.8985 4.53502 17.9554 4.39159C18.0122 4.24811 17.9755 4.08494 17.8628 3.97956L14.4107 0.74653C14.2631 0.608548 14.0303 0.611778 13.8863 0.757056L10.7056 3.99009C10.5993 4.09822 10.5681 4.25911 10.6268 4.39889C10.6854 4.53824 10.822 4.62898 10.9733 4.62898H12.3143V9.41306C9.66921 7.37025 6.41076 6.99153 4.49433 6.97299V5.6043C4.49433 5.45029 4.39989 5.31189 4.25695 5.25507C4.11304 5.19962 3.94988 5.23395 3.84444 5.34765L0.495016 8.92304C0.426294 8.99636 0.389631 9.09397 0.394176 9.19439C0.397825 9.29475 0.441845 9.38919 0.516069 9.45702L3.86549 12.5145C3.93607 12.5787 4.0268 12.6126 4.11849 12.6126C4.1698 12.6126 4.22118 12.6016 4.26975 12.5805C4.40635 12.52 4.49433 12.3853 4.49433 12.2368V10.9285C5.90531 10.9444 8.21146 11.217 9.92915 12.5631C11.2409 13.5907 12.0448 15.1444 12.3143 17.1317V28.9785C12.3143 29.1857 12.4829 29.3544 12.6901 29.3544H15.8892C16.0964 29.3544 16.2651 29.1857 16.2651 28.9785L16.2614 21.792C16.5346 19.7552 17.3385 18.2015 18.6502 17.1739C20.3719 15.8243 22.6562 15.5618 24.085 15.541V16.8476C24.085 16.9961 24.173 17.1308 24.3096 17.1913C24.3582 17.2124 24.4096 17.2233 24.4609 17.2233C24.5526 17.2233 24.6433 17.1894 24.7139 17.1253L28.0633 14.0683C28.1375 14.0004 28.1815 13.9051 28.1852 13.8051C28.1898 13.7052 28.1531 13.6072 28.0844 13.5338ZM24.8367 15.9969V15.1618C24.8367 15.1359 24.8269 15.1132 24.822 15.0888C24.8172 15.0653 24.8168 15.0405 24.8078 15.0188C24.7969 14.9926 24.7783 14.9717 24.7621 14.9489C24.7504 14.9324 24.7425 14.9134 24.7284 14.8991C24.708 14.8782 24.6817 14.8649 24.6569 14.8493C24.6409 14.8391 24.6276 14.8253 24.61 14.8176C24.5856 14.807 24.5577 14.8054 24.531 14.8002C24.5092 14.7958 24.4895 14.7864 24.4664 14.786C24.4648 14.786 24.4627 14.7862 24.4611 14.7861C24.4611 14.7861 24.461 14.786 24.4609 14.786C24.4609 14.786 24.4608 14.7861 24.4608 14.7861C22.9928 14.7601 20.241 14.9722 18.1865 16.5836C16.7161 17.7358 15.8178 19.4545 15.5135 21.7425V28.6027H13.0651L13.0624 17.0822C12.7617 14.8437 11.8634 13.125 10.393 11.9728C8.34047 10.3643 5.59262 10.1777 4.11914 10.1754C4.1189 10.1754 4.11878 10.1753 4.11855 10.1753C4.11837 10.1753 4.11825 10.1754 4.11807 10.1754C4.11651 10.1754 4.1146 10.1753 4.11304 10.1753C4.08888 10.1757 4.06795 10.1854 4.0451 10.1902C4.0198 10.1954 3.99306 10.1965 3.96986 10.2066C3.94785 10.2161 3.93086 10.2328 3.91124 10.2462C3.89109 10.2599 3.86854 10.2703 3.85143 10.2877C3.83355 10.3058 3.8229 10.3292 3.80897 10.3506C3.79653 10.3697 3.78062 10.3861 3.77177 10.4073C3.76214 10.4305 3.76154 10.457 3.75664 10.4823C3.75215 10.5054 3.74264 10.5267 3.74264 10.5511V11.3861L1.30341 9.15869L3.74264 6.5545V7.34417C3.74264 7.34501 3.74318 7.34573 3.74318 7.34656C3.74318 7.34746 3.74264 7.3483 3.74264 7.3492C3.74306 7.3803 3.75388 7.40787 3.76142 7.4367C3.76614 7.45476 3.76591 7.47468 3.77314 7.4916C3.78624 7.52217 3.80765 7.54705 3.82805 7.57283C3.83744 7.58467 3.843 7.59944 3.85371 7.61015C3.87859 7.63485 3.90981 7.65177 3.94079 7.66882C3.95221 7.67504 3.96083 7.68515 3.97285 7.69017C4.01771 7.70901 4.06681 7.71954 4.11843 7.71954C4.12028 7.71954 4.12207 7.71954 4.12303 7.71954C5.90501 7.69478 9.25904 7.96751 11.9054 10.0414C12.0897 10.1863 12.2665 10.3357 12.4379 10.4924C12.4409 10.4951 12.4454 10.4939 12.4485 10.4965C12.5142 10.5529 12.5969 10.5905 12.69 10.5905C12.6902 10.5905 12.6904 10.5904 12.6906 10.5904C12.6908 10.5904 12.6908 10.5905 12.6909 10.5905C12.707 10.5905 12.7221 10.5828 12.7381 10.5807C12.772 10.5762 12.8065 10.5733 12.8369 10.5603C12.8512 10.5542 12.8624 10.5419 12.8759 10.534C12.906 10.5163 12.9359 10.4989 12.9598 10.4739C12.9624 10.4712 12.9661 10.4704 12.9686 10.4676C12.9847 10.4499 12.9919 10.4282 13.004 10.4085C13.0158 10.3894 13.0298 10.3725 13.0381 10.3514C13.05 10.321 13.0534 10.2896 13.0571 10.2576C13.0589 10.2429 13.0658 10.2298 13.0658 10.2146V10.1982C13.0658 10.1978 13.0658 10.1975 13.0658 10.197V4.25367C13.0658 4.04649 12.8972 3.8783 12.69 3.8783C12.6845 3.8783 12.6798 3.88123 12.6744 3.88147C12.6689 3.88123 12.6643 3.8783 12.6588 3.8783H11.8695L14.1648 1.54499L16.6553 3.8783H15.889C15.6818 3.8783 15.5131 4.04649 15.5131 4.25367V14.8254C15.5131 14.8452 15.5215 14.8622 15.5244 14.8811C15.5286 14.908 15.5306 14.9348 15.5406 14.9607C15.5509 14.9872 15.5679 15.0091 15.5838 15.0323C15.5941 15.0477 15.5993 15.0652 15.6121 15.0793C15.614 15.0813 15.6167 15.0819 15.6185 15.0839C15.6479 15.1146 15.6835 15.138 15.7218 15.1575C15.7289 15.161 15.7344 15.1677 15.7417 15.1708C15.787 15.1902 15.8366 15.2012 15.8889 15.2012C15.9823 15.2012 16.0652 15.1635 16.1311 15.1068C16.1345 15.1039 16.1395 15.1052 16.1428 15.1022C16.3124 14.9464 16.4902 14.7969 16.6745 14.6521C19.319 12.5796 22.6822 12.2982 24.4559 12.3302C24.4566 12.3302 24.4572 12.3298 24.4579 12.3297C24.4588 12.3297 24.4596 12.3302 24.4605 12.3302C24.6541 12.3302 24.8085 12.1811 24.8286 11.9927C24.83 11.9809 24.8361 11.9713 24.8363 11.959C24.8363 11.9582 24.8358 11.9575 24.8358 11.9567C24.8358 11.9559 24.8363 11.9552 24.8363 11.9544V11.1643L27.2755 13.7694L24.8367 15.9969Z" fill="#B265D0"/>
        <path d="M0.751692 8.03731V4.16402C1.42085 4.35834 2.65556 4.53711 4.24412 3.97609C4.39352 3.9234 4.49436 3.78129 4.49436 3.62226V1.73896C4.49436 1.61707 4.43479 1.50295 4.33581 1.43232C4.23407 1.36174 4.10757 1.34338 3.99387 1.38513C1.93324 2.1111 0.606832 1.43644 0.553661 1.40851C0.436314 1.34529 0.297017 1.34936 0.183318 1.41677C0.0696787 1.48459 0 1.60696 0 1.73896V3.6149C0 3.61951 0 3.62453 0 3.62914V8.03731C0 8.2445 0.168664 8.41268 0.375846 8.41268C0.583028 8.41268 0.751692 8.24444 0.751692 8.03731ZM0.751692 2.28072C1.34842 2.45441 2.39617 2.6153 3.74273 2.24956V3.3509C2.24766 3.8115 1.17246 3.53332 0.751692 3.37608V2.28072Z" fill="#B265D0"/>
        <path d="M8.06488 12.7015C7.09321 12.2257 6.36999 12.6199 6.02716 12.993C5.92081 13.0122 5.79617 13.0581 5.67607 13.158C5.42948 13.3642 5.31219 13.7172 5.32588 14.1947V14.3753C5.26446 14.5137 5.18748 14.7622 5.25896 15.0371C5.29748 15.1874 5.39461 15.3891 5.62745 15.5624C5.76956 16.0491 6.19026 16.7513 7.03179 16.7513C7.04189 16.7513 7.0529 16.7513 7.06295 16.7513C7.91452 16.7412 8.37649 16.0546 8.52686 15.5642C8.76245 15.3909 8.85868 15.1875 8.8981 15.0372C8.96957 14.7622 8.89259 14.5128 8.83117 14.3754L8.83027 14.2076C8.83302 14.1453 8.83213 14.0857 8.83027 14.0307C8.85318 13.2753 8.35729 12.839 8.06488 12.7015ZM8.01901 14.9986C7.92278 15.0509 7.85399 15.1461 7.83109 15.2534C7.82469 15.2846 7.67068 16.0005 7.0776 16.0005C7.0657 16.0005 7.05744 16.0005 7.04829 16.0005C6.48548 16.0005 6.34158 15.335 6.32686 15.2608C6.30671 15.149 6.23703 15.0527 6.13804 14.9987C6.07847 14.9656 6.00419 14.9134 5.98589 14.8501C5.96663 14.7796 6.00604 14.6861 6.0189 14.665C6.05646 14.6054 6.07572 14.5366 6.07668 14.466V14.1846C6.06567 13.8125 6.15826 13.7337 6.13625 13.7291C6.28566 13.7611 6.43877 13.6943 6.5249 13.5714C6.59272 13.4724 6.96946 13.0012 7.73485 13.3762C7.77241 13.3954 8.09694 13.5724 8.07954 14.016C8.07864 14.0252 8.07864 14.0344 8.07954 14.0444L8.08044 14.4661C8.08133 14.5321 8.10244 14.6027 8.13546 14.6595C8.15107 14.6861 8.19048 14.7796 8.17123 14.8502C8.15286 14.9134 8.07858 14.9656 8.01901 14.9986Z" fill="#B265D0"/>
        <path d="M8.02707 16.809C7.91893 16.7888 7.81349 16.8282 7.7328 16.8988C7.65212 16.9703 7.60541 17.0721 7.60445 17.1793C7.60355 17.5166 7.45044 17.8292 7.18644 18.0364L7.0783 18.1207L6.97106 18.0373C6.70616 17.8292 6.55305 17.5166 6.55215 17.1793C6.55125 17.0721 6.50448 16.9703 6.4238 16.8988C6.34312 16.8282 6.23677 16.7888 6.12953 16.809C4.9572 16.9557 3.71512 17.5185 3.74264 18.6469V22.572C3.74264 23.1659 4.22662 23.6499 4.82155 23.6499C4.93722 23.6499 5.04332 23.6177 5.14787 23.5838V28.0059C5.14787 28.6411 5.66577 29.159 6.30101 29.159C6.60239 29.159 6.87255 29.0364 7.0783 28.846C7.28411 29.0364 7.55421 29.159 7.85565 29.159C8.49089 29.159 9.00879 28.6411 9.00879 28.0059V23.5838C9.11334 23.6177 9.21944 23.6499 9.33511 23.6499C9.93004 23.6499 10.414 23.1659 10.414 22.572L10.4131 18.656C10.4415 17.5185 9.19946 16.9557 8.02707 16.809ZM9.66239 22.572C9.66239 22.7525 9.51574 22.8983 9.33517 22.8983C9.1546 22.8983 9.00885 22.7525 9.00885 22.572V20.449V20.296C9.00885 20.0888 8.84018 19.9201 8.633 19.9201C8.42582 19.9201 8.25716 20.0888 8.25716 20.296V20.449V22.572V28.0059C8.25716 28.2277 8.07749 28.4074 7.85565 28.4074C7.63382 28.4074 7.45415 28.2277 7.45415 28.0059V24.5391C7.45415 24.3319 7.28548 24.1633 7.0783 24.1633C6.87112 24.1633 6.70245 24.3319 6.70245 24.5391V28.0059C6.70245 28.2277 6.52278 28.4074 6.30095 28.4074C6.07911 28.4074 5.89945 28.2277 5.89945 28.0059V22.572V20.449V20.296C5.89945 20.0888 5.73078 19.9201 5.5236 19.9201C5.31642 19.9201 5.14775 20.0888 5.14775 20.296V20.449V22.572C5.14775 22.7525 5.002 22.8983 4.82143 22.8983C4.64086 22.8983 4.49421 22.7525 4.49421 22.572L4.49331 18.6377C4.47866 18.0236 5.34124 17.7366 5.85453 17.6211C5.95172 18.0162 6.179 18.37 6.50807 18.6285L6.84725 18.8934C6.9829 18.9998 7.17358 18.9998 7.30923 18.8934L7.64931 18.6276C7.97838 18.37 8.20386 18.0161 8.30195 17.6211C8.8153 17.7375 9.67782 18.0262 9.66227 18.6468V22.572H9.66239Z" fill="#B265D0"/>
        <path d="M40.8273 10.7489L40.3694 11.8698C40.3221 11.996 40.2116 12.075 40.1484 12.075H34.8915C34.7968 12.075 34.7336 12.0118 34.7336 11.9171V10.7331L38.3646 5.93401H35.1757C35.0967 5.93401 35.0652 5.83929 35.0652 5.72878V4.49743C35.0652 4.33956 35.1125 4.27642 35.2862 4.27642H40.2905C40.4168 4.27642 40.5589 4.33956 40.5589 4.43428V5.66563L36.9911 10.4174H40.5905C40.8904 10.4174 40.8904 10.5279 40.8904 10.5753C40.8904 10.6542 40.843 10.7173 40.8273 10.7489ZM45.5474 8.27042L46.3841 4.46585C46.4315 4.2922 46.5104 4.13434 46.6525 4.13434C46.7156 4.13434 46.8893 4.15012 46.9367 4.15012L48.0417 4.2922C48.2785 4.32378 48.389 4.33956 48.389 4.45007C48.389 4.51321 48.3417 4.60793 48.3101 4.73423L46.763 10.4332C46.4788 11.4593 46.0526 13.0695 45.7053 13.9378C45.2475 15.0902 44.2687 15.4217 43.3847 15.4217C42.5164 15.4217 41.2377 14.9955 41.2377 14.6955C41.2377 14.6324 41.2693 14.5693 41.3009 14.5061L41.7744 13.48C41.806 13.401 41.8692 13.3695 41.9165 13.3695C42.0744 13.3695 42.5638 13.7641 43.2584 13.7641C44.0793 13.7641 44.3161 13.2748 44.5213 12.5959L44.6792 12.075H44.0161C43.8109 12.075 43.7793 12.0118 43.732 11.8698L41.3166 4.73423C41.3009 4.70265 41.2535 4.57636 41.2377 4.46585C41.2377 4.33956 41.3482 4.32378 41.585 4.2922L42.8953 4.15012C42.9427 4.15012 43.1163 4.13434 43.1479 4.13434C43.2742 4.13434 43.3215 4.2922 43.3689 4.45007L44.395 8.27042C44.5845 8.98081 44.9002 10.4647 44.9949 11.0015H45.0265C45.1054 10.3858 45.4843 8.55457 45.5474 8.27042ZM51.8778 6.18659V10.4647C52.162 10.6226 52.4146 10.7647 53.0303 10.7647C54.1353 10.7647 54.4195 9.97536 54.4195 8.11255C54.4195 6.48653 54.1195 5.5867 53.1408 5.5867C52.4777 5.5867 52.0989 5.98136 51.8778 6.18659ZM51.8778 11.9329V14.8218C51.8778 15.0428 51.7673 15.0744 51.5779 15.106L50.2518 15.3744C50.2045 15.3902 50.0624 15.4217 49.9835 15.4217C49.9045 15.4217 49.873 15.3586 49.873 15.0902V7.08642C49.873 4.86052 49.573 4.98681 49.573 4.62372C49.573 4.54479 49.6362 4.48164 49.7467 4.45007L50.9464 4.0554C51.0412 4.02383 51.1201 4.00804 51.1832 4.00804C51.3885 4.00804 51.499 4.30799 51.6726 4.82895C52.0199 4.49743 52.6356 4.00804 53.6933 4.00804C55.4456 4.00804 56.4244 5.38148 56.4244 8.03362C56.4244 10.7963 55.5719 12.3433 53.5196 12.3433C52.604 12.3433 52.2094 12.1065 51.8778 11.9329ZM61.3656 10.4805L61.6813 11.775C61.6971 11.854 61.7129 11.854 61.7129 11.9013C61.7129 12.1223 60.8762 12.3433 60.1184 12.3433C58.1767 12.3433 58.1767 10.7489 58.1767 9.29654V1.2454C58.1767 1.0086 58.2872 1.0086 58.4766 0.961239L59.8027 0.692867C59.8501 0.692867 59.9921 0.645508 60.0237 0.645508C60.15 0.645508 60.1816 0.708654 60.1816 0.977026V9.5807C60.1816 10.0859 60.1816 10.5279 60.6236 10.5279C60.9393 10.5279 61.1446 10.3858 61.2393 10.3858C61.3024 10.3858 61.3498 10.4174 61.3656 10.4805ZM65.6595 10.8436C65.6595 11.6803 64.9807 12.3433 64.1598 12.3433C63.3547 12.3433 62.6601 11.6803 62.6601 10.8436C62.6601 10.0069 63.3547 9.3439 64.1598 9.3439C64.9807 9.3439 65.6595 10.0069 65.6595 10.8436ZM72.4162 10.3069L72.8266 11.3488C72.8424 11.3962 72.874 11.4593 72.874 11.5067C72.874 11.8855 71.5953 12.3433 70.6481 12.3433C68.4537 12.3433 67.1434 11.0015 67.1434 8.33356C67.1434 5.66563 68.4853 4.00804 70.8217 4.00804C71.6742 4.00804 73.0634 4.48164 73.0634 4.97102C73.0634 5.01838 73.0318 5.06574 73.016 5.1131L72.4319 6.13923C72.4004 6.1708 72.3688 6.21816 72.3214 6.21816C72.1636 6.21816 71.6426 5.5867 70.8217 5.5867C69.7482 5.5867 69.2746 6.4076 69.2746 8.22306C69.2746 9.95958 69.6851 10.7647 70.9006 10.7647C71.7058 10.7647 72.0215 10.2279 72.3057 10.2279C72.353 10.2279 72.3846 10.2595 72.4162 10.3069ZM80.0569 11.7908L78.8571 12.2802C78.7939 12.296 78.715 12.3433 78.6518 12.3433C78.5098 12.3433 78.273 11.7908 78.194 11.3962C77.8783 11.7119 77.3258 12.3433 76.1418 12.3433C74.6894 12.3433 73.7738 11.3962 73.7738 9.91222C73.7738 7.24429 76.647 7.24429 77.8941 7.24429V6.75491C77.8941 6.04451 77.7678 5.5867 76.7733 5.5867C75.8892 5.5867 75.0209 6.0603 74.8157 6.0603C74.7368 6.0603 74.6736 5.96558 74.6578 5.90243L74.3421 4.93945C74.3105 4.87631 74.2948 4.81316 74.2948 4.75001C74.2948 4.38692 75.8576 4.00804 77.0732 4.00804C79.0465 4.00804 79.7885 4.90788 79.7885 6.54968V9.59649C79.7885 11.1278 80.1989 11.333 80.1989 11.6487C80.1989 11.7119 80.1358 11.7592 80.0569 11.7908ZM77.8941 10.2753V8.53879C77.4994 8.53879 75.6682 8.41249 75.6682 9.80171C75.6682 10.4174 76.1102 10.8752 76.7101 10.8752C77.2942 10.8752 77.7047 10.4647 77.8941 10.2753ZM83.9246 6.58125V11.854C83.9246 12.0276 83.893 12.075 83.7035 12.075H82.1407C81.9512 12.075 81.9197 12.0276 81.9197 11.854V7.08642C81.9197 5.3499 81.5092 5.06574 81.5092 4.70265C81.5092 4.63951 81.5724 4.59215 81.6513 4.56057L82.8511 4.07119C82.9142 4.0554 82.9932 4.00804 83.0563 4.00804C83.2457 4.00804 83.5615 4.71844 83.6404 5.25518C83.9403 4.89209 84.5244 4.00804 85.5979 4.00804C86.0557 4.00804 86.5136 4.16591 86.5136 4.37114C86.5136 4.43428 86.4978 4.49743 86.482 4.529L85.9926 5.85507C85.9768 5.90243 85.9295 5.99715 85.8663 5.99715C85.7716 5.99715 85.4874 5.8235 85.1243 5.8235C84.635 5.8235 84.1298 6.36024 83.9246 6.58125ZM92.9387 10.2911L93.3333 11.2383C93.3649 11.2856 93.3807 11.3488 93.3807 11.4119C93.3807 11.8224 91.802 12.3433 90.5549 12.3433C88.4711 12.3433 87.0187 11.1594 87.0187 8.25463C87.0187 5.74457 88.3606 4.00804 90.476 4.00804C93.1597 4.00804 93.6333 6.4076 93.6333 8.31777C93.6333 8.61772 93.5701 8.71244 93.2702 8.71244H89.0236C89.0236 9.59649 89.2762 10.6858 90.7601 10.6858C91.8968 10.6858 92.544 10.1648 92.765 10.1648C92.844 10.1648 92.9071 10.2279 92.9387 10.2911ZM89.0236 7.24429H91.5021C91.5021 6.59704 91.4547 5.47619 90.3655 5.47619C89.1341 5.47619 89.071 6.80227 89.0236 7.24429ZM100.832 10.2911L101.227 11.2383C101.258 11.2856 101.274 11.3488 101.274 11.4119C101.274 11.8224 99.6953 12.3433 98.4482 12.3433C96.3644 12.3433 94.912 11.1594 94.912 8.25463C94.912 5.74457 96.2539 4.00804 98.3693 4.00804C101.053 4.00804 101.527 6.4076 101.527 8.31777C101.527 8.61772 101.463 8.71244 101.163 8.71244H96.9169C96.9169 9.59649 97.1695 10.6858 98.6534 10.6858C99.79 10.6858 100.437 10.1648 100.658 10.1648C100.737 10.1648 100.8 10.2279 100.832 10.2911ZM96.9169 7.24429H99.3954C99.3954 6.59704 99.348 5.47619 98.2588 5.47619C97.0274 5.47619 96.9643 6.80227 96.9169 7.24429ZM105.268 6.58125V11.854C105.268 12.0276 105.236 12.075 105.047 12.075H103.484C103.295 12.075 103.263 12.0276 103.263 11.854V7.08642C103.263 5.3499 102.853 5.06574 102.853 4.70265C102.853 4.63951 102.916 4.59215 102.995 4.56057L104.194 4.07119C104.258 4.0554 104.337 4.00804 104.4 4.00804C104.589 4.00804 104.905 4.71844 104.984 5.25518C105.284 4.89209 105.868 4.00804 106.941 4.00804C107.399 4.00804 107.857 4.16591 107.857 4.37114C107.857 4.43428 107.841 4.49743 107.825 4.529L107.336 5.85507C107.32 5.90243 107.273 5.99715 107.21 5.99715C107.115 5.99715 106.831 5.8235 106.468 5.8235C105.978 5.8235 105.473 6.36024 105.268 6.58125Z" fill="#B265D0"/>
        <path d="M107.857 27.5264H34.7336V29.3545H107.857V27.5264Z" fill="#B265D0"/>
        <path d="M36.9272 18.0641H40.13V18.5175H37.4318V20.4845H39.8376V20.9379H37.4318V23.1755H36.9272V18.0641ZM44.5357 18.3676C44.9428 18.5992 45.2657 18.9124 45.5046 19.3072C45.7435 19.7021 45.8629 20.136 45.8629 20.6088C45.8629 21.0817 45.7435 21.518 45.5046 21.9177C45.2657 22.3175 44.9428 22.6343 44.5357 22.8683C44.1287 23.1023 43.6814 23.2193 43.1939 23.2193C42.7064 23.2193 42.2592 23.1023 41.8521 22.8683C41.445 22.6343 41.1221 22.3175 40.8832 21.9177C40.6443 21.518 40.5249 21.0817 40.5249 20.6088C40.5249 20.136 40.6443 19.7021 40.8832 19.3072C41.1221 18.9124 41.445 18.5992 41.8521 18.3676C42.2592 18.136 42.7064 18.0203 43.1939 18.0203C43.6814 18.0203 44.1287 18.136 44.5357 18.3676ZM42.119 18.7588C41.7875 18.9489 41.5243 19.2073 41.3293 19.5339C41.1343 19.8605 41.0368 20.2188 41.0368 20.6088C41.0368 20.9988 41.1343 21.3596 41.3293 21.6911C41.5243 22.0225 41.7875 22.2846 42.119 22.4771C42.4505 22.6697 42.8112 22.766 43.2012 22.766C43.5863 22.766 43.9434 22.6697 44.2725 22.4771C44.6015 22.2846 44.8636 22.0225 45.0586 21.6911C45.2536 21.3596 45.3511 20.9988 45.3511 20.6088C45.3511 20.2188 45.2536 19.8605 45.0586 19.5339C44.8636 19.2073 44.6015 18.9489 44.2725 18.7588C43.9434 18.5687 43.5863 18.4736 43.2012 18.4736C42.8112 18.4736 42.4505 18.5687 42.119 18.7588ZM50.3454 23.1755L49.2412 21.5082C49.0852 21.518 48.9658 21.5229 48.8829 21.5229H47.4789V23.1755H46.9744V18.0641H48.8829C49.5215 18.0641 50.0151 18.2116 50.3637 18.5065C50.7122 18.8015 50.8865 19.2195 50.8865 19.7606C50.8865 20.1847 50.7841 20.5381 50.5794 20.8209C50.3746 21.1036 50.0821 21.3011 49.7019 21.4132L50.9304 23.1755H50.3454ZM48.8829 21.0695C49.3704 21.0695 49.7458 20.9586 50.009 20.7368C50.2723 20.515 50.4039 20.1945 50.4039 19.7752C50.4039 19.3657 50.2723 19.0537 50.009 18.8392C49.7458 18.6248 49.3704 18.5175 48.8829 18.5175H47.4789V21.0695H48.8829ZM57.9721 18.0641L56.0051 21.3547V23.1755H55.5006V21.3547L53.5043 18.0641H54.0308L55.7565 20.8136L57.4457 18.0641H57.9721ZM62.0195 18.3676C62.4266 18.5992 62.7495 18.9124 62.9884 19.3072C63.2273 19.7021 63.3467 20.136 63.3467 20.6088C63.3467 21.0817 63.2273 21.518 62.9884 21.9177C62.7495 22.3175 62.4266 22.6343 62.0195 22.8683C61.6125 23.1023 61.1652 23.2193 60.6777 23.2193C60.1902 23.2193 59.7429 23.1023 59.3359 22.8683C58.9288 22.6343 58.6059 22.3175 58.367 21.9177C58.1281 21.518 58.0087 21.0817 58.0087 20.6088C58.0087 20.136 58.1281 19.7021 58.367 19.3072C58.6059 18.9124 58.9288 18.5992 59.3359 18.3676C59.7429 18.136 60.1902 18.0203 60.6777 18.0203C61.1652 18.0203 61.6125 18.136 62.0195 18.3676ZM59.6028 18.7588C59.2713 18.9489 59.0081 19.2073 58.8131 19.5339C58.6181 19.8605 58.5206 20.2188 58.5206 20.6088C58.5206 20.9988 58.6181 21.3596 58.8131 21.6911C59.0081 22.0225 59.2713 22.2846 59.6028 22.4771C59.9343 22.6697 60.295 22.766 60.685 22.766C61.0701 22.766 61.4272 22.6697 61.7563 22.4771C62.0853 22.2846 62.3474 22.0225 62.5424 21.6911C62.7373 21.3596 62.8348 20.9988 62.8348 20.6088C62.8348 20.2188 62.7373 19.8605 62.5424 19.5339C62.3474 19.2073 62.0853 18.9489 61.7563 18.7588C61.4272 18.5687 61.0701 18.4736 60.685 18.4736C60.295 18.4736 59.9343 18.5687 59.6028 18.7588ZM65.2735 22.3272C65.5587 22.6197 65.9548 22.766 66.4618 22.766C66.9688 22.766 67.3636 22.6197 67.6464 22.3272C67.9291 22.0347 68.0705 21.6252 68.0705 21.0988V18.0568H68.575V21.0988C68.575 21.7617 68.3886 22.2809 68.0156 22.6563C67.6427 23.0317 67.1247 23.2193 66.4618 23.2193C65.7988 23.2193 65.2796 23.0317 64.9042 22.6563C64.5289 22.2809 64.3412 21.7617 64.3412 21.0988V18.0568H64.8457V21.0988C64.8457 21.6252 64.9883 22.0347 65.2735 22.3272ZM73.4377 23.1755L72.3336 21.5082C72.1776 21.518 72.0581 21.5229 71.9753 21.5229H70.5713V23.1755H70.0667V18.0641H71.9753C72.6139 18.0641 73.1075 18.2116 73.456 18.5065C73.8046 18.8015 73.9788 19.2195 73.9788 19.7606C73.9788 20.1847 73.8765 20.5381 73.6717 20.8209C73.467 21.1036 73.1745 21.3011 72.7942 21.4132L74.0227 23.1755H73.4377ZM71.9753 21.0695C72.4627 21.0695 72.8381 20.9586 73.1014 20.7368C73.3646 20.515 73.4962 20.1945 73.4962 19.7752C73.4962 19.3657 73.3646 19.0537 73.1014 18.8392C72.8381 18.6248 72.4627 18.5175 71.9753 18.5175H70.5713V21.0695H71.9753ZM77.3645 18.0641H80.5673V18.5175H77.869V20.4845H80.2748V20.9379H77.869V23.1755H77.3645V18.0641ZM82.2747 22.3272C82.5599 22.6197 82.9559 22.766 83.4629 22.766C83.9699 22.766 84.3648 22.6197 84.6475 22.3272C84.9303 22.0347 85.0717 21.6252 85.0717 21.0988V18.0568H85.5762V21.0988C85.5762 21.7617 85.3897 22.2809 85.0168 22.6563C84.6439 23.0317 84.1259 23.2193 83.4629 23.2193C82.8 23.2193 82.2808 23.0317 81.9054 22.6563C81.53 22.2809 81.3424 21.7617 81.3424 21.0988V18.0568H81.8469V21.0988C81.8469 21.6252 81.9895 22.0347 82.2747 22.3272ZM86.344 18.0568H90.2268V18.5175H88.5377V23.1755H88.0331V18.5175H86.344V18.0568ZM91.927 22.3272C92.2121 22.6197 92.6082 22.766 93.1152 22.766C93.6222 22.766 94.0171 22.6197 94.2998 22.3272C94.5826 22.0347 94.7239 21.6252 94.7239 21.0988V18.0568H95.2285V21.0988C95.2285 21.7617 95.042 22.2809 94.6691 22.6563C94.2962 23.0317 93.7782 23.2193 93.1152 23.2193C92.4522 23.2193 91.9331 23.0317 91.5577 22.6563C91.1823 22.2809 90.9946 21.7617 90.9946 21.0988V18.0568H91.4992V21.0988C91.4992 21.6252 91.6418 22.0347 91.927 22.3272ZM100.091 23.1755L98.987 21.5082C98.831 21.518 98.7116 21.5229 98.6287 21.5229H97.2247V23.1755H96.7202V18.0641H98.6287C99.2673 18.0641 99.7609 18.2116 100.109 18.5065C100.458 18.8015 100.632 19.2195 100.632 19.7606C100.632 20.1847 100.53 20.5381 100.325 20.8209C100.12 21.1036 99.8279 21.3011 99.4477 21.4132L100.676 23.1755H100.091ZM98.6287 21.0695C99.1162 21.0695 99.4916 20.9586 99.7548 20.7368C100.018 20.515 100.15 20.1945 100.15 19.7752C100.15 19.3657 100.018 19.0537 99.7548 18.8392C99.4916 18.6248 99.1162 18.5175 98.6287 18.5175H97.2247V21.0695H98.6287ZM102.007 18.0641H105.429V18.5175H102.512V20.3456H105.122V20.799H102.512V22.7221H105.524V23.1755H102.007V18.0641Z" fill="#B265D0"/>
    </g>
    <defs>
        <clipPath id="clip0_15_3201">
            <rect width="108" height="28.7089" fill="white" transform="translate(0 0.645508)"/>
        </clipPath>
    </defs>
</svg>
