<svg width="32" height="32" viewBox="0 0 32 32" fill="none" xmlns="http://www.w3.org/2000/svg">
    <path d="M16.0007 31.9994C19.1654 31.9994 22.259 31.0609 24.8903 29.3027C27.5216 27.5445 29.5725 25.0454 30.7835 22.1216C31.9945 19.1978 32.3113 15.9805 31.6938 12.8767C31.0763 9.77279 29.5522 6.92175 27.3144 4.68407C25.0765 2.44639 22.2253 0.92258 19.1214 0.30534C16.0175 -0.311899 12.8003 0.00515738 9.87655 1.21641C6.95284 2.42767 4.45397 4.47872 2.69595 7.11019C0.937936 9.74166 -0.000262705 12.8354 5.51782e-08 16C4.79345e-08 18.1012 0.413879 20.1818 1.218 22.123C2.02213 24.0642 3.20075 25.8281 4.68657 27.3138C6.17238 28.7994 7.93629 29.9779 9.87758 30.7819C11.8189 31.5859 13.8995 31.9996 16.0007 31.9994Z" fill="#D8D8D8"/>
    <path d="M2.05797 17.7429C2.36659 20.2151 3.32972 22.5601 4.84786 24.5356C4.89834 24.6007 4.94484 24.6685 4.99532 24.7322C5.18663 24.974 5.39388 25.2052 5.59847 25.435C5.68482 25.5293 5.76852 25.6263 5.86417 25.718C6.05681 25.9199 6.26273 26.1165 6.46333 26.3025C6.58024 26.4102 6.69582 26.5178 6.81539 26.6214C7.00935 26.7914 7.21395 26.9522 7.41455 27.1116C7.55803 27.2219 7.70284 27.3308 7.85031 27.4371C8.04693 27.5779 8.24886 27.7121 8.4508 27.8423C8.61952 27.9512 8.7909 28.0535 8.9636 28.1545C9.16022 28.2687 9.36216 28.3803 9.56144 28.4866C9.76071 28.5929 9.95202 28.6779 10.15 28.7696C10.3479 28.8613 10.5485 28.9503 10.7425 29.0353C10.9365 29.1203 11.1822 29.2 11.4067 29.2784C11.5994 29.3448 11.7894 29.4113 11.9847 29.4724C12.2304 29.5468 12.4828 29.6052 12.7339 29.665C12.9159 29.7089 13.0966 29.7593 13.2826 29.7979C13.5709 29.855 13.8645 29.8935 14.1594 29.9307C14.3149 29.9506 14.469 29.9812 14.6271 29.9971C15.0788 30.041 15.5371 30.0662 16.0008 30.0662H16.0127C19.7408 30.0631 23.315 28.5795 25.9495 25.9417C28.584 23.304 30.0632 19.728 30.0618 15.9999C30.0618 15.5588 30.0365 15.1244 29.9967 14.694C29.9967 14.6262 29.9861 14.5611 29.9781 14.4907C29.9356 14.0921 29.8731 13.6936 29.7961 13.295C29.7788 13.2073 29.7615 13.121 29.7429 13.0293C29.6606 12.6494 29.5649 12.2721 29.452 11.9041C29.4268 11.8177 29.3962 11.7327 29.3683 11.6463C29.2607 11.3169 29.1425 10.9914 29.0123 10.6725C28.9724 10.5755 28.9312 10.4799 28.89 10.3842C28.7572 10.088 28.6243 9.79837 28.4702 9.51406C28.4104 9.39716 28.3507 9.27892 28.2856 9.16466C28.1275 8.87903 27.9574 8.60137 27.7794 8.33036C27.6904 8.1975 27.6 8.06465 27.5137 7.9318C27.3436 7.69134 27.1683 7.45353 26.9823 7.22503C26.864 7.07623 26.7392 6.93408 26.6156 6.7906C26.4921 6.64712 26.3499 6.49833 26.2171 6.35751C26.0231 6.15292 25.8185 5.95895 25.6206 5.76233C25.4877 5.63745 25.3549 5.51523 25.222 5.39566C25.0891 5.27609 24.9231 5.12996 24.7676 5.01172C24.8427 5.58931 24.8822 6.17097 24.8859 6.75341C24.8863 9.19967 24.245 11.6032 23.026 13.7241C23.026 13.7706 23.0353 13.8158 23.0353 13.857C23.0353 14.8002 22.5039 15.5641 21.8396 15.5641C21.8157 15.5641 21.7944 15.5562 21.7718 15.5548C20.6744 16.9156 19.3338 18.0607 17.8182 18.9319H22.6646C22.7755 18.9381 22.8798 18.9864 22.9562 19.0671C23.0325 19.1478 23.075 19.2546 23.075 19.3657C23.075 19.4767 23.0325 19.5836 22.9562 19.6643C22.8798 19.7449 22.7755 19.7933 22.6646 19.7994H16.034C13.731 20.7265 11.2228 21.0246 8.76669 20.6629C6.31054 20.3013 3.99473 19.2931 2.05664 17.7416L2.05797 17.7429Z" fill="#E5E7EB"/>
    <path d="M16.0338 19.8051H9.85881C9.79983 19.8083 9.7408 19.7995 9.68533 19.7792C9.62987 19.7589 9.57913 19.7275 9.53622 19.6869C9.49331 19.6463 9.45913 19.5973 9.43577 19.5431C9.41241 19.4888 9.40037 19.4304 9.40037 19.3713C9.40037 19.3122 9.41241 19.2538 9.43577 19.1995C9.45913 19.1453 9.49331 19.0963 9.53622 19.0557C9.57913 19.0151 9.62987 18.9837 9.68533 18.9634C9.7408 18.9431 9.79983 18.9343 9.85881 18.9375H17.8193C19.3349 18.0663 20.6755 16.9212 21.773 15.5604C21.1472 15.5086 20.6504 14.7726 20.6504 13.8626C20.6504 12.9207 21.1818 12.1568 21.846 12.1568C22.4704 12.1568 22.9766 12.8476 23.0271 13.7244C24.2461 11.6035 24.8874 9.19996 24.887 6.7537C24.8833 6.17126 24.8439 5.5896 24.7688 5.01201C22.7008 3.35944 20.2081 2.32462 17.5777 2.02675C14.9474 1.72888 12.2864 2.18007 9.9012 3.32836C7.51605 4.47665 5.50377 6.27532 4.09614 8.51721C2.6885 10.7591 1.94277 13.353 1.94483 16.0002C1.94852 16.5826 1.98801 17.1643 2.06307 17.7419C4.00065 19.2943 6.31622 20.3035 8.77237 20.666C11.2285 21.0286 13.7369 20.7314 16.0404 19.8051H16.0338Z" fill="#F9FAFB"/>
    <path d="M11.0492 15.5692C11.7134 15.5692 12.2448 14.8053 12.2448 13.8621C12.2448 12.9188 11.7134 12.1562 11.0492 12.1562C10.3849 12.1562 9.85352 12.9201 9.85352 13.8621C9.85352 14.804 10.3916 15.5692 11.0492 15.5692Z" fill="black"/>
    <path d="M21.8407 12.1562C21.1764 12.1562 20.645 12.9201 20.645 13.8621C20.645 14.7721 21.1419 15.5081 21.7676 15.5599C21.7902 15.5599 21.8115 15.5692 21.8354 15.5692C22.493 15.5692 23.031 14.8053 23.031 13.8621C23.031 13.8156 23.0244 13.7704 23.0217 13.7292C22.9713 12.8471 22.4651 12.1562 21.8407 12.1562Z" fill="black"/>
    <path d="M9.42432 19.3719C9.42467 19.4869 9.47059 19.5971 9.55203 19.6783C9.63346 19.7594 9.74375 19.805 9.85874 19.805H22.6657C22.7765 19.7989 22.8809 19.7505 22.9572 19.6698C23.0335 19.5892 23.0761 19.4823 23.0761 19.3713C23.0761 19.2602 23.0335 19.1534 22.9572 19.0727C22.8809 18.992 22.7765 18.9436 22.6657 18.9375H9.85874C9.74352 18.9375 9.63303 18.9833 9.55156 19.0647C9.47009 19.1462 9.42432 19.2567 9.42432 19.3719Z" fill="black"/>
</svg>
