<svg width="60" height="60" viewBox="0 0 60 60" fill="none" xmlns="http://www.w3.org/2000/svg">
  <g clip-path="url(#clip0_2419_27602)">
    <path d="M3.87744 15.9751L2.43481 17.1569L8.81828 24.9493L10.2609 23.7675L3.87744 15.9751Z" fill="#2A2A2A"/>
    <path d="M39.1969 20.552L33.1121 26.3546L34.1434 27.4361L40.2283 21.6335L39.1969 20.552Z" fill="#2A2A2A"/>
    <path d="M50.0871 22.9564L48.7188 23.4255L53.7699 38.1578L55.1382 37.6887L50.0871 22.9564Z" fill="#2A2A2A"/>
    <path d="M54.818 43.1051C57.68 42.9042 59.8372 40.4212 59.6363 37.5592C59.4353 34.6972 56.9523 32.54 54.0903 32.7409C51.2283 32.9418 49.0711 35.4248 49.272 38.2868C49.473 41.1489 51.956 43.3061 54.818 43.1051Z" fill="#2A2A2A"/>
    <path d="M54.0691 15.4401C54.0691 19.8419 50.5007 23.4103 46.0989 23.4103C41.697 23.4103 38.1287 19.8419 38.1287 15.4401C38.1287 11.0382 41.697 7.46985 46.0989 7.46985C50.5007 7.46985 54.0691 11.0382 54.0691 15.4401Z" stroke="#2A2A2A" stroke-width="2"/>
    <path d="M20.6324 49.9905C16.7465 49.9861 13.021 48.4405 10.2732 45.6928C7.52543 42.945 5.97981 39.2195 5.97543 35.3336C5.9799 31.4477 7.52557 27.7223 10.2733 24.9746C13.0211 22.2269 16.7465 20.6813 20.6324 20.677C24.2838 20.6814 27.8024 22.047 30.5008 24.5071C33.1992 26.9671 34.8835 30.3448 35.2246 33.9802L37.1605 33.8003C36.8113 29.6683 34.9146 25.8205 31.8501 23.0268C28.7855 20.2332 24.779 18.6998 20.6324 18.7335C16.2313 18.7384 12.0119 20.4888 8.89975 23.6008C5.78764 26.7127 4.03703 30.9321 4.03198 35.3332C4.03693 39.7344 5.78749 43.9539 8.8996 47.066C12.0117 50.1781 16.2312 51.9287 20.6324 51.9336C24.3578 51.9285 27.9735 50.6723 30.8996 48.3666C33.8258 46.0608 35.8927 42.8392 36.769 39.2183L34.8662 38.8225C33.1595 45.026 27.3702 49.9905 20.6324 49.9905Z" fill="#B265D0"/>
    <path d="M36.1916 34.8568C36.7284 34.8568 37.1635 34.4217 37.1635 33.8849C37.1635 33.3482 36.7284 32.913 36.1916 32.913C35.6549 32.913 35.2197 33.3482 35.2197 33.8849C35.2197 34.4217 35.6549 34.8568 36.1916 34.8568Z" fill="#B265D0"/>
    <path d="M35.8237 39.9646C36.3605 39.9646 36.7956 39.5294 36.7956 38.9927C36.7956 38.4559 36.3605 38.0208 35.8237 38.0208C35.2869 38.0208 34.8518 38.4559 34.8518 38.9927C34.8518 39.5294 35.2869 39.9646 35.8237 39.9646Z" fill="#B265D0"/>
    <path d="M36.2192 37.4584C36.756 37.4584 37.1911 37.0233 37.1911 36.4865C37.1911 35.9497 36.756 35.5146 36.2192 35.5146C35.6824 35.5146 35.2473 35.9497 35.2473 36.4865C35.2473 37.0233 35.6824 37.4584 36.2192 37.4584Z" fill="#B265D0"/>
    <path d="M20.6324 35.4948C21.7519 35.4948 22.8257 35.0501 23.6174 34.2585C24.4092 33.4669 24.854 32.3932 24.8542 31.2736C24.8539 30.1541 24.4089 29.0807 23.6172 28.2892C22.8255 27.4978 21.7518 27.0532 20.6324 27.0532C20.078 27.0532 19.529 27.1625 19.0169 27.3746C18.5047 27.5868 18.0394 27.8978 17.6474 28.2899C17.2554 28.6819 16.9445 29.1473 16.7324 29.6595C16.5203 30.1717 16.4111 30.7207 16.4112 31.2751C16.4112 32.3946 16.8559 33.4682 17.6475 34.2599C18.4392 35.0515 19.5128 35.4962 20.6324 35.4962V35.4948ZM24.5326 38.1359H16.7314C15.8523 38.1701 15.0225 38.5515 14.4241 39.1965C13.8257 39.8415 13.5074 40.6974 13.539 41.5766V42.5705C13.5292 42.838 13.626 43.0985 13.8082 43.2947C13.9904 43.4908 14.243 43.6066 14.5106 43.6165H26.757C27.0244 43.6062 27.2768 43.4903 27.4589 43.2942C27.641 43.0982 27.738 42.8379 27.7286 42.5705V41.5777C27.7603 40.6982 27.442 39.842 26.8434 39.1968C26.2448 38.5516 25.4149 38.1701 24.5354 38.1359H24.5326Z" fill="#2A2A2A"/>
    <path d="M54.818 43.1051C57.68 42.9042 59.8372 40.4212 59.6363 37.5592C59.4353 34.6972 56.9523 32.54 54.0903 32.7409C51.2283 32.9418 49.0711 35.4248 49.272 38.2868C49.473 41.1489 51.956 43.3061 54.818 43.1051Z" fill="#2A2A2A"/>
    <path d="M3.5195 20.2908C5.46327 20.2908 7.039 18.7151 7.039 16.7713C7.039 14.8276 5.46327 13.2518 3.5195 13.2518C1.57573 13.2518 0 14.8276 0 16.7713C0 18.7151 1.57573 20.2908 3.5195 20.2908Z" fill="#2A2A2A"/>
  </g>
  <defs>
    <clipPath id="clip0_2419_27602">
      <rect width="60" height="60" fill="white"/>
    </clipPath>
  </defs>
</svg>
