<svg width="60" height="60" viewBox="0 0 60 60" fill="none" xmlns="http://www.w3.org/2000/svg">
  <path d="M45.4404 3.02313V14.9046L58.478 15.868L47.6626 4.10528" fill="white"/>
  <path d="M29.4996 43.2437L29.5031 43.2437C29.5031 43.2603 29.5019 43.2593 29.4996 43.2437L4.28537 43.0285C3.45852 43.0218 2.66755 42.6899 2.08346 42.1046C1.49937 41.5193 1.1691 40.7277 1.16406 39.9008V4.12784C1.16576 3.29828 1.49628 2.50322 2.08317 1.91694C2.67006 1.33065 3.46545 1.00091 4.29501 1.00006H45.3472C45.624 1.00006 45.8895 1.11005 46.0852 1.30577C46.2809 1.50149 46.3909 1.76695 46.3909 2.04375C46.3909 2.32054 46.2809 2.58595 46.0852 2.78168C45.8895 2.9774 45.624 3.08738 45.3472 3.08738H4.29501C4.01933 3.08823 3.75518 3.1981 3.56024 3.39304C3.3653 3.58798 3.25542 3.85215 3.25457 4.12784V39.9072C3.26118 40.1828 3.37423 40.445 3.57 40.639C3.76578 40.833 4.02907 40.9436 4.30464 40.9476L29.3168 41.1628C29.3168 40.9738 29.4743 43.0652 29.4996 43.2437Z" fill="#2A2A2A"/>
  <path d="M51.5921 43.2539C51.5886 43.2689 51.5866 43.2696 51.5866 43.2533C51.5885 43.2535 51.5903 43.2537 51.5921 43.2539C51.6336 43.0794 51.8949 40.9733 51.8949 41.1596L56.8273 40.9509C57.1046 40.9414 57.3686 40.83 57.5689 40.6381C57.7691 40.4461 57.8916 40.187 57.9127 39.9104V16.1185C57.9127 15.8417 58.0227 15.5763 58.2184 15.3805C58.4141 15.1848 58.6796 15.0749 58.9564 15.0749C59.2332 15.0749 59.4986 15.1848 59.6944 15.3805C59.8901 15.5763 60 15.8417 60 16.1185V39.9104C59.9794 40.7263 59.6489 41.5038 59.0757 42.0847C58.5025 42.6657 57.7296 43.0066 56.9141 43.0382L51.8114 43.2533C51.7385 43.2609 51.6651 43.2611 51.5921 43.2539Z" fill="#2A2A2A"/>
  <path d="M26.8538 23.1736H25.0555C24.7761 23.1736 24.5082 23.2846 24.3107 23.4821C24.1132 23.6796 24.0022 23.9475 24.0022 24.2268C24.0022 24.5062 24.1132 24.7741 24.3107 24.9716C24.5082 25.1691 24.7761 25.2801 25.0555 25.2801H26.8538C27.1331 25.2801 27.401 25.1691 27.5985 24.9716C27.7961 24.7741 27.907 24.5062 27.907 24.2268C27.907 23.9475 27.7961 23.6796 27.5985 23.4821C27.401 23.2846 27.1331 23.1736 26.8538 23.1736Z" fill="#2A2A2A"/>
  <path d="M21.5738 25.1313H9.05007C8.77328 25.1313 8.50782 25.0213 8.3121 24.8256C8.11638 24.6299 8.00642 24.3644 8.00642 24.0876C8.00642 23.8109 8.11638 23.5454 8.3121 23.3497C8.50782 23.1539 8.77328 23.044 9.05007 23.044H21.5738C21.8506 23.044 22.1161 23.1539 22.3118 23.3497C22.5075 23.5454 22.6175 23.8109 22.6175 24.0876C22.6175 24.3644 22.5075 24.6299 22.3118 24.8256C22.1161 25.0213 21.8506 25.1313 21.5738 25.1313ZM37.5272 18.5964H9.04365C8.76686 18.5964 8.5014 18.4865 8.30568 18.2908C8.10996 18.0951 8 17.8296 8 17.5528C8 17.276 8.10996 17.0105 8.30568 16.8148C8.5014 16.6191 8.76686 16.5092 9.04365 16.5092H37.5272C37.804 16.5092 38.0694 16.6191 38.2651 16.8148C38.4609 17.0105 38.5708 17.276 38.5708 17.5528C38.5708 17.8296 38.4609 18.0951 38.2651 18.2908C38.0694 18.4865 37.804 18.5964 37.5272 18.5964ZM37.5272 12.0873H9.04365C8.76686 12.0873 8.5014 11.9773 8.30568 11.7816C8.10996 11.5859 8 11.3204 8 11.0436C8 10.7668 8.10996 10.5014 8.30568 10.3057C8.5014 10.11 8.76686 10 9.04365 10H37.5272C37.804 10 38.0694 10.11 38.2651 10.3057C38.4609 10.5014 38.5708 10.7668 38.5708 11.0436C38.5708 11.3204 38.4609 11.5859 38.2651 11.7816C38.0694 11.9773 37.804 12.0873 37.5272 12.0873Z" fill="#2A2A2A"/>
  <mask id="path-5-inside-1_2419_5216" fill="white">
    <path fill-rule="evenodd" clip-rule="evenodd" d="M52 40.5C52 46.8513 46.8513 52 40.5 52C34.1487 52 29 46.8513 29 40.5C29 34.1487 34.1487 29 40.5 29C46.8513 29 52 34.1487 52 40.5ZM44 40.5C44 42.433 42.433 44 40.5 44C38.567 44 37 42.433 37 40.5C37 38.567 38.567 37 40.5 37C42.433 37 44 38.567 44 40.5Z"/>
  </mask>
  <path d="M40.5 54C47.9558 54 54 47.9558 54 40.5H50C50 45.7467 45.7467 50 40.5 50V54ZM27 40.5C27 47.9558 33.0442 54 40.5 54V50C35.2533 50 31 45.7467 31 40.5H27ZM40.5 27C33.0442 27 27 33.0442 27 40.5H31C31 35.2533 35.2533 31 40.5 31V27ZM54 40.5C54 33.0442 47.9558 27 40.5 27V31C45.7467 31 50 35.2533 50 40.5H54ZM40.5 46C43.5376 46 46 43.5376 46 40.5H42C42 41.3284 41.3284 42 40.5 42V46ZM35 40.5C35 43.5376 37.4624 46 40.5 46V42C39.6716 42 39 41.3284 39 40.5H35ZM40.5 35C37.4624 35 35 37.4624 35 40.5H39C39 39.6716 39.6716 39 40.5 39V35ZM46 40.5C46 37.4624 43.5376 35 40.5 35V39C41.3284 39 42 39.6716 42 40.5H46Z" fill="#B265D0" mask="url(#path-5-inside-1_2419_5216)"/>
  <path d="M31.69 46.4388L27.4603 53.2926C27.1577 53.783 27.331 54.427 27.8389 54.6992L34.5065 58.2727C34.9759 58.5243 35.5602 58.3638 35.8353 57.9077L39.7419 51.4282C39.9022 51.1625 40.1898 51 40.5002 51V51C40.8105 51 41.0981 51.1624 41.2584 51.4281L44.9907 57.6154C45.2513 58.0474 45.7929 58.2176 46.2538 58.0124L53.2846 54.881C53.8036 54.6498 54.026 54.0331 53.7739 53.5239L49.8784 45.6553" stroke="#B265D0" stroke-width="2"/>
  <path d="M58.9371 16.5841H47.5116C46.6858 16.5833 45.894 16.2549 45.31 15.6709C44.726 15.0869 44.3976 14.2951 44.3967 13.4693V2.04697C44.3965 1.84038 44.4576 1.63833 44.5722 1.46647C44.6869 1.29462 44.85 1.16068 45.0408 1.08158C45.2317 1.00249 45.4417 0.981826 45.6443 1.0222C45.8469 1.06257 46.033 1.16215 46.179 1.30835L59.6661 14.7955C59.8123 14.9415 59.9119 15.1275 59.9523 15.3301C59.9926 15.5328 59.972 15.7428 59.8929 15.9336C59.8138 16.1245 59.6798 16.2875 59.5079 16.4022C59.3361 16.5169 59.1341 16.578 58.9275 16.5777L58.9371 16.5841ZM46.4872 4.56774V13.4693C46.4872 13.7412 46.595 14.0021 46.7871 14.1947C46.9791 14.3874 47.2396 14.496 47.5116 14.4969H56.4163L46.4872 4.56774Z" fill="#2A2A2A"/>
</svg>
