<svg width="14" height="8" viewBox="0 0 14 8" fill="none" xmlns="http://www.w3.org/2000/svg">
    <path d="M13.875 7.13096C13.8374 7.06796 13.6046 6.56217 12.4845 5.52259C11.3119 4.43401 11.4694 4.61077 12.8818 2.72851C13.742 1.58217 14.0859 0.882118 13.9782 0.582846C13.8759 0.297575 13.2432 0.37283 13.2432 0.37283L11.1395 0.385081C11.1395 0.385081 10.9838 0.364079 10.8674 0.43321C10.7545 0.501465 10.6819 0.658976 10.6819 0.658976C10.6819 0.658976 10.3485 1.54629 9.90394 2.3006C8.96674 3.89234 8.59134 3.97635 8.4382 3.87747C8.08205 3.64733 8.17131 2.95165 8.17131 2.45811C8.17131 0.915371 8.40495 0.272198 7.7154 0.105935C7.48613 0.050806 7.31812 0.0140532 6.7327 0.00792778C5.98189 5.21862e-05 5.34572 0.010553 4.98607 0.186441C4.7463 0.3037 4.56166 0.565345 4.67455 0.580221C4.81368 0.598597 5.12871 0.665102 5.29584 0.892619C5.51198 1.18577 5.50411 1.84557 5.50411 1.84557C5.50411 1.84557 5.62837 3.66133 5.21446 3.88709C4.93007 4.04198 4.54066 3.72608 3.70498 2.28135C3.27707 1.54192 2.95329 0.723732 2.95329 0.723732C2.95329 0.723732 2.89117 0.57147 2.78003 0.490089C2.64527 0.391207 2.45626 0.359704 2.45626 0.359704L0.45586 0.371955C0.45586 0.371955 0.155713 0.380706 0.0454546 0.511091C-0.0525527 0.627474 0.037579 0.867242 0.037579 0.867242C0.037579 0.867242 1.60395 4.53114 3.37683 6.3784C5.00357 8.07166 6.84996 7.96052 6.84996 7.96052H7.68652C7.68652 7.96052 7.93941 7.93252 8.06805 7.79339C8.18706 7.66563 8.18268 7.42586 8.18268 7.42586C8.18268 7.42586 8.16606 6.30315 8.68759 6.13776C9.20126 5.975 9.86106 7.22284 10.5602 7.70325C11.0888 8.06641 11.4904 7.98677 11.4904 7.98677L13.3604 7.96052C13.3604 7.96052 14.3388 7.90014 13.875 7.13096Z" fill="white"/>
</svg>
