<svg width="24" height="14" viewBox="0 0 24 14" fill="none" xmlns="http://www.w3.org/2000/svg">
    <path d="M23.7861 12.3675C23.7216 12.2595 23.3226 11.3924 21.4024 9.61028C19.3923 7.74414 19.6623 8.04716 22.0835 4.82042C23.5581 2.85527 24.1476 1.65518 23.9631 1.14214C23.7876 0.653107 22.703 0.782117 22.703 0.782117L19.0968 0.803118C19.0968 0.803118 18.8297 0.767115 18.6302 0.885624C18.4367 1.00263 18.3122 1.27265 18.3122 1.27265C18.3122 1.27265 17.7407 2.79377 16.9786 4.08686C15.372 6.81557 14.7284 6.95958 14.4659 6.79007C13.8554 6.39554 14.0084 5.20295 14.0084 4.35688C14.0084 1.71219 14.4089 0.609604 13.2268 0.324582C12.8338 0.230075 12.5458 0.16707 11.5422 0.15657C10.2551 0.143069 9.16451 0.16107 8.54797 0.462593C8.13694 0.663608 7.82041 1.11214 8.01393 1.13764C8.25245 1.16915 8.79249 1.28315 9.07901 1.67318C9.44953 2.17572 9.43603 3.30681 9.43603 3.30681C9.43603 3.30681 9.64905 6.41954 8.9395 6.80657C8.45196 7.07209 7.78441 6.53055 6.3518 4.05386C5.61825 2.78627 5.06321 1.38366 5.06321 1.38366C5.06321 1.38366 4.9567 1.12264 4.76619 0.983132C4.53517 0.813619 4.21115 0.759615 4.21115 0.759615L0.781893 0.780617C0.781893 0.780617 0.267355 0.795618 0.0783407 1.01913C-0.0896718 1.21865 0.0648397 1.62968 0.0648397 1.62968C0.0648397 1.62968 2.75004 7.91065 5.78926 11.0774C8.57797 13.9801 11.7432 13.7896 11.7432 13.7896H13.1773C13.1773 13.7896 13.6108 13.7416 13.8314 13.5031C14.0354 13.2841 14.0279 12.873 14.0279 12.873C14.0279 12.873 13.9994 10.9484 14.8934 10.6649C15.774 10.3858 16.9051 12.525 18.1037 13.3486C19.0097 13.9711 19.6983 13.8346 19.6983 13.8346L22.904 13.7896C22.904 13.7896 24.5812 13.6861 23.7861 12.3675Z" fill="#073044"/>
</svg>
