<svg width="14" height="14" viewBox="0 0 14 14" fill="none" xmlns="http://www.w3.org/2000/svg">
    <path d="M13.2852 3.71944C13.134 3.15716 12.6906 2.71392 12.1284 2.56252C11.1014 2.28149 6.993 2.28149 6.993 2.28149C6.993 2.28149 2.88479 2.28149 1.85772 2.55186C1.30633 2.70311 0.852196 3.15724 0.700951 3.71944C0.430664 4.74644 0.430664 6.87629 0.430664 6.87629C0.430664 6.87629 0.430664 9.01687 0.700951 10.0331C0.852356 10.5953 1.29552 11.0386 1.8578 11.19C2.89561 11.4711 6.99316 11.4711 6.99316 11.4711C6.99316 11.4711 11.1014 11.4711 12.1284 11.2007C12.6907 11.0494 13.134 10.6061 13.2854 10.0439C13.5556 9.01687 13.5556 6.8871 13.5556 6.8871C13.5556 6.8871 13.5664 4.74644 13.2852 3.71944ZM5.68499 8.84391V4.90866L9.1013 6.87629L5.68499 8.84391Z" fill="white"/>
</svg>
