<svg width="745" height="516" viewBox="0 0 745 516" fill="none" xmlns="http://www.w3.org/2000/svg">
    <path opacity="0.34" d="M124.881 281.897L157.923 275.567L202.864 250.498C207.578 247.869 207.281 241.014 202.361 238.797L179.295 228.445L124.881 281.897Z" fill="#ABABAB"/>
    <path d="M169.616 125.905L169.433 125.79L168.998 228.148C168.998 228.582 168.77 228.993 168.381 229.199L101.976 267.134C101.152 267.591 100.58 161.326 100.58 161.326C100.58 160.892 100.809 160.481 101.198 160.275L167.328 122.523C167.671 122.34 168.152 122.157 168.518 122.317L170.715 123.46L169.616 125.905Z" fill="#592B64"/>
    <path d="M103.143 161.395L169.548 123.46C170.371 123.003 171.378 123.574 171.378 124.534L170.966 229.29C170.966 229.725 170.737 230.136 170.348 230.342L103.944 268.277C103.624 267.729 103.051 267.02 102.113 267.203L102.548 162.469C102.525 162.012 102.777 161.624 103.143 161.395Z" fill="#9746B3"/>
    <path d="M188.471 136.714C176.435 134.452 173.644 133.195 170.028 127.687L107.285 163.566C107.811 167.702 112.204 173.21 127.192 172.593L188.471 136.714Z" fill="#FFFAFA"/>
    <path d="M191.789 137.148L188.677 135.434C188.311 135.114 187.67 135.183 187.19 135.457L121.54 172.936C121.151 173.141 120.923 173.553 120.923 173.987L120.488 278.721C120.488 279.658 121.495 280.252 122.318 279.795L188.723 241.859C189.112 241.654 189.341 241.242 189.341 240.808L189.753 140.325L191.515 140.142L191.789 137.148Z" fill="#9746B3"/>
    <path d="M123.897 175.564C111.564 176.432 104.699 169.325 100.649 160.915L101.679 268.414C101.885 280.983 121.998 283.863 123.897 282.011V175.564Z" fill="#9746B3"/>
    <path d="M124.332 175.152L190.736 137.217C191.56 136.76 192.567 137.331 192.567 138.291L192.132 243.025C192.132 243.459 191.903 243.87 191.514 244.076L124.881 281.874C124.057 282.331 123.279 281.874 123.279 280.937L123.714 176.204C123.714 175.769 123.943 175.381 124.332 175.152Z" fill="#B265D0"/>
    <path opacity="0.34" d="M178.289 306.784L210.347 300.293L250.963 275.384C255.219 272.779 253.663 266.06 248.309 263.958L223.229 254.063L178.289 306.784Z" fill="#ABABAB"/>
    <path d="M194.81 153.899L194.604 153.785L212.841 253.834C212.909 254.268 212.749 254.657 212.406 254.862L152.546 292.546C151.814 293.004 131.837 189.138 131.837 189.138C131.769 188.704 131.929 188.315 132.272 188.11L191.858 150.586C192.155 150.403 192.613 150.22 193.002 150.38L195.427 151.477L194.81 153.899Z" fill="#7C64BA"/>
    <path d="M134.469 189.23L194.329 151.545C195.061 151.088 196.205 151.66 196.366 152.574L215.037 254.954C215.106 255.388 214.946 255.777 214.603 255.982L154.743 293.666C154.308 293.118 153.621 292.455 152.706 292.638L134.034 190.258C133.966 189.824 134.126 189.435 134.469 189.23Z" fill="#504078"/>
    <path d="M215.747 164.297C203.253 162.195 200.187 160.984 195.565 155.659L139.022 191.309C140.304 195.354 145.727 200.702 160.692 199.947L215.747 164.297Z" fill="#FFFAFA"/>
    <path d="M219.156 164.686L215.724 163.04C215.289 162.743 214.671 162.789 214.237 163.063L155.063 200.336C154.72 200.542 154.56 200.953 154.628 201.364L173.3 303.744C173.46 304.658 174.604 305.23 175.337 304.773L235.197 267.089C235.54 266.883 235.7 266.471 235.632 266.06L217.715 167.817L219.454 167.611L219.156 164.686Z" fill="#504078"/>
    <path d="M157.923 202.873C145.681 203.832 137.489 196.954 131.883 188.772L152.523 293.849C155.017 306.144 175.771 308.772 177.35 306.944L157.923 202.873Z" fill="#8B73CB"/>
    <path d="M158.267 202.461L218.127 164.777C218.859 164.32 220.003 164.891 220.163 165.806L238.835 268.185C238.904 268.62 238.744 269.008 238.4 269.214L178.289 306.784C177.556 307.241 176.664 306.807 176.504 305.892L157.832 203.512C157.763 203.078 157.923 202.667 158.267 202.461Z" fill="#7C64BA"/>
    <path d="M160.532 206.186L178.517 302.556" stroke="#433878" stroke-width="2.576" stroke-miterlimit="10" stroke-linecap="round" stroke-linejoin="round"/>
    <path d="M210.141 208.951L186.481 222C182.087 224.423 177.19 222.617 175.611 217.978L175.039 216.31C173.461 211.671 175.772 205.889 180.165 203.444L203.825 190.395C208.219 187.973 213.116 189.778 214.695 194.417L215.267 196.085C216.845 200.724 214.534 206.506 210.141 208.951Z" stroke="#FFFAFA" stroke-width="3.7942" stroke-miterlimit="10"/>
    <path d="M100.923 216.676C106.415 231.05 115.477 239.688 123.257 243.825V230.364C115.316 225.588 107.857 215.464 100.923 199.993V216.676Z" fill="#FFFAFA"/>
    <path d="M216.754 321.432L216.823 312.017L224.465 318.461L226.113 314.691L417.752 204.198C420.064 202.873 424.64 203.033 427.317 204.564L510.335 252.143V250.818L522.943 256.942L524.705 256.234L524.476 262.038C524.293 263.295 523.789 263.821 523.011 264.278L323.592 379.569C321.28 380.895 317.207 380.895 314.553 379.341L218.996 324.312C217.532 323.466 216.8 322.438 216.8 321.409L216.754 321.432Z" fill="#2B2B2B"/>
    <path d="M323.661 371.822L523.08 256.828C525.391 255.502 525.094 253.149 522.439 251.617L426.883 196.52C424.228 194.988 420.155 194.806 417.844 196.154L218.425 311.149C216.114 312.474 216.411 314.828 219.065 316.359L314.622 371.457C317.299 372.988 321.35 373.148 323.661 371.822Z" fill="#FFFAFA"/>
    <path d="M196.755 174.375C194.101 175.906 192.316 179.426 192.773 182.237L213.459 309.983C213.917 312.794 216.434 313.845 219.088 312.314L414.984 199.353C417.638 197.822 419.423 194.303 418.966 191.492L398.28 63.7456C397.822 60.9347 395.305 59.8835 392.651 61.4146L196.755 174.375Z" fill="#FFFAFA"/>
    <path d="M184.902 163.109C184.902 163.04 184.902 162.972 184.902 162.88V162.858V162.835C184.902 162.789 184.902 162.743 184.925 162.675C184.925 162.606 184.948 162.538 184.948 162.469C184.948 162.446 184.948 162.401 184.971 162.378C184.971 162.355 184.971 162.355 184.971 162.332C184.971 162.309 184.971 162.286 184.971 162.263C184.971 162.195 184.993 162.126 185.016 162.058C185.039 161.989 185.039 161.921 185.062 161.852C185.085 161.783 185.085 161.715 185.108 161.646C185.131 161.578 185.154 161.509 185.154 161.441C185.154 161.418 185.154 161.395 185.177 161.395C185.177 161.372 185.177 161.372 185.199 161.349C185.199 161.304 185.222 161.281 185.222 161.235C185.245 161.166 185.268 161.098 185.291 161.029C185.314 160.984 185.337 160.938 185.337 160.869V160.847V160.824C185.36 160.755 185.383 160.687 185.405 160.641C185.428 160.572 185.451 160.527 185.474 160.458C185.474 160.435 185.497 160.412 185.497 160.389C185.497 160.389 185.497 160.367 185.52 160.367C185.52 160.344 185.543 160.321 185.543 160.298C185.566 160.229 185.588 160.161 185.634 160.115C185.68 160.07 185.703 159.978 185.726 159.932V159.91C185.726 159.91 185.726 159.887 185.749 159.887C185.772 159.818 185.817 159.75 185.84 159.681C185.863 159.612 185.909 159.567 185.932 159.498C185.955 159.452 185.977 159.407 186 159.384C186 159.361 186.023 159.338 186.023 159.338C186.092 159.247 186.138 159.155 186.206 159.041C186.229 159.018 186.252 158.973 186.275 158.95C186.275 158.95 186.275 158.95 186.275 158.927C186.344 158.813 186.435 158.698 186.527 158.584C186.549 158.561 186.549 158.561 186.572 158.538C186.572 158.516 186.595 158.516 186.595 158.493C186.618 158.447 186.664 158.424 186.687 158.378C186.733 158.31 186.778 158.241 186.847 158.196C186.87 158.173 186.893 158.15 186.916 158.127C186.916 158.104 186.938 158.104 186.938 158.081C186.961 158.058 186.984 158.036 187.007 158.013C187.053 157.944 187.122 157.899 187.167 157.83C187.213 157.784 187.259 157.739 187.282 157.693L187.305 157.67L187.327 157.647C187.373 157.579 187.442 157.533 187.511 157.487C187.579 157.419 187.625 157.373 187.694 157.327C187.762 157.281 187.808 157.213 187.877 157.167C187.945 157.122 188.014 157.053 188.06 157.007L188.083 156.984L188.105 156.962C188.151 156.916 188.197 156.893 188.243 156.847C188.311 156.802 188.38 156.756 188.449 156.71C188.472 156.687 188.494 156.687 188.494 156.664C188.494 156.664 188.517 156.664 188.517 156.642C188.563 156.619 188.586 156.596 188.632 156.573C188.7 156.527 188.769 156.482 188.838 156.459C188.861 156.459 193.574 153.739 193.574 153.716L199.386 157.236C199.386 157.236 194.398 159.841 194.329 159.887C194.261 159.932 194.192 159.978 194.123 160.024C194.055 160.07 193.986 160.115 193.918 160.161C193.849 160.207 193.78 160.252 193.734 160.298C193.712 160.321 193.689 160.344 193.666 160.367C193.574 160.458 193.46 160.527 193.368 160.618C193.277 160.709 193.162 160.801 193.071 160.892C193.048 160.915 193.048 160.915 193.025 160.938C192.934 161.029 192.842 161.121 192.751 161.212C192.728 161.235 192.728 161.235 192.705 161.258C192.613 161.349 192.545 161.441 192.453 161.555C192.43 161.578 192.43 161.601 192.407 161.601C192.339 161.692 192.247 161.806 192.178 161.898C192.133 161.943 192.11 162.012 192.064 162.058C192.018 162.126 191.973 162.195 191.927 162.263C191.881 162.332 191.835 162.423 191.789 162.492C191.767 162.538 191.721 162.583 191.698 162.652C191.675 162.698 191.652 162.743 191.629 162.789C191.584 162.88 191.538 162.949 191.492 163.04C191.469 163.063 191.469 163.086 191.446 163.109C191.378 163.223 191.332 163.337 191.286 163.452C191.286 163.452 191.286 163.475 191.263 163.475C191.217 163.589 191.149 163.726 191.103 163.84C191.103 163.863 191.103 163.863 191.08 163.886C191.034 164 190.989 164.137 190.943 164.252C190.943 164.274 190.943 164.274 190.92 164.297C190.874 164.412 190.828 164.549 190.806 164.663C190.806 164.686 190.806 164.709 190.783 164.709C190.737 164.823 190.714 164.96 190.691 165.074C190.691 165.097 190.691 165.12 190.668 165.12C190.645 165.234 190.623 165.371 190.6 165.486C190.6 165.508 190.6 165.531 190.6 165.531C190.577 165.646 190.554 165.783 190.554 165.897C190.554 165.92 190.554 165.92 190.554 165.943C190.531 166.057 190.531 166.194 190.531 166.308C190.531 166.377 190.531 166.423 190.531 166.491C190.531 166.56 190.531 166.628 190.531 166.697C190.531 166.765 190.531 166.857 190.531 166.925C190.531 166.994 190.531 167.085 190.554 167.154C190.554 167.245 190.577 167.314 190.577 167.405C190.577 167.474 190.6 167.519 190.6 167.588C190.6 167.588 190.623 167.702 190.645 167.931L191.149 171.085C191.446 170.925 192.064 170.559 192.087 170.536L197.991 173.735C197.991 173.735 196.572 174.558 196.503 174.604C196.435 174.65 196.366 174.695 196.297 174.741C196.229 174.787 196.16 174.832 196.091 174.878C196.023 174.924 195.954 174.969 195.908 175.015C195.885 175.038 195.862 175.061 195.84 175.084C195.748 175.175 195.634 175.244 195.542 175.335C195.451 175.427 195.336 175.518 195.245 175.609C195.222 175.632 195.222 175.632 195.199 175.655C195.107 175.746 195.016 175.838 194.924 175.929C194.901 175.952 194.901 175.952 194.879 175.975C194.787 176.066 194.718 176.158 194.627 176.272C194.604 176.295 194.604 176.318 194.581 176.318C194.512 176.409 194.421 176.523 194.352 176.615C194.307 176.661 194.284 176.729 194.238 176.775C194.192 176.843 194.146 176.912 194.101 176.981C194.055 177.049 194.009 177.14 193.963 177.209C193.94 177.255 193.895 177.3 193.872 177.369C193.849 177.415 193.826 177.46 193.803 177.506C193.757 177.598 193.712 177.666 193.666 177.757C193.643 177.78 193.643 177.803 193.62 177.826C193.551 177.94 193.506 178.055 193.46 178.169C193.46 178.169 193.46 178.192 193.437 178.192C193.391 178.306 193.323 178.443 193.277 178.557C193.277 178.58 193.277 178.58 193.254 178.603C193.208 178.717 193.162 178.854 193.117 178.969C193.117 178.992 193.117 178.992 193.094 179.014C193.048 179.129 193.002 179.266 192.979 179.38C192.979 179.403 192.979 179.426 192.957 179.426C192.911 179.54 192.888 179.677 192.865 179.791C192.865 179.814 192.865 179.837 192.842 179.837C192.819 179.951 192.796 180.088 192.773 180.203C192.773 180.226 192.773 180.248 192.773 180.248C192.751 180.363 192.728 180.5 192.728 180.614C192.728 180.637 192.728 180.637 192.728 180.66C192.728 180.705 192.728 180.751 192.705 180.82L211.01 293.826C211.102 294.42 213.436 298.26 212.91 297.94L211.262 296.546L213.207 308.566C213.299 309.16 215.633 313 215.106 312.68L209.638 307.904C208.448 306.898 207.67 305.527 207.418 303.996L187.396 180.454C187.305 179.86 187.144 178.946 187.144 178.946C187.144 178.877 187.122 178.832 187.122 178.763C187.122 178.717 187.122 178.649 187.099 178.603V178.58C187.099 178.557 187.099 178.534 187.099 178.534C187.099 178.466 187.099 178.375 187.076 178.306C187.076 178.237 187.076 178.192 187.076 178.123V178.1V178.077C187.076 178.009 187.076 177.94 187.076 177.872C187.076 177.803 187.076 177.735 187.076 177.643V177.62V177.598C187.076 177.552 187.076 177.506 187.076 177.46L185.177 165.737C185.085 165.143 184.925 164.229 184.925 164.229C184.925 164.16 184.902 164.114 184.902 164.046C184.902 164 184.902 163.932 184.879 163.886V163.863C184.879 163.84 184.879 163.817 184.879 163.817C184.879 163.749 184.879 163.657 184.856 163.589C184.856 163.52 184.856 163.475 184.856 163.406V163.383V163.36C184.902 163.269 184.902 163.177 184.902 163.109Z" fill="#FFFAFA"/>
    <path d="M189.982 157.03L194.261 159.498C194.489 159.635 194.764 159.635 194.97 159.498L389.447 47.3602L390.523 46.7432C390.568 46.7204 390.637 46.6746 390.683 46.6518C390.751 46.6061 390.82 46.5832 390.889 46.5375C391.049 46.4461 391.209 46.3776 391.369 46.3319C391.392 46.3319 391.392 46.3318 391.415 46.309C391.575 46.2633 391.712 46.1947 391.873 46.1719C391.895 46.1719 391.896 46.1719 391.918 46.1719C392.079 46.1262 392.216 46.1033 392.376 46.0805H392.399C392.536 46.0576 392.674 46.0576 392.811 46.0576C392.834 46.0576 392.857 46.0576 392.879 46.0576C393.017 46.0576 393.154 46.0576 393.268 46.0805C393.314 46.0805 393.337 46.0805 393.383 46.1033C393.474 46.1262 393.566 46.1262 393.657 46.149C393.726 46.1719 393.818 46.1947 393.886 46.2176C393.955 46.2404 394.001 46.2633 394.069 46.2861C394.23 46.3547 394.39 46.4233 394.527 46.4918L388.829 43.1782C388.692 43.0868 388.532 43.0182 388.372 42.9725C388.349 42.9725 388.349 42.9497 388.326 42.9497H388.303C388.189 42.904 388.051 42.8811 387.914 42.8354H387.891C387.845 42.8354 387.822 42.8354 387.777 42.8125C387.708 42.8125 387.639 42.7897 387.571 42.7897C387.548 42.7897 387.548 42.7897 387.525 42.7897C387.479 42.7897 387.433 42.7897 387.388 42.7897C387.342 42.7897 387.296 42.7897 387.273 42.7897H387.25C387.159 42.7897 387.067 42.7897 386.976 42.7897H386.953C386.884 42.7897 386.793 42.8125 386.724 42.8125C386.701 42.8125 386.678 42.8125 386.655 42.8125C386.633 42.8125 386.61 42.8125 386.564 42.8354C386.541 42.8354 386.495 42.8354 386.472 42.8583C386.404 42.8811 386.335 42.8811 386.289 42.904H386.266C386.266 42.904 386.266 42.904 386.244 42.904C386.175 42.9268 386.083 42.9497 386.015 42.9725C385.946 42.9954 385.877 43.0182 385.809 43.0411C385.74 43.0639 385.672 43.0868 385.603 43.1096C385.534 43.1325 385.466 43.1553 385.397 43.201C385.328 43.2239 385.26 43.2696 385.191 43.2924C385.122 43.3153 385.054 43.361 384.985 43.4067C384.962 43.4296 384.688 43.5667 384.482 43.7038L384.184 43.8638C384.184 43.8638 384.184 43.8638 384.161 43.8638L190.004 155.819C189.501 156.048 189.501 156.733 189.982 157.03Z" fill="#EDE1E1"/>
    <path d="M194.604 159.498C191.95 161.029 190.165 164.549 190.622 167.36L211.308 295.106C211.766 297.917 214.283 298.968 216.937 297.437L412.833 184.476C415.487 182.945 417.272 179.426 416.814 176.615L396.129 48.8685C395.671 46.0576 393.154 45.0064 390.5 46.5375L194.604 159.498Z" fill="#2B2B2B"/>
    <path d="M201.606 167.725C199.089 169.142 197.373 172.227 197.784 174.581L216.502 281.76C216.914 284.114 219.294 284.891 221.811 283.451L407.616 178.329C410.133 176.912 411.849 173.827 411.437 171.473L392.719 64.2941C392.307 61.9402 389.928 61.1632 387.411 62.603L201.606 167.725Z" fill="#545454"/>
    <path d="M419.995 195.925L218.974 311.788" stroke="#463757" stroke-width="2.4286" stroke-miterlimit="10" stroke-linecap="round" stroke-linejoin="round"/>
    <path d="M413.039 224.217C413.337 224.377 413.932 224.309 414.366 224.057L426.585 217.019C427.02 216.767 427.157 216.424 426.86 216.242L418.76 211.58C418.462 211.42 417.867 211.488 417.433 211.739L405.213 218.778C404.779 219.03 404.641 219.372 404.939 219.555L413.039 224.217Z" fill="#DFDFDF"/>
    <path d="M398.852 245.241C399.149 245.401 399.744 245.356 400.179 245.081L412.398 238.043C412.833 237.792 412.947 237.449 412.65 237.266L404.549 232.604C404.252 232.444 403.657 232.513 403.222 232.764L391.003 239.803C390.545 240.054 390.431 240.397 390.728 240.557L398.852 245.241Z" fill="#DFDFDF"/>
    <path d="M406.037 253.994C406.334 254.154 406.929 254.086 407.364 253.834L419.583 246.796C420.018 246.544 420.155 246.201 419.858 246.041L411.758 241.357C411.46 241.197 410.865 241.265 410.43 241.517L398.211 248.555C397.776 248.807 397.662 249.149 397.937 249.309L406.037 253.994Z" fill="#DFDFDF"/>
    <path d="M425.418 255.662C425.716 255.822 426.311 255.754 426.745 255.502L438.965 248.464C439.399 248.212 439.514 247.87 439.239 247.71L431.139 243.048C430.841 242.888 430.246 242.956 429.812 243.208L417.593 250.246C417.158 250.498 417.043 250.84 417.318 251L425.418 255.662Z" fill="#DFDFDF"/>
    <path d="M459.055 250.772C459.353 250.932 459.947 250.863 460.382 250.612L472.601 243.573C473.036 243.322 473.173 242.979 472.876 242.796L463.357 237.312C463.082 237.152 462.465 237.22 462.03 237.472L449.811 244.51C449.376 244.762 449.261 245.104 449.536 245.264L459.055 250.772Z" fill="#DFDFDF"/>
    <path d="M437.981 262.907C438.278 263.067 438.988 262.952 439.56 262.61L455.577 253.377C456.149 253.057 456.378 252.646 456.104 252.463L446.585 246.978C446.31 246.818 445.578 246.955 445.006 247.275L428.988 256.508C428.416 256.851 428.187 257.262 428.462 257.422L437.981 262.907Z" fill="#DFDFDF"/>
    <path d="M332.791 323.626C333.042 323.763 333.592 323.672 334.026 323.421L346.246 316.382C346.681 316.131 346.864 315.811 346.612 315.673L343.088 313.64C342.836 313.502 342.287 313.594 341.829 313.845L329.61 320.884C329.175 321.135 329.015 321.455 329.244 321.592L332.791 323.626Z" fill="#DFDFDF"/>
    <path d="M316.452 333.293C316.704 333.43 317.253 333.338 317.688 333.087L329.907 326.049C330.342 325.797 330.525 325.477 330.273 325.34L326.749 323.306C326.497 323.169 325.948 323.261 325.491 323.512L313.271 330.55C312.837 330.802 312.677 331.122 312.905 331.259L316.452 333.293Z" fill="#DFDFDF"/>
    <path d="M299.13 343.051C299.359 343.188 299.908 343.097 300.366 342.845L312.585 335.807C313.02 335.555 313.203 335.235 312.974 335.098L309.588 333.133C309.359 332.996 308.787 333.11 308.352 333.361L296.133 340.4C295.698 340.651 295.515 340.971 295.767 341.108L299.13 343.051Z" fill="#DFDFDF"/>
    <path d="M309.794 329.568C310.023 329.705 310.572 329.614 311.029 329.362L323.249 322.324C323.683 322.072 323.866 321.752 323.638 321.615L320.251 319.65C320.022 319.513 319.45 319.627 319.015 319.878L306.796 326.917C306.361 327.168 306.178 327.488 306.43 327.626L309.794 329.568Z" fill="#DFDFDF"/>
    <path d="M353.911 311.354C354.208 311.514 354.803 311.446 355.238 311.194L434.777 265.352C435.212 265.101 435.349 264.758 435.051 264.575L425.532 259.09C425.258 258.93 424.64 258.999 424.205 259.25L344.666 305.093C344.231 305.344 344.094 305.687 344.392 305.87L353.911 311.354Z" fill="#DFDFDF"/>
    <path d="M440.177 259.89C440.2 259.89 440.246 259.89 440.314 259.844L449.65 254.451C449.696 254.428 449.719 254.383 449.719 254.383L449.124 254.04C449.101 254.04 449.055 254.04 448.987 254.085L439.651 259.479C439.605 259.502 439.582 259.547 439.582 259.547L440.177 259.89Z" fill="#DFDFDF"/>
    <path d="M464.112 245.059C464.135 245.059 464.158 245.059 464.181 245.059L468.14 242.773C468.163 242.751 468.163 242.751 468.14 242.728L467.545 242.385C467.522 242.385 467.499 242.385 467.476 242.385L463.517 244.67C463.495 244.693 463.495 244.693 463.517 244.716L464.112 245.059Z" fill="#DFDFDF"/>
    <path d="M408.668 265.329C408.966 265.489 409.561 265.421 409.995 265.169L422.215 258.13C422.649 257.879 422.787 257.536 422.489 257.353L414.389 252.691C414.091 252.531 413.496 252.6 413.062 252.851L400.843 259.89C400.408 260.141 400.293 260.484 400.568 260.667L408.668 265.329Z" fill="#DFDFDF"/>
    <path d="M391.85 275.019C392.147 275.178 392.742 275.11 393.177 274.859L405.396 267.82C405.831 267.569 405.968 267.226 405.671 267.043L397.57 262.381C397.273 262.221 396.678 262.29 396.243 262.541L384.024 269.58C383.589 269.831 383.475 270.174 383.749 270.334L391.85 275.019Z" fill="#DFDFDF"/>
    <path d="M375.008 284.708C375.306 284.868 375.901 284.799 376.335 284.548L388.555 277.51C388.989 277.258 389.104 276.915 388.829 276.755L380.729 272.094C380.431 271.934 379.836 272.002 379.402 272.253L367.182 279.292C366.748 279.543 366.633 279.886 366.908 280.046L375.008 284.708Z" fill="#DFDFDF"/>
    <path d="M358.19 294.421C358.487 294.58 359.082 294.512 359.517 294.261L371.736 287.222C372.171 286.971 372.308 286.628 372.011 286.445L363.91 281.783C363.613 281.623 363.018 281.692 362.583 281.943L350.364 288.982C349.93 289.233 349.815 289.576 350.09 289.736L358.19 294.421Z" fill="#DFDFDF"/>
    <path d="M341.348 304.11C341.646 304.27 342.241 304.201 342.675 303.95L354.895 296.911C355.329 296.66 355.444 296.317 355.169 296.157L347.069 291.495C346.771 291.335 346.176 291.404 345.742 291.655L333.523 298.694C333.088 298.945 332.951 299.288 333.248 299.471L341.348 304.11Z" fill="#DFDFDF"/>
    <path d="M324.507 313.8C324.804 313.959 325.399 313.891 325.834 313.64L338.053 306.601C338.488 306.35 338.626 306.007 338.328 305.824L330.228 301.162C329.93 301.002 329.335 301.071 328.9 301.322L316.681 308.361C316.246 308.612 316.132 308.955 316.407 309.138L324.507 313.8Z" fill="#DFDFDF"/>
    <path d="M286.614 335.647C286.912 335.807 287.507 335.738 287.941 335.487L321.235 316.29C321.67 316.039 321.784 315.696 321.51 315.536L313.409 310.874C313.112 310.714 312.517 310.783 312.082 311.034L278.788 330.231C278.354 330.482 278.239 330.825 278.514 331.008L286.614 335.647Z" fill="#DFDFDF"/>
    <path d="M389.287 262.678C389.585 262.838 390.157 262.769 390.614 262.518L402.834 255.48C403.268 255.228 403.406 254.885 403.108 254.725L395.008 250.041C394.71 249.881 394.115 249.949 393.681 250.201L381.461 257.239C381.027 257.491 380.912 257.833 381.187 257.993L389.287 262.678Z" fill="#DFDFDF"/>
    <path d="M372.446 273.327C372.743 273.487 373.338 273.419 373.773 273.167L385.992 266.129C386.427 265.877 386.541 265.535 386.266 265.375L378.166 260.69C377.869 260.53 377.274 260.599 376.839 260.85L364.62 267.889C364.185 268.14 364.071 268.483 364.345 268.643L372.446 273.327Z" fill="#DFDFDF"/>
    <path d="M355.627 283.04C355.924 283.2 356.519 283.131 356.954 282.88L369.173 275.841C369.608 275.59 369.745 275.247 369.448 275.064L361.347 270.379C361.05 270.22 360.455 270.288 360.02 270.539L347.801 277.578C347.366 277.829 347.252 278.172 347.526 278.332L355.627 283.04Z" fill="#DFDFDF"/>
    <path d="M338.785 292.729C339.083 292.889 339.678 292.821 340.113 292.569L352.332 285.531C352.767 285.279 352.904 284.937 352.606 284.777L344.506 280.092C344.209 279.932 343.614 280 343.179 280.252L330.96 287.29C330.525 287.542 330.411 287.885 330.685 288.045L338.785 292.729Z" fill="#DFDFDF"/>
    <path d="M321.944 302.419C322.242 302.579 322.837 302.51 323.272 302.259L335.491 295.22C335.926 294.969 336.063 294.626 335.765 294.466L327.665 289.781C327.368 289.621 326.795 289.69 326.338 289.941L314.118 296.98C313.684 297.231 313.569 297.574 313.844 297.734L321.944 302.419Z" fill="#DFDFDF"/>
    <path d="M305.126 312.131C305.423 312.291 306.018 312.223 306.453 311.971L318.672 304.933C319.107 304.681 319.244 304.339 318.947 304.156L310.846 299.471C310.549 299.311 309.954 299.38 309.519 299.631L297.3 306.669C296.865 306.921 296.751 307.264 297.025 307.424L305.126 312.131Z" fill="#DFDFDF"/>
    <path d="M288.307 321.821C288.605 321.981 289.2 321.912 289.635 321.661L301.854 314.622C302.289 314.371 302.403 314.028 302.128 313.868L294.028 309.183C293.73 309.023 293.158 309.092 292.701 309.343L280.482 316.382C280.047 316.633 279.932 316.976 280.207 317.136L288.307 321.821Z" fill="#DFDFDF"/>
    <path d="M382.102 254.908C382.4 255.068 382.994 255 383.429 254.748L395.648 247.71C396.083 247.458 396.198 247.115 395.9 246.955L387.8 242.294C387.502 242.134 386.907 242.202 386.473 242.453L374.253 249.492C373.819 249.744 373.704 250.086 373.979 250.246L382.102 254.908Z" fill="#DFDFDF"/>
    <path d="M365.283 264.598C365.581 264.758 366.176 264.689 366.61 264.438L378.829 257.399C379.264 257.148 379.402 256.805 379.104 256.622L371.004 251.96C370.706 251.8 370.111 251.869 369.677 252.12L357.457 259.159C357.023 259.41 356.908 259.753 357.183 259.913L365.283 264.598Z" fill="#DFDFDF"/>
    <path d="M348.442 274.287C348.739 274.447 349.334 274.379 349.769 274.127L361.988 267.089C362.423 266.837 362.537 266.495 362.24 266.335L354.14 261.673C353.842 261.513 353.247 261.581 352.812 261.833L340.593 268.871C340.158 269.123 340.021 269.465 340.319 269.625L348.442 274.287Z" fill="#DFDFDF"/>
    <path d="M331.624 284C331.921 284.16 332.516 284.114 332.951 283.84L345.17 276.801C345.605 276.55 345.742 276.207 345.444 276.024L337.344 271.362C337.047 271.202 336.452 271.271 336.017 271.522L323.798 278.561C323.363 278.812 323.249 279.155 323.523 279.315L331.624 284Z" fill="#DFDFDF"/>
    <path d="M314.782 293.689C315.08 293.849 315.674 293.781 316.109 293.552L328.328 286.513C328.763 286.262 328.878 285.919 328.603 285.736L320.503 281.075C320.205 280.915 319.633 280.983 319.175 281.235L306.956 288.273C306.522 288.525 306.407 288.867 306.682 289.027L314.782 293.689Z" fill="#DFDFDF"/>
    <path d="M297.963 303.402C298.261 303.562 298.856 303.493 299.291 303.242L311.51 296.203C311.945 295.952 312.059 295.609 311.762 295.426L303.684 290.764C303.387 290.604 302.792 290.673 302.357 290.924L290.138 297.963C289.703 298.214 289.566 298.557 289.863 298.74L297.963 303.402Z" fill="#DFDFDF"/>
    <path d="M281.122 313.091C281.42 313.251 282.015 313.182 282.449 312.931L294.668 305.892C295.103 305.641 295.218 305.298 294.943 305.116L286.843 300.454C286.545 300.294 285.95 300.362 285.516 300.614L273.296 307.652C272.862 307.904 272.747 308.246 273.022 308.406L281.122 313.091Z" fill="#DFDFDF"/>
    <path d="M415.693 235.552C415.991 235.712 416.585 235.643 417.02 235.392L437.752 223.44C438.186 223.189 438.324 222.846 438.026 222.663L429.926 218.001C429.628 217.841 429.033 217.91 428.599 218.161L407.867 230.113C407.433 230.364 407.295 230.707 407.593 230.867L415.693 235.552Z" fill="#DFDFDF"/>
    <path d="M253.16 316.359C253.457 316.519 254.052 316.451 254.487 316.199L275.218 304.247C275.653 303.996 275.768 303.653 275.493 303.493L267.393 298.831C267.095 298.671 266.5 298.74 266.066 298.991L245.334 310.943C244.899 311.194 244.762 311.537 245.06 311.72L253.16 316.359Z" fill="#DFDFDF"/>
    <path d="M422.855 244.282C423.153 244.442 423.748 244.373 424.183 244.122L448.896 229.885C449.33 229.633 449.468 229.29 449.17 229.13L441.07 224.446C440.772 224.286 440.177 224.354 439.743 224.606L415.03 238.843C414.595 239.094 414.48 239.437 414.755 239.597L422.855 244.282Z" fill="#DFDFDF"/>
    <path d="M442.237 245.973C442.534 246.133 443.129 246.064 443.564 245.813L460.039 236.329C460.474 236.078 460.588 235.735 460.314 235.552L452.213 230.89C451.916 230.73 451.321 230.799 450.886 231.05L434.411 240.534C433.976 240.785 433.862 241.128 434.136 241.311L442.237 245.973Z" fill="#DFDFDF"/>
    <path d="M396.22 233.907C396.518 234.066 397.113 233.998 397.548 233.747L409.767 226.708C410.202 226.457 410.339 226.114 410.041 225.931L401.941 221.269C401.644 221.109 401.049 221.178 400.614 221.429L388.395 228.468C387.96 228.719 387.823 229.062 388.12 229.245L396.22 233.907Z" fill="#DFDFDF"/>
    <path d="M379.448 243.573C379.745 243.733 380.34 243.665 380.775 243.413L392.994 236.375C393.429 236.123 393.543 235.781 393.269 235.598L385.168 230.936C384.871 230.776 384.276 230.844 383.841 231.096L371.622 238.134C371.187 238.386 371.05 238.729 371.347 238.911L379.448 243.573Z" fill="#DFDFDF"/>
    <path d="M362.629 253.263C362.927 253.423 363.522 253.377 363.956 253.103L376.176 246.064C376.61 245.813 376.725 245.47 376.45 245.31L368.35 240.648C368.052 240.488 367.457 240.557 367.023 240.808L354.803 247.847C354.369 248.098 354.254 248.441 354.529 248.601L362.629 253.263Z" fill="#DFDFDF"/>
    <path d="M345.811 262.952C346.108 263.112 346.703 263.044 347.138 262.792L359.357 255.754C359.792 255.502 359.929 255.16 359.631 254.977L351.531 250.315C351.234 250.155 350.639 250.223 350.204 250.475L337.985 257.513C337.55 257.765 337.413 258.108 337.71 258.29L345.811 262.952Z" fill="#DFDFDF"/>
    <path d="M328.969 272.665C329.267 272.825 329.839 272.779 330.296 272.505L342.515 265.466C342.95 265.215 343.087 264.872 342.79 264.689L334.69 260.027C334.392 259.867 333.797 259.936 333.363 260.187L321.144 267.226C320.709 267.477 320.594 267.82 320.892 267.98L328.969 272.665Z" fill="#DFDFDF"/>
    <path d="M312.128 282.354C312.425 282.514 313.02 282.446 313.455 282.194L325.674 275.156C326.109 274.904 326.223 274.561 325.926 274.402L317.826 269.74C317.528 269.58 316.933 269.648 316.498 269.9L304.279 276.938C303.844 277.19 303.73 277.532 304.004 277.692L312.128 282.354Z" fill="#DFDFDF"/>
    <path d="M295.31 292.067C295.607 292.227 296.202 292.158 296.637 291.907L308.856 284.868C309.291 284.617 309.428 284.274 309.13 284.091L301.03 279.429C300.733 279.269 300.138 279.338 299.703 279.589L287.484 286.628C287.049 286.879 286.912 287.222 287.209 287.405L295.31 292.067Z" fill="#DFDFDF"/>
    <path d="M278.49 301.756C278.788 301.916 279.383 301.848 279.817 301.596L292.06 294.558C292.494 294.306 292.609 293.963 292.311 293.803L284.211 289.142C283.913 288.982 283.319 289.05 282.884 289.301L270.642 296.34C270.207 296.591 270.092 296.934 270.39 297.094L278.49 301.756Z" fill="#DFDFDF"/>
    <path d="M268.697 310.303C268.903 310.189 269.154 310.097 269.406 310.075C269.658 310.052 269.864 310.075 270.001 310.166L278.101 314.828C278.239 314.896 278.307 315.034 278.239 315.171C278.193 315.331 278.033 315.468 277.827 315.582L274.646 317.41L285.264 323.535C285.401 323.603 285.447 323.74 285.401 323.878C285.355 324.038 285.195 324.175 284.989 324.289L276.751 329.042C276.545 329.156 276.294 329.248 276.042 329.271C275.79 329.294 275.562 329.271 275.424 329.202L256.18 318.096C256.043 318.027 255.997 317.89 256.043 317.753C256.089 317.593 256.249 317.456 256.455 317.342L268.697 310.303Z" fill="#DFDFDF"/>
    <path d="M444.434 242.042C444.457 242.042 444.502 242.042 444.571 241.996L453.907 236.603C453.953 236.58 453.976 236.535 453.976 236.535L453.381 236.192C453.358 236.192 453.312 236.192 453.243 236.238L443.908 241.631C443.862 241.654 443.839 241.699 443.839 241.699L444.434 242.042Z" fill="#DFDFDF"/>
    <path d="M395.694 320.153L439.834 295.426C440.337 295.129 440.337 294.649 439.811 294.352L421.047 283.565C420.521 283.268 419.674 283.246 419.171 283.543L375.031 308.269C374.528 308.566 374.528 309.046 375.054 309.343L393.817 320.13C394.344 320.427 395.19 320.427 395.694 320.153Z" fill="#DFDFDF"/>
    <path d="M231.444 270.494L393.566 177.003C396.243 175.45 397.936 171.29 397.342 167.68L383.246 81.3194C382.651 77.7087 380.02 76.0633 377.342 77.5944L215.221 171.085C212.543 172.639 210.85 176.798 211.445 180.409L225.541 266.769C226.113 270.357 228.767 272.025 231.444 270.494Z" fill="#FFFAFA"/>
    <path d="M213.024 190.052L211.308 179.494C210.804 176.386 212.91 172.433 216.022 170.627L376.564 78.0514C379.676 76.246 382.605 77.3201 383.109 80.4052L384.825 90.9631L213.024 190.052Z" fill="#7C7C7C"/>
    <path d="M244.831 163.223C245.128 164.526 246.272 165.074 247.393 164.412C248.514 163.772 249.178 162.195 248.881 160.892C248.583 159.59 247.439 159.041 246.318 159.704C245.219 160.344 244.556 161.921 244.831 163.223Z" fill="white"/>
    <path d="M236.662 167.931C236.959 169.234 238.103 169.782 239.224 169.119C240.346 168.479 241.009 166.903 240.712 165.6C240.414 164.297 239.27 163.749 238.149 164.412C237.051 165.051 236.387 166.628 236.662 167.931Z" fill="white"/>
    <path d="M232.385 172.126C232.904 170.716 232.488 169.266 231.456 168.887C230.424 168.508 229.167 169.344 228.648 170.754C228.129 172.163 228.545 173.613 229.577 173.992C230.609 174.371 231.866 173.536 232.385 172.126Z" fill="white"/>
    <path d="M744.169 303.356L745.999 516H361.324L744.169 303.356Z" fill="#F8F8F8"/>
    <path d="M743.551 276.71L738.952 333.361L436.928 516H358.167L743.551 276.71Z" fill="#EAEAEA"/>
    <path d="M351.554 130.338L355.421 133.606L359.174 124.465" stroke="white" stroke-width="2.9823" stroke-miterlimit="10" stroke-linecap="round" stroke-linejoin="round"/>
    <path opacity="0.34" d="M418.484 264.849C418.873 262.404 423.793 260.416 430.223 258.885C428.004 258.176 426.425 256.759 426.127 254.268C426.127 254.268 429.971 252.989 434.777 251.777C433.816 250.978 433.198 249.858 433.015 248.372C433.015 248.372 445.348 244.259 453.403 243.916C456.195 243.665 462.556 243.413 470.313 245.333C478.116 247.275 480.77 250.566 498.069 261.078L589.37 281.326L577.357 325.957L487.04 286.559L475.782 287.976L454.616 282.743C454.616 282.743 442.717 283.588 442.008 278.629C441.207 273.099 455.119 275.361 455.119 275.361L465.348 276.71C468.276 276.687 469.604 276.733 470.084 273.922C470.382 272.253 468.254 271.111 468.185 270.791C468.025 270.06 443.449 265.923 443.449 265.923C443.449 265.923 416.906 274.607 418.484 264.849Z" fill="#DFDFDF"/>
    <path opacity="0.34" d="M452.831 411.495C400.407 405.05 307.894 344.445 307.894 344.445L334.049 323.101L445.211 371.023L452.831 411.495Z" fill="#DFDFDF"/>
    <path d="M510.518 399.543C497.658 410.992 493.836 418.51 474.981 416.042C450.429 412.82 368.144 367.595 346.566 350.684C338.122 344.056 344.804 322.369 354.849 326.277C378.83 335.624 447.683 365.218 470.199 368.692C472.167 368.989 491.068 367.595 491.983 367.069C493.722 366.109 528.32 383.706 510.518 399.543Z" fill="#FCE0E0"/>
    <path d="M644.402 233.632L612.779 175.267C608.294 162.629 603.878 152.483 591.247 156.984L587.494 158.31C574.84 162.789 562.094 177.141 566.579 189.778L592.208 251.892C596.716 264.506 648.887 246.27 644.402 233.632Z" fill="#FCE0E0"/>
    <path d="M443.449 250.84C443.449 250.84 416.906 259.547 418.484 249.789C418.873 247.344 423.793 245.356 430.223 243.825C428.004 243.116 426.425 241.699 426.127 239.208C426.127 239.208 429.971 237.929 434.777 236.717C433.816 235.918 433.198 234.798 433.015 233.312C433.015 233.312 445.348 229.199 453.403 228.856C456.195 228.605 462.556 228.353 470.313 230.273C478.299 232.261 480.908 235.666 499.397 246.795C499.397 246.795 498.71 247.413 497.635 248.281C501.067 249.949 503.218 253.583 502.898 257.513L502.852 257.97C502.28 264.758 497.04 270.22 490.289 271.065L475.736 272.893L454.57 267.66C454.57 267.66 442.671 268.506 441.962 263.547C441.161 258.016 455.073 260.279 455.073 260.279L465.302 261.627C468.231 261.604 469.558 261.65 470.039 258.839C470.336 257.171 468.208 256.028 468.139 255.708C468.025 254.954 443.449 250.84 443.449 250.84Z" fill="#FCE0E0"/>
    <path d="M430.223 243.802L444.891 240.145L470.221 247.984" stroke="#F2C8C8" stroke-width="3.6829" stroke-miterlimit="10"/>
    <path d="M434.777 236.717C435.624 236.009 449.65 232.398 449.65 232.398L474.981 240.237" stroke="#F2C8C8" stroke-width="3.6829" stroke-miterlimit="10"/>
    <path d="M498.092 246.018L589.393 266.266L577.357 310.875L484.065 270.174L498.092 246.018Z" fill="#FCE0E0"/>
    <path d="M555.779 263.135C568.364 257.491 579.141 250.863 589.072 243.87C646.141 237.357 642.937 210.323 642.937 210.323C669.779 199.719 689.366 217.75 703.85 258.93C710.738 278.515 729.067 372.531 729.067 372.531C729.067 372.554 740.233 500.186 728.884 504.231L573.65 513.623C573.65 513.623 578.318 466.455 575.366 433.113C573.856 415.974 551.156 376.005 544.452 364.83C543.994 364.075 536.923 375.57 536.695 374.976C532.484 364.03 533.674 353.152 539.166 341.726C528.686 319.193 517.634 280.275 555.779 263.135Z" fill="#EEEEEE"/>
    <path d="M589.622 324.54L513.286 400.48C488.573 418.556 455.554 377.947 474.707 361.402L536.718 276.71C548.525 262.244 571.293 261.947 580.812 272.573C590.743 283.634 601.086 311.948 589.622 324.54Z" fill="#EEEEEE"/>
    <path d="M302.677 290.17C302.609 290.238 301.213 291.884 301.991 294.329C301.991 294.352 301.991 294.375 302.014 294.375C303.432 298.762 310.686 302.602 323.615 305.847C324.049 306.052 325.514 307.104 327.527 308.566C323.134 307.812 317.894 308.338 314.279 310.12C299.931 317.205 294.851 323.261 294.645 323.512L294.371 323.855L294.44 324.289C294.462 324.449 294.737 325.934 296.545 326.757C300.046 328.357 306.659 326.117 316.178 320.13C318.741 318.53 322.036 318.324 326.017 319.513C323.386 319.193 320.823 319.604 318.741 320.678C312.242 324.083 300.229 334.001 299.725 334.435L299.245 334.824L299.382 335.418C299.405 335.578 299.794 336.904 301.51 337.566C302.105 337.795 302.792 337.909 303.57 337.932C303.364 338.046 303.249 338.115 303.249 338.115L302.38 338.618L302.906 339.486C306.75 345.885 313.844 342 319.038 339.166C319.702 338.8 320.365 338.435 320.983 338.115C323.409 336.835 327.116 335.921 329.518 337.543C336.177 342.023 340.753 345.77 342.401 348.124C342.813 348.696 347.183 352.74 347.755 353.38C358.693 365.424 373.59 351.872 370.134 335.738C357.206 323.055 341.371 301.756 331.097 298.762L330.96 298.671L303.112 289.599L302.677 290.17Z" fill="#FCE0E0"/>
    <path d="M304.782 337.543L326.612 326.209L337.87 332.219" stroke="#F2C8C8" stroke-width="3.6829" stroke-miterlimit="10"/>
    <path d="M325.971 319.536L334.049 323.101" stroke="#F2C8C8" stroke-width="3.6829" stroke-miterlimit="10"/>
    <path d="M568.021 257.079C617.95 247.161 648.681 280.457 653.052 207.649C653.052 207.649 639.391 206.278 635.181 213.591C627.813 226.434 627.286 233.495 606.509 233.335C595.754 233.267 581.979 232.764 578.844 238.043L568.021 257.079Z" fill="white"/>
    <path d="M537.999 375.456L513.286 400.023C504.316 406.581 494.248 405.416 485.988 400.457C502.944 399.314 511.364 387.842 530.951 368.852C534.132 365.789 537.999 375.456 537.999 375.456Z" fill="#D9D9D9"/>
    <path d="M533.331 116.695C533.331 116.695 522.142 130.567 524.979 145.878C525.528 148.803 527.038 156.047 527.862 159.407C529.807 167.428 527.862 167.862 525.482 175.975C525.208 176.889 523.217 179.86 520.906 185.733C520.494 186.761 520.517 187.927 520.975 188.955C521.936 191.126 524.224 194.349 529.533 193.549C531.844 193.206 532.278 196.748 533.514 201.821C535.459 209.843 538.891 218.001 543.262 220.675C551.66 225.84 580.949 215.167 580.949 215.167L589.484 162.72L533.331 116.695Z" fill="#FCE0E0"/>
    <path d="M582.849 229.108C582.849 229.108 587.815 215.419 585.275 209.134C583.375 212.265 581.018 215.007 577.7 216.676L582.849 229.108Z" fill="#F2C8C8"/>
    <path d="M546.123 369.674C546.123 369.674 572.643 414.923 574.314 428.063C575.984 441.203 573.696 513.623 573.696 513.623L589.416 513.509L611.749 445.66L575.732 337.498C573.49 330.756 564.085 340.949 558.822 345.748L529.693 369.949L537.999 375.479L546.123 369.674Z" fill="#D9D9D9"/>
    <path d="M534.613 188.293C534.613 188.293 535.116 191.126 532.897 192.909" stroke="#F2C8C8" stroke-width="3.9584" stroke-miterlimit="10" stroke-linecap="round" stroke-linejoin="round"/>
    <path d="M576.075 335.098C576.075 335.098 608.545 290.513 568.021 258.93" stroke="#D9D9D9" stroke-width="4.8571" stroke-miterlimit="10" stroke-linecap="round" stroke-linejoin="round"/>
    <path d="M616.898 187.493C621.405 186.03 624.563 181.963 624.815 177.232C625.57 163.406 625.959 134.566 617.859 116.627C606.898 92.3572 546.466 126.248 546.466 126.248L585.572 189.115C586.212 190.144 587.334 191.172 588.707 192.063C594.45 195.857 601.91 195.925 607.928 192.543L616.898 187.493Z" fill="#2B2B2B"/>
    <path d="M525.757 150.037C525.895 151.614 504.912 110.959 546.672 94.9166C613.694 69.1845 620.033 124.602 620.033 124.602C620.033 124.602 594.954 148.598 558.525 135.48C549.875 142.404 531.203 143.021 525.78 138.565C525.803 138.565 525.002 141.056 525.757 150.037Z" fill="#2B2B2B"/>
    <path d="M583.093 185.099C588.708 184.618 592.694 177.642 591.996 169.519C591.298 161.396 586.18 155.201 580.564 155.683C574.949 156.164 570.962 163.139 571.661 171.262C572.359 179.385 577.477 185.58 583.093 185.099Z" fill="#FCE0E0"/>
    <path d="M598.34 474.477L574.726 468.992L574.657 432.702L465.851 498.495L531.249 516H589.393L598.34 474.477Z" fill="#2A2A2A"/>
    <path d="M653.601 476.122C619.896 482.315 585.663 489.194 567.357 476.122C558.937 470.477 566.007 463.69 571.591 466.547C594.771 475.322 622.092 469.449 653.578 465.107C656.324 465.107 658.567 467.347 658.567 470.089V471.117C658.59 473.905 656.347 476.122 653.601 476.122Z" fill="black"/>
    <path d="M518.915 394.789C518.915 394.789 487.978 370.931 484.065 356.054C480.175 341.177 469.992 358.065 469.992 358.065C469.992 358.065 462.144 379.661 473.471 391.636C484.82 403.611 497.543 424.429 518.915 394.789Z" fill="#D9D9D9"/>
    <path opacity="0.34" d="M344.117 467.187L377.274 448.082C379.356 446.871 379.104 444.745 376.679 443.351L313.913 407.153C311.487 405.759 307.803 405.599 305.721 406.81L272.564 425.915C270.482 427.126 270.734 429.251 273.159 430.645L335.925 466.844C338.351 468.238 342.035 468.375 344.117 467.187Z" fill="#D7D7D7"/>
    <path d="M264.532 428.886V428.84V428.817L264.669 425.846L267.003 426.235L299.107 407.724C301.19 406.513 304.897 406.673 307.299 408.067L368.693 443.466L372.216 444.06L372.079 446.939C372.079 447.716 371.621 448.447 370.683 448.996L337.527 468.101C335.444 469.312 331.738 469.152 329.335 467.758L266.569 431.559C265.196 430.828 264.509 429.823 264.532 428.886Z" fill="#FFFAFA"/>
    <path d="M337.617 465.244L370.773 446.139C372.856 444.928 372.604 442.803 370.179 441.409L307.412 405.21C304.987 403.816 301.303 403.656 299.22 404.867L266.064 423.972C263.981 425.184 264.233 427.309 266.659 428.703L329.425 464.902C331.851 466.296 335.535 466.456 337.617 465.244Z" fill="black"/>
    <path d="M329.152 464.764L370.477 441.592L306.956 404.982L266.203 428.429L329.152 464.764Z" fill="#2B2B2B"/>
    <path opacity="0.34" d="M213.116 495.501L200.965 488.485L191.904 483.252C190.004 482.155 185.748 481.538 182.224 483.572C180.028 484.852 179.685 486.383 179.685 487.183C179.685 488.44 180.44 489.651 181.675 490.359L196.091 498.678C196.251 498.769 196.434 498.815 196.617 498.815C196.984 498.815 197.327 498.632 197.51 498.289C197.807 497.786 197.624 497.147 197.121 496.872L182.705 488.554C182.11 488.211 181.767 487.686 181.767 487.183C181.767 486.566 182.293 485.926 183.254 485.377C186.023 483.778 189.432 484.235 190.851 485.057L192.453 485.994C191.629 486.177 190.828 486.452 190.119 486.863C188.792 487.64 188.014 488.737 188.014 489.879C188.014 490.908 188.586 491.799 189.661 492.393L205.107 501.306C206.022 501.831 207.212 502.083 208.448 502.083C209.912 502.083 211.422 501.717 212.635 501.032C213.962 500.255 214.74 499.158 214.74 498.015C214.74 497.009 214.168 496.095 213.116 495.501ZM211.605 499.226C210.027 500.14 207.487 500.254 206.159 499.5L190.714 490.588C190.485 490.451 190.119 490.199 190.119 489.857C190.119 489.582 190.393 489.102 191.171 488.645C191.744 488.325 192.43 488.097 193.139 487.983C193.231 488.12 193.345 488.257 193.505 488.325L207.166 496.21C207.326 496.301 207.509 496.347 207.693 496.347C208.059 496.347 208.402 496.164 208.585 495.821C208.676 495.661 208.722 495.501 208.722 495.341L212.086 497.284C212.315 497.421 212.681 497.672 212.681 498.015C212.658 498.289 212.383 498.792 211.605 499.226Z" fill="#9746B3"/>
    <path d="M206.617 493.216C206.434 493.216 206.251 493.17 206.091 493.079L192.43 485.195C191.927 484.897 191.766 484.28 192.041 483.778C192.339 483.275 192.956 483.115 193.46 483.389L207.121 491.273C207.624 491.571 207.784 492.188 207.51 492.69C207.327 493.01 206.983 493.216 206.617 493.216Z" fill="#9746B3"/>
    <path d="M207.418 498.929C206.182 498.929 204.992 498.678 204.077 498.152L188.631 489.24C187.579 488.622 186.984 487.731 186.984 486.726C186.984 485.583 187.762 484.486 189.089 483.709C191.332 482.407 194.627 482.292 196.617 483.435L212.063 492.348C213.116 492.965 213.711 493.856 213.711 494.861C213.711 496.004 212.933 497.101 211.605 497.878C210.393 498.586 208.86 498.929 207.418 498.929ZM193.299 484.738C192.201 484.738 191.011 485.012 190.142 485.515C189.364 485.972 189.089 486.451 189.089 486.726C189.089 487.046 189.455 487.32 189.684 487.457L205.13 496.37C206.457 497.124 208.997 497.009 210.576 496.095C211.354 495.638 211.628 495.158 211.628 494.884C211.628 494.564 211.262 494.29 211.033 494.153L195.588 485.24C194.993 484.897 194.169 484.738 193.299 484.738Z" fill="#9746B3"/>
    <path d="M195.565 495.661C195.382 495.661 195.199 495.615 195.039 495.524L180.623 487.206C179.387 486.497 178.632 485.286 178.632 484.029C178.632 483.229 178.952 481.698 181.172 480.418C184.696 478.384 188.952 479.002 190.851 480.098L205.267 488.417C205.77 488.714 205.931 489.331 205.656 489.834C205.359 490.337 204.741 490.496 204.237 490.222L189.821 481.904C188.403 481.081 184.993 480.624 182.224 482.224C181.263 482.772 180.737 483.412 180.737 484.029C180.737 484.532 181.103 485.057 181.675 485.4L196.091 493.719C196.595 494.016 196.755 494.633 196.48 495.136C196.274 495.478 195.908 495.661 195.565 495.661Z" fill="#9746B3"/>
    <path d="M210.484 443.877L293.936 395.772V390.882L176.687 328.174L93.2576 371.411V376.279L210.484 443.877Z" fill="#2B2B2B"/>
    <path d="M210.484 439.009L293.936 390.882L176.687 323.283L93.2576 371.411L210.484 439.009Z" fill="#545454"/>
    <path d="M121.472 495.615L207.509 446.002V440.975L86.6219 376.324L0.584229 420.887V425.938L121.472 495.615Z" fill="#2B2B2B"/>
    <path d="M121.472 490.588L207.509 440.975L86.6219 371.297L0.584229 420.887L121.472 490.588Z" fill="#545454"/>
    <path d="M89.1393 380.671H92.4573V378.454H89.1393V380.671Z" fill="#DD4078"/>
    <path d="M124.081 483.526C124.081 483.526 161.768 462.959 197.67 440.243C197.808 440.152 197.67 432.999 197.67 432.999C179.342 421.39 91.3588 377.421 91.3588 377.421L16.9683 420.636L124.081 483.526Z" fill="#DDDDDD"/>
    <path d="M124.081 476.282C124.081 476.282 161.768 455.715 197.67 432.999C198.814 432.154 91.3588 370.2 91.3588 370.2L16.9683 413.414L124.081 476.282Z" fill="white"/>
    <path d="M210.278 432.976C210.278 432.976 247.966 412.409 283.868 389.693C284.005 389.602 283.868 382.449 283.868 382.449C265.539 370.84 177.557 326.871 177.557 326.871L103.166 362.841V370.086L210.278 432.976Z" fill="#DDDDDD"/>
    <path d="M210.278 425.755C210.278 425.755 247.966 405.187 283.868 382.472C285.012 381.626 177.557 319.673 177.557 319.673L103.166 362.887L210.278 425.755Z" fill="white"/>
    <path d="M19.2103 412.089L7.79199 418.579L25.4801 428.429L49.0033 429.411L19.2103 412.089Z" fill="#FFFAFA"/>
    <path d="M49.6894 413.871L92.5481 389.168L83.0062 383.66L40.1475 408.364L49.6894 413.871Z" stroke="#DEDEDE" stroke-width="2.7858" stroke-miterlimit="10" stroke-linecap="round" stroke-linejoin="round"/>
    <path d="M125.728 463.21L132.913 459.074L125.774 454.96L118.589 459.097L125.728 463.21Z" stroke="#DEDEDE" stroke-width="2.7858" stroke-miterlimit="10" stroke-linecap="round" stroke-linejoin="round"/>
    <path d="M162.866 433.616L129.709 452.447" stroke="#DEDEDE" stroke-width="2.7858" stroke-miterlimit="10" stroke-linecap="round" stroke-linejoin="round"/>
    <path d="M154.148 445.797L135.156 456.56" stroke="#DEDEDE" stroke-width="2.7858" stroke-miterlimit="10" stroke-linecap="round" stroke-linejoin="round"/>
    <path d="M113.189 455.875L120.351 451.715L113.234 447.602L106.049 451.761L113.189 455.875Z" stroke="#DEDEDE" stroke-width="2.7858" stroke-miterlimit="10" stroke-linecap="round" stroke-linejoin="round"/>
    <path d="M150.327 426.28L117.17 445.088" stroke="#DEDEDE" stroke-width="2.7858" stroke-miterlimit="10" stroke-linecap="round" stroke-linejoin="round"/>
    <path d="M141.609 438.461L122.616 449.224" stroke="#DEDEDE" stroke-width="2.7858" stroke-miterlimit="10" stroke-linecap="round" stroke-linejoin="round"/>
    <path d="M100.649 448.516L107.811 444.38L100.672 440.266L93.5095 444.403L100.649 448.516Z" stroke="#DEDEDE" stroke-width="2.7858" stroke-miterlimit="10" stroke-linecap="round" stroke-linejoin="round"/>
    <path d="M137.764 418.945L104.607 437.752" stroke="#DEDEDE" stroke-width="2.7858" stroke-miterlimit="10" stroke-linecap="round" stroke-linejoin="round"/>
    <path d="M129.046 431.125L110.076 441.889" stroke="#DEDEDE" stroke-width="2.7858" stroke-miterlimit="10" stroke-linecap="round" stroke-linejoin="round"/>
    <path d="M88.0862 441.18L95.2712 437.044L88.1319 432.931L80.9697 437.067L88.0862 441.18Z" stroke="#DEDEDE" stroke-width="2.7858" stroke-miterlimit="10" stroke-linecap="round" stroke-linejoin="round"/>
    <path d="M125.224 411.609L92.0676 430.417" stroke="#DEDEDE" stroke-width="2.7858" stroke-miterlimit="10" stroke-linecap="round" stroke-linejoin="round"/>
    <path d="M116.506 423.767L97.5366 434.553" stroke="#DEDEDE" stroke-width="2.7858" stroke-miterlimit="10" stroke-linecap="round" stroke-linejoin="round"/>
    <path d="M75.547 433.845L82.7321 429.708L75.5928 425.595L68.4077 429.731L75.547 433.845Z" stroke="#DEDEDE" stroke-width="2.7858" stroke-miterlimit="10" stroke-linecap="round" stroke-linejoin="round"/>
    <path d="M112.685 404.273L79.5288 423.081" stroke="#DEDEDE" stroke-width="2.7858" stroke-miterlimit="10" stroke-linecap="round" stroke-linejoin="round"/>
    <path d="M103.967 416.431L84.9976 427.195" stroke="#DEDEDE" stroke-width="2.7858" stroke-miterlimit="10" stroke-linecap="round" stroke-linejoin="round"/>
    <path d="M63.0074 426.509L70.1925 422.373L63.0532 418.259L55.8682 422.395L63.0074 426.509Z" stroke="#DEDEDE" stroke-width="2.7858" stroke-miterlimit="10" stroke-linecap="round" stroke-linejoin="round"/>
    <path d="M100.146 396.915L66.9895 415.745" stroke="#DEDEDE" stroke-width="2.7858" stroke-miterlimit="10" stroke-linecap="round" stroke-linejoin="round"/>
    <path d="M91.4269 409.095L72.4346 419.859" stroke="#DEDEDE" stroke-width="2.7858" stroke-miterlimit="10" stroke-linecap="round" stroke-linejoin="round"/>
    <path d="M137.375 362.682L177.854 339.326L168.838 334.138L128.359 357.494L137.375 362.682Z" stroke="#DEDEDE" stroke-width="2.7858" stroke-miterlimit="10" stroke-linecap="round" stroke-linejoin="round"/>
    <path d="M152.111 371.297L192.59 347.942L183.575 342.731L143.096 366.087L152.111 371.297Z" stroke="#DEDEDE" stroke-width="2.7858" stroke-miterlimit="10" stroke-linecap="round" stroke-linejoin="round"/>
    <path d="M166.847 379.889L207.349 356.534L198.333 351.346L157.832 374.702L166.847 379.889Z" stroke="#DEDEDE" stroke-width="2.7858" stroke-miterlimit="10" stroke-linecap="round" stroke-linejoin="round"/>
    <path d="M181.584 388.505L222.085 365.15L213.07 359.939L172.568 383.295L181.584 388.505Z" stroke="#DEDEDE" stroke-width="2.7858" stroke-miterlimit="10" stroke-linecap="round" stroke-linejoin="round"/>
    <path d="M196.32 397.098L236.822 373.742L227.806 368.555L187.304 391.91L196.32 397.098Z" stroke="#DEDEDE" stroke-width="2.7858" stroke-miterlimit="10" stroke-linecap="round" stroke-linejoin="round"/>
    <path d="M211.056 405.713L251.558 382.358L242.543 377.147L202.041 400.503L211.056 405.713Z" stroke="#DEDEDE" stroke-width="2.7858" stroke-miterlimit="10" stroke-linecap="round" stroke-linejoin="round"/>
    <path d="M194.764 413.666C195.825 413.666 196.686 413.185 196.686 412.592C196.686 411.998 195.825 411.518 194.764 411.518C193.702 411.518 192.842 411.998 192.842 412.592C192.842 413.185 193.702 413.666 194.764 413.666Z" fill="#EDE1E1"/>
    <path d="M174.421 422.853C174.421 423.447 175.291 423.927 176.344 423.927C177.396 423.927 178.266 423.447 178.266 422.853C178.266 422.258 177.396 421.779 176.344 421.779C175.291 421.779 174.421 422.258 174.421 422.853Z" fill="#EDE1E1"/>
    <path d="M194.764 412.249C194.764 406.421 190.645 404.068 185.565 407.016C180.485 409.941 176.366 417.048 176.366 422.875" stroke="#433878" stroke-width="2.7858" stroke-miterlimit="10" stroke-linecap="round" stroke-linejoin="round"/>
    <path d="M177.076 402.948C177.076 403.542 177.946 404.022 178.998 404.022C180.051 404.022 180.92 403.542 180.92 402.948C180.92 402.354 180.051 401.874 178.998 401.874C177.923 401.874 177.076 402.354 177.076 402.948Z" fill="#EDE1E1"/>
    <path d="M160.578 414.306C161.64 414.306 162.5 413.825 162.5 413.232C162.5 412.638 161.64 412.157 160.578 412.157C159.516 412.157 158.656 412.638 158.656 413.232C158.656 413.825 159.516 414.306 160.578 414.306Z" fill="#EDE1E1"/>
    <path d="M178.998 402.605C178.998 396.778 174.879 394.424 169.799 397.372C164.719 400.297 160.601 407.404 160.601 413.231" stroke="#433878" stroke-width="2.7858" stroke-miterlimit="10" stroke-linecap="round" stroke-linejoin="round"/>
    <path d="M163.209 394.378C164.271 394.378 165.131 393.897 165.131 393.304C165.131 392.711 164.271 392.23 163.209 392.23C162.147 392.23 161.287 392.711 161.287 393.304C161.287 393.897 162.147 394.378 163.209 394.378Z" fill="#EDE1E1"/>
    <path d="M144.789 404.662C145.85 404.662 146.711 404.181 146.711 403.588C146.711 402.994 145.85 402.514 144.789 402.514C143.727 402.514 142.867 402.994 142.867 403.588C142.867 404.181 143.727 404.662 144.789 404.662Z" fill="#EDE1E1"/>
    <path d="M163.209 392.961C163.209 387.134 159.09 384.78 154.01 387.728C148.93 390.653 144.812 397.76 144.812 403.588" stroke="#433878" stroke-width="2.7858" stroke-miterlimit="10" stroke-linecap="round" stroke-linejoin="round"/>
    <path d="M147.008 384.871C148.07 384.871 148.93 384.39 148.93 383.797C148.93 383.204 148.07 382.723 147.008 382.723C145.947 382.723 145.086 383.204 145.086 383.797C145.086 384.39 145.947 384.871 147.008 384.871Z" fill="#EDE1E1"/>
    <path d="M128.588 395.132C129.649 395.132 130.51 394.651 130.51 394.058C130.51 393.465 129.649 392.984 128.588 392.984C127.526 392.984 126.666 393.465 126.666 394.058C126.666 394.651 127.526 395.132 128.588 395.132Z" fill="#EDE1E1"/>
    <path d="M147.008 383.432C147.008 377.604 142.889 375.25 137.809 378.198C132.729 381.146 128.611 388.231 128.611 394.058" stroke="#433878" stroke-width="2.7858" stroke-miterlimit="10" stroke-linecap="round" stroke-linejoin="round"/>
    <path d="M131.105 375.639C132.167 375.639 133.027 375.158 133.027 374.565C133.027 373.972 132.167 373.491 131.105 373.491C130.043 373.491 129.183 373.972 129.183 374.565C129.183 375.158 130.043 375.639 131.105 375.639Z" fill="#EDE1E1"/>
    <path d="M110.763 384.848C110.763 385.443 111.632 385.923 112.685 385.923C113.737 385.923 114.607 385.443 114.607 384.848C114.607 384.254 113.737 383.774 112.685 383.774C111.632 383.752 110.763 384.254 110.763 384.848Z" fill="#EDE1E1"/>
    <path d="M131.105 374.222C131.105 368.395 126.986 366.041 121.906 368.989C116.826 371.914 112.708 379.021 112.708 384.848" stroke="#433878" stroke-width="2.7858" stroke-miterlimit="10" stroke-linecap="round" stroke-linejoin="round"/>
    <path opacity="0.34" d="M243.961 360.899C244.075 361.516 244.029 362.11 243.869 362.636C243.869 362.658 243.869 362.658 243.869 362.681C243.503 363.87 242.519 364.738 241.261 364.829L239.911 364.944L167.03 370.68C166.618 370.703 166.184 370.657 165.795 370.52L157.122 369.446L151.768 368.532L156.527 367.115L164.605 363.733C164.948 363.55 165.337 363.413 165.772 363.39L234.877 357.951L239.979 357.539C240.323 357.517 240.666 357.539 240.986 357.631C241.215 357.677 241.421 357.768 241.627 357.859C241.833 357.951 242.039 358.065 242.222 358.202C242.405 358.339 242.588 358.499 242.771 358.659C242.862 358.751 242.931 358.842 243.023 358.933C243.503 359.459 243.846 360.145 243.961 360.899Z" fill="#727272"/>
    <path d="M159.708 365.332C159.937 367.32 161.676 368.829 163.575 368.692L240.712 363.161C242.611 363.024 244.007 361.287 243.778 359.299C243.549 357.311 241.81 355.803 239.911 355.94L162.774 361.47C160.852 361.607 159.479 363.344 159.708 365.332Z" fill="#9746B3"/>
    <path d="M159.708 365.332L243.778 359.299C243.549 357.311 241.81 355.803 239.911 355.94L162.774 361.47C160.852 361.607 159.479 363.344 159.708 365.332Z" fill="#B265D0"/>
    <path d="M163.575 368.692L153.415 367.458L152.958 365.127L161.538 361.813L164.124 362.567L162.889 364.441L164.65 365.904L163.323 367.092L165.177 367.892L163.575 368.692Z" fill="#D4B3B3"/>
    <path d="M153.209 366.406L152.958 365.127L161.539 361.813L164.124 362.567L162.889 364.441L164.651 365.904L153.209 366.406Z" fill="#F7D1D2"/>
    <path d="M147.924 366.521L153.415 367.458L152.958 365.127L147.924 366.521Z" fill="#56446B"/>
    <path d="M243.755 359.299C243.984 361.287 242.588 363.024 240.689 363.161L235.357 363.55C235.769 361.745 235.86 359.208 234.556 356.328L239.865 355.94C241.81 355.803 243.549 357.311 243.755 359.299Z" fill="#7C64BA"/>
    <path d="M233.687 363.664C233.687 363.664 234.968 359.711 232.451 356.465" stroke="#FFFAFA" stroke-width="1.8831" stroke-miterlimit="10" stroke-linecap="round" stroke-linejoin="round"/>
    <path d="M754 516L589 515.696C589.165 512.939 589.682 509.316 590.316 506.559L620.496 379.731C625.949 356.758 642.613 333.786 662.145 322.265L753.976 268V516H754Z" fill="#545454"/>
    <path d="M745.954 516H632.343L650.672 399.703C658.681 365.881 706.962 344.468 735.611 327.511L745.954 321.729C746.045 323.101 745.954 516 745.954 516Z" fill="#2A2A2A"/>
    <path d="M296.133 434.233L320.983 419.905C322.127 419.242 321.99 418.076 320.663 417.299L312.494 412.592C311.166 411.815 309.153 411.746 307.986 412.409L283.136 426.737C281.991 427.4 282.129 428.566 283.456 429.343L291.625 434.05C292.952 434.827 294.966 434.919 296.133 434.233Z" fill="white"/>
    <path d="M293.072 431.452C296.168 431.435 298.67 429.969 298.66 428.176C298.65 426.384 296.133 424.945 293.036 424.962C289.94 424.979 287.438 426.445 287.448 428.237C287.458 430.029 289.976 431.469 293.072 431.452Z" fill="#D7D7D7"/>
    <path d="M312.654 415.265L297.666 423.949" stroke="#D7D7D7" stroke-width="1.9227" stroke-miterlimit="10" stroke-linecap="round" stroke-linejoin="round"/>
    <path d="M315.422 417.642L307.642 422.144" stroke="#D7D7D7" stroke-width="1.9227" stroke-miterlimit="10" stroke-linecap="round" stroke-linejoin="round"/>
    <path d="M315.4 445.774L340.25 431.445C341.394 430.782 341.257 429.617 339.929 428.84L331.76 424.132C330.433 423.355 328.42 423.287 327.253 423.949L302.402 438.278C301.258 438.941 301.396 440.106 302.723 440.883L310.892 445.591C312.219 446.345 314.255 446.436 315.4 445.774Z" fill="#B265D0"/>
    <path d="M312.339 442.97C315.435 442.953 317.937 441.487 317.928 439.694C317.918 437.902 315.4 436.463 312.304 436.48C309.208 436.497 306.706 437.963 306.715 439.755C306.725 441.547 309.243 442.987 312.339 442.97Z" fill="white"/>
    <path d="M331.944 426.806L316.956 435.49" stroke="white" stroke-width="1.9227" stroke-miterlimit="10" stroke-linecap="round" stroke-linejoin="round"/>
    <path d="M334.712 429.16L326.91 433.685" stroke="white" stroke-width="1.9227" stroke-miterlimit="10" stroke-linecap="round" stroke-linejoin="round"/>
    <path d="M334.689 457.314L359.54 442.986C360.684 442.323 360.547 441.157 359.219 440.38L351.05 435.673C349.723 434.896 347.71 434.827 346.543 435.49L321.692 449.819C320.548 450.481 320.685 451.647 322.013 452.424L330.182 457.131C331.509 457.886 333.522 457.977 334.689 457.314Z" fill="white"/>
    <path d="M331.629 454.511C334.725 454.494 337.228 453.027 337.218 451.235C337.208 449.443 334.69 448.004 331.594 448.02C328.498 448.037 325.996 449.504 326.005 451.296C326.015 453.088 328.533 454.527 331.629 454.511Z" fill="#D7D7D7"/>
    <path d="M351.211 438.324L336.223 447.008" stroke="#D7D7D7" stroke-width="1.9227" stroke-miterlimit="10" stroke-linecap="round" stroke-linejoin="round"/>
    <path d="M353.979 440.7L346.199 445.202" stroke="#D7D7D7" stroke-width="1.9227" stroke-miterlimit="10" stroke-linecap="round" stroke-linejoin="round"/>
    <path d="M582.689 170.376C583.398 173.553 581.384 176.729 579.737 177.095C578.112 177.46 579.165 174.512 578.455 171.336C577.746 168.159 575.526 165.943 577.174 165.577C578.776 165.189 581.979 167.177 582.689 170.376Z" fill="#F2C8C8"/>
    <path d="M571.431 170.925C571.431 170.925 571.225 162.812 574.702 159.384" stroke="#F2C8C8" stroke-width="3.9584" stroke-miterlimit="10" stroke-linecap="round" stroke-linejoin="round"/>
    <path opacity="0.34" d="M336.749 198.759L304.141 217.955C295.08 223.28 286.362 218.847 284.737 208.083L282.678 194.463C281.053 183.699 287.14 170.536 296.201 165.211L328.809 146.015C337.87 140.69 346.588 145.124 348.213 155.888L350.272 169.508C351.897 180.271 345.81 193.434 336.749 198.759Z" fill="#DFDFDF"/>
    <path d="M333.362 194.006L300.755 213.202C291.694 218.527 282.975 214.093 281.351 203.33L279.291 189.709C277.667 178.946 283.753 165.783 292.815 160.458L325.422 141.262C334.484 135.937 343.202 140.371 344.826 151.134L346.886 164.754C348.51 175.518 342.424 188.681 333.362 194.006Z" fill="#197BC0"/>
    <path d="M308.878 191.743L306.018 172.73C305.789 171.199 307.002 169.393 308.26 169.393L325.697 169.485C327.092 169.485 327.413 171.656 326.246 173.187L311.67 192.109C310.617 193.48 309.107 193.274 308.878 191.743Z" fill="white"/>
    <path opacity="0.34" d="M280.664 195.057L268.33 202.324C260.985 206.643 256.065 217.293 257.37 226.022C258.674 234.729 265.745 238.34 273.09 234.021L285.424 226.754C285.721 226.571 286.041 226.365 286.339 226.182L286.225 226.297L293.982 226.937L291.922 220.492C295.378 215.419 297.231 208.837 296.384 203.078C295.08 194.326 288.009 190.738 280.664 195.057Z" fill="#DFDFDF"/>
    <path opacity="0.34" d="M354.689 129.356L340.204 137.88C334.415 141.285 330.502 149.717 331.532 156.619L331.783 158.356C332.813 165.234 338.419 168.091 344.209 164.686L358.693 156.162C364.482 152.757 368.395 144.324 367.366 137.423L367.114 135.686C366.084 128.784 360.501 125.928 354.689 129.356Z" fill="#E3CFCF"/>
    <path d="M281.373 227.393L269.04 234.661C261.695 238.98 254.624 235.392 253.32 226.662C252.015 217.955 256.935 207.283 264.28 202.964L276.614 195.697C283.959 191.378 291.03 194.966 292.334 203.695C293.638 212.402 288.719 223.074 281.373 227.393Z" fill="#C4C4C4"/>
    <path d="M282.174 226.914L289.932 227.554L287.872 221.086L282.174 226.914Z" fill="#C4C4C4"/>
    <path d="M267.265 219.675C267.93 218.106 267.611 216.471 266.552 216.023C265.493 215.575 264.095 216.484 263.43 218.053C262.764 219.622 263.083 221.257 264.142 221.705C265.201 222.153 266.599 221.244 267.265 219.675Z" fill="white"/>
    <path d="M274.657 215.327C275.323 213.758 275.004 212.123 273.945 211.675C272.886 211.227 271.488 212.136 270.823 213.705C270.157 215.274 270.476 216.909 271.535 217.357C272.594 217.805 273.992 216.896 274.657 215.327Z" fill="white"/>
    <path d="M282.06 210.959C282.726 209.39 282.407 207.755 281.348 207.307C280.289 206.859 278.891 207.767 278.225 209.336C277.56 210.905 277.879 212.54 278.938 212.988C279.997 213.436 281.395 212.528 282.06 210.959Z" fill="white"/>
    <path d="M361.119 149.032L346.634 157.556C340.845 160.961 335.239 158.127 334.209 151.226L333.957 149.489C332.928 142.61 336.818 134.178 342.63 130.75L357.114 122.226C362.903 118.821 368.51 121.654 369.539 128.556L369.791 130.293C370.821 137.194 366.931 145.627 361.119 149.032Z" fill="#2B2B2B"/>
    <path d="M338.9 139.456L361.828 125.951" stroke="#FFFAFA" stroke-width="2.4286" stroke-miterlimit="10" stroke-linecap="round" stroke-linejoin="round"/>
    <path d="M339.861 145.969L362.812 132.464" stroke="#FFFAFA" stroke-width="2.4286" stroke-miterlimit="10" stroke-linecap="round" stroke-linejoin="round"/>
    <path d="M340.845 152.505L356.656 143.204" stroke="#FFFAFA" stroke-width="2.4286" stroke-miterlimit="10" stroke-linecap="round" stroke-linejoin="round"/>
</svg>
