<svg width="197" height="197" viewBox="0 0 197 197" fill="none" xmlns="http://www.w3.org/2000/svg">
    <g clip-path="url(#clip0_1959_90327)">
        <path d="M12.7308 52.4519L7.99414 56.332L28.9532 81.9171L33.6898 78.0369L12.7308 52.4519Z" fill="#2A2A2A"/>
        <path d="M128.697 67.4791L108.719 86.5311L112.105 90.0821L132.084 71.0301L128.697 67.4791Z" fill="#2A2A2A"/>
        <path d="M164.453 75.3734L159.96 76.9138L176.545 125.285L181.037 123.744L164.453 75.3734Z" fill="#2A2A2A"/>
        <path d="M179.986 141.529C189.383 140.869 196.466 132.716 195.806 123.32C195.146 113.923 186.994 106.84 177.597 107.499C168.2 108.159 161.117 116.312 161.777 125.709C162.436 135.106 170.589 142.188 179.986 141.529Z" fill="#2A2A2A"/>
        <path d="M177.528 50.695C177.528 65.1476 165.812 76.8638 151.359 76.8638C136.907 76.8638 125.191 65.1476 125.191 50.695C125.191 36.2423 136.907 24.5261 151.359 24.5261C165.812 24.5261 177.528 36.2423 177.528 50.695Z" stroke="#2A2A2A" stroke-width="6.56667"/>
        <path d="M67.7439 164.136C54.9852 164.121 42.7531 159.047 33.7312 150.025C24.7094 141.003 19.6346 128.771 19.6202 116.012C19.6349 103.254 24.7099 91.0217 33.7317 82.0001C42.7535 72.9785 54.9854 67.9039 67.7439 67.8895C79.7328 67.9041 91.2856 72.388 100.145 80.4651C109.005 88.5422 114.535 99.6322 115.655 111.569L122.011 110.978C120.865 97.411 114.637 84.7774 104.575 75.605C94.5133 66.4326 81.3588 61.398 67.7439 61.5086C53.2937 61.5245 39.4398 67.2718 29.2218 77.4894C19.0037 87.7071 13.2558 101.561 13.2393 116.011C13.2555 130.461 19.0032 144.315 29.2213 154.534C39.4394 164.752 53.2934 170.499 67.7439 170.516C79.9757 170.499 91.8473 166.374 101.455 158.804C111.062 151.233 117.849 140.655 120.726 128.767L114.478 127.467C108.875 147.835 89.8665 164.136 67.7439 164.136Z" fill="#B265D0"/>
        <path d="M118.829 114.447C120.591 114.447 122.02 113.018 122.02 111.256C122.02 109.493 120.591 108.065 118.829 108.065C117.066 108.065 115.638 109.493 115.638 111.256C115.638 113.018 117.066 114.447 118.829 114.447Z" fill="#B265D0"/>
        <path d="M117.621 131.217C119.383 131.217 120.812 129.788 120.812 128.026C120.812 126.264 119.383 124.835 117.621 124.835C115.858 124.835 114.43 126.264 114.43 128.026C114.43 129.788 115.858 131.217 117.621 131.217Z" fill="#B265D0"/>
        <path d="M118.919 122.988C120.681 122.988 122.11 121.56 122.11 119.797C122.11 118.035 120.681 116.606 118.919 116.606C117.156 116.606 115.728 118.035 115.728 119.797C115.728 121.56 117.156 122.988 118.919 122.988Z" fill="#B265D0"/>
        <path d="M67.7431 116.541C71.4191 116.541 74.9446 115.081 77.5441 112.482C80.1437 109.883 81.6044 106.358 81.605 102.682C81.6037 99.0062 80.1427 95.4816 77.5433 92.883C74.9438 90.2844 71.4187 88.8246 67.7431 88.8246C65.9229 88.8248 64.1206 89.1834 62.439 89.8801C60.7574 90.5768 59.2295 91.598 57.9425 92.8852C56.6555 94.1724 55.6347 95.7004 54.9383 97.3821C54.2418 99.0638 53.8835 100.866 53.8836 102.686C53.8836 106.362 55.3438 109.887 57.943 112.487C60.5421 115.086 64.0674 116.546 67.7431 116.546V116.541ZM80.5488 125.213H54.9351C52.0485 125.325 49.3242 126.578 47.3594 128.695C45.3946 130.813 44.3495 133.623 44.4533 136.51V139.773C44.4211 140.652 44.739 141.507 45.3372 142.151C45.9354 142.795 46.7649 143.175 47.6433 143.208H87.8525C88.7304 143.174 89.5592 142.793 90.1571 142.149C90.755 141.506 91.0733 140.651 91.0424 139.773V136.514C91.1465 133.626 90.1014 130.815 88.136 128.696C86.1707 126.578 83.4457 125.325 80.5583 125.213H80.5488Z" fill="#2A2A2A"/>
        <path d="M179.986 141.529C189.383 140.869 196.466 132.716 195.806 123.32C195.146 113.923 186.994 106.84 177.597 107.499C168.2 108.159 161.117 116.312 161.777 125.709C162.436 135.106 170.589 142.188 179.986 141.529Z" fill="#2A2A2A"/>
        <path d="M11.5557 66.6217C17.9377 66.6217 23.1114 61.4481 23.1114 55.066C23.1114 48.684 17.9377 43.5103 11.5557 43.5103C5.17366 43.5103 0 48.684 0 55.066C0 61.4481 5.17366 66.6217 11.5557 66.6217Z" fill="#2A2A2A"/>
    </g>
    <defs>
        <clipPath id="clip0_1959_90327">
            <rect width="197" height="197" fill="white"/>
        </clipPath>
    </defs>
</svg>
